<?xml version="1.0" encoding="UTF-8"?>
<svg version="1.1" xmlns="http://www.w3.org/2000/svg" width="1180" height="1024">
<path d="M0 0 C58.31136277 -0.06880482 116.62272312 -0.12160508 174.93411833 -0.15319599 C181.83270656 -0.15693747 188.73129471 -0.1608272 195.62988281 -0.16479492 C196.31631585 -0.1651872 197.00274888 -0.16557948 197.70998292 -0.16598364 C219.8941583 -0.17873059 242.07831051 -0.20123652 264.2624719 -0.22889166 C287.74029596 -0.25810583 311.21809945 -0.27601248 334.69594288 -0.28226548 C348.73624653 -0.28636294 362.7764836 -0.29926066 376.81676674 -0.3237494 C386.47065156 -0.33972032 396.12450242 -0.34437494 405.77839947 -0.34050413 C411.33164001 -0.33860008 416.88476497 -0.34132562 422.43798447 -0.35761642 C513.9383111 -0.61226346 599.02378108 21.35271051 671 80 C671.55671387 80.45084961 672.11342773 80.90169922 672.68701172 81.36621094 C681.74449517 88.76661348 690.08959911 96.88320315 698.375 105.125 C698.88528748 105.63002045 699.39557495 106.13504089 699.92132568 106.65536499 C706.74268709 113.42220055 713.02746303 120.4628014 719 128 C720.02423592 129.24345188 721.05118897 130.48467564 722.08203125 131.72265625 C738.16321263 151.28574549 751.17958546 173.13742554 762 196 C762.35271973 196.73734375 762.70543945 197.4746875 763.06884766 198.234375 C785.92169554 246.29894435 797.20891473 299.36003355 797.25 352.5 C797.25101212 353.69687943 797.25101212 353.69687943 797.25204468 354.91793823 C797.13745584 441.33826668 764.8083361 521.9549999 706.44921875 585.3046875 C704.50608471 587.44306468 702.61000292 589.60608155 700.72265625 591.79296875 C696.89610637 596.17587376 692.86557621 600.32659899 688.75 604.4375 C688.00274658 605.18394775 687.25549316 605.93039551 686.4855957 606.69946289 C681.70794373 611.42453956 676.86546023 615.84309529 671.5703125 619.984375 C668.82436275 622.13773377 666.20351529 624.40695755 663.5625 626.6875 C583.19840562 693.43405849 479.40434816 706.48447362 378.77085733 706.20278788 C373.4072109 706.19001072 368.04356043 706.18908935 362.67990112 706.18673706 C352.59113604 706.18059951 342.50241597 706.16429713 332.41367042 706.14403808 C320.89910896 706.12143366 309.38454498 706.11062493 297.86996675 706.10064721 C274.24661985 706.07992093 250.62331248 706.04490089 227 706 C226.54155748 707.92614167 226.54155748 707.92614167 226.07385349 709.8911953 C213.0587844 764.57259891 200.00654717 819.24475695 186.83761978 873.88931274 C185.93575217 877.63225385 185.03439201 881.37531685 184.13314819 885.1184082 C182.71679703 891.00030825 181.29900875 896.88185996 179.87999725 902.76311874 C179.35772073 904.92845561 178.83585774 907.09389227 178.31443024 909.25943375 C177.60401907 912.20922947 176.89196686 915.15862407 176.17944336 918.10791016 C175.9713589 918.97340233 175.76327444 919.8388945 175.54888439 920.73061371 C174.79087651 923.86207748 174.01938107 926.9418568 173 930 C48.26 930 -76.48 930 -205 930 C-194.67188141 881.80211326 -194.67188141 881.80211326 -190.5234375 863.04296875 C-190.03886866 860.84685424 -189.55442757 858.65071155 -189.07009888 856.45454407 C-188.04195866 851.7934392 -187.01310794 847.13249206 -185.98364258 842.47167969 C-184.31518999 834.91762181 -182.64857167 827.36315983 -180.98242188 819.80859375 C-180.76643695 818.82928859 -180.76643695 818.82928859 -180.5460887 817.83019948 C-179.80749846 814.48128474 -179.06894128 811.13236272 -178.33040619 807.78343582 C-177.72776931 805.0507744 -177.12506969 802.31812683 -176.52231598 799.58549118 C-171.78010766 778.08614047 -167.04690709 756.58481986 -162.3203125 735.08203125 C-162.15992996 734.35240575 -161.99954742 733.62278024 -161.83430481 732.87104487 C-159.87948063 723.9778839 -157.92496275 715.08465561 -155.97054911 706.1914044 C-152.87407947 692.10145483 -149.77710604 678.011616 -146.6796875 663.921875 C-146.43944603 662.82904013 -146.43944603 662.82904013 -146.1943512 661.71412778 C-141.32483896 639.56348797 -136.45028886 617.41396183 -131.5703125 595.265625 C-131.42139588 594.58974964 -131.27247927 593.91387428 -131.11905003 593.21751785 C-128.15743998 579.77613206 -125.19495349 566.33493951 -122.23174667 552.89390564 C-120.97994201 547.21574565 -119.72822931 541.53756538 -118.4765625 535.859375 C-118.24028893 534.78755981 -118.00401535 533.71574463 -117.76058197 532.6114502 C-114.09231355 515.9698496 -110.43330131 499.32623197 -106.78335571 482.68060303 C-106.52186171 481.4882819 -106.52186171 481.4882819 -106.25508499 480.27187347 C-105.93730501 478.82278784 -105.61963281 477.37367856 -105.30210495 475.92453766 C-104.55859918 472.53396602 -103.81059959 469.14445328 -103.05654907 465.75621033 C-101.80768597 460.14215298 -100.57400944 454.52477431 -99.33984375 448.9074707 C-98.94762634 447.12292229 -98.94762634 447.12292229 -98.54748535 445.30232239 C-97.97781094 442.71032461 -97.4081727 440.11831892 -96.83859253 437.52630043 C-95.91799707 433.33693761 -94.99722437 429.14761376 -94.07641602 424.95829773 C-93.91814551 424.23822629 -93.75987501 423.51815485 -93.59680843 422.77626306 C-93.27155594 421.29648646 -92.94630308 419.81670994 -92.62104988 418.33693349 C-92.11938205 416.05451839 -91.61772597 413.7721007 -91.11607361 411.4896822 C-80.09007605 361.32365327 -69.05715874 311.15917133 -58 261 C-50.97529054 229.13321934 -43.95641137 197.26516793 -36.94921875 165.39453125 C-36.69160822 164.22284779 -36.69160822 164.22284779 -36.42879343 163.02749395 C-33.19861903 148.335594 -29.96899473 133.64357313 -26.73999023 118.95141602 C-26.58214109 118.23319487 -26.42429195 117.51497372 -26.2616595 116.77498829 C-25.47553602 113.19806955 -24.68943237 109.62114644 -23.90335274 106.04421806 C-22.3818572 99.12107684 -20.85995552 92.1980253 -19.33712769 85.275177 C-18.89131942 83.24841262 -18.44551795 81.22164675 -17.99972367 79.19487929 C-17.70468935 77.85353261 -17.40964592 76.51218792 -17.11459327 75.17084527 C-15.28677564 66.86082484 -13.46236754 58.55006627 -11.64218086 50.23837095 C-10.41499281 44.63465121 -9.18615698 39.03129457 -7.9561277 33.4281978 C-7.23253739 30.13154366 -6.50991977 26.83468296 -5.78964806 23.53730202 C-5.00384977 19.94189828 -4.21483304 16.34721546 -3.42504883 12.75268555 C-3.0762778 11.15088346 -3.0762778 11.15088346 -2.72046089 9.51672173 C-2.4003671 8.06443515 -2.4003671 8.06443515 -2.07380676 6.58280945 C-1.88938428 5.74064219 -1.7049618 4.89847494 -1.51495075 4.03078747 C-1 2 -1 2 0 0 Z " fill="#012D61" transform="translate(258,48)"/>
<path d="M0 0 C58.31136277 -0.06880482 116.62272312 -0.12160508 174.93411833 -0.15319599 C181.83270656 -0.15693747 188.73129471 -0.1608272 195.62988281 -0.16479492 C196.31631585 -0.1651872 197.00274888 -0.16557948 197.70998292 -0.16598364 C219.8941583 -0.17873059 242.07831051 -0.20123652 264.2624719 -0.22889166 C287.74029596 -0.25810583 311.21809945 -0.27601248 334.69594288 -0.28226548 C348.73624653 -0.28636294 362.7764836 -0.29926066 376.81676674 -0.3237494 C386.47065156 -0.33972032 396.12450242 -0.34437494 405.77839947 -0.34050413 C411.33164001 -0.33860008 416.88476497 -0.34132562 422.43798447 -0.35761642 C513.9383111 -0.61226346 599.02378108 21.35271051 671 80 C671.55671387 80.45084961 672.11342773 80.90169922 672.68701172 81.36621094 C681.74449517 88.76661348 690.08959911 96.88320315 698.375 105.125 C698.88528748 105.63002045 699.39557495 106.13504089 699.92132568 106.65536499 C706.74268709 113.42220055 713.02746303 120.4628014 719 128 C720.02423592 129.24345188 721.05118897 130.48467564 722.08203125 131.72265625 C738.16321263 151.28574549 751.17958546 173.13742554 762 196 C762.35271973 196.73734375 762.70543945 197.4746875 763.06884766 198.234375 C785.92169554 246.29894435 797.20891473 299.36003355 797.25 352.5 C797.25101212 353.69687943 797.25101212 353.69687943 797.25204468 354.91793823 C797.13745584 441.33826668 764.8083361 521.9549999 706.44921875 585.3046875 C704.50608471 587.44306468 702.61000292 589.60608155 700.72265625 591.79296875 C696.89610637 596.17587376 692.86557621 600.32659899 688.75 604.4375 C688.00274658 605.18394775 687.25549316 605.93039551 686.4855957 606.69946289 C681.70794373 611.42453956 676.86546023 615.84309529 671.5703125 619.984375 C668.82436275 622.13773377 666.20351529 624.40695755 663.5625 626.6875 C583.19840562 693.43405849 479.40434816 706.48447362 378.77085733 706.20278788 C373.4072109 706.19001072 368.04356043 706.18908935 362.67990112 706.18673706 C352.59113604 706.18059951 342.50241597 706.16429713 332.41367042 706.14403808 C320.89910896 706.12143366 309.38454498 706.11062493 297.86996675 706.10064721 C274.24661985 706.07992093 250.62331248 706.04490089 227 706 C226.54155748 707.92614167 226.54155748 707.92614167 226.07385349 709.8911953 C213.0587844 764.57259891 200.00654717 819.24475695 186.83761978 873.88931274 C185.93575217 877.63225385 185.03439201 881.37531685 184.13314819 885.1184082 C182.71679703 891.00030825 181.29900875 896.88185996 179.87999725 902.76311874 C179.35772073 904.92845561 178.83585774 907.09389227 178.31443024 909.25943375 C177.60401907 912.20922947 176.89196686 915.15862407 176.17944336 918.10791016 C175.9713589 918.97340233 175.76327444 919.8388945 175.54888439 920.73061371 C174.79087651 923.86207748 174.01938107 926.9418568 173 930 C48.26 930 -76.48 930 -205 930 C-194.67188141 881.80211326 -194.67188141 881.80211326 -190.5234375 863.04296875 C-190.03886866 860.84685424 -189.55442757 858.65071155 -189.07009888 856.45454407 C-188.04195866 851.7934392 -187.01310794 847.13249206 -185.98364258 842.47167969 C-184.31518999 834.91762181 -182.64857167 827.36315983 -180.98242188 819.80859375 C-180.76643695 818.82928859 -180.76643695 818.82928859 -180.5460887 817.83019948 C-179.80749846 814.48128474 -179.06894128 811.13236272 -178.33040619 807.78343582 C-177.72776931 805.0507744 -177.12506969 802.31812683 -176.52231598 799.58549118 C-171.78010766 778.08614047 -167.04690709 756.58481986 -162.3203125 735.08203125 C-162.15992996 734.35240575 -161.99954742 733.62278024 -161.83430481 732.87104487 C-159.87948063 723.9778839 -157.92496275 715.08465561 -155.97054911 706.1914044 C-152.87407947 692.10145483 -149.77710604 678.011616 -146.6796875 663.921875 C-146.43944603 662.82904013 -146.43944603 662.82904013 -146.1943512 661.71412778 C-141.32483896 639.56348797 -136.45028886 617.41396183 -131.5703125 595.265625 C-131.42139588 594.58974964 -131.27247927 593.91387428 -131.11905003 593.21751785 C-128.15743998 579.77613206 -125.19495349 566.33493951 -122.23174667 552.89390564 C-120.97994201 547.21574565 -119.72822931 541.53756538 -118.4765625 535.859375 C-118.24028893 534.78755981 -118.00401535 533.71574463 -117.76058197 532.6114502 C-114.09231355 515.9698496 -110.43330131 499.32623197 -106.78335571 482.68060303 C-106.52186171 481.4882819 -106.52186171 481.4882819 -106.25508499 480.27187347 C-105.93730501 478.82278784 -105.61963281 477.37367856 -105.30210495 475.92453766 C-104.55859918 472.53396602 -103.81059959 469.14445328 -103.05654907 465.75621033 C-101.80768597 460.14215298 -100.57400944 454.52477431 -99.33984375 448.9074707 C-98.94762634 447.12292229 -98.94762634 447.12292229 -98.54748535 445.30232239 C-97.97781094 442.71032461 -97.4081727 440.11831892 -96.83859253 437.52630043 C-95.91799707 433.33693761 -94.99722437 429.14761376 -94.07641602 424.95829773 C-93.91814551 424.23822629 -93.75987501 423.51815485 -93.59680843 422.77626306 C-93.27155594 421.29648646 -92.94630308 419.81670994 -92.62104988 418.33693349 C-92.11938205 416.05451839 -91.61772597 413.7721007 -91.11607361 411.4896822 C-80.09007605 361.32365327 -69.05715874 311.15917133 -58 261 C-50.97529054 229.13321934 -43.95641137 197.26516793 -36.94921875 165.39453125 C-36.69160822 164.22284779 -36.69160822 164.22284779 -36.42879343 163.02749395 C-33.19861903 148.335594 -29.96899473 133.64357313 -26.73999023 118.95141602 C-26.58214109 118.23319487 -26.42429195 117.51497372 -26.2616595 116.77498829 C-25.47553602 113.19806955 -24.68943237 109.62114644 -23.90335274 106.04421806 C-22.3818572 99.12107684 -20.85995552 92.1980253 -19.33712769 85.275177 C-18.89131942 83.24841262 -18.44551795 81.22164675 -17.99972367 79.19487929 C-17.70468935 77.85353261 -17.40964592 76.51218792 -17.11459327 75.17084527 C-15.28677564 66.86082484 -13.46236754 58.55006627 -11.64218086 50.23837095 C-10.41499281 44.63465121 -9.18615698 39.03129457 -7.9561277 33.4281978 C-7.23253739 30.13154366 -6.50991977 26.83468296 -5.78964806 23.53730202 C-5.00384977 19.94189828 -4.21483304 16.34721546 -3.42504883 12.75268555 C-3.0762778 11.15088346 -3.0762778 11.15088346 -2.72046089 9.51672173 C-2.4003671 8.06443515 -2.4003671 8.06443515 -2.07380676 6.58280945 C-1.88938428 5.74064219 -1.7049618 4.89847494 -1.51495075 4.03078747 C-1 2 -1 2 0 0 Z M20 25 C19.52281869 26.72596782 19.04740329 28.45242391 18.57270813 30.17907715 C18.30776708 31.14044334 18.04282602 32.10180954 17.76985645 33.09230804 C16.60306476 37.49919561 15.65861591 41.94405964 14.73046875 46.40625 C14.52906784 47.36061951 14.32766693 48.31498901 14.12016296 49.29827881 C13.69325085 51.3223091 13.267703 53.34662757 12.84344482 55.37121582 C11.73237449 60.67089827 10.60973561 65.96813197 9.48828125 71.265625 C9.26938232 72.30080261 9.0504834 73.33598022 8.82495117 74.40252686 C5.75982415 88.88330214 2.54582221 103.32893854 -0.7890625 117.75 C-4.82002219 135.19830244 -8.69551304 152.67473108 -12.4375 170.1875 C-12.65877563 171.21790405 -12.88005127 172.24830811 -13.10803223 173.30993652 C-13.74114524 176.26182741 -14.36941241 179.21470654 -14.99609375 182.16796875 C-15.1842717 183.04363998 -15.37244965 183.91931122 -15.56632996 184.82151794 C-15.82824883 186.06458458 -15.82824883 186.06458458 -16.09545898 187.33276367 C-16.24675766 188.04438156 -16.39805634 188.75599945 -16.55393982 189.48918152 C-16.94875774 191.71156356 -17.25275006 193.91737445 -17.52787876 196.15692616 C-17.76157877 198.05924771 -17.76157877 198.05924771 -18 200 C-17.00752636 200.00203479 -17.00752636 200.00203479 -15.99500275 200.00411069 C23.31209863 200.08494668 62.61916477 200.17597641 101.92621177 200.28005161 C106.65702511 200.2925689 111.38783865 200.30500192 116.11865234 200.31738281 C117.53124649 200.3210818 117.53124649 200.3210818 118.9723779 200.32485552 C134.17512483 200.36446468 149.37787909 200.39726412 164.58064723 200.42749982 C180.20659643 200.45873051 195.83251483 200.4973885 211.45842934 200.54279006 C221.08270383 200.57052413 230.70695608 200.59262164 240.33125955 200.60726251 C246.95146201 200.61789121 253.57162113 200.63580279 260.19179076 200.65916704 C263.99822681 200.67239437 267.80460276 200.68267517 271.611063 200.68421364 C294.51488974 200.69668825 317.0710782 201.66727426 339.68481445 205.49462891 C341.9632226 205.87934332 344.2439188 206.24721787 346.52539062 206.61328125 C360.76821021 208.94051393 374.82630863 211.99053271 388.5390625 216.5390625 C391.83767989 217.62554178 395.14639464 218.67406875 398.4609375 219.7109375 C409.18496042 223.11568578 419.62923485 226.91896051 429.9375 231.4375 C430.89390381 231.85531738 431.85030762 232.27313477 432.83569336 232.70361328 C449.57788887 240.21935847 464.71847201 249.50974494 479.875 259.8125 C483.43220498 262.21884454 486.99252385 264.62053394 490.5546875 267.01953125 C491.42341492 267.6047757 492.29214233 268.19002014 493.18719482 268.79299927 C499.15963986 272.80195894 505.18067157 276.72582984 511.2578125 280.57421875 C512.00707001 281.04994827 512.75632751 281.5256778 513.52828979 282.01582336 C524.35509958 288.82061637 535.66655248 295.3920064 548 299 C548.88429688 299.27328125 549.76859375 299.5465625 550.6796875 299.828125 C559.49436803 302.21299878 568.41885999 302.71889561 577.50634766 303.26611328 C578.55870605 303.33427246 579.61106445 303.40243164 580.6953125 303.47265625 C581.64422363 303.52687744 582.59313477 303.58109863 583.57080078 303.63696289 C586 304 586 304 589 306 C592.72280034 316.43180416 591.1886483 329.12805356 591 340 C588.18522788 341.40738606 585.85117494 341.12943256 582.70109367 341.13422108 C581.71606125 341.13774942 581.71606125 341.13774942 580.71112919 341.14134905 C578.48919636 341.14805757 576.26732176 341.14758027 574.04537964 341.14717102 C572.44480682 341.15046851 570.84423483 341.15419383 569.24366391 341.1583125 C564.82841405 341.16835395 560.41317779 341.17205274 555.99791813 341.17470181 C551.24246706 341.17859857 546.48702682 341.1881774 541.73158264 341.19691467 C530.23802647 341.21669793 518.74446939 341.22674812 507.25090045 341.23564246 C501.84158406 341.24002273 496.43226865 341.24539025 491.02295303 341.25063133 C473.04608043 341.26764625 455.06920845 341.28214074 437.09232903 341.28938007 C432.42483393 341.29129005 427.75733883 341.29321037 423.08984375 341.29516602 C421.34966426 341.29589163 421.34966426 341.29589163 419.57432963 341.2966319 C400.77840516 341.30493332 381.98254432 341.33027098 363.18664764 341.36274669 C343.89949275 341.3958001 324.61237021 341.41382732 305.32518685 341.41702431 C294.4920591 341.41919111 283.6590241 341.42796451 272.82592392 341.45348549 C263.60023034 341.47516909 254.37465201 341.48325447 245.14893584 341.47351871 C240.44112128 341.46896708 235.73354465 341.47091023 231.02576256 341.49028015 C226.71503589 341.5078633 222.40472157 341.50695365 218.09399082 341.49138286 C216.53536715 341.48899938 214.97671529 341.49336862 213.41813479 341.50521151 C203.68280182 341.57459718 196.82649425 341.18296169 189.1875 334.5625 C183.38016551 327.75962245 183.37801578 322.70777903 184 314 C185.72944975 295.75192116 191.09518988 277.96487198 197.20141602 260.75024414 C199.36544556 253.29754074 198.49388544 246.35819414 195.32421875 239.3515625 C189.51811104 229.04101134 180.95862134 224.14202991 169.89792824 220.84192657 C162.3844978 219.21907557 154.82793379 219.48032554 147.17456055 219.54589844 C145.31059799 219.54702895 143.44663365 219.54638908 141.58267212 219.54412842 C136.56071568 219.5429883 131.53914721 219.56638302 126.51728034 219.59442425 C121.25493358 219.61955585 115.99257635 219.62178913 110.73017883 219.62652588 C100.78218147 219.63892126 90.83436151 219.67169607 80.88644201 219.71192384 C69.55385404 219.75674892 58.22125727 219.77865552 46.88860261 219.79870558 C23.59230368 219.84043194 0.29616181 219.91071672 -23 220 C-24.09805947 224.64621211 -25.19484083 229.29272352 -26.29051018 233.93949986 C-26.66233029 235.51563608 -27.03448133 237.09169427 -27.40698814 238.66766834 C-29.96807987 249.5042254 -32.44591118 260.34891835 -34.67871094 271.25863647 C-35.48614302 275.2006652 -36.31079264 279.13911729 -37.1328125 283.078125 C-37.29364319 283.85044968 -37.45447388 284.62277435 -37.62017822 285.41850281 C-40.60277905 299.71628556 -43.83622627 313.95867123 -47.11328125 328.19140625 C-47.29535126 328.98338913 -47.47742126 329.77537201 -47.66500854 330.59135437 C-48.5636708 334.50024444 -49.4651977 338.40841852 -50.37304688 342.31518555 C-50.70323031 343.74655774 -51.03331316 345.17795315 -51.36328125 346.609375 C-51.80087769 348.4960791 -51.80087769 348.4960791 -52.24731445 350.42089844 C-52.98292801 353.91882085 -53.4944985 357.46148948 -54 361 C158.85 361.33 371.7 361.66 591 362 C591 383.85641892 591 383.85641892 589.5 393.1875 C589.28537109 394.63286133 589.28537109 394.63286133 589.06640625 396.10742188 C588.72316735 398.40712247 588.36801307 400.70415958 588 403 C584.56113379 404.02178677 581.29165252 404.209469 577.71484375 404.359375 C552.04472166 405.6131172 530.75602141 409.7634219 509.90283203 425.58935547 C487.35401906 442.69995949 462.0665341 456.95121983 437 470 C436.16645996 470.43650879 435.33291992 470.87301758 434.47412109 471.32275391 C415.39661771 481.19583819 394.7248712 488.80971215 373.6796875 493.2109375 C369.98616709 494.00296629 366.38535017 494.97584759 362.75 496 C356.74840189 497.61826531 350.72684404 498.94069463 344.625 500.125 C343.82416992 500.28355469 343.02333984 500.44210937 342.19824219 500.60546875 C327.65826602 503.33997237 313.37004101 504.32991105 298.59716797 504.26074219 C295.87054364 504.24998241 293.14457384 504.26073061 290.41796875 504.2734375 C265.21488653 504.29538284 238.16513038 499.93468426 219 482 C218.25492187 481.30777344 217.50984375 480.61554688 216.7421875 479.90234375 C201.31500589 464.23983225 193.79110325 437.90433512 188.4375 417.0625 C185.20279706 405.07819075 177.96270487 395.80904252 167.328125 389.24609375 C158.43776837 384.48766461 150.44672074 382.84272164 140.38198853 382.87974548 C139.52748309 382.87889106 138.67297765 382.87803663 137.7925781 382.87715632 C134.93672978 382.87551261 132.08094054 382.88100472 129.22509766 382.88647461 C127.17497763 382.88675675 125.12485751 382.88659823 123.07473755 382.8860321 C117.51327789 382.88574517 111.9518398 382.89162524 106.39038515 382.89860606 C100.57677603 382.90485676 94.76316641 382.90544476 88.94955444 382.90663147 C77.94246686 382.90973971 66.9353892 382.91794629 55.92830598 382.92798096 C43.39636307 382.93915781 30.86441969 382.94465651 18.33247304 382.94967639 C-7.44502348 382.96012931 -33.22251118 382.97771897 -59 383 C-60.23847311 388.34940311 -61.47589397 393.69904821 -62.71239185 399.04890823 C-63.13210566 400.86420444 -63.5520938 402.67943725 -63.97237492 404.4946022 C-66.67906051 416.18559696 -69.34631955 427.87894469 -71.75415039 439.63583374 C-72.54839301 443.51067499 -73.35944763 447.38202392 -74.16796875 451.25390625 C-74.3257077 452.01077225 -74.48344666 452.76763824 -74.64596558 453.54743958 C-77.63204009 467.84905657 -80.86627756 482.09588963 -84.1484375 496.33203125 C-84.52084202 497.95027469 -84.89323786 499.56852013 -85.265625 501.18676758 C-85.99319579 504.34775152 -86.72560631 507.50756133 -87.4609375 510.66674805 C-87.79439926 512.11113572 -88.12773861 513.55555166 -88.4609375 515 C-88.90638916 516.918125 -88.90638916 516.918125 -89.36083984 518.875 C-90.10019144 521.95824309 -90.10019144 521.95824309 -90 525 C-41.3705895 525.06884889 7.25881603 525.12162118 55.88826579 525.15319599 C61.64523717 525.15694756 67.40220845 525.16083058 73.15917969 525.16479492 C74.87815474 525.16597532 74.87815474 525.16597532 76.63185656 525.16717956 C95.12391873 525.18019038 113.61595258 525.20382007 132.10799801 525.23145839 C151.1194794 525.25963351 170.13094607 525.27620168 189.14244747 525.28226548 C200.84883766 525.28635698 212.55514774 525.29922146 224.26151323 525.3237494 C232.31751592 525.33975654 240.37347794 525.34436699 248.42949533 525.34050413 C253.05922354 525.33860555 257.68881303 525.34125996 262.31851578 525.35761642 C289.78707478 525.44983115 316.92663395 524.32451843 344.0625 519.625 C345.33013184 519.41222412 346.59776367 519.19944824 347.90380859 518.98022461 C399.12062736 510.2030577 448.0286362 493.86870182 490.81640625 463.9140625 C547.01376124 424.60172376 547.01376124 424.60172376 581 425 C581.42553066 431.71564745 580.0712182 436.55418216 577.5625 442.75 C577.20051514 443.66539551 576.83853027 444.58079102 576.46557617 445.52392578 C575.33160352 448.35849232 574.17132912 451.18068414 573 454 C572.47889648 455.26312012 572.47889648 455.26312012 571.94726562 456.55175781 C559.34792554 486.73017717 541.19107942 514.6983737 519.05078125 538.765625 C517.13614309 540.85166886 515.28177042 542.97682046 513.4375 545.125 C499.34006649 561.26883514 482.04976207 574.5762307 464 586 C463.05253906 586.61359375 462.10507812 587.2271875 461.12890625 587.859375 C438.3552482 601.94350962 407.91615437 613.00405247 380.9375 607.01171875 C346.81091996 598.19066923 311.65767813 582.19492153 284.0378418 560.09155273 C268.08899583 547.34464136 252.3459359 543.50237916 232.25050354 543.63923645 C230.83099903 543.63792418 229.41149525 543.63529006 227.99199528 543.63146895 C224.13785301 543.62483461 220.28396599 543.63665782 216.42985618 543.65180314 C212.25625747 543.6648625 208.08267103 543.6603671 203.90905762 543.65809631 C196.69341739 543.65652978 189.47785908 543.66587374 182.26223946 543.68280983 C171.82991521 543.70727994 161.39763024 543.71501326 150.96528041 543.7187738 C134.03599461 543.72532577 117.10675239 543.74525275 100.17749023 543.77368164 C83.74064348 543.80125478 67.3038086 543.8224724 50.86694336 543.83520508 C49.85231872 543.83599325 48.83769408 543.83678142 47.79232324 543.83759347 C42.70181453 543.84150883 37.61130574 543.84529989 32.5207969 543.84902918 C-9.65283237 543.88008599 -51.82641368 543.93288746 -94 544 C-95.57141072 549.4329651 -95.57141072 549.4329651 -96.95800781 554.91455078 C-97.11890396 555.60233612 -97.27980011 556.29012146 -97.4455719 556.99874878 C-97.61306442 557.72361481 -97.78055695 558.44848083 -97.953125 559.1953125 C-98.13379013 559.97230499 -98.31445526 560.74929749 -98.50059509 561.54983521 C-99.08624635 564.07431561 -99.66849625 566.59956121 -100.25 569.125 C-100.45041901 569.99314331 -100.65083801 570.86128662 -100.85733032 571.7557373 C-103.69593219 584.06827011 -106.38717302 596.39890231 -108.90576172 608.78125 C-111.99318352 623.95201826 -115.39160809 639.0524288 -118.875 654.13671875 C-119.54224312 657.02851322 -120.20893945 659.92043292 -120.875 662.8125 C-121.04336365 663.54350922 -121.21172729 664.27451843 -121.38519287 665.02767944 C-124.05377402 676.637961 -126.5685234 688.27541229 -129 699.9375 C-131.59306066 712.37107219 -134.23904579 724.79002944 -137 737.1875 C-137.24650299 738.29472412 -137.24650299 738.29472412 -137.49798584 739.42431641 C-139.32702899 747.62797764 -141.18370415 755.82501229 -143.0703125 764.015625 C-143.24072556 764.75563248 -143.41113861 765.49563995 -143.5867157 766.2580719 C-143.75653458 766.99541061 -143.92635345 767.73274933 -144.10131836 768.49243164 C-144.44254664 769.97412085 -144.78377386 771.4558103 -145.125 772.9375 C-145.29355499 773.66887177 -145.46210999 774.40024353 -145.63577271 775.15377808 C-148.12766357 785.98236744 -150.43789225 796.83677599 -152.64111328 807.72827148 C-154.9203792 818.87075642 -157.49915132 829.93764101 -160.08694458 841.01174927 C-162.92756898 853.17971722 -165.61132172 865.36408388 -168.06054688 877.6171875 C-169.32036025 883.88977179 -170.7429133 890.06833518 -172.43603516 896.23950195 C-173.20016373 899.51017618 -173.20016373 899.51017618 -173 905 C-65.42 905 42.16 905 153 905 C155.06435661 898.80693018 156.86208951 892.82750021 158.3125 886.5 C158.74705035 884.64054423 159.1819616 882.78117277 159.6171875 880.921875 C159.84245117 879.95443359 160.06771484 878.98699219 160.29980469 877.99023438 C161.4905824 872.90493262 162.7153104 867.8278264 163.9375 862.75 C164.44669617 860.63022793 164.95581016 858.51043612 165.46484375 856.390625 C165.84552002 854.80604492 165.84552002 854.80604492 166.23388672 853.18945312 C167.49005393 847.95982648 168.7449715 842.72990001 170 837.5 C170.49999384 835.41666519 170.99999385 833.33333186 171.5 831.25 C171.87125 829.703125 171.87125 829.703125 172.25 828.125 C192.5 743.75 192.5 743.75 193.25048828 740.6237793 C193.74935336 738.54463313 194.24772739 736.46536907 194.74560547 734.38598633 C196.00892768 729.11250432 197.28125284 723.84147305 198.5703125 718.57421875 C198.96089844 716.96933594 198.96089844 716.96933594 199.359375 715.33203125 C199.84304131 713.34554463 200.32963418 711.35976623 200.8203125 709.375 C202.41361721 702.81167092 203.7798394 696.21484182 205.09326172 689.59106445 C205.27731064 688.66667824 205.46135956 687.74229202 205.65098572 686.7898941 C206.10146567 684.52675555 206.55111611 682.26345557 207 680 C208.17886434 680.00276538 209.35772867 680.00553076 210.57231617 680.00837994 C238.72337395 680.0737266 266.87442977 680.12300627 295.02554699 680.15319599 C298.51043966 680.15694693 301.99533217 680.16083001 305.48022461 680.16479492 C306.52064502 680.16597532 306.52064502 680.16597532 307.58208402 680.16717956 C318.72938892 680.18013979 329.87664615 680.20374017 341.02392302 680.23145839 C352.5106677 680.25977684 363.99737929 680.27600752 375.48415822 680.28226548 C381.91562149 680.28613552 388.34697763 680.29506039 394.77840614 680.31719017 C444.8265081 680.58487459 444.8265081 680.58487459 494.375 674.125 C495.74609741 673.85960966 497.11735886 673.5950656 498.48876953 673.33129883 C502.33212545 672.5839749 506.16652191 671.79653265 510 671 C511.00160156 670.79648926 512.00320313 670.59297852 513.03515625 670.38330078 C562.36131236 660.2005719 611.33659576 637.33328027 650 605 C651.46759766 603.79150391 651.46759766 603.79150391 652.96484375 602.55859375 C663.5770621 593.75797915 674.45263955 584.66161769 683.28125 574.03125 C685.06806174 571.91956339 686.94273794 569.90434709 688.83520508 567.88745117 C694.85347092 561.4537744 700.32813615 554.69634653 705.68115234 547.70410156 C706.91800065 546.10595252 708.18649796 544.53243973 709.45703125 542.9609375 C734.39437673 511.77918403 750.32153414 474.17023216 761 436 C761.24588867 435.12520996 761.49177734 434.25041992 761.74511719 433.34912109 C763.41172497 427.27824667 764.74838132 421.16825455 766 415 C766.22848633 413.9490918 766.45697266 412.89818359 766.69238281 411.81542969 C775.14732223 371.78317931 773.75977389 328.0401102 766 288 C765.64204346 286.09553101 765.64204346 286.09553101 765.27685547 284.15258789 C763.75738207 276.26963193 761.95026099 268.53227283 759.75 260.8125 C759.44481445 259.73935547 759.13962891 258.66621094 758.82519531 257.56054688 C741.87615852 198.85730537 708.24962783 143.41273303 661 104 C660.19248291 103.32179199 660.19248291 103.32179199 659.36865234 102.62988281 C627.16227211 75.66920613 591.58005355 55.93324043 552 42 C551.11795898 41.68450195 550.23591797 41.36900391 549.32714844 41.04394531 C515.9436542 29.22714022 479.76006342 24.8169032 444.4984436 24.87974548 C442.65907412 24.87930862 440.81970469 24.87843158 438.98033559 24.87715632 C433.96106124 24.87493406 428.94180846 24.87890136 423.92253685 24.88393438 C418.4966927 24.88827148 413.07084967 24.88679015 407.64500427 24.8860321 C398.25599507 24.88550893 388.86699283 24.88863414 379.47798538 24.89426994 C365.90322214 24.90241295 352.32846226 24.90500303 338.75369684 24.90625793 C316.72707203 24.90844405 294.70045093 24.91509221 272.67382812 24.92456055 C251.28287777 24.93374604 229.89192849 24.94083286 208.50097656 24.94506836 C207.18141565 24.94533108 205.86185474 24.94559381 204.50230713 24.94586449 C197.88215245 24.94716957 191.26199777 24.94843327 184.64184308 24.94967639 C129.76122616 24.96003531 74.88061326 24.97764166 20 25 Z " fill="#BCBEC1" transform="translate(258,48)"/>
<path d="M0 0 C61.47819452 -0.01713054 122.95638931 -0.03303123 184.43458557 -0.04234314 C185.34372823 -0.0424812 186.25287089 -0.04261925 187.18956332 -0.04276149 C206.94520852 -0.04575404 226.70085374 -0.04852427 246.45649901 -0.05106533 C256.14393229 -0.05231272 265.83136556 -0.05360927 275.51879883 -0.05493164 C276.964863 -0.05512778 276.964863 -0.05512778 278.44014058 -0.05532788 C309.71681885 -0.05959319 340.99349532 -0.06710744 372.2701725 -0.07629722 C404.39707147 -0.08571973 436.52396944 -0.0918831 468.65086976 -0.09391499 C473.18315596 -0.09420317 477.71544215 -0.0945288 482.24772835 -0.09487724 C483.13979298 -0.09494467 484.03185762 -0.09501209 484.95095452 -0.09508156 C499.34085601 -0.09626567 513.73075442 -0.10091015 528.12065465 -0.10683203 C542.56910839 -0.11270477 557.01755907 -0.11497163 571.46601396 -0.11350138 C580.06189412 -0.11273779 588.65776312 -0.11479522 597.25364128 -0.12079754 C602.98468921 -0.12452787 608.71572977 -0.12467756 614.4467782 -0.12183181 C617.7192794 -0.12031185 620.99175489 -0.12097037 624.26425474 -0.12488318 C627.77743837 -0.12884258 631.29056554 -0.12676626 634.80374813 -0.12304783 C635.83592393 -0.12567484 636.86809972 -0.12830186 637.93155357 -0.13100848 C638.85835496 -0.12876118 639.78515635 -0.12651389 640.74004263 -0.1241985 C641.54474667 -0.12435448 642.34945071 -0.12451046 643.17853972 -0.12467116 C645 0 645 0 646 1 C646.57648364 11.07737744 646.12879916 21.01267697 644.6875 31 C644.56987305 31.85376221 644.45224609 32.70752441 644.33105469 33.5871582 C644.1420459 34.78151489 644.1420459 34.78151489 643.94921875 36 C643.83924561 36.70125 643.72927246 37.4025 643.6159668 38.125 C642.86057807 40.42439969 641.84071113 41.456937 640 43 C637.27141803 44.36429099 634.96124762 44.23269213 631.91015625 44.359375 C606.16275824 45.61040852 584.82303487 49.71256394 563.90283203 65.58935547 C541.35401906 82.69995949 516.0665341 96.95121983 491 110 C490.16645996 110.43650879 489.33291992 110.87301758 488.47412109 111.32275391 C469.39661771 121.19583819 448.7248712 128.80971215 427.6796875 133.2109375 C423.98616709 134.00296629 420.38535017 134.97584759 416.75 136 C410.74840189 137.61826531 404.72684404 138.94069463 398.625 140.125 C397.82416992 140.28355469 397.02333984 140.44210937 396.19824219 140.60546875 C381.65826602 143.33997237 367.37004101 144.32991105 352.59716797 144.26074219 C349.87054364 144.24998241 347.14457384 144.26073061 344.41796875 144.2734375 C318.87378494 144.29567985 292.61051399 139.73508022 273 122 C272.39027344 121.47019531 271.78054688 120.94039062 271.15234375 120.39453125 C253.85244756 104.38737455 246.33690438 75.38566902 240.66552734 53.35693359 C237.8160254 43.26555729 230.78528792 35.05658094 221.9375 29.5625 C212.92809041 24.61780078 204.64343233 22.85445689 194.38198853 22.84178162 C193.52748309 22.83684364 192.67297765 22.83190566 191.7925781 22.82681805 C188.93675318 22.81149184 186.08095066 22.80309567 183.22509766 22.79467773 C181.17497563 22.78509538 179.12485556 22.77508508 177.07473755 22.76467896 C171.5132993 22.73766261 165.9518526 22.71663533 160.39038515 22.69667697 C154.57675927 22.67479726 148.76315936 22.64741828 142.94955444 22.62062073 C131.94248584 22.57072071 120.9354028 22.52577188 109.92830598 22.48259836 C97.39634458 22.43320301 84.86440923 22.37829339 72.33247304 22.32291877 C46.55500635 22.20914002 20.77751465 22.10229203 -5 22 C-3.96633898 16.50335553 -2.79661261 11.06385922 -1.42578125 5.640625 C-1.15805908 4.57875977 -0.89033691 3.51689453 -0.61450195 2.42285156 C-0.41171631 1.62331055 -0.20893066 0.82376953 0 0 Z " fill="#FEC426" transform="translate(204,409)"/>
<path d="M0 0 C40.10279215 -0.04588324 80.20558084 -0.08107273 120.30839404 -0.10213066 C125.05422889 -0.10463176 129.80006367 -0.10722043 134.54589844 -0.10986328 C135.96297851 -0.11065021 135.96297851 -0.11065021 137.40868646 -0.11145304 C152.65994994 -0.12013069 167.91119817 -0.13588595 183.16245264 -0.15430559 C198.8380996 -0.17307841 214.51373864 -0.18413225 230.18939638 -0.18817699 C239.84440138 -0.19090682 249.49936328 -0.19949524 259.15435499 -0.21583293 C265.79556152 -0.22649118 272.43674611 -0.22958088 279.07796055 -0.22700275 C282.89656569 -0.22573505 286.71509611 -0.22753057 290.53368759 -0.23841095 C313.47335119 -0.3004387 336.03598524 0.66133481 358.68481445 4.49462891 C360.9632226 4.87934332 363.2439188 5.24721787 365.52539062 5.61328125 C379.76821021 7.94051393 393.82630863 10.99053271 407.5390625 15.5390625 C410.83767989 16.62554178 414.14639464 17.67406875 417.4609375 18.7109375 C428.18496042 22.11568578 438.62923485 25.91896051 448.9375 30.4375 C449.89390381 30.85531738 450.85030762 31.27313477 451.83569336 31.70361328 C468.57788887 39.21935847 483.71847201 48.50974494 498.875 58.8125 C502.43220498 61.21884454 505.99252385 63.62053394 509.5546875 66.01953125 C510.42341492 66.6047757 511.29214233 67.19002014 512.18719482 67.79299927 C518.15963986 71.80195894 524.18067157 75.72582984 530.2578125 79.57421875 C531.00707001 80.04994827 531.75632751 80.5256778 532.52828979 81.01582336 C543.35509958 87.82061637 554.66655248 94.3920064 567 98 C567.88429688 98.27328125 568.76859375 98.5465625 569.6796875 98.828125 C578.47004132 101.20641701 587.35161965 101.69671594 596.41845703 102.17822266 C597.46759277 102.24315918 598.51672852 102.3080957 599.59765625 102.375 C601.01316772 102.44847656 601.01316772 102.44847656 602.45727539 102.5234375 C605.3926452 103.07359034 606.82785935 103.97883566 609 106 C611.78361131 113.20850288 611.22626921 122.01390049 611.3125 129.625 C611.33022461 130.60960205 611.34794922 131.5942041 611.36621094 132.60864258 C611.36524414 133.53443115 611.36427734 134.46021973 611.36328125 135.4140625 C611.36775269 136.66630615 611.36775269 136.66630615 611.37231445 137.94384766 C611.24945068 138.62237793 611.12658691 139.3009082 611 140 C607.41204358 142.39197095 605.84189934 142.25216173 601.57804585 142.25726891 C600.59128266 142.26252802 600.59128266 142.26252802 599.58458486 142.26789337 C597.36468204 142.27724945 595.14503915 142.27227334 592.92512512 142.26742554 C591.32368797 142.27115971 589.72225264 142.27576029 588.12082022 142.28115618 C583.7078102 142.29343087 579.29487573 142.29312047 574.88185251 142.29076743 C570.1270946 142.29036038 565.37236128 142.30138782 560.61761475 142.31088257 C551.29675952 142.32751883 541.97592958 142.33299333 532.65506075 142.33410732 C525.07939542 142.33505671 517.50373847 142.33916153 509.92807579 142.34550858 C488.46002275 142.36312941 466.99198972 142.37234632 445.52392939 142.37084763 C444.36578611 142.37076772 443.20764283 142.3706878 442.0144043 142.37060547 C440.85485014 142.37052371 439.69529598 142.37044195 438.50060382 142.37035771 C419.71120546 142.36954493 400.92188729 142.38867831 382.13251213 142.4168822 C362.8498412 142.44559859 343.56720938 142.45942313 324.28451651 142.45769465 C313.45476281 142.45703024 302.62509313 142.46254469 291.79535866 142.48405075 C282.57334268 142.50224633 273.35144878 142.50662336 264.12942264 142.4930319 C259.42363103 142.48649359 254.71807375 142.48641608 250.01230431 142.5037384 C245.70346031 142.51943646 241.39503707 142.51663902 237.08620354 142.49917014 C235.52828584 142.49609298 233.97033699 142.49975957 232.41245601 142.51089029 C221.84128396 142.58141002 213.94118142 141.72059304 206 134 C200.2188373 126.6563609 201.44915402 118.69141144 202.4375 109.8125 C204.5996563 93.03658169 209.55973243 76.65523705 215.20141602 60.75024414 C217.38381262 53.2342864 216.45545307 46.34009051 213.2578125 39.28515625 C207.81304863 29.39327157 199.44630479 24.99003441 188.89573097 21.84532928 C181.38630587 20.2158695 173.82699276 20.43015323 166.17456055 20.45410156 C164.31058903 20.44535036 162.44662501 20.43485923 160.58267212 20.42277527 C155.56081421 20.3950841 150.53920348 20.39150683 145.51728034 20.39249516 C140.25485784 20.38935146 134.9925443 20.36370307 129.73017883 20.34051514 C119.78226794 20.30006281 109.83442243 20.2796398 99.88644201 20.26654124 C88.55377051 20.25063463 77.22120969 20.21220365 65.88860261 20.17194796 C42.59243896 20.08969644 19.29627851 20.03551231 -4 20 C-3.7126705 18.16598192 -3.41988417 16.33281856 -3.125 14.5 C-2.96257812 13.4790625 -2.80015625 12.458125 -2.6328125 11.40625 C-1.9162181 7.54902582 -0.98246249 3.79775417 0 0 Z " fill="#FEC426" transform="translate(239,248)"/>
<path d="M0 0 C1.70610212 2.84948986 1.50351979 4.54803053 1.11328125 7.859375 C0.16131255 11.1471719 -1.06146021 14.30476718 -2.32421875 17.484375 C-2.68620361 18.40879395 -3.04818848 19.33321289 -3.42114258 20.28564453 C-17.04283715 54.66295399 -35.72917705 86.33663907 -60.83984375 113.62890625 C-62.73343062 115.69233774 -64.56498039 117.79512081 -66.38671875 119.921875 C-72.67510655 127.12520144 -79.54132858 133.74418838 -86.88671875 139.859375 C-87.40476074 140.29121094 -87.92280273 140.72304688 -88.45654297 141.16796875 C-97.54625242 148.70316176 -106.91162982 155.54609983 -116.88671875 161.859375 C-117.83417969 162.47296875 -118.78164063 163.0865625 -119.7578125 163.71875 C-142.53147055 177.80288462 -172.97056438 188.86342747 -199.94921875 182.87109375 C-234.07579879 174.05004423 -269.22904062 158.05429653 -296.84887695 135.95092773 C-312.79830174 123.20355376 -328.54514342 119.38474436 -348.63621521 119.46064758 C-350.05572336 119.45519177 -351.47522698 119.4484335 -352.89472347 119.44050568 C-356.74882419 119.42266635 -360.60273043 119.42301426 -364.45686257 119.42663515 C-368.63049297 119.42726374 -372.80406074 119.41059495 -376.97766113 119.39611816 C-384.19327204 119.37341446 -391.40883493 119.36146133 -398.62447929 119.35698891 C-409.05683947 119.35050687 -419.48911317 119.32753355 -429.92143834 119.30064561 C-446.85068953 119.2574556 -463.77993706 119.22744447 -480.70922852 119.20581055 C-497.14609575 119.18477746 -513.58293309 119.15748209 -530.01977539 119.12182617 C-531.03440003 119.11962735 -532.04902467 119.11742852 -533.09439551 119.11516307 C-538.18490452 119.10409283 -543.27541325 119.09290013 -548.36592185 119.08164656 C-590.53949456 118.98857178 -632.71308355 118.91692278 -674.88671875 118.859375 C-673.88990162 112.40127255 -672.87035383 106.09365668 -670.88671875 99.859375 C-670.08210551 99.85839819 -669.27749228 99.85742138 -668.44849682 99.85641497 C-620.63178208 99.79798901 -572.81511227 99.72407695 -524.99845296 99.63038872 C-519.24148188 99.61912219 -513.48451055 99.60798347 -507.72753906 99.59692383 C-506.58155569 99.59472014 -505.43557233 99.59251646 -504.25486219 99.590246 C-485.76282204 99.55499042 -467.27078191 99.53006028 -448.77872074 99.50902798 C-429.76721094 99.48717194 -410.7557443 99.45402974 -391.74427128 99.41067344 C-380.03790753 99.38432449 -368.33159741 99.36650621 -356.62520552 99.36002896 C-348.56917704 99.35472327 -340.51321573 99.33833588 -332.45722342 99.31370934 C-327.82751734 99.29986917 -323.19793096 99.29045639 -318.56820297 99.29436684 C-291.11098341 99.31286202 -263.94751068 98.18171578 -236.82421875 93.484375 C-235.55658691 93.27159912 -234.28895508 93.05882324 -232.98291016 92.83959961 C-181.76609139 84.0624327 -132.85808255 67.72807682 -90.0703125 37.7734375 C-19.35012644 -11.69821308 -19.35012644 -11.69821308 0 0 Z " fill="#FEC426" transform="translate(838.88671875,473.140625)"/>
<path d="M0 0 C1.65225586 0.01353516 1.65225586 0.01353516 3.33789062 0.02734375 C11.09637095 0.19330055 17.45975949 1.03310973 24.5 4.4375 C25.78243135 4.99417475 27.06641567 5.5472795 28.3515625 6.09765625 C65.50989685 22.39781916 98.74795636 51.60019546 123.5 83.4375 C123.99838379 84.07445801 124.49676758 84.71141602 125.01025391 85.36767578 C144.19458729 110.07746402 174.55478903 150.54278236 172.94140625 183.5390625 C172.5 185.4375 172.5 185.4375 170.5 187.4375 C145.0945806 191.19495079 126.15861283 178.09947874 106.58496094 163.93847656 C84.08671468 147.74184682 60.50694878 133.41620958 35.5 121.4375 C34.80374512 121.09928223 34.10749023 120.76106445 33.39013672 120.41259766 C22.11945983 114.97585587 10.54504672 110.4472639 -1.1875 106.125 C-1.87020966 105.87028931 -2.55291931 105.61557861 -3.25631714 105.35314941 C-18.60256231 99.65074976 -34.29090439 96.27956184 -50.375 93.375 C-51.08066101 93.24710083 -51.78632202 93.11920166 -52.5133667 92.98742676 C-82.74821836 87.54949772 -113.43418351 85.49882541 -144.125 84.86669922 C-145.17042969 84.83850098 -146.21585938 84.81030273 -147.29296875 84.78125 C-148.2058667 84.76255859 -149.11876465 84.74386719 -150.05932617 84.72460938 C-152.61966476 84.4234232 -154.28837889 83.72984253 -156.5 82.4375 C-156.2754441 76.8129093 -152.6196944 73.9900158 -148.8125 70.3125 C-147.80135132 69.32117065 -147.80135132 69.32117065 -146.76977539 68.30981445 C-140.39375397 62.15722562 -133.6350949 56.67658373 -126.5 51.4375 C-125.91863281 51.00598633 -125.33726562 50.57447266 -124.73828125 50.12988281 C-116.59399114 44.10256877 -108.21850026 38.60949168 -99.5 33.4375 C-98.51773438 32.82648438 -97.53546875 32.21546875 -96.5234375 31.5859375 C-77.95930839 20.39218223 -57.07663619 11.66058951 -36.0625 6.375 C-35.11568359 6.13201172 -34.16886719 5.88902344 -33.19335938 5.63867188 C-31.27065429 5.14657424 -29.3463092 4.66084176 -27.42041016 4.18139648 C-25.4549749 3.68075435 -23.49611211 3.15364834 -21.54443359 2.60180664 C-14.2743246 0.60386418 -7.52983731 -0.07432289 0 0 Z " fill="#FDC426" transform="translate(666.5,142.5625)"/>
<path d="M0 0 C9.81345534 1.71346046 16.97723381 9.00940677 23.9375 15.6875 C24.576875 16.2753125 25.21625 16.863125 25.875 17.46875 C33.70174446 24.87620458 39.05302848 33.68463011 42.9375 43.6875 C43.25847656 44.48027344 43.57945312 45.27304687 43.91015625 46.08984375 C47.2100453 55.80533105 48.54968873 69.50036464 44.49609375 79.1015625 C42.49715548 81.90411434 40.37452305 84.25835101 37.9375 86.6875 C36.24819665 88.58172662 34.56072654 90.47758958 32.875 92.375 C32.02292969 93.28894531 31.17085937 94.20289063 30.29296875 95.14453125 C28.35303894 97.23888334 26.51257239 99.36965484 24.6875 101.5625 C-11.55722045 143.0699199 -71.62902066 173.66834727 -126.0625 179.6875 C-129.44862423 179.86925229 -132.67235776 179.85153914 -136.0625 179.6875 C-136.3925 178.0375 -136.7225 176.3875 -137.0625 174.6875 C-131.7644047 170.24298672 -126.21869697 166.50243216 -120.3125 162.9375 C-113.16153204 158.58542894 -106.87782223 153.69050978 -100.64868164 148.10107422 C-99.51655967 147.09214914 -98.37388652 146.09501254 -97.22436523 145.10595703 C-85.14241636 134.70143534 -73.82323327 123.29887256 -64.0625 110.6875 C-63.16360457 109.59740773 -62.2610107 108.51035855 -61.35546875 107.42578125 C-38.32850047 79.66157382 -19.90402841 47.45912178 -8.66064453 13.18530273 C-4.6606083 1.04625901 -4.6606083 1.04625901 0 0 Z " fill="#FDC426" transform="translate(864.0625,480.3125)"/>
<path d="M0 0 C30.97241364 1.93995679 61.27064574 12.53766575 89 26 C89.71816895 26.34611328 90.43633789 26.69222656 91.17626953 27.04882812 C107.94197791 35.23176706 124.02175058 45.6246527 138 58 C139.16208984 58.99966797 139.16208984 58.99966797 140.34765625 60.01953125 C142.94766396 62.29823719 145.48059575 64.63232458 148 67 C148.56235352 67.52835449 149.12470703 68.05670898 149.70410156 68.60107422 C163.60006147 81.76858705 180.63540103 98.0644745 181.375 118.375 C181.14726854 138.97204498 166.97817436 156.75574594 152.9375 170.50390625 C147.59138875 175.04667898 141.09442283 179.08481176 133.9375 179.6875 C131 179 131 179 129.53515625 177.1328125 C127.33450005 172.64190595 125.98335158 167.95522558 124.5 163.1875 C110.85269698 120.97510197 85.40549756 80.67623291 53.62719727 49.65576172 C51.92531624 47.92400521 50.36657064 46.11473261 48.8125 44.25 C43.99993353 38.68714477 38.50782822 33.85494988 33 29 C32.48131348 28.54189941 31.96262695 28.08379883 31.42822266 27.61181641 C24.61382385 21.63087917 17.57188613 16.07090193 10.19995117 10.79101562 C6.32130753 8.01020114 2.63363226 5.09552183 -1 2 C-0.67 1.34 -0.34 0.68 0 0 Z " fill="#FDC426" transform="translate(731,142)"/>
<path d="M0 0 C10.06626804 -0.06957377 20.13247867 -0.12284876 30.19893837 -0.15543652 C34.87343476 -0.17107865 39.54776639 -0.19229038 44.22216797 -0.22631836 C48.73497508 -0.25896363 53.24762391 -0.27686394 57.76054001 -0.28463173 C59.4804979 -0.29016596 61.20044734 -0.30097303 62.92033768 -0.31719017 C65.33331126 -0.33903339 67.74563453 -0.34196409 70.15869141 -0.34057617 C70.86647736 -0.351362 71.57426331 -0.36214783 72.30349731 -0.3732605 C78.08645198 -0.33737337 81.9357333 1.31599296 86.375 4.9375 C91.44015514 14.48336931 86.63850838 27.38689495 84.203125 37.296875 C83.8082367 38.94186032 83.41427188 40.58706758 83.0211792 42.23248291 C82.19915238 45.66022761 81.36781864 49.08553142 80.52929688 52.50927734 C79.45975107 56.87850958 78.41120841 61.2524547 77.36925125 65.62833786 C76.55993573 69.01891986 75.74087757 72.40708928 74.9187851 75.79459381 C74.52863234 77.40615917 74.14113444 79.01836983 73.75644684 80.63124847 C68.39115873 103.04990996 68.39115873 103.04990996 58.58349609 109.6184082 C53.38984374 111.62078446 48.55616363 111.37017472 43.0390625 111.29296875 C41.89335785 111.28872391 40.7476532 111.28447906 39.56723022 111.28010559 C35.91957785 111.2633564 32.27248449 111.22570991 28.625 111.1875 C26.14714341 111.17244836 23.66927814 111.15876079 21.19140625 111.14648438 C15.12741448 111.11346512 9.06374719 111.06330259 3 111 C2.83632431 111.96302788 2.83632431 111.96302788 2.66934204 112.94551086 C1.36268883 120.40110323 -0.27944245 127.74505005 -2.0390625 135.10546875 C-2.32478119 136.3106868 -2.61049988 137.51590485 -2.90487671 138.75764465 C-3.80889422 142.5682413 -4.7168801 146.37787917 -5.625 150.1875 C-6.24277531 152.78697014 -6.85964103 155.38665509 -7.4765625 157.98632812 C-8.9808741 164.32506049 -10.49056005 170.66247818 -12 177 C-21.9 177 -31.8 177 -42 177 C-38.83075696 161.47960868 -35.22624037 146.08181293 -31.53221178 130.67895389 C-30.6909086 127.16828411 -29.85274234 123.65686545 -29.01425171 120.14552307 C-27.42622302 113.49721103 -25.8357969 106.84947529 -24.24431455 100.20198923 C-21.40718917 88.35132106 -18.57376869 76.49976712 -15.74187124 64.64784867 C-14.75428459 60.51508935 -13.76552072 56.38261418 -12.77573383 52.25038129 C-12.0041441 49.0283599 -11.23367148 45.80607195 -10.46337891 42.58374023 C-10.17107203 41.36117743 -9.87876514 40.13861464 -9.57760048 38.87900448 C-7.27645244 29.22516897 -5.03996851 19.55701338 -2.85314369 9.87663174 C-2.62311842 8.86704434 -2.39309315 7.85745695 -2.15609741 6.817276 C-1.95596228 5.93139832 -1.75582714 5.04552065 -1.5496273 4.13279819 C-1 2 -1 2 0 0 Z M23 26 C21.48531693 32.1333092 19.97271779 38.26706248 18.46508789 44.40209961 C17.95323285 46.48246491 17.44024201 48.56255115 16.92602539 50.64233398 C16.18065268 53.65793632 15.43957865 56.67456979 14.69921875 59.69140625 C14.47409103 60.59830704 14.24896332 61.50520782 14.01701355 62.43959045 C12.10316383 70.26718367 10.58532084 78.07339581 9 86 C19.89 86 30.78 86 42 86 C44.39040602 78.94334176 44.39040602 78.94334176 46.3503418 71.83496094 C46.57034348 70.93082458 46.79034515 70.02668823 47.01701355 69.09515381 C47.24214127 68.1510968 47.46726898 67.20703979 47.69921875 66.234375 C48.05908623 64.73973724 48.05908623 64.73973724 48.42622375 63.21490479 C48.92817931 61.12454856 49.42808523 59.03369918 49.92602539 56.94238281 C50.68900579 53.74368719 51.46231007 50.54760287 52.23632812 47.3515625 C52.72458377 45.31264967 53.21223522 43.27359204 53.69921875 41.234375 C53.93041916 40.28222107 54.16161957 39.33006714 54.39982605 38.34906006 C54.71564384 37.01176849 54.71564384 37.01176849 55.0378418 35.64746094 C55.224207 34.86852478 55.4105722 34.08958862 55.60258484 33.28704834 C56.14266849 30.56585682 56.14266849 30.56585682 56 26 C45.11 26 34.22 26 23 26 Z " fill="#002D62" transform="translate(526,800)"/>
<path d="M0 0 C1.20144653 -0.00953201 2.40289307 -0.01906403 3.64074707 -0.02888489 C4.92525757 -0.02797348 6.20976807 -0.02706207 7.53320312 -0.02612305 C8.87789033 -0.03001514 10.22257632 -0.03435086 11.56726074 -0.03910828 C14.37805172 -0.04654721 17.18871703 -0.04629572 19.99951172 -0.04101562 C23.59064145 -0.03521675 27.18125612 -0.05217273 30.77230072 -0.0753603 C33.54680355 -0.09013237 36.3211832 -0.09096478 39.09571838 -0.08785057 C41.05988844 -0.08860921 43.02403946 -0.10244893 44.98815918 -0.11653137 C46.79032898 -0.10718819 46.79032898 -0.10718819 48.62890625 -0.09765625 C49.6811438 -0.09828568 50.73338135 -0.0989151 51.81750488 -0.0995636 C56.56782459 0.49359753 60.80608589 2.47461538 63.81445312 6.2746582 C66.00026065 12.83208078 64.40214637 19.00228464 62.81420898 25.49755859 C62.60112091 26.39648834 62.38803284 27.29541809 62.16848755 28.22158813 C61.46283027 31.1903183 60.74608167 34.15625314 60.02929688 37.12231445 C59.52969214 39.21503587 59.03080881 41.30792963 58.53260803 43.40098572 C57.21548476 48.92638106 55.88907073 54.44950428 54.56054688 59.97216797 C53.23704353 65.47997191 51.92136186 70.98964138 50.60546875 76.49926758 C49.07771467 82.89447647 47.54949963 89.28957079 46.01742554 95.68374634 C42.2208399 111.53338192 38.49523906 127.39767945 34.81445312 143.2746582 C25.24445313 143.2746582 15.67445313 143.2746582 5.81445312 143.2746582 C5.81445312 142.6146582 5.81445312 141.9546582 5.81445312 141.2746582 C4.24147461 141.41097656 4.24147461 141.41097656 2.63671875 141.55004883 C-1.28421497 141.88893424 -5.20552233 142.22331656 -9.12695312 142.55639648 C-10.81846328 142.70069134 -12.50987219 142.84617866 -14.20117188 142.99291992 C-16.64361815 143.2046178 -19.08640626 143.41190868 -21.52929688 143.6184082 C-22.27546265 143.68402954 -23.02162842 143.74965088 -23.79040527 143.81726074 C-39.22819123 145.10482235 -39.22819123 145.10482235 -46.18554688 140.2746582 C-49.88785253 136.45665549 -49.42425389 132.37246165 -49.3729248 127.3447876 C-49.06379381 122.27977187 -47.91876816 117.49324796 -46.70117188 112.5793457 C-46.44430603 111.50645294 -46.18744019 110.43356018 -45.92279053 109.32815552 C-45.38064314 107.07628318 -44.83239939 104.82587055 -44.27832031 102.5769043 C-43.43701265 99.15561898 -42.61849165 95.72945865 -41.80273438 92.30200195 C-41.27022383 90.10245748 -40.73641328 87.90322724 -40.20117188 85.7043457 C-39.83841156 84.18525101 -39.83841156 84.18525101 -39.46832275 82.63546753 C-37.05651851 72.93733403 -34.19607461 62.90601871 -25.18554688 57.4621582 C-19.14339937 55.07047481 -13.4858926 55.14166013 -7.07226562 55.17700195 C-6.10271439 55.1784169 -5.13316315 55.17983185 -4.13423157 55.18128967 C-1.04713821 55.18687308 2.0398818 55.19942256 5.12695312 55.2121582 C7.22395728 55.21717535 9.32096258 55.22173788 11.41796875 55.22583008 C16.55015834 55.23683708 21.68229331 55.25409033 26.81445312 55.2746582 C26.95488037 54.06551758 27.09530762 52.85637695 27.23999023 51.6105957 C27.6526578 48.31613979 28.21882202 45.12852941 29.00585938 41.8996582 C29.20638916 41.06692383 29.40691895 40.23418945 29.61352539 39.3762207 C29.86545654 38.35270508 30.1173877 37.32918945 30.37695312 36.2746582 C31.18132812 32.9746582 31.98570312 29.6746582 32.81445312 26.2746582 C23.57445312 26.2746582 14.33445312 26.2746582 4.81445312 26.2746582 C3.21004272 33.13982901 3.21004272 33.13982901 1.61352539 40.00683594 C1.31273071 41.28216187 1.31273071 41.28216187 1.00585938 42.58325195 C0.80162354 43.45780029 0.5973877 44.33234863 0.38696289 45.23339844 C-0.18554688 47.2746582 -0.18554688 47.2746582 -1.18554688 48.2746582 C-3.25816764 48.36232933 -5.33374982 48.38161693 -7.40820312 48.37231445 C-8.66826172 48.3690918 -9.92832031 48.36586914 -11.2265625 48.36254883 C-12.56705796 48.35419224 -13.90755275 48.34572728 -15.24804688 48.3371582 C-16.59244629 48.3321448 -17.93684747 48.32758162 -19.28125 48.32348633 C-22.58272628 48.31165308 -25.88411491 48.29516791 -29.18554688 48.2746582 C-28.47594439 40.72448779 -26.69363078 33.50069509 -24.87304688 26.1496582 C-24.57720703 24.90055664 -24.28136719 23.65145508 -23.9765625 22.36450195 C-21.82879487 13.67137767 -19.92303513 7.43298371 -12.18554688 2.2746582 C-7.99739246 0.62771107 -4.48802886 0.01965156 0 0 Z M-9.18554688 80.2746582 C-10.81372659 84.34510749 -11.9226737 87.98090129 -12.91210938 92.2199707 C-13.06465179 92.87166229 -13.21719421 93.52335388 -13.37435913 94.1947937 C-13.69387717 95.56422999 -14.01144219 96.93412329 -14.32714844 98.30444336 C-14.81092579 100.40130055 -15.30248059 102.49622705 -15.79492188 104.59106445 C-16.10528222 105.92559193 -16.41519371 107.26022388 -16.72460938 108.5949707 C-17.0051416 109.80427246 -17.28567383 111.01357422 -17.57470703 112.25952148 C-18.28482555 115.25197119 -18.28482555 115.25197119 -18.18554688 118.2746582 C-8.28554688 118.2746582 1.61445312 118.2746582 11.81445312 118.2746582 C14.78445313 105.7346582 17.75445313 93.1946582 20.81445312 80.2746582 C10.91445313 80.2746582 1.01445313 80.2746582 -9.18554688 80.2746582 Z " fill="#002D62" transform="translate(655.185546875,833.725341796875)"/>
<path d="M0 0 C1.30242645 -0.00145523 2.60485291 -0.00291046 3.94674683 -0.00440979 C6.68850217 -0.00578592 9.42972938 0.00663353 12.17138672 0.02954102 C15.66935734 0.05798063 19.16645589 0.05516293 22.66449165 0.0424509 C26.02641764 0.03379148 29.38808869 0.04894947 32.75 0.0625 C33.99806427 0.05956436 35.24612854 0.05662872 36.53201294 0.05360413 C42.8086952 0.12155391 47.8038733 0.20182909 53.2421875 3.49609375 C56.8077304 7.36874708 56.65123869 10.32111736 56.50439453 15.38949585 C56.04502021 20.83210854 54.90210043 26.07469097 53.6796875 31.390625 C53.27532471 33.17710701 53.27532471 33.17710701 52.86279297 34.99967957 C52.29100746 37.49961117 51.71245102 39.99800291 51.12744141 42.49487305 C50.24220233 46.30852985 49.4039467 50.13070257 48.56640625 53.95507812 C48.00285731 56.39258945 47.43654513 58.82946393 46.8671875 61.265625 C46.50258423 62.97199883 46.50258423 62.97199883 46.13061523 64.71284485 C44.63949746 70.82961423 43.12974574 75.1242941 37.63378906 78.55039978 C32.93534999 80.40827007 28.29051219 80.22575604 23.3046875 80.08203125 C22.18400879 80.07354156 21.06333008 80.06505188 19.90869141 80.05630493 C16.35218523 80.02289288 12.7980008 79.94763014 9.2421875 79.87109375 C6.82164748 79.84097867 4.40107168 79.81360559 1.98046875 79.7890625 C-3.93307509 79.7231416 -9.84527789 79.62291417 -15.7578125 79.49609375 C-15.88994141 80.67059082 -16.02207031 81.84508789 -16.15820312 83.05517578 C-16.64763743 86.95874677 -17.422828 90.72479893 -18.3515625 94.55078125 C-18.65964844 95.824375 -18.96773437 97.09796875 -19.28515625 98.41015625 C-19.44483887 99.06016602 -19.60452148 99.71017578 -19.76904297 100.37988281 C-20.26149996 102.38611617 -20.74646738 104.39405551 -21.23046875 106.40234375 C-23.62002418 116.22051711 -23.62002418 116.22051711 -24.7578125 118.49609375 C-15.5178125 118.49609375 -6.2778125 118.49609375 3.2421875 118.49609375 C3.8403125 115.60859375 4.4384375 112.72109375 5.0546875 109.74609375 C9.57580566 88.16247559 9.57580566 88.16247559 11.2421875 86.49609375 C13.31480826 86.40842263 15.39039044 86.38913502 17.46484375 86.3984375 C19.35493164 86.40327148 19.35493164 86.40327148 21.28320312 86.40820312 C22.62369859 86.41655972 23.96419338 86.42502468 25.3046875 86.43359375 C26.64908692 86.43860715 27.9934881 86.44317033 29.33789062 86.44726562 C32.63936691 86.45909887 35.94075553 86.47558404 39.2421875 86.49609375 C38.63046455 92.09444059 37.66798727 97.44267776 36.31640625 102.90625 C36.12754349 103.67738632 35.93868073 104.44852264 35.74409485 105.24302673 C35.34564674 106.86128375 34.94466784 108.47891956 34.54125977 110.09594727 C33.93109671 112.55291921 33.33738754 115.01350603 32.74414062 117.47460938 C32.35256583 119.05623832 31.96002004 120.63762726 31.56640625 122.21875 C31.39332443 122.94498062 31.22024261 123.67121124 31.04191589 124.41944885 C29.26508916 131.40373573 26.56707176 137.52465479 20.2421875 141.49609375 C13.71450177 143.9713646 7.32421806 143.80220726 0.40625 143.796875 C-0.82767487 143.80116013 -2.06159973 143.80544525 -3.33291626 143.80986023 C-5.9367817 143.81559 -8.54066314 143.8161138 -11.14453125 143.81176758 C-15.11225916 143.80861011 -19.07923928 143.83207665 -23.046875 143.85742188 C-25.5833324 143.85969535 -28.11979179 143.86039814 -30.65625 143.859375 C-31.83464447 143.86858475 -33.01303894 143.87779449 -34.22714233 143.88728333 C-40.70979694 143.85116313 -46.92091981 143.61000968 -52.7578125 140.49609375 C-55.98719065 136.19025621 -55.95607488 132.74268332 -55.7578125 127.49609375 C-55.39545669 125.38080532 -54.96102944 123.27687125 -54.46362305 121.18920898 C-54.17840286 119.97524445 -53.89318268 118.76127991 -53.59931946 117.51052856 C-53.2811907 116.19188255 -52.96292386 114.87326984 -52.64453125 113.5546875 C-52.3150441 112.16462158 -51.98625855 110.77438919 -51.65812683 109.38400269 C-50.77865936 105.66655499 -49.88952925 101.95148741 -48.99776459 98.23697281 C-48.07484479 94.38897551 -47.15809094 90.53950938 -46.24072266 86.69018555 C-45.13426387 82.04867154 -44.02698519 77.40736125 -42.91577148 72.76698303 C-40.71051859 63.55021286 -38.55965009 54.32286293 -36.45703125 45.08203125 C-35.73906431 41.95961216 -35.01929543 38.83761634 -34.29849243 35.71585083 C-33.85907663 33.79676834 -33.42581971 31.87626392 -32.99911499 29.95431519 C-28.1358322 8.08562701 -28.1358322 8.08562701 -20.95458984 3.2925415 C-14.04436669 -0.04950797 -7.57474128 -0.06840305 0 0 Z M-2.7578125 25.49609375 C-3.75690035 29.44656867 -4.75455794 33.39736132 -5.74853516 37.34912109 C-6.08720537 38.69373601 -6.42671948 40.03813866 -6.76708984 41.38232422 C-7.25579359 43.31291775 -7.74122562 45.24433856 -8.2265625 47.17578125 C-8.51982422 48.33835449 -8.81308594 49.50092773 -9.11523438 50.69873047 C-9.83243845 53.34259658 -9.83243845 53.34259658 -9.7578125 55.49609375 C-0.5178125 55.49609375 8.7221875 55.49609375 18.2421875 55.49609375 C20.18698445 48.25340166 22.13146369 41.01092931 23.9921875 33.74609375 C24.23453125 32.8025 24.476875 31.85890625 24.7265625 30.88671875 C25.34760644 28.41493315 25.34760644 28.41493315 25.2421875 25.49609375 C16.0021875 25.49609375 6.7621875 25.49609375 -2.7578125 25.49609375 Z " fill="#002D62" transform="translate(889.7578125,833.50390625)"/>
<path d="M0 0 C1.18157684 -0.00960754 2.36315369 -0.01921509 3.58053589 -0.02911377 C4.85349518 -0.03336365 6.12645447 -0.03761353 7.43798828 -0.04199219 C8.74986115 -0.04769226 10.06173401 -0.05339233 11.4133606 -0.05926514 C14.18898911 -0.06975447 16.96458884 -0.07561076 19.74023438 -0.07910156 C23.28654963 -0.08458461 26.83248063 -0.10861681 30.37867546 -0.13707352 C33.77343879 -0.16024102 37.16815002 -0.1621519 40.56298828 -0.16699219 C41.83189911 -0.17933899 43.10080994 -0.19168579 44.40817261 -0.20440674 C45.59605377 -0.20140564 46.78393494 -0.19840454 48.0078125 -0.1953125 C49.04831757 -0.19895813 50.08882263 -0.20260376 51.16085815 -0.20635986 C55.64047009 0.34746902 59.0138572 1.89243009 62.00830078 5.28613281 C65.48059057 14.15976227 61.74807067 24.34180202 59.63330078 33.22363281 C59.29515785 34.67589673 58.95791075 36.12836954 58.62158203 37.58105469 C57.80409571 41.11074315 56.96840176 44.63538759 56.13330078 48.16113281 C46.56330078 48.16113281 36.99330078 48.16113281 27.13330078 48.16113281 C29.13330078 36.16113281 29.13330078 36.16113281 32.13330078 25.16113281 C23.22330078 25.16113281 14.31330078 25.16113281 5.13330078 25.16113281 C4.80330078 27.80113281 4.47330078 30.44113281 4.13330078 33.16113281 C3.6417921 35.66706309 3.1222323 38.16770332 2.57080078 40.66113281 C2.30138672 41.88832031 2.03197266 43.11550781 1.75439453 44.37988281 C1.54943359 45.29769531 1.34447266 46.21550781 1.13330078 47.16113281 C1.8186792 47.4012207 2.50405762 47.64130859 3.21020508 47.88867188 C6.70303772 49.40914659 9.75747743 51.39871284 12.90283203 53.52050781 C13.54266525 53.94736877 14.18249847 54.37422974 14.84172058 54.81402588 C16.19208689 55.71627801 17.54096255 56.62076466 18.88842773 57.52734375 C20.92556363 58.89752131 22.96744828 60.26036424 25.01025391 61.62207031 C43.26560803 73.82343981 43.26560803 73.82343981 45.63330078 77.47363281 C46.99239139 84.77874483 45.87578122 91.59785586 44.12158203 98.72753906 C43.91147995 99.60586899 43.70137787 100.48419891 43.48490906 101.3891449 C43.04032355 103.23327062 42.59044292 105.07612717 42.13549805 106.91772461 C41.44780231 109.71548994 40.78677606 112.51867567 40.12744141 115.32324219 C39.6895906 117.1250646 39.25018874 118.92651096 38.80908203 120.72753906 C38.51968498 121.96849083 38.51968498 121.96849083 38.22444153 123.23451233 C36.46473661 130.20180864 33.784644 136.00691645 28.13330078 140.59863281 C23.59541097 142.96211709 19.51086717 143.2869791 14.44433594 143.32226562 C13.32612457 143.33187317 12.20791321 143.34148071 11.05581665 143.35137939 C9.85677704 143.35562927 8.65773743 143.35987915 7.42236328 143.36425781 C6.18086517 143.36995789 4.93936707 143.37565796 3.6602478 143.38153076 C1.03603973 143.39096865 -1.58818013 143.39750993 -4.21240234 143.40136719 C-6.89515727 143.40576048 -9.57759213 143.41968921 -12.26025391 143.44238281 C-16.13698053 143.47287071 -20.01330351 143.48341746 -23.89013672 143.48925781 C-25.08512787 143.50160461 -26.28011902 143.51395142 -27.51132202 143.52667236 C-33.72947042 143.51007742 -38.42270495 143.28468956 -43.86669922 140.16113281 C-47.18556877 136.52108234 -47.08298885 133.30185959 -47.02267456 128.6315918 C-46.77080801 124.64233322 -45.8925826 120.87601004 -44.93310547 117.00488281 C-44.73571274 116.17653931 -44.53832001 115.3481958 -44.33494568 114.49475098 C-43.92019088 112.76260776 -43.50062472 111.03161001 -43.07641602 109.30175781 C-42.42470465 106.6427951 -41.78807203 103.98055598 -41.15380859 101.31738281 C-40.74776968 99.62967516 -40.34089903 97.94216735 -39.93310547 96.25488281 C-39.74140274 95.45707397 -39.54970001 94.65926514 -39.35218811 93.83728027 C-37.98371533 88.27814892 -37.98371533 88.27814892 -36.86669922 87.16113281 C-34.79407845 87.07346169 -32.71849628 87.05417408 -30.64404297 87.06347656 C-28.75395508 87.06831055 -28.75395508 87.06831055 -26.82568359 87.07324219 C-25.48518813 87.08159878 -24.14469334 87.09006374 -22.80419922 87.09863281 C-21.4597998 87.10364621 -20.11539862 87.1082094 -18.77099609 87.11230469 C-15.46951981 87.12413794 -12.16813119 87.1406231 -8.86669922 87.16113281 C-9.53344105 93.60125278 -10.83455511 99.74996442 -12.36669922 106.03613281 C-12.59228516 106.98488281 -12.81787109 107.93363281 -13.05029297 108.91113281 C-14.72970145 115.88713728 -14.72970145 115.88713728 -15.86669922 118.16113281 C-7.28669922 118.16113281 1.29330078 118.16113281 10.13330078 118.16113281 C11.09236328 113.61332031 11.09236328 113.61332031 12.07080078 108.97363281 C12.37038696 107.55401245 12.37038696 107.55401245 12.67602539 106.10571289 C13.51416416 102.12782604 14.34873626 98.15002401 15.13330078 94.16113281 C5.45645541 86.94327655 -4.37529872 79.99131649 -14.35888672 73.20410156 C-15.0959082 72.70185059 -15.83292969 72.19959961 -16.59228516 71.68212891 C-18.16991507 70.6271016 -19.76303555 69.59501644 -21.36767578 68.58154297 C-22.17430664 68.06769043 -22.9809375 67.55383789 -23.81201172 67.02441406 C-24.90666748 66.34245972 -24.90666748 66.34245972 -26.0234375 65.64672852 C-28.23515894 63.86416892 -28.99386982 62.87466752 -29.86669922 60.16113281 C-30.2491145 54.24852423 -29.41991182 49.08048193 -28.03857422 43.34863281 C-27.84829651 42.53547607 -27.6580188 41.72231934 -27.4619751 40.88452148 C-27.05949301 39.17586878 -26.65250262 37.46827231 -26.24121094 35.76171875 C-25.6191665 33.17140704 -25.01746242 30.57694462 -24.41748047 27.98144531 C-24.02156286 26.31188522 -23.62446611 24.64260422 -23.22607422 22.97363281 C-23.04985535 22.20881592 -22.87363647 21.44399902 -22.69207764 20.65600586 C-21.15189267 14.36833999 -19.10773637 6.89006791 -13.36669922 3.22363281 C-12.79951172 2.84335937 -12.23232422 2.46308594 -11.64794922 2.07128906 C-7.8480572 0.12967757 -4.21949676 0.02773159 0 0 Z " fill="#002D62" transform="translate(1093.86669921875,833.8388671875)"/>
<path d="M0 0 C1.28164536 -0.00287018 2.56329071 -0.00574036 3.8837738 -0.00869751 C6.58432989 -0.01309737 9.28458641 -0.00676514 11.98510742 0.00732422 C15.43039266 0.02443252 18.87497743 0.01455048 22.32023716 -0.00339317 C25.63021294 -0.01689451 28.94000438 -0.0074181 32.25 0 C33.47932755 -0.00607269 34.70865509 -0.01214539 35.97523499 -0.0184021 C49.21036968 0.08997145 49.21036968 0.08997145 54.47070312 5.2878418 C58.78167744 13.65148025 54.21099746 25.46290884 52.05859375 34.0859375 C51.72020885 35.48084245 51.38296134 36.87602383 51.046875 38.27148438 C50.2325432 41.65116193 49.39528648 45.02391913 48.55859375 48.3984375 C38.98859375 48.3984375 29.41859375 48.3984375 19.55859375 48.3984375 C21.49609375 39.7109375 21.49609375 39.7109375 22.10131836 37.0012207 C22.34120483 35.92360474 22.34120483 35.92360474 22.5859375 34.82421875 C22.74827881 34.09630127 22.91062012 33.36838379 23.07788086 32.6184082 C23.59781537 30.21730891 24.07678587 27.80747691 24.55859375 25.3984375 C15.31859375 25.3984375 6.07859375 25.3984375 -3.44140625 25.3984375 C-3.77140625 28.0384375 -4.10140625 30.6784375 -4.44140625 33.3984375 C-4.70546903 34.80055655 -4.99242496 36.19896939 -5.32093811 37.58740234 C-5.49059586 38.31360275 -5.6602536 39.03980316 -5.83505249 39.78800964 C-6.11018173 40.93708549 -6.11018173 40.93708549 -6.39086914 42.109375 C-6.58608658 42.93959671 -6.78130402 43.76981842 -6.98243713 44.62519836 C-7.62234879 47.34223094 -8.26815458 50.05782475 -8.9140625 52.7734375 C-9.36140415 54.66763823 -9.80837429 56.56192672 -10.25498962 58.45629883 C-11.42672714 63.42192228 -12.60348304 68.38634309 -13.78131104 73.3505249 C-14.98421141 78.42436865 -16.18233004 83.49934107 -17.38085938 88.57421875 C-19.72971393 98.51673283 -22.0843162 108.4578726 -24.44140625 118.3984375 C-15.20140625 118.3984375 -5.96140625 118.3984375 3.55859375 118.3984375 C3.88859375 115.7584375 4.21859375 113.1184375 4.55859375 110.3984375 C4.98401682 108.24713582 5.4413913 106.10185579 5.93359375 103.96484375 C6.32804688 102.25071289 6.32804688 102.25071289 6.73046875 100.50195312 C7.00375 99.33341797 7.27703125 98.16488281 7.55859375 96.9609375 C7.831875 95.76533203 8.10515625 94.56972656 8.38671875 93.33789062 C10.43051733 84.52651392 10.43051733 84.52651392 11.55859375 83.3984375 C13.63121451 83.31076638 15.70679669 83.29147877 17.78125 83.30078125 C19.67133789 83.30561523 19.67133789 83.30561523 21.59960938 83.31054688 C22.94010484 83.31890347 24.28059963 83.32736843 25.62109375 83.3359375 C26.96549317 83.3409509 28.30989435 83.34551408 29.65429688 83.34960938 C32.95577316 83.36144262 36.25716178 83.37792779 39.55859375 83.3984375 C38.05132063 92.55065095 36.02707062 101.5745343 33.89208984 110.59692383 C33.50226748 112.25978533 33.12045671 113.92454485 32.74658203 115.59106445 C28.61343963 133.99167004 28.61343963 133.99167004 22.55859375 139.3984375 C17.3980423 142.5979794 12.97940798 143.52043999 6.9831543 143.54370117 C5.8648674 143.55008102 4.74658051 143.55646088 3.59440613 143.56303406 C2.39020523 143.56414688 1.18600433 143.5652597 -0.0546875 143.56640625 C-1.29760056 143.56973465 -2.54051361 143.57306305 -3.8210907 143.57649231 C-6.45128001 143.58155566 -9.08147574 143.58390082 -11.71166992 143.58374023 C-14.40119141 143.58365895 -17.0905427 143.59060371 -19.7800293 143.60424805 C-23.66330154 143.62259121 -27.54637622 143.6274779 -31.4296875 143.62890625 C-32.6278157 143.63609177 -33.82594391 143.64327728 -35.06037903 143.65068054 C-49.03751364 143.61254911 -49.03751364 143.61254911 -53.81640625 139.2109375 C-58.23338058 131.56617424 -55.60462794 124.2885968 -53.64453125 116.18359375 C-53.32631802 114.82879369 -53.0092345 113.47372788 -52.69317627 112.11842346 C-51.99819262 109.14847009 -51.2953978 106.18050374 -50.5871582 103.21368408 C-49.38569422 98.17613943 -48.20866647 93.13301984 -47.03320312 88.08935547 C-45.10485965 79.82562013 -43.15831788 71.56632513 -41.19957733 63.30974388 C-40.07119059 58.55318028 -38.94589539 53.7959361 -37.828125 49.03686523 C-36.72439881 44.33762649 -35.61341752 39.64016039 -34.49710846 34.94389534 C-34.07837973 33.1771156 -33.66214848 31.40974188 -33.24855804 29.64175224 C-32.6749743 27.19231016 -32.09205218 24.74526894 -31.50683594 22.29858398 C-31.34160431 21.583396 -31.17637268 20.86820801 -31.00613403 20.13134766 C-29.33731816 13.23939181 -26.97995354 7.95235416 -21.44140625 3.3984375 C-14.33430279 -0.05238036 -7.80951478 -0.03864145 0 0 Z " fill="#002D62" transform="translate(778.44140625,833.6015625)"/>
<path d="M0 0 C0.79555801 -0.00394272 1.59111603 -0.00788544 2.41078186 -0.01194763 C5.03743693 -0.01865442 7.66234967 0.01049394 10.28881836 0.04077148 C12.11437137 0.04502187 13.93992978 0.04735019 15.76548767 0.0478363 C19.58967615 0.05400137 23.41327882 0.07670082 27.23730469 0.11230469 C32.14251641 0.15760925 37.04719791 0.17233227 41.95259953 0.1760416 C45.72123966 0.18046723 49.48976818 0.1957653 53.25835991 0.21491814 C55.06728636 0.2238054 56.87622474 0.23053295 58.68516731 0.23507881 C61.21088874 0.24410816 63.7361277 0.26648645 66.26171875 0.29296875 C67.0114093 0.29363342 67.76109985 0.2942981 68.5335083 0.29498291 C72.25216214 0.34887487 73.89024848 0.48208948 77.06616211 2.59936523 C77.43847656 4.42431641 77.43847656 4.42431641 77.42944336 6.64233398 C77.43041016 7.4610498 77.43137695 8.27976562 77.43237305 9.12329102 C77.41464844 10.00227051 77.39692383 10.88125 77.37866211 11.78686523 C77.36174316 13.14400635 77.36174316 13.14400635 77.34448242 14.52856445 C76.91181009 35.99898007 71.45098433 57.32535774 64.44116211 77.53686523 C64.10141357 78.51671387 63.76166504 79.4965625 63.41162109 80.50610352 C54.21212382 106.45340353 54.21212382 106.45340353 50.06616211 110.59936523 C47.69116211 110.97436523 47.69116211 110.97436523 45.06616211 110.59936523 C42.87226487 107.42710842 41.24012244 103.98244215 39.51757812 100.53735352 C28.7106847 79.2341574 10.99206661 62.16198521 -10.01586914 50.88061523 C-12.29651344 49.35708911 -13.45891363 47.91010569 -14.93383789 45.59936523 C-15.27075195 43.55957031 -15.27075195 43.55957031 -15.19946289 41.30639648 C-15.17174805 40.42806152 -15.1440332 39.54972656 -15.11547852 38.64477539 C-14.78999868 33.18773846 -14.39178212 27.74449603 -13.87182617 22.30224609 C-13.74573246 20.95042324 -13.6276607 19.59782981 -13.51733398 18.24462891 C-13.35560165 16.26114162 -13.168457 14.2797784 -12.98071289 12.29858398 C-12.87597656 11.13157959 -12.77124023 9.9645752 -12.66333008 8.76220703 C-10.94782881 1.3243493 -7.12421862 -0.14135012 0 0 Z " fill="#FDC426" transform="translate(882.933837890625,408.400634765625)"/>
<path d="M0 0 C9.40292551 4.72832825 14.62648508 23.84168164 17.78955078 33.22216797 C24.23004423 53.20604792 28.15286636 74.25614607 28.48828125 95.28125 C28.51043701 96.02536133 28.53259277 96.76947266 28.55541992 97.53613281 C28.53494079 102.50495553 28.53494079 102.50495553 26.4964447 104.72085571 C23.16149817 106.50773071 20.11443759 106.45071249 16.42407227 106.41943359 C15.27944519 106.42731903 15.27944519 106.42731903 14.11169434 106.43536377 C11.59248301 106.44855327 9.07390512 106.43982879 6.5546875 106.4296875 C4.80118183 106.43170875 3.04767699 106.43462062 1.29417419 106.43838501 C-2.38021857 106.44280711 -6.05439246 106.43638181 -9.72875977 106.42236328 C-14.43429998 106.40528402 -19.13932638 106.4151052 -23.84484768 106.43308067 C-27.46600703 106.44393239 -31.08704503 106.44046559 -34.70820808 106.4326973 C-36.44292321 106.43069847 -38.17764942 106.43314341 -39.91235161 106.44013596 C-42.33956867 106.44777196 -44.76595955 106.43611617 -47.19311523 106.41943359 C-47.90756302 106.42550629 -48.6220108 106.43157898 -49.35810852 106.43783569 C-53.70843221 106.38256257 -56.4987658 105.7235577 -59.94921875 103.03125 C-60.8046875 100.81640625 -60.8046875 100.81640625 -61.13671875 98.09375 C-61.27207031 97.03800781 -61.40742187 95.98226562 -61.546875 94.89453125 C-61.67964844 93.61964844 -61.81242188 92.34476562 -61.94921875 91.03125 C-62.13529053 89.37889204 -62.32149723 87.72654927 -62.5078125 86.07421875 C-63.05070726 81.06412856 -63.58773548 76.05819283 -63.94921875 71.03125 C-64.00174805 70.30099609 -64.05427734 69.57074219 -64.10839844 68.81835938 C-64.28812251 64.30622808 -63.93165054 61.47761563 -60.94921875 58.03125 C-58.63370084 56.61955878 -56.4454911 55.43554824 -54.01171875 54.28125 C-32.59335204 43.41115212 -16.80727263 25.99990323 -5.984375 4.765625 C-3.17036296 0.05082746 -3.17036296 0.05082746 0 0 Z " fill="#FCC326" transform="translate(931.94921875,284.96875)"/>
<path d="M0 0 C3.67198538 4.01802482 3.45829483 7.2272026 3.32421875 12.47851562 C2.71913959 19.05055017 1.10361904 25.36627396 -0.5 31.75 C-0.83849304 33.14032043 -1.17574052 34.53094472 -1.51171875 35.921875 C-2.32464482 39.28570703 -3.1625889 42.64181058 -4 46 C-13.57 46 -23.14 46 -33 46 C-31.68 39.07 -30.36 32.14 -29 25 C-37.58 25 -46.16 25 -55 25 C-55.33 27.64 -55.66 30.28 -56 33 C-56.3219938 34.64930187 -56.67245945 36.2935366 -57.06262207 37.92805481 C-57.27290543 38.81820282 -57.48318878 39.70835083 -57.69984436 40.62547302 C-57.9284465 41.57382523 -58.15704865 42.52217743 -58.39257812 43.49926758 C-58.63495712 44.51974182 -58.87733612 45.54021606 -59.12705994 46.59161377 C-59.92432632 49.94358574 -60.72769041 53.29406288 -61.53125 56.64453125 C-62.08826666 58.97995646 -62.64494298 61.31546287 -63.20129395 63.65104675 C-64.36548023 68.53451049 -65.53245263 73.41729661 -66.70166016 78.29956055 C-68.20195747 84.56451818 -69.69733211 90.83063712 -71.19089508 97.09720325 C-72.61510131 103.07172957 -74.04187337 109.04564226 -75.46875 115.01953125 C-75.87771263 116.73333449 -75.87771263 116.73333449 -76.29493713 118.48176003 C-77.06433947 121.70408488 -77.83557978 124.92596387 -78.60742188 128.14770508 C-78.83602402 129.10617844 -79.06462616 130.06465179 -79.30015564 131.0521698 C-79.510439 131.92821869 -79.72072235 132.80426758 -79.93737793 133.7068634 C-80.11951591 134.46801358 -80.3016539 135.22916376 -80.48931122 136.0133791 C-80.92172372 137.69549891 -81.45077258 139.35231773 -82 141 C-91.57 141 -101.14 141 -111 141 C-108.134397 127.98077022 -105.14739947 114.99598542 -102.078125 102.0234375 C-101.60971636 100.04075164 -101.141354 98.05805485 -100.67303467 96.0753479 C-99.69562208 91.93870503 -98.71726222 87.80228758 -97.73828125 83.66601562 C-96.75175912 79.49742216 -95.76673534 75.3284796 -94.78320312 71.15917969 C-89.01999966 46.72898222 -83.15308579 22.33530849 -77 -2 C-67.43 -2 -57.86 -2 -48 -2 C-48.33 -1.01 -48.66 -0.02 -49 1 C-47.68563965 0.81824219 -47.68563965 0.81824219 -46.34472656 0.6328125 C-43.03547929 0.17913241 -39.72540399 -0.26723677 -36.41455078 -0.70898438 C-34.99261702 -0.90015796 -33.57105005 -1.09408374 -32.14990234 -1.29101562 C-6.70116758 -4.81109467 -6.70116758 -4.81109467 0 0 Z " fill="#002D62" transform="translate(1055,836)"/>
</svg>
