<?xml version="1.0" encoding="UTF-8"?>
<svg version="1.1" xmlns="http://www.w3.org/2000/svg" width="500" height="500">
<path d="M0 0 C2.8146072 0.00315077 5.62814922 -0.02036941 8.44262695 -0.0456543 C25.08232143 -0.10425371 41.36560715 1.75017029 57.52270508 5.81567383 C58.3709082 6.01547852 59.21911133 6.2152832 60.09301758 6.42114258 C65.02550336 7.62362747 69.6338044 8.96492815 74.14770508 11.31567383 C75.53199625 14.13369514 76.35770987 16.33952835 77.14770508 19.31567383 C77.7085522 21.14951348 78.27105825 22.98284658 78.83520508 24.81567383 C79.27547873 26.31486206 79.71398628 27.81457614 80.14770508 29.31567383 C81.15833008 28.47004883 82.16895508 27.62442383 83.21020508 26.75317383 C85.76402428 24.6163047 86.76787537 24.28424818 90.14575195 24.5637207 C98.12490774 25.86702816 105.82223299 28.78413915 113.46240234 31.34814453 C115.53480263 32.03170773 117.61508677 32.69184051 119.70263672 33.32763672 C138.92371195 39.19867441 138.92371195 39.19867441 143.30201721 47.16294861 C144.80328854 50.4831907 145.95195518 53.87145351 147.14770508 57.31567383 C148.79770508 60.61567383 150.44770508 63.91567383 152.14770508 67.31567383 C172.60770508 67.64567383 193.06770508 67.97567383 214.14770508 68.31567383 C212.32499454 72.87245017 210.96525029 74.97969732 207.83520508 78.56567383 C203.06686656 84.1233092 198.6060593 89.87411647 194.21069336 95.72998047 C191.36218885 99.50169735 188.45101165 103.17366641 185.35864258 106.74926758 C184.74802979 107.46373047 184.13741699 108.17819336 183.50830078 108.91430664 C182.33377097 110.2787706 181.1427161 111.62922873 179.93359375 112.96313477 C179.40741455 113.57833984 178.88123535 114.19354492 178.33911133 114.82739258 C177.63057007 115.62342896 177.63057007 115.62342896 176.90771484 116.43554688 C175.68463508 119.46122542 176.93219146 121.38085114 178.14770508 124.31567383 C179.07228516 126.43700694 180.02879805 128.5446101 181.01098633 130.63989258 C181.56850586 131.83420898 182.12602539 133.02852539 182.70043945 134.2590332 C183.28689305 135.50714349 183.87348221 136.7551901 184.46020508 138.00317383 C185.03538956 139.23154215 185.61026172 140.46005676 186.18481445 141.6887207 C186.46686737 142.29144806 186.74892029 142.89417542 187.03952026 143.51516724 C187.87721087 145.30860493 188.71096583 147.1038792 189.54467773 148.89916992 C190.57975481 151.10521144 191.63536967 153.301786 192.71557617 155.48608398 C193.1817334 156.44691895 193.64789063 157.40775391 194.12817383 158.39770508 C194.54349365 159.23148682 194.95881348 160.06526855 195.38671875 160.92431641 C196.3691411 164.01152426 196.33050668 165.27874311 195.14770508 168.31567383 C193.276379 170.70236127 191.13671109 172.76768708 188.95239258 174.86645508 C188.32672394 175.48409225 187.7010553 176.10172943 187.056427 176.73808289 C185.05442937 178.71112582 183.03932429 180.67008764 181.02270508 182.62817383 C178.39095408 185.20339328 175.76458911 187.78404774 173.13989258 190.36645508 C172.50924393 190.98537628 171.87859528 191.60429749 171.22883606 192.24197388 C167.54170705 195.87827368 164.02579999 199.58832821 160.68286133 203.546875 C157.70659151 206.97611718 154.43981572 210.12726528 151.21020508 213.31567383 C150.52635742 213.99500977 149.84250977 214.6743457 149.13793945 215.37426758 C147.47683349 217.02375742 145.81341995 218.67084063 144.14770508 220.31567383 C139.49783082 218.69988741 135.63284326 216.21160583 131.52270508 213.56567383 C121.42019849 206.06909987 121.42019849 206.06909987 110.14770508 202.31567383 C107.76025114 204.83492463 105.74334213 207.67679676 103.64770508 210.44067383 C103.05344727 211.2012207 102.45918945 211.96176758 101.84692383 212.74536133 C96.85113559 219.28612245 95.1507629 224.75077058 93.83520508 232.87817383 C89.84338363 255.4112283 77.10747008 276.24490541 58.58520508 289.81567383 C50.82603835 295.04832176 42.28893756 299.98757148 33.39770508 302.94067383 C27.15207631 305.60734678 23.46265079 312.04038469 19.58569336 317.36499023 C17.20376178 320.59616736 14.70268672 323.73203698 12.21020508 326.87817383 C11.32572726 328.00419069 10.44159452 329.13047872 9.55786133 330.25708008 C7.43328804 332.95325655 5.29631488 335.63863563 3.14770508 338.31567383 C0.17205182 337.00386952 -1.63470692 335.71535224 -3.66479492 333.18286133 C-4.1763916 332.54920654 -4.68798828 331.91555176 -5.21508789 331.26269531 C-5.75536621 330.57892822 -6.29564453 329.89516113 -6.85229492 329.19067383 C-7.4247998 328.48434814 -7.99730469 327.77802246 -8.5871582 327.05029297 C-11.48862932 323.43803735 -14.25571808 319.78784609 -16.84448242 315.94458008 C-23.71419873 305.86187167 -29.57054062 301.65672372 -40.85229492 297.31567383 C-61.33279196 286.7496636 -76.95596831 268.91319418 -84.85229492 247.31567383 C-86.76743076 241.26063357 -88.50142351 234.93959947 -89.11401367 228.61254883 C-89.98464653 219.99185629 -96.05745081 214.205876 -101.51196289 207.89086914 C-103.04306142 206.09147976 -104.47052322 204.23185898 -105.85229492 202.31567383 C-109.54334355 202.9079326 -112.42223919 203.93754246 -115.72338867 205.67895508 C-116.62766602 206.15397461 -117.53194336 206.62899414 -118.46362305 207.1184082 C-119.39625977 207.61663086 -120.32889648 208.11485352 -121.28979492 208.62817383 C-122.21856445 209.11479492 -123.14733398 209.60141602 -124.10424805 210.1027832 C-127.9711229 212.1476857 -131.72666038 214.15094902 -135.26245117 216.73364258 C-137.85229492 218.31567383 -137.85229492 218.31567383 -139.69792175 218.20355225 C-142.75312617 216.94441566 -144.56251212 215.01079748 -146.91210938 212.69165039 C-147.4019783 212.2118573 -147.89184723 211.73206421 -148.39656067 211.23773193 C-150.01092528 209.65182933 -151.61376955 208.05487804 -153.21557617 206.45629883 C-154.33304503 205.34846969 -155.45073926 204.24086784 -156.56864929 203.13348389 C-158.90823858 200.81184972 -161.24155007 198.4841045 -163.57128906 196.15258789 C-166.56024134 193.16333021 -169.56932247 190.19526608 -172.58410358 187.23209 C-174.89771892 184.95179165 -177.19760897 182.65802707 -179.49382591 180.36022186 C-180.59783874 179.25975361 -181.70672975 178.16415715 -182.82048988 177.07355499 C-184.37474446 175.54862955 -185.90890399 174.00594218 -187.43945312 172.45727539 C-188.31785355 171.58315002 -189.19625397 170.70902466 -190.10127258 169.80841064 C-191.85229492 167.31567383 -191.85229492 167.31567383 -191.71728516 164.70446777 C-190.53029416 161.42642278 -189.12244006 158.28275871 -187.61401367 155.14379883 C-187.29197464 154.46194519 -186.96993561 153.78009155 -186.63813782 153.07757568 C-185.61054992 150.90443546 -184.57546975 148.73496991 -183.53979492 146.56567383 C-182.85501735 145.1232183 -182.17076744 143.68051215 -181.48706055 142.23754883 C-181.15449249 141.53593628 -180.82192444 140.83432373 -180.47927856 140.1114502 C-179.50922997 138.0615204 -178.54265665 136.00997878 -177.57641602 133.95825195 C-176.55231524 131.78400507 -175.51037988 129.62449072 -174.44458008 127.4699707 C-172.96632738 124.40029156 -171.87548882 122.09962746 -171.77416992 118.67504883 C-173.35775133 115.20953009 -175.66291215 112.45198979 -178.10229492 109.56567383 C-179.20170778 108.22987807 -180.29929859 106.89258104 -181.39526367 105.55395508 C-181.9655127 104.85995605 -182.53576172 104.16595703 -183.12329102 103.45092773 C-185.96358003 99.94327909 -188.68834283 96.34956996 -191.41479492 92.75317383 C-194.61296756 88.53856133 -197.81998955 84.33578165 -201.11791992 80.19848633 C-201.63153076 79.55339111 -202.1451416 78.9082959 -202.67431641 78.24365234 C-203.64620332 77.02724155 -204.62209816 75.81401896 -205.60253906 74.60449219 C-208.85229492 70.53482421 -208.85229492 70.53482421 -208.85229492 68.31567383 C-178.16229492 67.82067383 -178.16229492 67.82067383 -146.85229492 67.31567383 C-143.22229492 59.39567383 -139.59229492 51.47567383 -135.85229492 43.31567383 C-132.33911014 40.68078524 -129.86241074 39.37006474 -125.84448242 37.83520508 C-124.69334961 37.39370117 -123.5422168 36.95219727 -122.35620117 36.49731445 C-121.15866211 36.04549805 -119.96112305 35.59368164 -118.72729492 35.12817383 C-117.52202148 34.66475586 -116.31674805 34.20133789 -115.07495117 33.72387695 C-106.13030026 30.31567383 -106.13030026 30.31567383 -103.85229492 30.31567383 C-102.86229492 27.01567383 -101.87229492 23.71567383 -100.85229492 20.31567383 C-91.73640596 22.9675688 -83.37488902 27.19625693 -74.85229492 31.31567383 C-74.57514648 30.20708008 -74.29799805 29.09848633 -74.01245117 27.95629883 C-72.95906576 23.74275716 -71.90568034 19.52921549 -70.85229492 15.31567383 C-70.66534058 14.24687988 -70.66534058 14.24687988 -70.47460938 13.15649414 C-70.26924561 12.54902344 -70.06388184 11.94155273 -69.85229492 11.31567383 C-67.5053772 10.2392209 -65.44226573 9.50042033 -62.97729492 8.81567383 C-62.26766602 8.60773193 -61.55803711 8.39979004 -60.8269043 8.18554688 C-55.38156838 6.63674857 -49.88447158 5.32629764 -44.35229492 4.12817383 C-43.64347168 3.97348633 -42.93464844 3.81879883 -42.2043457 3.65942383 C-28.14327003 0.78279727 -14.31210874 -0.03332703 0 0 Z " fill="#076DB4" transform="translate(247.852294921875,80.684326171875)"/>
<path d="M0 0 C2.8146072 0.00315077 5.62814922 -0.02036941 8.44262695 -0.0456543 C25.08232143 -0.10425371 41.36560715 1.75017029 57.52270508 5.81567383 C58.3709082 6.01547852 59.21911133 6.2152832 60.09301758 6.42114258 C65.02550336 7.62362747 69.6338044 8.96492815 74.14770508 11.31567383 C75.53199625 14.13369514 76.35770987 16.33952835 77.14770508 19.31567383 C77.7085522 21.14951348 78.27105825 22.98284658 78.83520508 24.81567383 C79.27547873 26.31486206 79.71398628 27.81457614 80.14770508 29.31567383 C81.15833008 28.47004883 82.16895508 27.62442383 83.21020508 26.75317383 C85.76402428 24.6163047 86.76787537 24.28424818 90.14575195 24.5637207 C98.12490774 25.86702816 105.82223299 28.78413915 113.46240234 31.34814453 C115.53480263 32.03170773 117.61508677 32.69184051 119.70263672 33.32763672 C138.92371195 39.19867441 138.92371195 39.19867441 143.30201721 47.16294861 C144.80328854 50.4831907 145.95195518 53.87145351 147.14770508 57.31567383 C148.79770508 60.61567383 150.44770508 63.91567383 152.14770508 67.31567383 C172.60770508 67.64567383 193.06770508 67.97567383 214.14770508 68.31567383 C212.32499454 72.87245017 210.96525029 74.97969732 207.83520508 78.56567383 C203.06686656 84.1233092 198.6060593 89.87411647 194.21069336 95.72998047 C191.36218885 99.50169735 188.45101165 103.17366641 185.35864258 106.74926758 C184.74802979 107.46373047 184.13741699 108.17819336 183.50830078 108.91430664 C182.33377097 110.2787706 181.1427161 111.62922873 179.93359375 112.96313477 C179.40741455 113.57833984 178.88123535 114.19354492 178.33911133 114.82739258 C177.63057007 115.62342896 177.63057007 115.62342896 176.90771484 116.43554688 C175.68463508 119.46122542 176.93219146 121.38085114 178.14770508 124.31567383 C179.07228516 126.43700694 180.02879805 128.5446101 181.01098633 130.63989258 C181.56850586 131.83420898 182.12602539 133.02852539 182.70043945 134.2590332 C183.28689305 135.50714349 183.87348221 136.7551901 184.46020508 138.00317383 C185.03538956 139.23154215 185.61026172 140.46005676 186.18481445 141.6887207 C186.46686737 142.29144806 186.74892029 142.89417542 187.03952026 143.51516724 C187.87721087 145.30860493 188.71096583 147.1038792 189.54467773 148.89916992 C190.57975481 151.10521144 191.63536967 153.301786 192.71557617 155.48608398 C193.1817334 156.44691895 193.64789063 157.40775391 194.12817383 158.39770508 C194.54349365 159.23148682 194.95881348 160.06526855 195.38671875 160.92431641 C196.3691411 164.01152426 196.33050668 165.27874311 195.14770508 168.31567383 C193.276379 170.70236127 191.13671109 172.76768708 188.95239258 174.86645508 C188.32672394 175.48409225 187.7010553 176.10172943 187.056427 176.73808289 C185.05442937 178.71112582 183.03932429 180.67008764 181.02270508 182.62817383 C178.39095408 185.20339328 175.76458911 187.78404774 173.13989258 190.36645508 C172.50924393 190.98537628 171.87859528 191.60429749 171.22883606 192.24197388 C167.54170705 195.87827368 164.02579999 199.58832821 160.68286133 203.546875 C157.70659151 206.97611718 154.43981572 210.12726528 151.21020508 213.31567383 C150.52635742 213.99500977 149.84250977 214.6743457 149.13793945 215.37426758 C147.47683349 217.02375742 145.81341995 218.67084063 144.14770508 220.31567383 C139.49783082 218.69988741 135.63284326 216.21160583 131.52270508 213.56567383 C121.42019849 206.06909987 121.42019849 206.06909987 110.14770508 202.31567383 C107.76025114 204.83492463 105.74334213 207.67679676 103.64770508 210.44067383 C103.05344727 211.2012207 102.45918945 211.96176758 101.84692383 212.74536133 C96.85113559 219.28612245 95.1507629 224.75077058 93.83520508 232.87817383 C89.84338363 255.4112283 77.10747008 276.24490541 58.58520508 289.81567383 C50.82603835 295.04832176 42.28893756 299.98757148 33.39770508 302.94067383 C27.15207631 305.60734678 23.46265079 312.04038469 19.58569336 317.36499023 C17.20376178 320.59616736 14.70268672 323.73203698 12.21020508 326.87817383 C11.32572726 328.00419069 10.44159452 329.13047872 9.55786133 330.25708008 C7.43328804 332.95325655 5.29631488 335.63863563 3.14770508 338.31567383 C0.17205182 337.00386952 -1.63470692 335.71535224 -3.66479492 333.18286133 C-4.1763916 332.54920654 -4.68798828 331.91555176 -5.21508789 331.26269531 C-5.75536621 330.57892822 -6.29564453 329.89516113 -6.85229492 329.19067383 C-7.4247998 328.48434814 -7.99730469 327.77802246 -8.5871582 327.05029297 C-11.48862932 323.43803735 -14.25571808 319.78784609 -16.84448242 315.94458008 C-23.71419873 305.86187167 -29.57054062 301.65672372 -40.85229492 297.31567383 C-61.33279196 286.7496636 -76.95596831 268.91319418 -84.85229492 247.31567383 C-86.76743076 241.26063357 -88.50142351 234.93959947 -89.11401367 228.61254883 C-89.98464653 219.99185629 -96.05745081 214.205876 -101.51196289 207.89086914 C-103.04306142 206.09147976 -104.47052322 204.23185898 -105.85229492 202.31567383 C-109.54334355 202.9079326 -112.42223919 203.93754246 -115.72338867 205.67895508 C-116.62766602 206.15397461 -117.53194336 206.62899414 -118.46362305 207.1184082 C-119.39625977 207.61663086 -120.32889648 208.11485352 -121.28979492 208.62817383 C-122.21856445 209.11479492 -123.14733398 209.60141602 -124.10424805 210.1027832 C-127.9711229 212.1476857 -131.72666038 214.15094902 -135.26245117 216.73364258 C-137.85229492 218.31567383 -137.85229492 218.31567383 -139.69792175 218.20355225 C-142.75312617 216.94441566 -144.56251212 215.01079748 -146.91210938 212.69165039 C-147.4019783 212.2118573 -147.89184723 211.73206421 -148.39656067 211.23773193 C-150.01092528 209.65182933 -151.61376955 208.05487804 -153.21557617 206.45629883 C-154.33304503 205.34846969 -155.45073926 204.24086784 -156.56864929 203.13348389 C-158.90823858 200.81184972 -161.24155007 198.4841045 -163.57128906 196.15258789 C-166.56024134 193.16333021 -169.56932247 190.19526608 -172.58410358 187.23209 C-174.89771892 184.95179165 -177.19760897 182.65802707 -179.49382591 180.36022186 C-180.59783874 179.25975361 -181.70672975 178.16415715 -182.82048988 177.07355499 C-184.37474446 175.54862955 -185.90890399 174.00594218 -187.43945312 172.45727539 C-188.31785355 171.58315002 -189.19625397 170.70902466 -190.10127258 169.80841064 C-191.85229492 167.31567383 -191.85229492 167.31567383 -191.71728516 164.70446777 C-190.53029416 161.42642278 -189.12244006 158.28275871 -187.61401367 155.14379883 C-187.29197464 154.46194519 -186.96993561 153.78009155 -186.63813782 153.07757568 C-185.61054992 150.90443546 -184.57546975 148.73496991 -183.53979492 146.56567383 C-182.85501735 145.1232183 -182.17076744 143.68051215 -181.48706055 142.23754883 C-181.15449249 141.53593628 -180.82192444 140.83432373 -180.47927856 140.1114502 C-179.50922997 138.0615204 -178.54265665 136.00997878 -177.57641602 133.95825195 C-176.55231524 131.78400507 -175.51037988 129.62449072 -174.44458008 127.4699707 C-172.96632738 124.40029156 -171.87548882 122.09962746 -171.77416992 118.67504883 C-173.35775133 115.20953009 -175.66291215 112.45198979 -178.10229492 109.56567383 C-179.20170778 108.22987807 -180.29929859 106.89258104 -181.39526367 105.55395508 C-181.9655127 104.85995605 -182.53576172 104.16595703 -183.12329102 103.45092773 C-185.96358003 99.94327909 -188.68834283 96.34956996 -191.41479492 92.75317383 C-194.61296756 88.53856133 -197.81998955 84.33578165 -201.11791992 80.19848633 C-201.63153076 79.55339111 -202.1451416 78.9082959 -202.67431641 78.24365234 C-203.64620332 77.02724155 -204.62209816 75.81401896 -205.60253906 74.60449219 C-208.85229492 70.53482421 -208.85229492 70.53482421 -208.85229492 68.31567383 C-178.16229492 67.82067383 -178.16229492 67.82067383 -146.85229492 67.31567383 C-143.22229492 59.39567383 -139.59229492 51.47567383 -135.85229492 43.31567383 C-132.33911014 40.68078524 -129.86241074 39.37006474 -125.84448242 37.83520508 C-124.69334961 37.39370117 -123.5422168 36.95219727 -122.35620117 36.49731445 C-121.15866211 36.04549805 -119.96112305 35.59368164 -118.72729492 35.12817383 C-117.52202148 34.66475586 -116.31674805 34.20133789 -115.07495117 33.72387695 C-106.13030026 30.31567383 -106.13030026 30.31567383 -103.85229492 30.31567383 C-102.86229492 27.01567383 -101.87229492 23.71567383 -100.85229492 20.31567383 C-91.73640596 22.9675688 -83.37488902 27.19625693 -74.85229492 31.31567383 C-74.57514648 30.20708008 -74.29799805 29.09848633 -74.01245117 27.95629883 C-72.95906576 23.74275716 -71.90568034 19.52921549 -70.85229492 15.31567383 C-70.66534058 14.24687988 -70.66534058 14.24687988 -70.47460938 13.15649414 C-70.26924561 12.54902344 -70.06388184 11.94155273 -69.85229492 11.31567383 C-67.5053772 10.2392209 -65.44226573 9.50042033 -62.97729492 8.81567383 C-62.26766602 8.60773193 -61.55803711 8.39979004 -60.8269043 8.18554688 C-55.38156838 6.63674857 -49.88447158 5.32629764 -44.35229492 4.12817383 C-43.64347168 3.97348633 -42.93464844 3.81879883 -42.2043457 3.65942383 C-28.14327003 0.78279727 -14.31210874 -0.03332703 0 0 Z M-95.85229492 32.31567383 C-96.18229492 33.96567383 -96.51229492 35.61567383 -96.85229492 37.31567383 C-97.76108398 37.39688477 -98.66987305 37.4780957 -99.60620117 37.56176758 C-109.33609173 38.98810054 -122.70294695 43.01912227 -129.6628418 50.17797852 C-132.68077491 54.55333205 -134.19647657 59.30183731 -135.85229492 64.31567383 C-137.50229492 67.94567383 -139.15229492 71.57567383 -140.85229492 75.31567383 C-166.09729492 75.81067383 -166.09729492 75.81067383 -191.85229492 76.31567383 C-190.32744252 79.36537862 -189.03849633 81.53323568 -186.98120117 84.15161133 C-186.41183838 84.87977051 -185.84247559 85.60792969 -185.25585938 86.3581543 C-184.64830811 87.12788574 -184.04075684 87.89761719 -183.41479492 88.69067383 C-182.79241943 89.48489746 -182.17004395 90.27912109 -181.52880859 91.09741211 C-179.64004864 93.50620243 -177.7466212 95.91125969 -175.85229492 98.31567383 C-174.26258017 100.33827731 -172.673497 102.36137559 -171.08447266 104.38452148 C-170.16303511 105.55679921 -169.24072287 106.72839012 -168.31738281 107.89916992 C-167.15909577 109.36877611 -166.0054729 110.84205524 -164.85229492 112.31567383 C-164.23741211 112.97825195 -163.6225293 113.64083008 -162.98901367 114.32348633 C-161.27631268 117.32512724 -162.038091 118.96340299 -162.85229492 122.31567383 C-164.14846808 125.5252031 -165.65805161 128.62037256 -167.17651367 131.72973633 C-168.04872209 133.56024465 -168.92045279 135.39098067 -169.79174805 137.22192383 C-171.16844845 140.09315145 -172.55004344 142.96178895 -173.94042969 145.82641602 C-175.28302479 148.60027487 -176.60592317 151.38284947 -177.92651367 154.16723633 C-178.34930099 155.02459381 -178.77208832 155.88195129 -179.20768738 156.76528931 C-179.77366386 157.96706314 -179.77366386 157.96706314 -180.35107422 159.19311523 C-180.6900322 159.89449615 -181.02899017 160.59587708 -181.3782196 161.31851196 C-182.05346944 163.35342622 -182.05346944 163.35342622 -181.10154724 165.40272522 C-179.18719871 168.33411891 -176.73087292 170.70098126 -174.25073242 173.14770508 C-173.69543854 173.70254074 -173.14014465 174.2573764 -172.56802368 174.82902527 C-171.3918705 176.00216172 -170.21329216 177.17287112 -169.0324707 178.34130859 C-167.24926038 180.10643117 -165.47401468 181.87925406 -163.69995117 183.65356445 C-158.40406619 188.93217837 -153.09123953 194.11575414 -147.39526367 198.96679688 C-144.89891107 201.14913044 -142.76080114 203.62945327 -140.59057617 206.12817383 C-138.8766622 207.57847721 -138.8766622 207.57847721 -136.51416016 207.03759766 C-133.83520381 206.31103855 -131.89274469 205.38226828 -129.52416992 203.95239258 C-128.72366211 203.47737305 -127.9231543 203.00235352 -127.09838867 202.51293945 C-125.86282227 201.76560547 -125.86282227 201.76560547 -124.60229492 201.00317383 C-108.51206313 191.31567383 -108.51206313 191.31567383 -102.85229492 191.31567383 C-101.55297852 192.60986328 -101.55297852 192.60986328 -100.25073242 194.42895508 C-99.76459473 195.09419189 -99.27845703 195.75942871 -98.77758789 196.44482422 C-98.26599121 197.16532959 -97.75439453 197.88583496 -97.22729492 198.62817383 C-92.93752262 204.67125621 -92.93752262 204.67125621 -88.13354492 210.30004883 C-82.36656001 216.47896124 -81.04069083 220.86283886 -80.34448242 229.22583008 C-78.42847601 248.82914938 -66.61294237 267.03139867 -52.11401367 279.71020508 C-43.89453759 286.23907173 -33.90482904 292.40326887 -23.66870117 295.17895508 C-19.88646472 296.70548879 -18.5319195 298.77018629 -16.16479492 302.06567383 C-15.30474828 303.23150376 -14.44404613 304.39685034 -13.58276367 305.56176758 C-13.13980957 306.17133301 -12.69685547 306.78089844 -12.24047852 307.40893555 C-9.85927562 310.67963457 -7.43107796 313.9117005 -4.97729492 317.12817383 C-4.52523682 317.74466797 -4.07317871 318.36116211 -3.60742188 318.99633789 C-2.18201322 320.92123933 -2.18201322 320.92123933 0.14770508 323.31567383 C1.46770508 323.31567383 2.78770508 323.31567383 4.14770508 323.31567383 C6.04681273 321.29218373 7.64070328 319.35151851 9.27270508 317.12817383 C9.75570068 316.50048096 10.23869629 315.87278809 10.73632812 315.22607422 C13.12803898 312.1039864 15.41971241 308.94243414 17.59692383 305.66723633 C22.59055329 298.33684436 26.88306602 294.92186992 35.62817383 292.40161133 C53.52013977 286.88111573 68.44952006 271.2203573 77.21606445 255.16918945 C82.01736993 245.61690664 86.39076904 234.3212541 86.14770508 223.56567383 C86.67592889 216.1798076 90.88031781 212.07374497 95.70874023 206.91577148 C98.23817392 204.10309616 100.49341201 201.08174146 102.77270508 198.06567383 C103.61904329 196.95628666 104.46539597 195.84691052 105.31176758 194.73754883 C105.91762695 193.93833008 106.52348633 193.13911133 107.14770508 192.31567383 C111.56960006 192.85178399 114.71224072 193.91568925 118.55395508 196.15161133 C119.54524414 196.72137695 120.5365332 197.29114258 121.55786133 197.87817383 C122.57750977 198.47629883 123.5971582 199.07442383 124.64770508 199.69067383 C126.67824306 200.86638356 128.70947295 202.04089928 130.74145508 203.21411133 C131.63541992 203.73666504 132.52938477 204.25921875 133.45043945 204.79760742 C136.30470804 206.40403773 139.21425446 207.85991971 142.14770508 209.31567383 C147.91947754 203.68284862 153.67492321 198.0340495 159.41018009 192.36407185 C162.07374805 189.73183298 164.74261323 187.10546986 167.42431641 184.49169922 C170.01156125 181.96958999 172.58392078 179.43315228 175.14657402 176.88606834 C176.12739435 175.91634476 177.11348569 174.95192307 178.10481453 173.99294472 C179.49105533 172.65017559 180.85713885 171.28669022 182.22216797 169.92236328 C183.00604385 169.15181107 183.78991974 168.38125885 184.59754944 167.58735657 C186.4197277 165.41748841 186.4197277 165.41748841 185.98223877 162.73789978 C184.84291251 159.43101634 183.42213831 156.29168201 181.90942383 153.14379883 C181.5873848 152.46194519 181.26534576 151.78009155 180.93354797 151.07757568 C179.90596008 148.90443546 178.87087991 146.73496991 177.83520508 144.56567383 C177.15042751 143.1232183 176.4661776 141.68051215 175.7824707 140.23754883 C175.44982208 139.53593628 175.11717346 138.83432373 174.77444458 138.1114502 C174.11897385 136.72595226 173.46520121 135.33964958 172.8132019 133.95251465 C171.47526656 131.10634782 170.12724228 128.27531606 168.70483398 125.4699707 C166.02214672 120.03023358 166.02214672 120.03023358 166.62817383 116.58129883 C168.42312672 113.90501945 170.33952877 111.49525389 172.46020508 109.06567383 C177.37860809 103.34008705 181.96742285 97.3983431 186.50439453 91.36743164 C189.542198 87.34735292 192.6714261 83.49030318 196.05493164 79.75439453 C197.34932297 78.35134062 197.34932297 78.35134062 197.14770508 76.31567383 C180.31770508 75.98567383 163.48770508 75.65567383 146.14770508 75.31567383 C140.89770508 62.62817383 140.89770508 62.62817383 139.33032227 58.65283203 C136.76098479 52.79124801 134.76586616 48.9133028 128.72192383 46.35473633 C126.53962178 45.64636197 124.34716782 44.96882013 122.14770508 44.31567383 C120.21531939 43.60982077 118.29880296 42.86858857 116.38070679 42.12486267 C113.69108631 41.08929244 110.98273207 40.10890043 108.27246094 39.12890625 C106.88251139 38.62291657 105.49516273 38.10973158 104.11035156 37.58984375 C102.07757768 36.82722698 100.03790569 36.08681181 97.99536133 35.35083008 C96.79919189 34.91134033 95.60302246 34.47185059 94.37060547 34.01904297 C90.72552638 33.22353711 89.36327218 33.53893795 86.14770508 35.31567383 C83.6998051 36.91173801 83.6998051 36.91173801 81.39770508 38.75317383 C80.61911133 39.35000977 79.84051758 39.9468457 79.03833008 40.56176758 C76.89723764 42.2663617 76.89723764 42.2663617 76.14770508 45.31567383 C68.33780558 44.72084504 60.68427565 43.65636368 52.96020508 42.37817383 C40.40299265 40.37076226 27.84341969 39.04151356 15.14770508 38.31567383 C13.8612207 38.22801758 12.57473633 38.14036133 11.24926758 38.05004883 C7.54915995 38.36693462 6.32668475 39.24509731 3.71020508 41.81567383 C3.03086914 42.46536133 2.3515332 43.11504883 1.65161133 43.78442383 C1.15532227 44.28973633 0.6590332 44.79504883 0.14770508 45.31567383 C0.14770508 43.00567383 0.14770508 40.69567383 0.14770508 38.31567383 C-8.41780323 38.12711797 -16.8287131 38.68000747 -25.35229492 39.50317383 C-26.01628296 39.56647888 -26.680271 39.62978394 -27.36437988 39.69500732 C-49.94133536 41.87230039 -49.94133536 41.87230039 -71.85229492 47.31567383 C-71.98764648 46.4262207 -72.12299805 45.53676758 -72.26245117 44.62036133 C-74.64391593 39.67019135 -78.40178687 38.55557356 -83.28979492 36.44067383 C-84.1618457 36.03848633 -85.03389648 35.63629883 -85.93237305 35.22192383 C-90.70320626 32.9793708 -90.70320626 32.9793708 -95.85229492 32.31567383 Z " fill="#FBFCFD" transform="translate(247.852294921875,80.684326171875)"/>
<path d="M0 0 C4.8418259 0.46598024 9.03140683 2.04125434 13.4375 4 C14.13270752 4.30905273 14.82791504 4.61810547 15.54418945 4.93652344 C28.46852329 10.83526949 39.60162084 18.34886367 50 28 C50.60344238 28.55429687 51.20688477 29.10859375 51.82861328 29.6796875 C69.08478856 45.69469936 83.15813174 65.63025297 89.75 88.5 C90.01296875 89.3765625 90.2759375 90.253125 90.546875 91.15625 C91.12601687 94.79086452 90.90190673 97.42429898 90 101 C81.74951954 112.08182615 69.52064471 118.79281598 57 124 C56.19304687 124.37511719 55.38609375 124.75023437 54.5546875 125.13671875 C51.43424285 126.19118093 49.27265772 126.44961216 46 126 C25.02358751 108.72100053 17.5349814 72.64752276 11.4765625 47.80078125 C8.25210902 34.78166795 4.23859348 22.20113578 -7 14 C-8.01194614 13.01209059 -9.01430398 12.01410224 -10 11 C-8.52116808 9.35386588 -7.04192523 7.70810092 -5.5625 6.0625 C-4.73878906 5.14597656 -3.91507813 4.22945312 -3.06640625 3.28515625 C-1 1 -1 1 0 0 Z " fill="#F48328" transform="translate(221,245)"/>
<path d="M0 0 C1.41791408 0.45445964 2.83428046 0.91374944 4.25 1.375 C5.43335938 1.75785156 5.43335938 1.75785156 6.640625 2.1484375 C8.86627958 2.95173667 10.90931672 3.89711662 13 5 C12.25879131 8.28249561 11.43001682 11.53709749 10.56884766 14.79003906 C10.15585083 16.39452285 9.76220421 18.00402668 9.38037109 19.61621094 C5.85198331 34.35197241 1.75725281 43.38584137 -10 53 C-11.709539 54.62997416 -13.35398122 56.30502899 -15 58 C-14.08154297 59.19882813 -14.08154297 59.19882813 -13.14453125 60.421875 C-7.05496612 68.87657213 -7.05496612 68.87657213 -6.92578125 73.8671875 C-7.72722668 77.02819572 -8.82034647 79.95827709 -10 83 C-10.79943317 85.48105335 -11.56217236 87.97203329 -12.32568359 90.46435547 C-16.75768062 104.87037636 -16.75768062 104.87037636 -19.00952148 106.07495117 C-20.30224976 106.55411987 -20.30224976 106.55411987 -21.62109375 107.04296875 C-22.55630859 107.39423828 -23.49152344 107.74550781 -24.45507812 108.10742188 C-25.43927734 108.46384766 -26.42347656 108.82027344 -27.4375 109.1875 C-28.41783203 109.55552734 -29.39816406 109.92355469 -30.40820312 110.30273438 C-37.67931064 113 -37.67931064 113 -40 113 C-38.35703995 104.2343808 -35.23388524 96.08774849 -32.0871582 87.77026367 C-31.38856099 85.91676008 -30.70384068 84.05804479 -30.01953125 82.19921875 C-29.60807861 81.10440186 -29.19662598 80.00958496 -28.77270508 78.8815918 C-28.00400531 76.01493672 -27.94303087 74.72174703 -29 72 C-35.33035192 72.99325025 -40.31995116 78.00525559 -44 83 C-47.83712042 90.16067697 -50.17796602 98.16329114 -52.7121582 105.85595703 C-58.63437476 123.55405883 -58.63437476 123.55405883 -67.51171875 128.2421875 C-69.65570335 129.27333707 -71.77171667 130.15574237 -74 131 C-80.72786703 125.74003123 -80.72786703 125.74003123 -81.79516602 122.83764648 C-82.07708472 118.93211479 -80.61244401 116.19935072 -78.90625 112.796875 C-78.56847031 112.09503082 -78.23069061 111.39318665 -77.88267517 110.67007446 C-77.1507062 109.15271373 -76.41254485 107.63832797 -75.66891479 106.12664795 C-74.07852629 102.8930559 -72.51801328 99.64536653 -70.9561615 96.3979187 C-70.15052674 94.72300903 -69.34343338 93.04880022 -68.53492737 91.37527466 C-65.02302947 84.0943066 -61.65730229 76.75306026 -58.3404541 69.3815918 C-52.7485379 56.95494335 -47.04226267 44.58449548 -41.25 32.25 C-40.90516571 31.51336121 -40.56033142 30.77672241 -40.20504761 30.01776123 C-39.22818032 27.93231818 -38.24756528 25.84868337 -37.265625 23.765625 C-36.70649414 22.57743164 -36.14736328 21.38923828 -35.57128906 20.16503906 C-31.73133176 12.43023382 -31.73133176 12.43023382 -29.09887695 10.8815918 C-28.05413208 10.54381714 -28.05413208 10.54381714 -26.98828125 10.19921875 C-26.23095703 9.94462891 -25.47363281 9.69003906 -24.69335938 9.42773438 C-23.90767578 9.18345703 -23.12199219 8.93917969 -22.3125 8.6875 C-21.51521484 8.42388672 -20.71792969 8.16027344 -19.89648438 7.88867188 C-17.93620125 7.24306965 -15.96873408 6.6193531 -14 6 C-14.71044211 10.67607375 -16.38898564 14.79251288 -18.16015625 19.14453125 C-18.46948593 19.91431808 -18.77881561 20.68410492 -19.09751892 21.47721863 C-20.08179468 23.92396766 -21.0720531 26.36824344 -22.0625 28.8125 C-22.73281871 30.47575158 -23.402745 32.13916137 -24.07226562 33.80273438 C-25.71030375 37.87033626 -27.35370995 41.93573133 -29 46 C-28.39478516 45.54584717 -27.78957031 45.09169434 -27.16601562 44.6237793 C-25.56032316 43.4200529 -23.9525824 42.21905776 -22.34375 41.01953125 C-21.4053125 40.29121094 -20.466875 39.56289062 -19.5 38.8125 C-18.5615625 38.09707031 -17.623125 37.38164062 -16.65625 36.64453125 C-10.34748638 30.36360041 -8.18420244 21.2896673 -5.3125 13.0625 C-4.51941057 10.80251236 -3.72396981 8.543348 -2.92578125 6.28515625 C-2.57942627 5.29394775 -2.23307129 4.30273926 -1.8762207 3.28149414 C-1 1 -1 1 0 0 Z " fill="#F2832A" transform="translate(156,121)"/>
<path d="M0 0 C4.29843699 1.28956667 8.59295926 2.4185591 12.95703125 3.46484375 C33.07066443 8.92552115 33.07066443 8.92552115 38.41015625 17.82421875 C41.25698685 23.61998329 43.42428562 29.60820405 45.14453125 35.828125 C39.05821236 37.67310083 32.57607308 35.35846352 26.88720703 32.89453125 C23.0048963 30.5188051 21.94222286 26.61412456 20.67578125 22.47265625 C20.14453125 19.828125 20.14453125 19.828125 20.14453125 17.828125 C18.84515625 17.6425 18.84515625 17.6425 17.51953125 17.453125 C14.24662528 16.8470313 11.28587791 15.91043772 8.14453125 14.828125 C8.32628906 15.3629248 8.50804687 15.89772461 8.6953125 16.44873047 C9.51484169 18.86581625 10.32973858 21.28443866 11.14453125 23.703125 C11.43070312 24.54488281 11.716875 25.38664062 12.01171875 26.25390625 C12.28242188 27.05957031 12.553125 27.86523438 12.83203125 28.6953125 C13.08339844 29.43894043 13.33476562 30.18256836 13.59375 30.94873047 C14.14453125 32.828125 14.14453125 32.828125 14.14453125 34.828125 C14.83804687 35.07175781 15.5315625 35.31539062 16.24609375 35.56640625 C20.32006071 37.3398447 23.82006538 39.82141742 27.43945312 42.36474609 C31.41696836 45.12107793 35.39376255 47.51364974 39.71484375 49.69921875 C57.62471187 59.22884472 63.38126006 71.58075739 70.47460938 89.65039062 C72.10777353 93.78995787 73.88891477 97.85214446 75.72265625 101.90625 C76.00921585 102.53984436 76.29577545 103.17343872 76.59101868 103.82623291 C76.87140488 104.44528503 77.15179108 105.06433716 77.44067383 105.70214844 C79.71512032 110.72670284 81.931007 115.77650846 84.14453125 120.828125 C83.18723209 121.95400514 82.2286523 123.0787965 81.26953125 124.203125 C80.73585938 124.82960938 80.2021875 125.45609375 79.65234375 126.1015625 C78.53021118 127.38649151 77.3508115 128.62184475 76.14453125 129.828125 C72.4632755 129.47020908 69.67802515 128.23154061 66.46875 126.45703125 C65.56938721 125.96960449 64.67002441 125.48217773 63.7434082 124.97998047 C62.78265381 124.45549316 61.82189941 123.93100586 60.83203125 123.390625 C49.66080036 117.40896567 38.21021921 112.44773144 26.43676758 107.78271484 C25.68032959 107.4677002 24.9238916 107.15268555 24.14453125 106.828125 C23.42160889 106.54702881 22.69868652 106.26593262 21.95385742 105.97631836 C19.54904845 104.45023327 19.20881053 103.19025248 18.36328125 100.49609375 C18.0804126 99.62057861 17.79754395 98.74506348 17.50610352 97.84301758 C17.22178467 96.90997803 16.93746582 95.97693848 16.64453125 95.015625 C16.34409912 94.07033936 16.04366699 93.12505371 15.73413086 92.15112305 C14.8571882 89.38087276 14.00003946 86.60505422 13.14453125 83.828125 C12.69954172 82.42396314 12.25312842 81.02025092 11.8046875 79.6171875 C9.14453125 71.19178158 9.14453125 71.19178158 9.14453125 68.828125 C12.070254 69.52614007 14.98544118 70.24671039 17.89453125 71.01171875 C21.02219649 71.84978877 21.02219649 71.84978877 23.76953125 72.23828125 C26.39253173 72.76553979 27.98179991 73.23035205 30.14453125 74.828125 C32.91616643 79.78583863 35.14453125 85.09461127 35.14453125 90.828125 C35.70140625 90.99828125 36.25828125 91.1684375 36.83203125 91.34375 C37.97671875 91.70726562 37.97671875 91.70726562 39.14453125 92.078125 C39.88703125 92.31015625 40.62953125 92.5421875 41.39453125 92.78125 C45.11614427 94.19800041 48.60972704 96.00151712 52.14453125 97.828125 C50.71307711 94.42971191 49.27330621 91.03488339 47.83203125 87.640625 C47.42791016 86.68091797 47.02378906 85.72121094 46.60742188 84.73242188 C46.21103516 83.80107422 45.81464844 82.86972656 45.40625 81.91015625 C44.8642395 80.62975464 44.8642395 80.62975464 44.3112793 79.32348633 C41.57347665 73.46806033 38.59754666 70.38751365 33.20703125 66.890625 C31.77652704 65.93611868 30.34688236 64.98032333 28.91796875 64.0234375 C28.15323242 63.51458008 27.38849609 63.00572266 26.60058594 62.48144531 C22.13293022 59.47399357 17.73675287 56.36417679 13.33203125 53.265625 C11.63831057 52.07641016 9.94431942 50.88758038 8.25 49.69921875 C7.52965576 49.19318115 6.80931152 48.68714355 6.06713867 48.16577148 C4.43978431 47.03354615 2.79405211 45.92780557 1.14453125 44.828125 C0.04244403 42.03736478 -0.89895567 39.32275163 -1.7734375 36.4609375 C-2.0355452 35.62980438 -2.29765289 34.79867126 -2.56770325 33.94235229 C-3.11983317 32.18370707 -3.66671415 30.42340661 -4.20874023 28.66162109 C-5.03871623 25.9669317 -5.88609047 23.27820016 -6.73632812 20.58984375 C-7.27057156 18.88053313 -7.80380833 17.17090749 -8.3359375 15.4609375 C-8.58901169 14.65665314 -8.84208588 13.85236877 -9.10282898 13.02371216 C-9.33339493 12.26968109 -9.56396088 11.51565002 -9.80151367 10.73876953 C-10.00564377 10.07861847 -10.20977386 9.41846741 -10.42008972 8.73831177 C-10.85546875 6.828125 -10.85546875 6.828125 -10.85546875 2.828125 C-7.14185314 -1.08622659 -5.12694604 -1.5846836 0 0 Z " fill="#F2832A" transform="translate(342.85546875,122.171875)"/>
<path d="M0 0 C5.27910457 0.97370151 8.49077995 4.08352037 12 8 C18.76336265 18.23175375 21.29838918 30.57242878 24.3984375 42.27734375 C30.77743132 66.27430779 38.18724592 89.41446207 53.73046875 109.203125 C55 111 55 111 55 113 C36.30794679 116.49068464 16.2099987 112.00145785 0.15234375 101.8515625 C-3.91838499 98.34970148 -5.89082752 93.85043134 -8 89 C-8.37769531 88.19433594 -8.75539062 87.38867188 -9.14453125 86.55859375 C-17.66254599 67.19366884 -18.64486947 40.85303193 -11 21 C-7.89248553 13.69889721 -4.14365966 6.76410486 0 0 Z " fill="#F38329" transform="translate(208,260)"/>
<path d="M0 0 C1.80702724 0.4217076 3.61411674 0.84315596 5.421875 1.26171875 C6.83394921 1.5935031 8.2440778 1.93365623 9.65234375 2.28125 C14.11429903 3.37381782 18.57638516 4.31306425 23.09765625 5.12890625 C44.83016055 9.07155796 62.03529796 14.85944531 76 33 C81.83415581 42.38291239 83.37404166 51.37139659 83.3125 62.25 C83.30512817 63.78297729 83.30512817 63.78297729 83.29760742 65.34692383 C83.07254472 79.82826619 78.56452409 92.6726274 71 105 C68.41618298 102.41618298 68.23912175 100.42032195 67.375 96.875 C58.95200741 66.34556588 34.60321963 37.61503197 7.59570312 21.57177734 C-0.94045128 16.75216935 -9.71349634 12.19894985 -19 9 C-19 8.01 -19 7.02 -19 6 C-12.96810401 0.00588207 -8.10636655 -2.15933781 0 0 Z " fill="#F38329" transform="translate(245,234)"/>
<path d="M0 0 C-1.11168468 13.25245154 -2.66266311 26.41011111 -4.46118164 39.58666992 C-5.7514461 49.05442946 -6.93707064 58.53018294 -8.04858398 68.02050781 C-8.63577329 73.02497174 -9.25828808 78.01597315 -10 83 C-16.3778552 84.17293889 -22.50321562 85.29530838 -29 85 C-28.49397877 78.86116345 -27.67349577 72.94322458 -26.3046875 66.93359375 C-25.55642948 59.72921201 -27.39363425 52.55251907 -29 45.5625 C-29.17789063 44.76134766 -29.35578125 43.96019531 -29.5390625 43.13476562 C-30.43736061 38.95621883 -30.43736061 38.95621883 -32 35 C-33.22976666 40.27885726 -34.45641963 45.55842577 -35.68041992 50.83862305 C-36.09561881 52.62787527 -36.51160981 54.4169439 -36.9284668 56.20581055 C-39.46776452 67.10553977 -41.89203916 78.00781673 -44 89 C-46.93622464 89.83806616 -49.87382067 90.67062444 -52.8125 91.5 C-54.06256836 91.85771484 -54.06256836 91.85771484 -55.33789062 92.22265625 C-56.54155273 92.56103516 -56.54155273 92.56103516 -57.76953125 92.90625 C-58.50792236 93.11572266 -59.24631348 93.32519531 -60.00708008 93.54101562 C-62 94 -62 94 -65 94 C-63.66496711 84.95365773 -61.21722432 76.30788729 -58.71630859 67.53466797 C-57.46727671 63.11495121 -56.26675168 58.6820861 -55.0625 54.25 C-54.81290527 53.33444336 -54.56331055 52.41888672 -54.30615234 51.47558594 C-52.74433306 45.7459175 -51.19301929 40.01348386 -49.64697266 34.27954102 C-48.89432943 31.5086619 -48.12603619 28.74250201 -47.35546875 25.9765625 C-46.51282096 22.94164621 -45.73600308 19.91001297 -45.05078125 16.8359375 C-43.07908508 8.78856217 -43.07908508 8.78856217 -40.0703125 6.58984375 C-37.63256469 5.68306905 -35.59059895 5.28410609 -33 5 C-28.545 4.505 -28.545 4.505 -24 4 C-22.68 10.6 -21.36 17.2 -20 24 C-19.67 24 -19.34 24 -19 24 C-17.68 16.74 -16.36 9.48 -15 2 C-4 0 -4 0 0 0 Z " fill="#F1832A" transform="translate(216,127)"/>
<path d="M0 0 C1.39572052 -0.02736707 2.79160221 -0.04655989 4.1875 -0.0625 C4.96480469 -0.07410156 5.74210937 -0.08570312 6.54296875 -0.09765625 C9.12112711 0.00481427 11.48655731 0.43302447 14 1 C17.12916513 12.91745867 19.66969685 24.90225599 22 37 C23.37832867 35.50102987 24.72691768 33.97467965 26.0625 32.4375 C26.81660156 31.59058594 27.57070313 30.74367187 28.34765625 29.87109375 C30.55981621 26.0272697 30.00584796 24.27485382 29 20 C28.84394287 19.29045166 28.68788574 18.58090332 28.52709961 17.84985352 C28.02350997 15.58037896 27.48535291 13.32166728 26.9375 11.0625 C26.75123047 10.28326172 26.56496094 9.50402344 26.37304688 8.70117188 C25.91818991 6.80010303 25.4594938 4.89995343 25 3 C27.10464793 3.30924214 29.2087053 3.6225056 31.3125 3.9375 C33.07013672 4.19853516 33.07013672 4.19853516 34.86328125 4.46484375 C38 5 38 5 41 6 C41.84375 7.6796875 41.84375 7.6796875 42.5 9.875 C42.74234375 10.68324219 42.9846875 11.49148437 43.234375 12.32421875 C43.61335938 13.64873047 43.61335938 13.64873047 44 15 C44.44085938 16.40185547 44.44085938 16.40185547 44.890625 17.83203125 C47.75581135 27.35226407 47.75581135 27.35226407 46 32 C44.14883226 34.79720651 42.14143363 37.41980169 40 40 C40.56686523 40.26917236 41.13373047 40.53834473 41.71777344 40.81567383 C47.83859252 43.99197821 52.87711811 47.38707577 55.234375 54.08203125 C55.7726889 55.98312317 56.27684493 57.89415263 56.75 59.8125 C57.02529541 60.81772705 57.30059082 61.8229541 57.58422852 62.85864258 C58.14324065 64.90900243 58.68901477 66.96301951 59.22119141 69.02050781 C59.95220997 71.81716943 60.73359239 74.59233137 61.54296875 77.3671875 C65 89.29864876 65 89.29864876 65 94 C60.01155691 93.3900874 55.39844654 92.36525565 50.5625 90.9375 C48.70818359 90.39416016 48.70818359 90.39416016 46.81640625 89.83984375 C45.42228516 89.42412109 45.42228516 89.42412109 44 89 C43.82460693 88.08710205 43.64921387 87.1742041 43.46850586 86.23364258 C42.79975628 82.8270708 42.10555133 79.42776867 41.39379883 76.0300293 C41.0918685 74.56270284 40.80003236 73.09325968 40.51879883 71.62182617 C39.0508655 61.90592963 39.0508655 61.90592963 33.25390625 54.51171875 C32.18011719 54.01285156 31.10632813 53.51398438 30 53 C27.62155159 54.75012606 27.62155159 54.75012606 26 58 C26.12938688 60.92968866 26.68010955 63.63808249 27.28125 66.5078125 C28.08411976 70.40871231 28.62426156 74.30140024 29.125 78.25 C29.29257812 79.53390625 29.46015625 80.8178125 29.6328125 82.140625 C29.75398438 83.08421875 29.87515625 84.0278125 30 85 C23.25 85.125 23.25 85.125 21 84 C18.40856095 83.68954474 15.81628268 83.49026088 13.21484375 83.28125 C11 83 11 83 10 82 C9.53422329 79.06371844 9.12719122 76.13570668 8.75 73.1875 C8.48639847 71.19000884 8.22201692 69.19262052 7.95703125 67.1953125 C7.80830566 66.06899414 7.65958008 64.94267578 7.50634766 63.78222656 C6.51422223 56.37142276 5.47152387 48.96755308 4.4375 41.5625 C3.71870517 36.41321201 3.00226106 31.2636171 2.29211426 26.11312866 C2.09632715 24.69682207 1.89945694 23.28066481 1.70153809 21.86465454 C1.41660268 19.82422274 1.13559993 17.78328368 0.85546875 15.7421875 C0.69328857 14.57155762 0.5311084 13.40092773 0.36401367 12.19482422 C-0.10422903 8.08521723 -0.14491926 4.13019887 0 0 Z " fill="#F1832A" transform="translate(285,128)"/>
<path d="M0 0 C13.98526964 5.42012842 27.77044974 10.9106709 41 18 C41.63486328 18.33725098 42.26972656 18.67450195 42.92382812 19.02197266 C46.62880929 20.99129539 50.32029605 22.98372387 54 25 C49.10980669 30.76792031 44.13140314 36.44497636 39 42 C38.53303711 42.50772949 38.06607422 43.01545898 37.58496094 43.53857422 C36.13395898 45.10301112 34.66406879 46.64720691 33.1875 48.1875 C32.29417969 49.12980469 31.40085937 50.07210937 30.48046875 51.04296875 C28 53 28 53 26.19189453 52.80444336 C23.45170684 51.79877189 21.00590887 50.49651055 18.44921875 49.0859375 C17.36431152 48.49248535 16.2794043 47.8990332 15.16162109 47.28759766 C14.01516113 46.65644043 12.86870117 46.0252832 11.6875 45.375 C2.26833529 40.22834517 -7.16957918 35.3150032 -17 31 C-15.55870627 27.15596254 -13.78609665 23.65643805 -11.77734375 20.078125 C-11.15666016 18.97082031 -10.53597656 17.86351562 -9.89648438 16.72265625 C-9.25001953 15.57667969 -8.60355469 14.43070313 -7.9375 13.25 C-7.280357 12.07695843 -6.62345358 10.90378261 -5.96679688 9.73046875 C-1.13784004 1.13784004 -1.13784004 1.13784004 0 0 Z " fill="#BBBFC1" transform="translate(362,229)"/>
<path d="M0 0 C1.42892578 0.11988281 1.42892578 0.11988281 2.88671875 0.2421875 C9.74316866 0.86816866 9.74316866 0.86816866 11 2.125 C11.4652292 6.44990853 11.70500473 10.78435537 12 15.125 C7.05 15.125 2.1 15.125 -3 15.125 C-2.8460376 16.27605225 -2.6920752 17.42710449 -2.53344727 18.61303711 C-2.005834 22.84317513 -1.69862599 27.06119116 -1.46484375 31.31640625 C-1.42186661 32.06534653 -1.37888947 32.8142868 -1.33460999 33.58592224 C-1.24512248 35.15641004 -1.15695723 36.72697371 -1.07006836 38.29760742 C-0.9376415 40.68494913 -0.80018528 43.07196343 -0.66210938 45.45898438 C-0.57522204 46.99477479 -0.48862371 48.53058159 -0.40234375 50.06640625 C-0.34142799 51.12294151 -0.34142799 51.12294151 -0.27928162 52.20082092 C-0.04306206 56.52802332 0 60.78046797 0 65.125 C5.94 65.455 11.88 65.785 18 66.125 C18.66 72.065 19.32 78.005 20 84.125 C15.86984563 83.88995056 11.74428835 83.65296701 7.6171875 83.3828125 C4.8144785 83.2082933 2.07032952 83.12305914 -0.7421875 83.1171875 C-6.87840958 83.01612031 -10.25714235 82.57917678 -14.6875 78.125 C-15.79623727 76.79546494 -16.90140189 75.46292526 -18 74.125 C-18.66 73.795 -19.32 73.465 -20 73.125 C-20.20933172 64.93616883 -20.36883809 56.74847064 -20.46630955 48.55761814 C-20.51311346 44.75334677 -20.57649267 40.95091669 -20.67895508 37.14770508 C-20.77737586 33.47113664 -20.83068375 29.7963285 -20.85389519 26.11854362 C-20.87041549 24.72178381 -20.90267925 23.3251112 -20.95157051 21.92910957 C-21.31348714 11.1583114 -21.31348714 11.1583114 -18.12765503 6.2265625 C-12.35960641 0.10078622 -8.2464028 -1.06107561 0 0 Z " fill="#EF832B" transform="translate(269,124.875)"/>
<path d="M0 0 C4.95 0 9.9 0 15 0 C15.12529945 15.3839879 14.94953337 30.74654286 14.5625 46.125 C14.54285187 46.94340363 14.52320374 47.76180725 14.50296021 48.60501099 C14.23930612 59.42648599 13.73609399 70.19983102 13 81 C6.4 81.33 -0.2 81.66 -7 82 C-7.14475868 72.8447879 -6.5920751 63.89404777 -5.72265625 54.78515625 C-5.5901256 53.3570067 -5.45800775 51.9288188 -5.32627869 50.50059509 C-5.05140656 47.53286322 -4.77290187 44.56550411 -4.49145508 41.59838867 C-4.13165166 37.80402365 -3.77912604 34.00902631 -3.42903996 30.2137537 C-3.15753021 27.27528217 -2.88322327 24.33707735 -2.60796928 21.39895439 C-2.47698051 19.99922951 -2.34661728 18.59944593 -2.21690559 17.19960213 C-2.03539247 15.24748113 -1.84993212 13.29572839 -1.66430664 11.34399414 C-1.5599379 10.23657364 -1.45556915 9.12915314 -1.34803772 7.98817444 C-1.03563255 5.30593318 -0.52958675 2.64793373 0 0 Z " fill="#F1832A" transform="translate(225,126)"/>
<path d="M0 0 C-1.30999505 3.43711573 -2.83072786 6.71704269 -4.46240234 10.01220703 C-15.5376547 32.61899555 -17.31671813 57.90656453 -10 82 C-8.97223604 84.81034474 -7.90250885 87.5396093 -6.63671875 90.25 C-6.32154297 91.11625 -6.32154297 91.11625 -6 92 C-6.33 92.66 -6.66 93.32 -7 94 C-20.68447381 81.59511335 -29.9758682 63.62639718 -31 45 C-31.99351401 19.97586585 -31.99351401 19.97586585 -24.0625 11.00390625 C-16.6372981 3.78964759 -10.67213305 -0.42688532 0 0 Z " fill="#EF832B" transform="translate(204,259)"/>
<path d="M0 0 C4.33096188 3.8497439 6.82525214 9.20856373 9.68994141 14.16992188 C10.75000124 16.00000214 11.82572877 17.82024729 12.90234375 19.640625 C13.57650056 20.80151494 14.24971096 21.9629551 14.921875 23.125 C15.53643555 24.17945313 16.15099609 25.23390625 16.78417969 26.3203125 C18 29 18 29 17 32 C14.40070467 33.42447258 11.89745225 34.64364046 9.1875 35.8125 C8.46240234 36.14958984 7.73730469 36.48667969 6.99023438 36.83398438 C6.28576172 37.14271484 5.58128906 37.45144531 4.85546875 37.76953125 C4.21246826 38.05417236 3.56946777 38.33881348 2.90698242 38.63208008 C1 39 1 39 -1.05200195 38.32910156 C-3.32942711 36.77523484 -4.49556372 35.25665442 -6.0234375 32.96484375 C-6.57 32.15466797 -7.1165625 31.34449219 -7.6796875 30.50976562 C-8.23914063 29.66091797 -8.79859375 28.81207031 -9.375 27.9375 C-9.92671875 27.11572266 -10.4784375 26.29394531 -11.046875 25.44726562 C-12.70697856 22.97074964 -14.35429247 20.48609992 -16 18 C-17.13743519 16.29257847 -18.27542457 14.58552594 -19.4140625 12.87890625 C-20.70703125 10.93945312 -20.70703125 10.93945312 -22 9 C-18.89660564 7.6856685 -15.79215432 6.37385219 -12.6875 5.0625 C-11.80642578 4.68931641 -10.92535156 4.31613281 -10.01757812 3.93164062 C-9.17001953 3.57392578 -8.32246094 3.21621094 -7.44921875 2.84765625 C-6.66893311 2.51773682 -5.88864746 2.18781738 -5.0847168 1.84790039 C-3.41423588 1.16847889 -1.71082088 0.57027363 0 0 Z " fill="#BABEC1" transform="translate(138,228)"/>
<path d="M0 0 C1.50146484 2.43676758 1.50146484 2.43676758 2.7109375 5.64453125 C3.15050781 6.79630859 3.59007812 7.94808594 4.04296875 9.13476562 C4.48253906 10.34841797 4.92210937 11.56207031 5.375 12.8125 C5.83777344 14.01455078 6.30054688 15.21660156 6.77734375 16.45507812 C10.52364545 26.48062879 10.52364545 26.48062879 9 30 C4.40942959 33.58638314 -2.16856626 36 -8 36 C-9.99869557 31.76644081 -11.99239071 27.53057785 -13.98144531 23.29248047 C-14.65910378 21.85042586 -15.33813524 20.40901564 -16.01855469 18.96826172 C-16.99513827 16.89978365 -17.96679503 14.82905454 -18.9375 12.7578125 C-19.24373291 12.11192169 -19.54996582 11.46603088 -19.86547852 10.80056763 C-22 6.22774341 -22 6.22774341 -22 4 C-19.27464312 3.13161176 -16.54583627 2.28007381 -13.8125 1.4375 C-13.04357422 1.19064453 -12.27464844 0.94378906 -11.48242188 0.68945312 C-10.73154297 0.46064453 -9.98066406 0.23183594 -9.20703125 -0.00390625 C-8.5210083 -0.21861572 -7.83498535 -0.4333252 -7.12817383 -0.65454102 C-4.34559893 -1.10622663 -2.64961772 -1.00748374 0 0 Z " fill="#BABEC1" transform="translate(173,220)"/>
<path d="M0 0 C5.59682925 0.47573446 10.69424592 1.31075393 16.0625 3.0625 C17.18785156 3.42472656 18.31320312 3.78695312 19.47265625 4.16015625 C20.30667969 4.43730469 21.14070313 4.71445313 22 5 C21.39488858 8.91355482 20.19265293 11.91908625 18.34765625 15.4140625 C17.81849609 16.42210937 17.28933594 17.43015625 16.74414062 18.46875 C16.18919922 19.5103125 15.63425781 20.551875 15.0625 21.625 C14.51142578 22.67429688 13.96035156 23.72359375 13.39257812 24.8046875 C9.33081317 32.50378024 9.33081317 32.50378024 7 36 C-4.96890102 34.72102653 -4.96890102 34.72102653 -8.3125 31.75 C-10.48125777 28.21572807 -9.91667904 26.96709686 -9 23 C-8.36369941 21.10911766 -7.67274981 19.23590796 -6.93359375 17.3828125 C-6.53076172 16.36445313 -6.12792969 15.34609375 -5.71289062 14.296875 C-5.29201172 13.25015625 -4.87113281 12.2034375 -4.4375 11.125 C-4.01275391 10.05507812 -3.58800781 8.98515625 -3.15039062 7.8828125 C-2.10553151 5.25305474 -1.05526218 2.62559658 0 0 Z " fill="#BABEC1" transform="translate(328,220)"/>
<path d="M0 0 C0.90878906 0.24234375 1.81757813 0.4846875 2.75390625 0.734375 C19.58563463 5.73780925 32.91324153 15.56246753 44 29 C43.67 29.66 43.34 30.32 43 31 C42.46375 30.56429687 41.9275 30.12859375 41.375 29.6796875 C36.2303226 25.77040961 31.14456602 22.99289492 25.125 20.75 C24.19107422 20.39977783 24.19107422 20.39977783 23.23828125 20.04248047 C11.43642672 15.83912138 -0.88199061 13.87454084 -13.19335938 11.80664062 C-14.38638672 11.60103516 -15.57941406 11.39542969 -16.80859375 11.18359375 C-17.87907959 11.00368896 -18.94956543 10.82378418 -20.05249023 10.63842773 C-22.87990814 10.02601178 -25.35533308 9.15900885 -28 8 C-20.65442469 1.85710075 -9.40593309 -2.84326976 0 0 Z " fill="#EC832D" transform="translate(270,223)"/>
<path d="M0 0 C1.39325954 1.55240341 2.71380128 3.17029985 4 4.8125 C7.28962125 8.93513824 10.66249582 12.87785851 14.25 16.75 C17.85250425 20.66113 21.05218371 24.57827557 24 29 C22.59447701 30.03612271 21.17508306 31.05344925 19.75 32.0625 C18.96109375 32.63097656 18.1721875 33.19945312 17.359375 33.78515625 C15 35 15 35 13.21875 34.92382812 C9.85617884 33.52374348 7.63684778 31.00326997 5.140625 28.43359375 C4.59138367 27.88010757 4.04214233 27.3266214 3.47625732 26.75636292 C1.72699536 24.99033441 -0.01153644 23.21415308 -1.75 21.4375 C-2.935505 20.23694559 -4.12169524 19.0370674 -5.30859375 17.83789062 C-8.21373293 14.89970905 -11.10929337 11.95237926 -14 9 C-12.68786941 5.06360824 -11.17198478 4.71346403 -7.5625 2.8125 C-6.07943359 2.01779297 -6.07943359 2.01779297 -4.56640625 1.20703125 C-2 0 -2 0 0 0 Z " fill="#B9BDC1" transform="translate(98,246)"/>
<path d="M0 0 C2.55395487 -0.26711404 4.86274374 -0.34849029 7.4140625 -0.29296875 C8.50852188 -0.28660149 8.50852188 -0.28660149 9.62509155 -0.28010559 C11.95876759 -0.26329353 14.2915844 -0.22563868 16.625 -0.1875 C18.20571671 -0.17245634 19.78644693 -0.15876738 21.3671875 -0.14648438 C25.24512344 -0.11338201 29.12241598 -0.06158404 33 0 C31.21624271 3.73696651 28.92006065 6.87691301 26.375 10.125 C25.93494629 10.69178467 25.49489258 11.25856934 25.04150391 11.8425293 C21.07772818 16.93483043 17.05604426 21.98092847 13 27 C11.02820551 24.46483565 9.40306388 21.94342893 7.875 19.125 C4.93686895 14.29742467 0.82066088 11.7726677 -4 9 C-2.94124926 5.59687262 -1.99097846 2.98646769 0 0 Z " fill="#B5BCC2" transform="translate(397,164)"/>
<path d="M0 0 C1.65 0 3.3 0 5 0 C5.30335505 23.08869019 5.30335505 23.08869019 2.77734375 26.79296875 C0.36577173 28.43071766 -1.24095689 28.26794091 -4.125 28.125 C-5.74899985 28.05439131 -7.37447634 28.00582625 -9 28 C-9.33 28.33 -9.66 28.66 -10 29 C-11.8125 29.1328125 -11.8125 29.1328125 -14 29.125 C-14.721875 29.12757812 -15.44375 29.13015625 -16.1875 29.1328125 C-18 29 -18 29 -19 28 C-18.85081703 19.20968014 -17.84034729 10.59424315 -16 2 C-14.35 2 -12.7 2 -11 2 C-11.6258645 9.00435592 -12.28674095 16.00399099 -13 23 C-12.01 23 -11.02 23 -10 23 C-9.93941406 22.16597656 -9.87882813 21.33195312 -9.81640625 20.47265625 C-9.33171913 13.96293534 -8.76908647 7.48230025 -8 1 C-6.35 1 -4.7 1 -3 1 C-3.33 7.93 -3.66 14.86 -4 22 C-3.01 22 -2.02 22 -1 22 C-1.01160156 21.24976562 -1.02320313 20.49953125 -1.03515625 19.7265625 C-1.0937829 13.07662583 -0.81769308 6.59995127 0 0 Z " fill="#0D73BA" transform="translate(235,89)"/>
<path d="M0 0 C10.56 0 21.12 0 32 0 C28.625 10.125 28.625 10.125 26.95703125 13.59765625 C26.43012695 14.70463867 26.43012695 14.70463867 25.89257812 15.83398438 C25.53615234 16.56939453 25.17972656 17.30480469 24.8125 18.0625 C24.44447266 18.83271484 24.07644531 19.60292969 23.69726562 20.39648438 C22.80287378 22.26657642 21.90211805 24.13362275 21 26 C17.60246849 24.57614017 15.87174992 22.92448457 13.65234375 20.0078125 C13.04712891 19.22019531 12.44191406 18.43257812 11.81835938 17.62109375 C11.19767578 16.79738281 10.57699219 15.97367188 9.9375 15.125 C9.31294922 14.30902344 8.68839844 13.49304688 8.04492188 12.65234375 C6.35489793 10.44106375 4.67415394 8.22330992 3 6 C2.43869385 5.29343262 1.8773877 4.58686523 1.29907227 3.85888672 C0 2 0 2 0 0 Z " fill="#B5BCC2" transform="translate(71,164)"/>
<path d="M0 0 C1.97265625 0.36328125 1.97265625 0.36328125 3.6484375 1.3671875 C5.73242039 4.50853044 5.85940455 7.94944947 6.22265625 11.61328125 C6.35800781 12.72123047 6.35800781 12.72123047 6.49609375 13.8515625 C7.01256315 18.57475842 6.91506289 22.69957657 5.97265625 27.36328125 C4.39343219 28.94250531 2.77821751 28.57094025 0.59765625 28.61328125 C-0.19382812 28.6390625 -0.9853125 28.66484375 -1.80078125 28.69140625 C-4.02734375 28.36328125 -4.02734375 28.36328125 -5.75390625 27.09765625 C-8.9770325 22.70787694 -8.21096826 16.93143738 -8.21484375 11.73828125 C-8.22708984 10.866875 -8.23933594 9.99546875 -8.25195312 9.09765625 C-8.25388672 8.26492187 -8.25582031 7.4321875 -8.2578125 6.57421875 C-8.26192139 5.81415527 -8.26603027 5.0540918 -8.27026367 4.27099609 C-7.66109948 -0.51293253 -3.97811354 0.09666444 0 0 Z " fill="#0C72BA" transform="translate(274.02734375,89.63671875)"/>
<path d="M0 0 C2.47960996 0.49835298 4.62310525 1.11557405 7 2 C4.76558757 6.73482634 2.23349666 10.81935555 -2 14 C-5.02516597 14.61269184 -7.85054235 14.68821419 -10.93359375 14.74609375 C-18.44863107 15.36835799 -24.60533964 20.03123388 -30 25 C-28.50524269 18.68880245 -24.8302209 14.08416227 -21 9 C-20.4121875 8.12730469 -19.824375 7.25460938 -19.21875 6.35546875 C-13.78905363 -0.94931344 -8.74204636 -1.27580626 0 0 Z " fill="#EE832C" transform="translate(210,241)"/>
<path d="M0 0 C9.8618491 0.18703507 9.8618491 0.18703507 13.625 2.875 C15.33032795 6.75074534 15.5748891 10.17288611 15.7265625 14.37890625 C16.00898053 17.08608484 16.7621552 18.61763997 18 21 C18.0777346 23.33203812 18.08967728 25.66839059 18 28 C16.33388095 28.042721 14.66617115 28.04063832 13 28 C11.03177114 26.03177114 11.33751619 22.65191291 11 20 C10.01 19.67 9.02 19.34 8 19 C8.33 21.64 8.66 24.28 9 27 C7.02 27 5.04 27 3 27 C2.49129467 23.813827 1.99463419 20.62588525 1.5 17.4375 C1.35691406 16.54224609 1.21382813 15.64699219 1.06640625 14.72460938 C0.30107612 9.74996352 -0.16568252 5.03260643 0 0 Z " fill="#0B71BA" transform="translate(283,92)"/>
<path d="M0 0 C6.88940671 0.43632909 13.35751464 1.08389845 20 3 C18.20645194 10.40315583 16.26858827 17.72764611 14 25 C13.52691406 24.63648438 13.05382812 24.27296875 12.56640625 23.8984375 C7.50907327 20.05368143 2.31913045 16.47221015 -3 13 C-2.69128878 11.20767663 -2.37790936 9.41615679 -2.0625 7.625 C-1.88847656 6.62726563 -1.71445312 5.62953125 -1.53515625 4.6015625 C-1 2 -1 2 0 0 Z " fill="#B9BDC1" transform="translate(295,213)"/>
<path d="M0 0 C1.58068896 4.84085994 2.6626836 8.83893031 2 14 C-0.14452167 16.19284891 -1.88926165 17.69162023 -4.375 19.375 C-5.27992188 20.03048828 -5.27992188 20.03048828 -6.203125 20.69921875 C-8.40527866 22.27987571 -10.57215192 23.78607596 -13 25 C-16.23682872 18.06393846 -19 10.71459348 -19 3 C-16.39643759 2.49666458 -13.79223349 1.99720622 -11.1875 1.5 C-10.08051758 1.28537109 -10.08051758 1.28537109 -8.95117188 1.06640625 C-5.92205609 0.49073719 -3.090804 0 0 0 Z " fill="#B9BDC1" transform="translate(206,212)"/>
<path d="M0 0 C-0.62576585 5.74922374 -1.63988261 11.25712381 -3 16.875 C-3.17789063 17.63296875 -3.35578125 18.3909375 -3.5390625 19.171875 C-4.86367985 24.72735969 -4.86367985 24.72735969 -6 27 C-9.0625 27.625 -9.0625 27.625 -12 28 C-11.855625 27.175 -11.71125 26.35 -11.5625 25.5 C-10.94746848 21.67313722 -10.46439363 17.84783293 -10 14 C-10.66 14 -11.32 14 -12 14 C-12.12117187 14.74765625 -12.24234375 15.4953125 -12.3671875 16.265625 C-12.61855469 17.74289063 -12.61855469 17.74289063 -12.875 19.25 C-13.11863281 20.71179688 -13.11863281 20.71179688 -13.3671875 22.203125 C-14.44606912 26.97151538 -14.44606912 26.97151538 -16 29 C-19.125 29.75 -19.125 29.75 -22 30 C-19.86602101 21.26910121 -17.71981556 12.57153995 -15 4 C-12.1875 3.375 -12.1875 3.375 -9 3 C-8.01 3.66 -7.02 4.32 -6 5 C-5.87625 4.360625 -5.7525 3.72125 -5.625 3.0625 C-5.315625 2.0415625 -5.315625 2.0415625 -5 1 C-3 0 -3 0 0 0 Z " fill="#0E73BB" transform="translate(200,95)"/>
<path d="M0 0 C-0.91989753 2.83635073 -1.86250007 5.65005141 -2.953125 8.42578125 C-5.58547604 15.21292516 -7.04361078 21.78932867 -8 29 C-8.66 29 -9.32 29 -10 29 C-11.70522037 26.97096601 -13.30091868 24.9395749 -14.875 22.8125 C-15.74697282 21.65202578 -16.61936328 20.49186524 -17.4921875 19.33203125 C-17.91209961 18.76693848 -18.33201172 18.2018457 -18.76464844 17.61962891 C-19.90164797 16.12894612 -21.1082893 14.69206936 -22.3203125 13.26171875 C-24 11 -24 11 -24 8 C-21.22967112 6.8529341 -18.4587654 5.70729921 -15.6875 4.5625 C-14.90181641 4.23701172 -14.11613281 3.91152344 -13.30664062 3.57617188 C-12.54931641 3.26357422 -11.79199219 2.95097656 -11.01171875 2.62890625 C-10.31522217 2.34088135 -9.61872559 2.05285645 -8.90112305 1.75610352 C-5.63851391 0.45851773 -3.59580667 0 0 0 Z " fill="#B6BCC1" transform="translate(176,259)"/>
<path d="M0 0 C2.8125 0.3125 2.8125 0.3125 6 2 C7.10722218 4.83101515 7.75539002 7.58907003 8.359375 10.56640625 C8.57078125 11.36949219 8.7821875 12.17257813 9 13 C9.66 13.33 10.32 13.66 11 14 C10.34 10.37 9.68 6.74 9 3 C14 4 14 4 15.14453125 5.671875 C15.36496094 6.35765625 15.58539063 7.0434375 15.8125 7.75 C16.04710937 8.47832031 16.28171875 9.20664063 16.5234375 9.95703125 C17 12 17 12 16.9375 14.4375 C17.02489956 18.02088196 18.5401627 20.64122875 20.125 23.81640625 C21 26 21 26 21 30 C19.02 29.67 17.04 29.34 15 29 C14.89042969 28.43410156 14.78085937 27.86820313 14.66796875 27.28515625 C14.50941406 26.55167969 14.35085938 25.81820312 14.1875 25.0625 C14.03667969 24.33160156 13.88585937 23.60070312 13.73046875 22.84765625 C13.36888672 21.93306641 13.36888672 21.93306641 13 21 C12.01 20.67 11.02 20.34 10 20 C10.33 22.64 10.66 25.28 11 28 C9.02 27.67 7.04 27.34 5 27 C4.15984843 23.25149397 3.32906781 19.50097168 2.5 15.75 C2.26152344 14.68652344 2.02304687 13.62304688 1.77734375 12.52734375 C1.55175781 11.50253906 1.32617188 10.47773437 1.09375 9.421875 C0.88427734 8.47924805 0.67480469 7.53662109 0.45898438 6.56542969 C0 4 0 4 0 0 Z " fill="#1074BB" transform="translate(301,95)"/>
<path d="M0 0 C7.98676972 1.51473219 15.40122878 4.16802552 23 7 C23 11.36159212 20.38248565 13.69210738 17.75 16.9375 C17.25886719 17.55818359 16.76773437 18.17886719 16.26171875 18.81835938 C13.66671253 22.06730716 11.02063577 25.13039602 8 28 C7.9175 26.7625 7.835 25.525 7.75 24.25 C6.81323465 15.76558242 3.51150492 7.72531081 0 0 Z " fill="#B5BCC1" transform="translate(325,260)"/>
<path d="M0 0 C-0.33 1.65 -0.66 3.3 -1 5 C-2.98 5.33 -4.96 5.66 -7 6 C-7 7.65 -7 9.3 -7 11 C-5.35 11 -3.7 11 -2 11 C-2 12.65 -2 14.3 -2 16 C-3.98 16.33 -5.96 16.66 -8 17 C-8.33 18.65 -8.66 20.3 -9 22 C-7.35 22 -5.7 22 -4 22 C-4 23.65 -4 25.3 -4 27 C-5.41538717 27.33872513 -6.83237963 27.67074624 -8.25 28 C-9.03890625 28.185625 -9.8278125 28.37125 -10.640625 28.5625 C-13 29 -13 29 -17 29 C-16.2350912 23.13033144 -15.11897555 17.36133228 -13.9375 11.5625 C-13.75123047 10.64017578 -13.56496094 9.71785156 -13.37304688 8.76757812 C-12.9171263 6.51135577 -12.4594036 4.25551526 -12 2 C-7.85907629 0.76113708 -4.34140593 -0.26311551 0 0 Z " fill="#1476BC" transform="translate(216,92)"/>
<path d="M0 0 C1.65 0 3.3 0 5 0 C5 4.95 5 9.9 5 15 C5.99 15 6.98 15 8 15 C8 10.05 8 5.1 8 0 C9.65 0 11.3 0 13 0 C13.05379226 2.95857409 13.09357093 5.91617721 13.125 8.875 C13.14175781 9.71675781 13.15851563 10.55851562 13.17578125 11.42578125 C13.18222656 12.23144531 13.18867188 13.03710938 13.1953125 13.8671875 C13.20578613 14.61081543 13.21625977 15.35444336 13.22705078 16.12060547 C13 18 13 18 11 20 C10.54188325 21.97235333 10.54188325 21.97235333 10.375 24.125 C10.25125 25.40375 10.1275 26.6825 10 28 C8.02 28 6.04 28 4 28 C3.83723958 26.01432292 3.67447917 24.02864583 3.51171875 22.04296875 C3.17678894 19.90537633 3.17678894 19.90537633 1.48632812 18.62304688 C-0.36834754 16.59777029 -0.35394089 15.69137955 -0.29296875 12.98828125 C-0.28330078 12.23095703 -0.27363281 11.47363281 -0.26367188 10.69335938 C-0.23853516 9.90767578 -0.21339844 9.12199219 -0.1875 8.3125 C-0.17396484 7.51521484 -0.16042969 6.71792969 -0.14648438 5.89648438 C-0.11117089 3.93070033 -0.05736447 1.96526418 0 0 Z " fill="#1074BB" transform="translate(249,89)"/>
<path d="M0 0 C2.44967679 1.17982499 4.67088852 2.58426557 7 4 C5.72102277 5.38555866 4.36707204 6.70128156 3 8 C2.54496094 8.56332031 2.08992188 9.12664062 1.62109375 9.70703125 C-0.5739691 11.96320954 -1.98586548 12.9655393 -5 14 C-11.42188971 13.91970877 -17.75906975 12.39665979 -24 11 C-20.40655987 7.06627198 -16.80014351 4.48404489 -12 2.125 C-11.39671875 1.8053125 -10.7934375 1.485625 -10.171875 1.15625 C-6.37340484 -0.74298508 -4.03603506 -1.44584618 0 0 Z " fill="#EB822D" transform="translate(226,227)"/>
<path d="M0 0 C9.94396878 -0.25068829 19.1776452 0.3049249 29 2 C29.05399736 3.45792884 29.09279177 4.91642712 29.125 6.375 C29.14820313 7.18710938 29.17140625 7.99921875 29.1953125 8.8359375 C29 11 29 11 27 13 C26.20078125 12.66226563 25.4015625 12.32453125 24.578125 11.9765625 C17.8508148 9.24457972 11.56697005 7.31350597 4.36328125 6.359375 C2 6 2 6 0 5 C0 3.35 0 1.7 0 0 Z " fill="#B6BCC1" transform="translate(259,210)"/>
<path d="M0 0 C7.26 0.33 14.52 0.66 22 1 C20.33508543 4.32982913 18.60509248 7.19939988 16.5 10.25 C15.8915625 11.14203125 15.283125 12.0340625 14.65625 12.953125 C13.83640625 13.96632813 13.83640625 13.96632813 13 15 C12.34 15 11.68 15 11 15 C9.04401067 12.72388629 7.19701526 10.44175596 5.375 8.0625 C4.859375 7.40314453 4.34375 6.74378906 3.8125 6.06445312 C0 1.14753844 0 1.14753844 0 0 Z " fill="#B6BDC2" transform="translate(238,379)"/>
<path d="M0 0 C0.74507812 0.00451172 1.49015625 0.00902344 2.2578125 0.01367188 C4.0885764 0.02540754 5.91929873 0.0433415 7.75 0.0625 C7.75 2.0425 7.75 4.0225 7.75 6.0625 C5.14688008 6.73349984 2.54264602 7.39945338 -0.0625 8.0625 C-0.80048828 8.25328125 -1.53847656 8.4440625 -2.29882812 8.640625 C-5.35535341 9.41512914 -8.08373478 10.0625 -11.25 10.0625 C-11.58 7.0925 -11.91 4.1225 -12.25 1.0625 C-8.06269376 0.01567344 -4.27143069 -0.04905353 0 0 Z " fill="#B9BEC1" transform="translate(230.25,209.9375)"/>
<path d="M0 0 C4.16837521 0.56653436 7.64962769 1.52151242 11.4921875 3.22265625 C12.52029541 3.67535889 13.54840332 4.12806152 14.60766602 4.59448242 C16.22499634 5.32115112 16.22499634 5.32115112 17.875 6.0625 C19.53390259 6.79980347 19.53390259 6.79980347 21.22631836 7.55200195 C29.94560473 11.45649141 38.52510466 15.592044 47 20 C46.34 20.99 45.68 21.98 45 23 C44.01902344 22.50371094 43.03804688 22.00742188 42.02734375 21.49609375 C27.90590626 14.37624888 13.75277231 7.71277566 -1 2 C-0.67 1.34 -0.34 0.68 0 0 Z " fill="#1671B1" transform="translate(364,228)"/>
<path d="M0 0 C-2.56865658 2.56865658 -5.4819522 3.79153239 -8.75 5.25 C-9.3584375 5.54390625 -9.966875 5.8378125 -10.59375 6.140625 C-13.91495689 7.61671695 -15.72042556 8.06146672 -19.3046875 7.2734375 C-21.83691191 6.07705322 -23.86655415 4.80522341 -26 3 C-17.35508665 -0.16277318 -9.09660655 -0.12311197 0 0 Z " fill="#EB822E" transform="translate(254,221)"/>
<path d="M0 0 C0.66 0 1.32 0 2 0 C2.1799928 5.21979128 1.97094808 9.07262981 0 14 C1.98 13.67 3.96 13.34 6 13 C6.33 13.99 6.66 14.98 7 16 C2.71 16.66 -1.58 17.32 -6 18 C-6 17.34 -6 16.68 -6 16 C-6.66 15.67 -7.32 15.34 -8 15 C-6.68 15 -5.36 15 -4 15 C-3.79503906 14.16855469 -3.59007812 13.33710937 -3.37890625 12.48046875 C-2.97478516 10.85044922 -2.97478516 10.85044922 -2.5625 9.1875 C-2.29566406 8.10855469 -2.02882812 7.02960938 -1.75390625 5.91796875 C-1.23922588 3.9259157 -0.65062825 1.95188476 0 0 Z " fill="#E2EEF7" transform="translate(188,109)"/>
<path d="M0 0 C3.8225233 1.27417443 4.86320715 2.61060444 7 6 C7.25 9.8125 7.25 9.8125 7 13 C4.69 13 2.38 13 0 13 C0 8.71 0 4.42 0 0 Z " fill="#B6BCC1" transform="translate(249,202)"/>
<path d="M0 0 C1.32 0.33 2.64 0.66 4 1 C4.33 3.31 4.66 5.62 5 8 C6.98 8 8.96 8 11 8 C11 8.66 11 9.32 11 10 C7.55824478 12.14699969 5.2279708 12.09856795 1.25 11.625 C-0.22726562 11.45871094 -0.22726562 11.45871094 -1.734375 11.2890625 C-2.48203125 11.19367188 -3.2296875 11.09828125 -4 11 C-3.01 10.67 -2.02 10.34 -1 10 C-1 9.34 -1 8.68 -1 8 C-0.34 8 0.32 8 1 8 C0.67 5.36 0.34 2.72 0 0 Z " fill="#D4E6F3" transform="translate(291,111)"/>
<path d="M0 0 C-0.33 0.99 -0.66 1.98 -1 3 C-8.26 2.67 -15.52 2.34 -23 2 C-19.93143858 -4.13712284 -5.60197737 -0.65492846 0 0 Z " fill="#1A72AF" transform="translate(282,208)"/>
<path d="M0 0 C0.99 0 1.98 0 3 0 C3.99250545 5.70690634 4.10477512 11.21408489 4 17 C3.01 17 2.02 17 1 17 C0.67 11.39 0.34 5.78 0 0 Z " fill="#DCEBF5" transform="translate(271,95)"/>
<path d="M0 0 C0 0.66 0 1.32 0 2 C-6.27 4.31 -12.54 6.62 -19 9 C-19.33 8.01 -19.66 7.02 -20 6 C-17.04657157 4.80003066 -14.08658106 3.61718896 -11.125 2.4375 C-10.28324219 2.09525391 -9.44148437 1.75300781 -8.57421875 1.40039062 C-7.76855469 1.08134766 -6.96289062 0.76230469 -6.1328125 0.43359375 C-5.38918457 0.13509521 -4.64555664 -0.16340332 -3.87939453 -0.47094727 C-2 -1 -2 -1 0 0 Z " fill="#1970AD" transform="translate(138,227)"/>
<path d="M0 0 C1.99609375 0.015625 1.99609375 0.015625 4.4375 0.25 C5.64212891 0.35054688 5.64212891 0.35054688 6.87109375 0.453125 C9 1 9 1 11 4 C8.20882755 4.24803781 5.41884926 4.47414334 2.625 4.6875 C1.43390625 4.79674805 1.43390625 4.79674805 0.21875 4.90820312 C-2.0859375 5.07421875 -2.0859375 5.07421875 -6 5 C-6.66 4.01 -7.32 3.02 -8 2 C-6.865625 1.855625 -5.73125 1.71125 -4.5625 1.5625 C-1.19222799 1.38828522 -1.19222799 1.38828522 0 0 Z " fill="#E2EEF7" transform="translate(226,116)"/>
<path d="M0 0 C1.32 0.33 2.64 0.66 4 1 C4.33 3.64 4.66 6.28 5 9 C5.66 9 6.32 9 7 9 C7 9.66 7 10.32 7 11 C3.37 10.67 -0.26 10.34 -4 10 C-1 8 -1 8 1 8 C0.67 5.36 0.34 2.72 0 0 Z " fill="#E8F2F8" transform="translate(311,115)"/>
<path d="M0 0 C0.73605469 0.2165625 1.47210938 0.433125 2.23046875 0.65625 C3.20628906 0.9346875 4.18210937 1.213125 5.1875 1.5 C6.15042969 1.7784375 7.11335938 2.056875 8.10546875 2.34375 C10.85345876 2.96677608 13.19598416 3.12302812 16 3 C16 3.66 16 4.32 16 5 C15.34 5 14.68 5 14 5 C14 5.66 14 6.32 14 7 C8.72 5.68 3.44 4.36 -2 3 C-1.34 2.67 -0.68 2.34 0 2 C0 1.34 0 0.68 0 0 Z " fill="#2275AE" transform="translate(335,218)"/>
<path d="M0 0 C-0.33 0.66 -0.66 1.32 -1 2 C-3.72265625 2.8515625 -3.72265625 2.8515625 -7.0625 3.625 C-8.16722656 3.88539063 -9.27195313 4.14578125 -10.41015625 4.4140625 C-11.26480469 4.60742188 -12.11945313 4.80078125 -13 5 C-13 4.34 -13 3.68 -13 3 C-13.66 2.67 -14.32 2.34 -15 2 C-13.25364835 1.46706165 -11.50272348 0.94909337 -9.75 0.4375 C-8.77546875 0.14746094 -7.8009375 -0.14257812 -6.796875 -0.44140625 C-4.03756068 -0.99249836 -2.6087176 -0.93789609 0 0 Z " fill="#2574AA" transform="translate(169,218)"/>
<path d="M0 0 C-0.99 1.485 -0.99 1.485 -2 3 C-5.0390625 3.51171875 -5.0390625 3.51171875 -8.625 3.6875 C-9.81351563 3.75324219 -11.00203125 3.81898438 -12.2265625 3.88671875 C-13.59941406 3.94279297 -13.59941406 3.94279297 -15 4 C-14 2 -14 2 -12.109375 1.3671875 C-8.02124399 0.51436547 -4.20385856 -0.27121668 0 0 Z " fill="#156FAF" transform="translate(205,210)"/>
<path d="M0 0 C1.21236328 0.01353516 1.21236328 0.01353516 2.44921875 0.02734375 C3.37154297 0.04474609 3.37154297 0.04474609 4.3125 0.0625 C2.9925 0.3925 1.6725 0.7225 0.3125 1.0625 C0.3125 1.7225 0.3125 2.3825 0.3125 3.0625 C-2.6575 3.0625 -5.6275 3.0625 -8.6875 3.0625 C-6.88341097 -0.54567807 -3.60175697 -0.05219938 0 0 Z " fill="#39759F" transform="translate(267.6875,206.9375)"/>
<path d="M0 0 C5.75 1.75 5.75 1.75 8 4 C7.34 4.66 6.68 5.32 6 6 C3.36 4.68 0.72 3.36 -2 2 C-1.34 1.34 -0.68 0.68 0 0 Z " fill="#2174AF" transform="translate(403,245)"/>
<path d="M0 0 C0.99 0 1.98 0 3 0 C3.33 2.31 3.66 4.62 4 7 C3.01 7 2.02 7 1 7 C0.67 4.69 0.34 2.38 0 0 Z " fill="#D1E4F2" transform="translate(289,98)"/>
<path d="M0 0 C0.66 0.33 1.32 0.66 2 1 C2 1.66 2 2.32 2 3 C-1.465 4.485 -1.465 4.485 -5 6 C-4.75 4.125 -4.75 4.125 -4 2 C-2.0625 0.6875 -2.0625 0.6875 0 0 Z " fill="#1C72AF" transform="translate(91,246)"/>
<path d="M0 0 C2.97 0.495 2.97 0.495 6 1 C6.33 1.99 6.66 2.98 7 4 C4.36 3.67 1.72 3.34 -1 3 C-0.67 2.01 -0.34 1.02 0 0 Z " fill="#2873A7" transform="translate(302,211)"/>
</svg>
