<?xml version="1.0" encoding="UTF-8"?>
<!DOCTYPE svg PUBLIC "-//W3C//DTD SVG 1.1//EN" "http://www.w3.org/Graphics/SVG/1.1/DTD/svg11.dtd">
<svg xmlns="http://www.w3.org/2000/svg" version="1.1" width="1840px" height="1879px" style="shape-rendering:geometricPrecision; text-rendering:geometricPrecision; image-rendering:optimizeQuality; fill-rule:evenodd; clip-rule:evenodd" xmlns:xlink="http://www.w3.org/1999/xlink">
<g><path style="opacity:1" fill="#d0212d" d="M 877.5,56.5 C 1120.46,49.0784 1332.46,125.245 1513.5,285C 1691.2,449.933 1787.7,654.099 1803,897.5C 1811.25,1120.39 1746.92,1319.05 1610,1493.5C 1453.2,1684.02 1251.36,1793.18 1004.5,1821C 780.804,1839.85 578.138,1784.18 396.5,1654C 218.956,1520.46 105.123,1345.29 55,1128.5C 9.14153,903.992 42.8082,692.325 156,493.5C 266.088,310.098 421.588,181.265 622.5,107C 705.234,78.0195 790.234,61.1862 877.5,56.5 Z"/></g>
<g><path style="opacity:1" fill="#fefdfd" d="M 875.5,97.5 C 1105.83,89.7646 1307.5,160.931 1480.5,311C 1647.88,463.598 1741.38,653.431 1761,880.5C 1773.57,1109.13 1707.23,1311.13 1562,1486.5C 1410.7,1659.74 1219.87,1757.91 989.5,1781C 753.517,1797.11 545.85,1729.11 366.5,1577C 203.69,1432.25 108.523,1251.08 81,1033.5C 57.9394,785.043 127.606,567.043 290,379.5C 434.15,221.498 612.983,128.998 826.5,102C 842.975,100.363 859.308,98.8632 875.5,97.5 Z"/></g>
<g><path style="opacity:1" fill="#d0212d" d="M 876.5,138.5 C 1107.64,130.907 1307.3,205.407 1475.5,362C 1646.43,531.685 1728.27,737.518 1721,979.5C 1707.03,1199.59 1619.86,1384.42 1459.5,1534C 1293.57,1680.77 1099.24,1750.1 876.5,1742C 666.44,1727.53 487.94,1645.7 341,1496.5C 184.25,1328.33 109.917,1128.66 118,897.5C 133.033,679.626 219.867,496.459 378.5,348C 520.093,221.403 686.093,151.57 876.5,138.5 Z"/></g>
<g><path style="opacity:1" fill="#fefdfc" d="M 948.5,256.5 C 948.5,259.167 948.5,261.833 948.5,264.5C 951.713,264.19 954.713,264.523 957.5,265.5C 955.012,269.806 952.512,274.139 950,278.5C 949.5,294.83 949.333,311.163 949.5,327.5C 940.833,327.5 932.167,327.5 923.5,327.5C 923.5,314.5 923.5,301.5 923.5,288.5C 913.167,288.5 902.833,288.5 892.5,288.5C 892.5,301.5 892.5,314.5 892.5,327.5C 883.833,327.5 875.167,327.5 866.5,327.5C 866.119,303.83 865.953,280.164 866,256.5C 868.057,238.204 872.89,220.704 880.5,204C 898.167,203.333 915.833,203.333 933.5,204C 942.046,220.473 947.046,237.973 948.5,256.5 Z"/></g>
<g><path style="opacity:1" fill="#fefbfb" d="M 800.5,210.5 C 803.079,210.083 805.246,210.75 807,212.5C 808.502,219.521 810.002,226.521 811.5,233.5C 801.921,234.983 792.588,237.316 783.5,240.5C 791.247,272.74 798.58,305.073 805.5,337.5C 796.84,339.495 788.173,341.495 779.5,343.5C 772.854,310.573 765.354,277.907 757,245.5C 747.899,247.812 738.733,249.812 729.5,251.5C 727.674,244.385 726.008,237.218 724.5,230C 724.833,229.5 725.167,229 725.5,228.5C 750.652,222.627 775.652,216.627 800.5,210.5 Z"/></g>
<g><path style="opacity:1" fill="#d1242f" d="M 897.5,227.5 C 903.868,227.17 910.202,227.504 916.5,228.5C 920.598,240.14 922.598,252.14 922.5,264.5C 912.5,264.5 902.5,264.5 892.5,264.5C 892.781,251.965 894.448,239.632 897.5,227.5 Z"/></g>
<g><path style="opacity:1" fill="#fefcfc" d="M 1137.5,300.5 C 1138.95,301.885 1139.95,301.552 1140.5,299.5C 1146.17,280.833 1151.83,262.167 1157.5,243.5C 1165.56,245.687 1173.56,248.187 1181.5,251C 1182.06,251.725 1182.39,252.558 1182.5,253.5C 1169.89,292.009 1157.89,330.676 1146.5,369.5C 1137.33,367.666 1128.66,364.666 1120.5,360.5C 1124.51,348.143 1128.51,335.809 1132.5,323.5C 1122.5,320.833 1112.5,318.167 1102.5,315.5C 1099.27,328.079 1095.27,340.412 1090.5,352.5C 1082.68,349.726 1074.84,347.059 1067,344.5C 1071.06,328.967 1075.56,313.467 1080.5,298C 1079.38,292.928 1078.04,287.928 1076.5,283C 1076.83,282.5 1077.17,282 1077.5,281.5C 1080.51,283.894 1083.34,283.894 1086,281.5C 1091.84,263.306 1097.68,245.139 1103.5,227C 1111.79,229.037 1120.13,231.204 1128.5,233.5C 1122.71,252.881 1116.71,272.214 1110.5,291.5C 1119.14,295.492 1128.14,298.492 1137.5,300.5 Z"/></g>
<g><path style="opacity:1" fill="#fefcfc" d="M 655.5,251.5 C 657.686,252.823 659.186,254.823 660,257.5C 675.833,293.167 691.667,328.833 707.5,364.5C 699.517,368.992 691.184,372.659 682.5,375.5C 677.794,363.749 672.794,352.083 667.5,340.5C 653.5,332.833 639.5,325.167 625.5,317.5C 625.167,317.833 624.833,318.167 624.5,318.5C 634.637,341.275 644.637,364.108 654.5,387C 654.355,387.772 654.022,388.439 653.5,389C 646.833,392 640.167,395 633.5,398C 632.365,398.749 631.365,398.583 630.5,397.5C 613.889,360.612 597.556,323.612 581.5,286.5C 581.833,285.833 582.167,285.167 582.5,284.5C 590.059,281.26 597.559,277.926 605,274.5C 618.245,281.206 631.412,288.039 644.5,295C 645.5,295.667 646.5,295.667 647.5,295C 642.567,284.466 637.9,273.799 633.5,263C 640.709,258.896 648.043,255.062 655.5,251.5 Z"/></g>
<g><path style="opacity:1" fill="#ea7779" d="M 948.5,256.5 C 949.468,258.607 949.802,260.941 949.5,263.5C 952.572,263.183 955.572,263.516 958.5,264.5C 958.376,265.107 958.043,265.44 957.5,265.5C 954.713,264.523 951.713,264.19 948.5,264.5C 948.5,261.833 948.5,259.167 948.5,256.5 Z"/></g>
<g><path style="opacity:1" fill="#fefcfc" d="M 1213.5,349.5 C 1214.17,343.5 1214.83,337.5 1215.5,331.5C 1217.7,332.946 1220.04,333.78 1222.5,334C 1233.96,316.211 1248.46,301.377 1266,289.5C 1280.7,298.366 1295.54,307.033 1310.5,315.5C 1311.19,322.525 1310.69,329.525 1309,336.5C 1306.27,347.03 1302.93,357.363 1299,367.5C 1287.41,389.022 1275.08,410.022 1262,430.5C 1254.69,427.013 1247.69,423.013 1241,418.5C 1240.33,417.5 1240.33,416.5 1241,415.5C 1247.22,405.562 1253.05,395.395 1258.5,385C 1258.36,384.228 1258.02,383.561 1257.5,383C 1249.63,378.3 1241.63,373.8 1233.5,369.5C 1232.91,369.709 1232.41,370.043 1232,370.5C 1225.67,381.167 1219.33,391.833 1213,402.5C 1205.25,398.377 1197.75,393.877 1190.5,389C 1198.3,375.888 1205.97,362.721 1213.5,349.5 Z"/></g>
<g><path style="opacity:1" fill="#f09595" d="M 1140.5,299.5 C 1139.95,301.552 1138.95,301.885 1137.5,300.5C 1138.61,300.443 1139.61,300.11 1140.5,299.5 Z"/></g>
<g><path style="opacity:1" fill="#d0232e" d="M 1268.5,319.5 C 1274.3,321.9 1279.64,325.067 1284.5,329C 1281.56,341.154 1277.06,352.654 1271,363.5C 1263.17,359 1255.33,354.5 1247.5,350C 1246.64,349.311 1245.98,348.478 1245.5,347.5C 1252.22,337.4 1259.89,328.067 1268.5,319.5 Z"/></g>
<g><path style="opacity:1" fill="#fefcfc" d="M 497.5,334.5 C 515.047,343.709 530.547,355.709 544,370.5C 557.898,388.06 571.398,405.894 584.5,424C 578.045,429.399 571.379,434.566 564.5,439.5C 556.174,429.67 548.008,419.67 540,409.5C 531.879,415.285 524.046,421.452 516.5,428C 523.975,438.308 531.641,448.475 539.5,458.5C 533.121,464.375 526.287,469.709 519,474.5C 509.167,462 499.333,449.5 489.5,437C 484.26,435.312 479.26,433.145 474.5,430.5C 476.5,428.5 478.5,426.5 480.5,424.5C 468.6,407.321 460.267,388.487 455.5,368C 469.339,356.664 483.339,345.497 497.5,334.5 Z"/></g>
<g><path style="opacity:1" fill="#e97477" d="M 1215.5,331.5 C 1214.83,337.5 1214.17,343.5 1213.5,349.5C 1213.17,343.132 1213.5,336.798 1214.5,330.5C 1215.11,330.624 1215.44,330.957 1215.5,331.5 Z"/></g>
<g><path style="opacity:1" fill="#d1242f" d="M 497.5,364.5 C 508.375,371.37 517.708,380.037 525.5,390.5C 517.809,396.692 509.976,402.692 502,408.5C 494.223,398.783 488.389,387.949 484.5,376C 488.43,371.703 492.763,367.87 497.5,364.5 Z"/></g>
<g><path style="opacity:1" fill="#fefcfc" d="M 1386.5,368.5 C 1393.72,374.537 1399.88,381.204 1405,388.5C 1385.41,407.738 1366.74,427.738 1349,448.5C 1346.17,453.333 1343.33,458.167 1340.5,463C 1342.83,465.333 1345.17,467.667 1347.5,470C 1352.11,468.866 1356.44,466.866 1360.5,464C 1366.78,460.054 1372.78,455.721 1378.5,451C 1394.03,435.805 1409.2,420.305 1424,404.5C 1429.7,410.532 1435.7,416.199 1442,421.5C 1442.67,422.5 1442.67,423.5 1442,424.5C 1424.24,441.261 1407.57,458.927 1392,477.5C 1387.2,484.471 1383.03,491.805 1379.5,499.5C 1380.9,502.406 1382.9,504.906 1385.5,507C 1387.29,507.52 1388.96,507.187 1390.5,506C 1397.68,501.245 1404.68,496.245 1411.5,491C 1428.36,474.472 1444.86,457.638 1461,440.5C 1467.35,446.681 1473.51,453.014 1479.5,459.5C 1462.29,477.207 1444.96,494.707 1427.5,512C 1414.18,522.494 1399.52,530.66 1383.5,536.5C 1371.94,527.45 1361.11,517.45 1351,506.5C 1351.47,502.774 1352.13,499.108 1353,495.5C 1349.71,497.378 1346.21,498.212 1342.5,498C 1331.68,488.349 1321.35,478.182 1311.5,467.5C 1316.92,452 1324.42,437.666 1334,424.5C 1351.34,405.662 1368.84,386.996 1386.5,368.5 Z"/></g>
<g><path style="opacity:1" fill="#fefefe" d="M 893.5,392.5 C 1066.19,388.079 1211.02,448.745 1328,574.5C 1435.09,697.79 1480.42,841.124 1464,1004.5C 1441.55,1168.34 1363.38,1297.84 1229.5,1393C 1096.51,1480.66 951.84,1508 795.5,1475C 645.738,1437.26 530.238,1353.1 449,1222.5C 382.112,1107.59 358.446,984.256 378,852.5C 404.819,703.598 478.652,584.431 599.5,495C 687.526,432.49 785.526,398.324 893.5,392.5 Z"/></g>
<g><path style="opacity:1" fill="#d0202d" d="M 888.5,432.5 C 1045.87,426.872 1179.7,479.539 1290,590.5C 1400.44,710.837 1445.77,852.503 1426,1015.5C 1402.61,1159.2 1332.78,1274.04 1216.5,1360C 1097.71,1441.57 967.047,1470.23 824.5,1446C 696.806,1419.77 592.973,1355.6 513,1253.5C 488.231,1220.48 467.398,1184.98 450.5,1147C 531.068,1110.81 613.068,1078.14 696.5,1049C 713.468,1043.77 730.634,1039.27 748,1035.5C 715.579,1055.17 687.246,1081.5 663,1114.5C 661.711,1116.05 661.044,1117.72 661,1119.5C 734.408,1080.21 811.908,1052.38 893.5,1036C 938.128,1027.83 982.795,1027.49 1027.5,1035C 1042.58,1037.91 1056.08,1044.07 1068,1053.5C 1069.86,1055.89 1071.19,1058.55 1072,1061.5C 1072.53,1068.92 1072.2,1076.25 1071,1083.5C 1116.38,1051.06 1133.71,1007.39 1123,952.5C 1116.75,931.254 1105.25,913.42 1088.5,899C 1061.11,879.637 1034.45,859.304 1008.5,838C 990.56,822.062 973.226,805.395 956.5,788C 942.037,776.241 926.037,766.907 908.5,760C 883.135,750.211 857.468,741.211 831.5,733C 724.439,701.032 617.439,669.199 510.5,637.5C 592.622,529.901 700.622,463.734 834.5,439C 852.603,436.476 870.603,434.309 888.5,432.5 Z"/></g>
<g><path style="opacity:1" fill="#fefcfc" d="M 372.5,446.5 C 374.932,447.75 377.266,449.25 379.5,451C 402.017,471.685 424.684,492.185 447.5,512.5C 456.155,503.677 464.655,494.677 473,485.5C 478.638,490.727 484.138,496.061 489.5,501.5C 475.518,517.316 461.352,532.983 447,548.5C 416.5,520.667 386,492.833 355.5,465C 361.004,458.663 366.671,452.496 372.5,446.5 Z"/></g>
<g><path style="opacity:1" fill="#fefcfc" d="M 1523.5,518.5 C 1529.16,525.203 1534.16,532.536 1538.5,540.5C 1521.67,551.749 1504.67,562.749 1487.5,573.5C 1490.63,579.456 1494.46,584.789 1499,589.5C 1518.38,583.892 1536.88,576.226 1554.5,566.5C 1560.03,573.049 1564.7,580.216 1568.5,588C 1561.14,593.352 1553.14,597.685 1544.5,601C 1530.66,606.336 1516.66,611.169 1502.5,615.5C 1492.27,630.898 1479.77,644.232 1465,655.5C 1460.37,648.401 1455.87,641.234 1451.5,634C 1460.6,624.9 1469.77,615.733 1479,606.5C 1476.08,599.355 1472.08,592.689 1467,586.5C 1456.49,593.423 1445.82,600.09 1435,606.5C 1429.27,600.245 1424.44,593.245 1420.5,585.5C 1433.12,576.516 1446.12,568.016 1459.5,560C 1462.14,554.552 1465.14,549.386 1468.5,544.5C 1470.18,546.54 1471.84,548.54 1473.5,550.5C 1490.48,540.168 1507.14,529.501 1523.5,518.5 Z"/></g>
<g><path style="opacity:1" fill="#fefcfc" d="M 312.5,519.5 C 319.644,522.905 326.311,527.072 332.5,532C 328.384,539.732 323.884,547.232 319,554.5C 318.312,555.332 318.479,555.998 319.5,556.5C 347.417,573.374 375.25,590.374 403,607.5C 402.968,609.598 402.301,611.598 401,613.5C 397.582,619.337 393.916,625.004 390,630.5C 361.667,613.167 333.333,595.833 305,578.5C 300.041,586.25 295.208,594.083 290.5,602C 283.071,599.279 276.071,595.446 269.5,590.5C 284.096,566.972 298.429,543.305 312.5,519.5 Z"/></g>
<g><path style="opacity:1" fill="#fefefe" d="M 887.5,545.5 C 1024.35,538.806 1137.52,586.806 1227,689.5C 1311.41,796.535 1337.08,916.535 1304,1049.5C 1266.77,1172.73 1189.27,1260.23 1071.5,1312C 993.232,1343.04 912.899,1349.71 830.5,1332C 754.858,1313.69 689.858,1277.03 635.5,1222C 700.958,1186.74 770.291,1162.4 843.5,1149C 876.451,1143.66 909.451,1143.32 942.5,1148C 950.117,1149.87 957.451,1152.54 964.5,1156C 969.352,1160.41 970.852,1165.91 969,1172.5C 961.551,1193.73 951.717,1213.73 939.5,1232.5C 1004.28,1225.18 1063.95,1203.68 1118.5,1168C 1164.32,1137.18 1197.16,1096.01 1217,1044.5C 1242.21,963.916 1227.21,891.916 1172,828.5C 1140.38,795.627 1104.55,768.46 1064.5,747C 1053.57,737.403 1044.07,726.569 1036,714.5C 1022.49,699.982 1006.99,688.149 989.5,679C 952.013,661.058 913.346,646.058 873.5,634C 826.079,619.561 778.412,605.894 730.5,593C 779.704,566.454 832.037,550.621 887.5,545.5 Z"/></g>
<g><path style="opacity:1" fill="#fefdfd" d="M 237.5,659.5 C 264.496,657.499 290.496,661.666 315.5,672C 329.167,677 342.833,682 356.5,687C 357.428,687.388 358.095,688.055 358.5,689C 355.526,696.757 352.859,704.59 350.5,712.5C 338.126,708.375 325.793,704.042 313.5,699.5C 309.204,708.887 306.037,718.553 304,728.5C 315.939,732.812 327.773,737.312 339.5,742C 336.5,749.667 333.5,757.333 330.5,765C 329.167,765.667 327.833,765.667 326.5,765C 313.833,760.333 301.167,755.667 288.5,751C 282.027,750.663 275.694,751.496 269.5,753.5C 269.158,750.636 269.824,747.802 271.5,745C 252.04,736.859 234.874,725.359 220,710.5C 224.714,693.194 230.547,676.194 237.5,659.5 Z"/></g>
<g><path style="opacity:1" fill="#fefcfc" d="M 1589.5,661.5 C 1593.88,661.174 1598.22,661.508 1602.5,662.5C 1612.1,685.986 1621.1,709.652 1629.5,733.5C 1619.38,736.762 1609.38,740.429 1599.5,744.5C 1595.34,736.503 1592,728.17 1589.5,719.5C 1592.17,718.833 1594.83,718.167 1597.5,717.5C 1595.39,707.482 1591.72,698.149 1586.5,689.5C 1582.14,690.394 1577.8,691.394 1573.5,692.5C 1572,713.855 1570.16,735.189 1568,756.5C 1551.97,764.122 1535.14,768.789 1517.5,770.5C 1513.91,770.862 1511.41,769.528 1510,766.5C 1500.84,744.353 1492.51,722.02 1485,699.5C 1493.76,695.871 1502.6,692.371 1511.5,689C 1513.11,688.28 1514.61,688.446 1516,689.5C 1518.93,696.794 1521.76,704.127 1524.5,711.5C 1522.45,713.194 1520.11,714.361 1517.5,715C 1516.94,715.725 1516.61,716.558 1516.5,717.5C 1519.8,725.752 1522.8,734.086 1525.5,742.5C 1531.28,742.178 1536.78,740.845 1542,738.5C 1544.41,717.174 1546.74,695.84 1549,674.5C 1562.13,668.62 1575.63,664.287 1589.5,661.5 Z"/></g>
<g><path style="opacity:1" fill="#d1252f" d="M 253.5,684.5 C 266.073,684.956 278.24,687.289 290,691.5C 287.459,700.786 284.293,709.953 280.5,719C 268.541,715.401 257.707,709.567 248,701.5C 249.109,695.671 250.942,690.005 253.5,684.5 Z"/></g>
<g><path style="opacity:1" fill="#d0212d" d="M 773.5,769.5 C 787.712,768.983 801.379,771.483 814.5,777C 830.779,784.473 846.779,792.473 862.5,801C 879.439,808.221 897.105,811.388 915.5,810.5C 911.261,856.912 885.928,879.412 839.5,878C 788.515,869.987 765.682,840.154 771,788.5C 769.829,787.107 768.329,786.273 766.5,786C 758.089,785.398 749.755,785.398 741.5,786C 750.728,777.553 761.395,772.053 773.5,769.5 Z"/></g>
<g><path style="opacity:1" fill="#fefcfc" d="M 307.5,1026.5 C 309.144,1026.29 310.644,1026.62 312,1027.5C 317.611,1054.17 323.111,1080.84 328.5,1107.5C 307.871,1112.21 287.038,1113.55 266,1111.5C 247.043,1120.99 227.21,1127.99 206.5,1132.5C 201.445,1105.41 196.112,1078.41 190.5,1051.5C 209.177,1047.78 227.844,1043.94 246.5,1040C 251.301,1036.2 255.801,1032.03 260,1027.5C 261.104,1030.49 262.27,1033.49 263.5,1036.5C 278.313,1033.27 292.98,1029.94 307.5,1026.5 Z"/></g>
<g><path style="opacity:1" fill="#fefcfc" d="M 1527.5,1026.5 C 1539.28,1029.2 1550.95,1032.36 1562.5,1036C 1570.61,1039.22 1578.27,1043.22 1585.5,1048C 1606.42,1047.39 1627.08,1049.22 1647.5,1053.5C 1648.45,1057.16 1648.29,1060.83 1647,1064.5C 1641.45,1087.3 1636.29,1110.13 1631.5,1133C 1612.51,1130.33 1593.67,1126.5 1575,1121.5C 1569.23,1123.31 1563.56,1125.31 1558,1127.5C 1557.83,1124.17 1557.99,1120.84 1558.5,1117.5C 1543.16,1114.44 1527.82,1111.28 1512.5,1108C 1511.42,1107.33 1510.75,1106.33 1510.5,1105C 1516.48,1078.9 1522.14,1052.74 1527.5,1026.5 Z"/></g>
<g><path style="opacity:1" fill="#d0242f" d="M 290.5,1057.5 C 291.833,1057.5 293.167,1057.5 294.5,1057.5C 295.794,1066.89 297.461,1076.22 299.5,1085.5C 290.54,1086.41 281.54,1086.75 272.5,1086.5C 271.169,1078.51 269.836,1070.51 268.5,1062.5C 275.952,1060.83 283.285,1059.16 290.5,1057.5 Z"/></g>
<g><path style="opacity:1" fill="#d0222e" d="M 1545.5,1058.5 C 1553.38,1060.91 1561.05,1063.91 1568.5,1067.5C 1568.83,1068.33 1569.17,1069.17 1569.5,1070C 1567.76,1077.1 1566.43,1084.27 1565.5,1091.5C 1556.9,1090.22 1548.4,1088.56 1540,1086.5C 1541.37,1077.13 1543.21,1067.8 1545.5,1058.5 Z"/></g>
<g><path style="opacity:1" fill="#d0232f" d="M 241.5,1067.5 C 243.124,1067.36 244.29,1068.03 245,1069.5C 246.547,1076.17 248.047,1082.83 249.5,1089.5C 248.221,1091.15 246.555,1092.31 244.5,1093C 238.04,1095.65 231.54,1098.15 225,1100.5C 222.413,1091.31 220.579,1081.98 219.5,1072.5C 227.177,1071.83 234.51,1070.17 241.5,1067.5 Z"/></g>
<g><path style="opacity:1" fill="#d0242f" d="M 1592.5,1074.5 C 1601.51,1074.63 1610.51,1074.96 1619.5,1075.5C 1617.94,1084.52 1616.27,1093.52 1614.5,1102.5C 1605.75,1101.25 1597.08,1099.58 1588.5,1097.5C 1590.31,1089.92 1591.64,1082.25 1592.5,1074.5 Z"/></g>
<g><path style="opacity:1" fill="#fefcfc" d="M 1492.5,1160.5 C 1514.4,1169.31 1536.07,1178.81 1557.5,1189C 1573.93,1198.42 1588.26,1210.42 1600.5,1225C 1592.47,1241.22 1585.14,1257.72 1578.5,1274.5C 1555.22,1274.54 1532.89,1270.04 1511.5,1261C 1494.5,1253.17 1477.5,1245.33 1460.5,1237.5C 1459.39,1236.28 1459.22,1234.94 1460,1233.5C 1463,1227.17 1466,1220.83 1469,1214.5C 1469.56,1213.98 1470.23,1213.64 1471,1213.5C 1491.56,1222.53 1512.06,1231.7 1532.5,1241C 1542.78,1245.04 1553.28,1247.2 1564,1247.5C 1566.37,1241.93 1568.87,1236.43 1571.5,1231C 1562.03,1222.76 1551.7,1215.76 1540.5,1210C 1521.83,1201.67 1503.17,1193.33 1484.5,1185C 1483.45,1183.61 1483.28,1182.11 1484,1180.5C 1487.13,1173.92 1489.96,1167.25 1492.5,1160.5 Z"/></g>
<g><path style="opacity:1" fill="#fefcfc" d="M 328.5,1166.5 C 335.755,1166.19 342.921,1166.52 350,1167.5C 357.613,1183.38 364.613,1199.38 371,1215.5C 360.308,1227.87 348.141,1238.37 334.5,1247C 312.122,1258.77 289.288,1269.61 266,1279.5C 261.419,1272.46 257.586,1264.96 254.5,1257C 265.838,1250.66 277.505,1244.83 289.5,1239.5C 285.498,1230.16 280.998,1221.16 276,1212.5C 264.887,1217.64 253.721,1222.64 242.5,1227.5C 241.833,1227.17 241.167,1226.83 240.5,1226.5C 237.303,1219.27 233.97,1212.11 230.5,1205C 244.621,1197.77 258.955,1190.77 273.5,1184C 276.672,1179.34 280.005,1174.84 283.5,1170.5C 284.73,1173.05 286.23,1175.38 288,1177.5C 301.221,1172.32 314.721,1168.66 328.5,1166.5 Z"/></g>
<g><path style="opacity:1" fill="#d1242f" d="M 330.5,1192.5 C 332.288,1192.21 333.955,1192.55 335.5,1193.5C 338.107,1198.38 340.44,1203.38 342.5,1208.5C 333.032,1216.74 322.698,1223.74 311.5,1229.5C 306.91,1220.65 302.577,1211.65 298.5,1202.5C 308.786,1197.6 319.453,1194.27 330.5,1192.5 Z"/></g>
<g><path style="opacity:1" fill="#fefcfc" d="M 398.5,1272.5 C 400.722,1272.18 402.556,1272.84 404,1274.5C 418.5,1294.17 433,1313.83 447.5,1333.5C 439.643,1339.86 431.643,1346.02 423.5,1352C 422.5,1352.67 421.5,1352.67 420.5,1352C 415.309,1345.64 410.309,1339.14 405.5,1332.5C 407.979,1330.52 410.312,1328.36 412.5,1326C 407.348,1318.84 402.181,1311.68 397,1304.5C 395.951,1303.48 394.784,1303.32 393.5,1304C 389.473,1305.82 386.139,1308.32 383.5,1311.5C 387.656,1332.11 391.156,1352.77 394,1373.5C 382.234,1383.3 369.4,1391.47 355.5,1398C 351.578,1399.65 347.578,1400.65 343.5,1401C 328.743,1380.82 313.743,1360.82 298.5,1341C 307.084,1334.13 315.917,1327.63 325,1321.5C 330.232,1327.62 335.232,1333.95 340,1340.5C 340.667,1341.17 340.667,1341.83 340,1342.5C 337.926,1344.45 335.759,1346.29 333.5,1348C 338.641,1355.31 343.974,1362.47 349.5,1369.5C 350.365,1370.58 351.365,1370.75 352.5,1370C 356.327,1368.25 359.993,1366.25 363.5,1364C 364.108,1362.77 364.441,1361.44 364.5,1360C 361.159,1339.46 357.993,1318.96 355,1298.5C 368.141,1287.52 382.641,1278.85 398.5,1272.5 Z"/></g>
<g><path style="opacity:1" fill="#fefcfc" d="M 1412.5,1304.5 C 1439.62,1323.9 1466.62,1343.57 1493.5,1363.5C 1501.55,1354.12 1509.21,1344.45 1516.5,1334.5C 1522.17,1338.67 1527.83,1342.83 1533.5,1347C 1534.52,1348.05 1534.68,1349.22 1534,1350.5C 1521.66,1367 1509.16,1383.33 1496.5,1399.5C 1463.91,1375.29 1431.41,1350.96 1399,1326.5C 1398.33,1325.5 1398.33,1324.5 1399,1323.5C 1404.01,1317.46 1408.51,1311.13 1412.5,1304.5 Z"/></g>
<g><path style="opacity:1" fill="#fefcfc" d="M 1365.5,1362.5 C 1375.17,1368.84 1383.83,1376.34 1391.5,1385C 1385.64,1391.36 1379.3,1397.2 1372.5,1402.5C 1369.85,1400.35 1367.35,1398.02 1365,1395.5C 1358.32,1401.34 1351.82,1407.34 1345.5,1413.5C 1362.35,1431.85 1379.02,1450.35 1395.5,1469C 1396.91,1469.32 1398.24,1468.98 1399.5,1468C 1405.03,1462.13 1410.86,1456.63 1417,1451.5C 1417.09,1448.54 1415.76,1446.2 1413,1444.5C 1412.33,1443.83 1412.33,1443.17 1413,1442.5C 1418.88,1436.48 1425.05,1430.82 1431.5,1425.5C 1439.17,1433.17 1446.51,1441.17 1453.5,1449.5C 1433.81,1468.69 1413.64,1487.36 1393,1505.5C 1365.17,1475 1337.33,1444.5 1309.5,1414C 1328.06,1396.6 1346.73,1379.43 1365.5,1362.5 Z"/></g>
<g><path style="opacity:1" fill="#fefcfc" d="M 480.5,1370.5 C 487.74,1375.4 494.407,1381.07 500.5,1387.5C 486.981,1402.52 473.647,1417.69 460.5,1433C 464.643,1437.23 468.977,1441.23 473.5,1445C 475.289,1445.52 476.956,1445.19 478.5,1444C 494.59,1433.61 509.59,1421.78 523.5,1408.5C 530.315,1414.15 536.981,1419.98 543.5,1426C 526.304,1442.87 507.137,1457.03 486,1468.5C 480.641,1486.55 472.141,1502.89 460.5,1517.5C 453.652,1512.15 447.319,1506.32 441.5,1500C 448.412,1488.85 455.079,1477.51 461.5,1466C 456.533,1462.03 451.866,1457.7 447.5,1453C 446.241,1452.02 444.908,1451.68 443.5,1452C 435,1461.17 426.5,1470.33 418,1479.5C 411.5,1473.67 405,1467.83 398.5,1462C 408.298,1450.53 418.464,1439.37 429,1428.5C 430.667,1422.17 432.333,1415.83 434,1409.5C 436.108,1411.96 438.608,1413.46 441.5,1414C 454.707,1399.63 467.707,1385.13 480.5,1370.5 Z"/></g>
<g><path style="opacity:1" fill="#fefcfc" d="M 579.5,1452.5 C 603.607,1465.72 627.607,1479.22 651.5,1493C 647.873,1499.09 644.373,1505.25 641,1511.5C 640.275,1512.06 639.442,1512.39 638.5,1512.5C 622.623,1503.64 606.789,1494.64 591,1485.5C 586.747,1492.34 582.747,1499.34 579,1506.5C 578.251,1507.64 578.417,1508.64 579.5,1509.5C 588.749,1514.71 597.915,1520.04 607,1525.5C 603.673,1532.48 600.007,1539.48 596,1546.5C 586.248,1540.71 576.415,1535.04 566.5,1529.5C 561.678,1536.47 557.344,1543.8 553.5,1551.5C 568.881,1560.94 584.381,1570.28 600,1579.5C 600.667,1580.5 600.667,1581.5 600,1582.5C 596.7,1588.63 593.2,1594.63 589.5,1600.5C 565.476,1587.16 541.81,1573.33 518.5,1559C 527.786,1542.93 536.953,1526.76 546,1510.5C 546.333,1503.83 546.667,1497.17 547,1490.5C 549.573,1493.31 552.573,1494.31 556,1493.5C 563.845,1479.81 571.678,1466.14 579.5,1452.5 Z"/></g>
<g><path style="opacity:1" fill="#fefcfc" d="M 1189.5,1489.5 C 1204.81,1518.8 1219.65,1548.46 1234,1578.5C 1234.33,1578.83 1234.67,1579.17 1235,1579.5C 1245.88,1574.31 1256.71,1568.98 1267.5,1563.5C 1270.92,1569.34 1274.09,1575.34 1277,1581.5C 1277.78,1582.94 1277.61,1584.28 1276.5,1585.5C 1258.06,1595.4 1239.39,1604.07 1220.5,1611.5C 1202.5,1574.83 1184.5,1538.17 1166.5,1501.5C 1174.38,1497.73 1182.04,1493.73 1189.5,1489.5 Z"/></g>
<g><path style="opacity:1" fill="#fefcfc" d="M 683.5,1508.5 C 710.244,1517.36 736.91,1526.53 763.5,1536C 760.666,1543 758.333,1550.17 756.5,1557.5C 747.186,1555.01 738.019,1552.01 729,1548.5C 717.733,1580.13 706.566,1611.8 695.5,1643.5C 687.833,1640.83 680.167,1638.17 672.5,1635.5C 671.386,1634.28 671.219,1632.94 672,1631.5C 682.204,1601.05 692.704,1570.72 703.5,1540.5C 694.621,1537.26 685.787,1533.93 677,1530.5C 678.837,1523.15 681.004,1515.81 683.5,1508.5 Z"/></g>
<g><path style="opacity:1" fill="#fefcfc" d="M 1084.5,1529.5 C 1086.14,1529.29 1087.64,1529.62 1089,1530.5C 1097.43,1562.15 1105.93,1593.81 1114.5,1625.5C 1126.8,1622.34 1139.13,1619.34 1151.5,1616.5C 1153.32,1623.43 1154.98,1630.43 1156.5,1637.5C 1156.17,1638.17 1155.83,1638.83 1155.5,1639.5C 1135.81,1644.67 1116.14,1650.01 1096.5,1655.5C 1084.49,1615.79 1073.49,1575.79 1063.5,1535.5C 1070.73,1533.95 1077.73,1531.95 1084.5,1529.5 Z"/></g>
<g><path style="opacity:1" fill="#fefcfc" d="M 798.5,1542.5 C 825.853,1545.74 853.186,1549.07 880.5,1552.5C 879.553,1573.29 874.387,1592.95 865,1611.5C 865.695,1622.8 866.195,1634.13 866.5,1645.5C 866.54,1655.57 865.874,1665.57 864.5,1675.5C 837.229,1671.85 809.895,1668.52 782.5,1665.5C 784.6,1646.59 787.267,1627.76 790.5,1609C 788.464,1603.06 786.131,1597.23 783.5,1591.5C 786.412,1590.93 789.412,1590.93 792.5,1591.5C 794.983,1575.23 796.983,1558.9 798.5,1542.5 Z"/></g>
<g><path style="opacity:1" fill="#fefcfc" d="M 965.5,1669.5 C 965.5,1671.5 965.5,1673.5 965.5,1675.5C 964.209,1675.26 963.209,1675.6 962.5,1676.5C 954.814,1676.97 947.147,1677.64 939.5,1678.5C 938.824,1662.43 937.324,1646.43 935,1630.5C 931.833,1626.17 928.667,1621.83 925.5,1617.5C 926.689,1616.57 928.022,1616.24 929.5,1616.5C 931.167,1616.5 932.833,1616.5 934.5,1616.5C 934.5,1608.5 934.5,1600.5 934.5,1592.5C 935.153,1578.89 938.153,1565.89 943.5,1553.5C 959.322,1551.95 975.155,1550.29 991,1548.5C 992.833,1548.83 994.667,1549.17 996.5,1549.5C 1005.15,1563.81 1011.32,1579.14 1015,1595.5C 1018.82,1620.37 1021.32,1645.37 1022.5,1670.5C 1013.84,1671.3 1005.18,1671.97 996.5,1672.5C 995.368,1659.85 994.368,1647.18 993.5,1634.5C 983.093,1634.78 972.76,1635.78 962.5,1637.5C 963.63,1648.13 964.63,1658.8 965.5,1669.5 Z"/></g>
<g><path style="opacity:1" fill="#d12730" d="M 821.5,1569.5 C 831.224,1570.08 840.89,1571.08 850.5,1572.5C 848.949,1581.04 846.615,1589.37 843.5,1597.5C 842.5,1597.83 841.5,1598.17 840.5,1598.5C 833.226,1596.98 825.893,1595.98 818.5,1595.5C 820.027,1586.9 821.027,1578.24 821.5,1569.5 Z"/></g>
<g><path style="opacity:1" fill="#d1252f" d="M 964.5,1612.5 C 963.167,1612.5 961.833,1612.5 960.5,1612.5C 960.5,1606.17 960.5,1599.83 960.5,1593.5C 960.838,1587.78 961.505,1582.11 962.5,1576.5C 968.762,1575.03 975.095,1574.03 981.5,1573.5C 985.911,1585.48 988.911,1597.81 990.5,1610.5C 981.811,1610.9 973.144,1611.57 964.5,1612.5 Z"/></g>
<g><path style="opacity:1" fill="#f4b3b4" d="M 934.5,1592.5 C 934.5,1600.5 934.5,1608.5 934.5,1616.5C 932.833,1616.5 931.167,1616.5 929.5,1616.5C 930.568,1615.57 931.901,1615.23 933.5,1615.5C 933.175,1607.65 933.508,1599.98 934.5,1592.5 Z"/></g>
<g><path style="opacity:1" fill="#ef9799" d="M 960.5,1593.5 C 960.5,1599.83 960.5,1606.17 960.5,1612.5C 961.833,1612.5 963.167,1612.5 964.5,1612.5C 963.081,1613.45 961.415,1613.78 959.5,1613.5C 959.176,1606.65 959.509,1599.98 960.5,1593.5 Z"/></g>
<g><path style="opacity:1" fill="#d12731" d="M 815.5,1618.5 C 823.489,1619.5 831.489,1620.5 839.5,1621.5C 839.5,1630.5 839.5,1639.5 839.5,1648.5C 830.529,1647.25 821.529,1646.25 812.5,1645.5C 812.842,1636.42 813.842,1627.42 815.5,1618.5 Z"/></g>
<g><path style="opacity:1" fill="#f0999a" d="M 965.5,1669.5 C 966.468,1671.61 966.802,1673.94 966.5,1676.5C 965.167,1676.5 963.833,1676.5 962.5,1676.5C 963.833,1676.5 965.167,1676.5 966.5,1676.5C 966.802,1673.94 966.468,1671.61 965.5,1669.5 Z"/></g>
</svg>
