<?xml version="1.0" encoding="UTF-8"?>
<!DOCTYPE svg PUBLIC "-//W3C//DTD SVG 1.1//EN" "http://www.w3.org/Graphics/SVG/1.1/DTD/svg11.dtd">
<svg xmlns="http://www.w3.org/2000/svg" version="1.1" width="831px" height="1023px" style="shape-rendering:geometricPrecision; text-rendering:geometricPrecision; image-rendering:optimizeQuality; fill-rule:evenodd; clip-rule:evenodd" xmlns:xlink="http://www.w3.org/1999/xlink">
<g><path style="opacity:0.866" fill="#f9f9fa" d="M 414.5,19.5 C 415.117,19.6107 415.617,19.944 416,20.5C 432.67,80.6718 449.836,140.672 467.5,200.5C 505.811,153.022 544.311,105.688 583,58.5C 578.733,117.105 573.566,175.605 567.5,234C 601.038,217.812 634.205,200.646 667,182.5C 667.167,183.167 667.333,183.833 667.5,184.5C 654.632,215.068 641.632,245.568 628.5,276C 643.626,273.882 658.126,276.049 672,282.5C 705.566,250.264 739.733,218.764 774.5,188C 780.972,182.264 787.972,177.264 795.5,173C 805.311,171.146 810.978,175.146 812.5,185C 811.376,189.754 809.542,194.254 807,198.5C 780.731,238.707 753.231,278.041 724.5,316.5C 733.888,325.942 739.554,337.275 741.5,350.5C 741.054,359.892 737.054,367.392 729.5,373C 754.831,373.5 780.164,373.667 805.5,373.5C 808.387,462.297 806.221,550.963 799,639.5C 793.547,696.775 780.213,752.108 759,805.5C 748.631,830.588 735.465,853.921 719.5,875.5C 698.012,842.832 672.012,813.999 641.5,789C 639.024,789.747 636.691,791.081 634.5,793C 629.833,797.667 625.167,802.333 620.5,807C 663.333,855.833 706.167,904.667 749,953.5C 757.968,970.996 754.801,985.83 739.5,998C 727.648,1004.2 715.981,1003.86 704.5,997C 660.295,947.797 616.462,898.297 573,848.5C 547.982,871.019 522.815,893.352 497.5,915.5C 497.167,913.833 496.833,912.167 496.5,910.5C 497.831,898.191 498.831,885.858 499.5,873.5C 499.566,865.026 498.566,856.693 496.5,848.5C 460.066,886.221 417.399,895.388 368.5,876C 354.431,869.036 342.265,859.536 332,847.5C 328.796,869.17 328.962,890.836 332.5,912.5C 332.167,913.5 331.833,914.5 331.5,915.5C 306.185,893.352 281.018,871.019 256,848.5C 212.42,898.471 168.253,947.971 123.5,997C 110.427,1003.53 97.7608,1002.86 85.5,995C 74.0256,983.592 71.5256,970.425 78,955.5C 121.127,905.371 164.627,855.537 208.5,806C 201.698,800.199 195.198,794.032 189,787.5C 158.072,813.088 131.405,842.422 109,875.5C 78.3808,830.35 57.0474,781.017 45,727.5C 31.3949,664.246 24.3949,600.246 24,535.5C 23.5,481.501 23.3333,427.501 23.5,373.5C 49.1688,373.667 74.8355,373.5 100.5,373C 87.4989,361.568 84.9989,348.068 93,332.5C 96.3986,326.432 100.565,320.932 105.5,316C 74.7153,275.542 45.8819,233.709 19,190.5C 16.0001,176.502 21.5001,170.669 35.5,173C 41.1082,176.276 46.4415,179.943 51.5,184C 87.1009,215.598 122.101,247.931 156.5,281C 163.019,279.169 169.685,277.502 176.5,276C 184.502,274.607 192.502,274.44 200.5,275.5C 187.924,244.511 174.924,213.677 161.5,183C 162.5,182.333 163.5,182.333 164.5,183C 197.03,200.596 229.697,217.596 262.5,234C 256.961,176.906 251.628,119.74 246.5,62.5C 246.833,61.1667 247.167,59.8333 247.5,58.5C 285.833,105.833 324.167,153.167 362.5,200.5C 380.236,140.292 397.569,79.9585 414.5,19.5 Z"/></g>
<g><path style="opacity:1" fill="#061a23" d="M 28.5,378.5 C 56.5079,378.833 84.5079,378.5 112.5,377.5C 112.376,376.893 112.043,376.56 111.5,376.5C 106.562,372.064 101.729,367.397 97,362.5C 91.8006,350.471 93.1339,339.138 101,328.5C 103.964,324.534 107.297,320.867 111,317.5C 111.667,316.5 111.667,315.5 111,314.5C 79.7819,274.404 50.7819,232.738 24,189.5C 20.8083,181.024 23.6417,176.857 32.5,177C 38.444,180.611 44.1107,184.611 49.5,189C 85.4344,220.931 120.768,253.598 155.5,287C 160.526,285.769 165.526,284.102 170.5,282C 183.553,278.249 196.386,278.749 209,283.5C 197.393,253.267 184.893,223.267 171.5,193.5C 171.667,193.167 171.833,192.833 172,192.5C 203.263,209.549 234.763,226.215 266.5,242.5C 266.833,241 267.167,239.5 267.5,238C 262.363,183.16 257.53,128.326 253,73.5C 290.333,119.5 327.667,165.5 365,211.5C 381.511,153.122 398.178,94.7885 415,36.5C 431.865,94.7641 448.532,153.097 465,211.5C 502.333,165.5 539.667,119.5 577,73.5C 571.973,130.13 567.306,186.797 563,243.5C 594.462,226.021 626.295,209.521 658.5,194C 645.74,223.442 633.073,252.942 620.5,282.5C 620.833,282.833 621.167,283.167 621.5,283.5C 623.667,282.208 626,281.375 628.5,281C 635.833,280.333 643.167,280.333 650.5,281C 658.698,282.63 666.698,284.63 674.5,287C 709.934,252.561 746.267,219.228 783.5,187C 787.833,184 792.167,181 796.5,178C 804.171,176.674 807.671,179.841 807,187.5C 795.665,207.511 783.332,226.844 770,245.5C 752.866,269.6 735.366,293.433 717.5,317C 727.985,325.639 734.318,336.639 736.5,350C 736.033,354.367 734.867,358.534 733,362.5C 727.833,367.667 722.667,372.833 717.5,378C 745.498,378.5 773.498,378.667 801.5,378.5C 801.809,436.841 801.309,495.175 800,553.5C 798.471,610.791 791.805,667.457 780,723.5C 769.027,775.094 749.027,822.761 720,866.5C 697.194,834.689 670.527,806.355 640,781.5C 631.167,789.667 622.333,797.833 613.5,806C 656.98,856.448 700.813,906.614 745,956.5C 753.263,973.616 749.097,986.782 732.5,996C 723.702,998.684 715.369,997.684 707.5,993C 662.795,943.297 618.462,893.297 574.5,843C 573.5,842.333 572.5,842.333 571.5,843C 549.28,863.723 526.613,883.89 503.5,903.5C 503.167,901.833 502.833,900.167 502.5,898.5C 505.3,881.133 505.133,863.8 502,846.5C 501.61,842.931 500.61,839.597 499,836.5C 471.1,873.584 434.266,887.418 388.5,878C 363.427,871.058 343.594,856.891 329,835.5C 327.343,843.11 326.009,850.777 325,858.5C 324.515,873.871 324.848,889.204 326,904.5C 302.884,884.351 280.05,863.851 257.5,843C 256.5,842.333 255.5,842.333 254.5,843C 209.833,893 165.167,943 120.5,993C 109.435,998.173 98.7678,997.507 88.5,991C 78.4919,980.243 76.9919,968.41 84,955.5C 127.833,905.667 171.667,855.833 215.5,806C 207.197,798.698 199.197,791.031 191.5,783C 190.241,782.018 188.908,781.685 187.5,782C 157.094,806.4 130.927,834.567 109,866.5C 80.8745,823.898 61.2078,777.565 50,727.5C 36.9434,666.885 29.9434,605.551 29,543.5C 27.3169,488.503 27.1503,433.503 28.5,378.5 Z"/></g>
<g><path style="opacity:1" fill="#a5a8ab" d="M 414.5,117.5 C 428.46,164.23 441.96,211.23 455,258.5C 486,220.5 517,182.5 548,144.5C 548.667,148.5 548.667,152.5 548,156.5C 543.986,196.32 540.153,236.153 536.5,276C 536.833,277.833 537.167,279.667 537.5,281.5C 562.167,268.5 586.833,255.5 611.5,242.5C 611.833,243 612.167,243.5 612.5,244C 601.69,269.433 590.69,294.766 579.5,320C 550.914,309.477 521.581,301.144 491.5,295C 408.796,280.153 328.63,288.653 251,320.5C 239.242,294.648 227.742,268.648 216.5,242.5C 217.002,241.479 217.668,241.312 218.5,242C 243.041,255.368 267.708,268.535 292.5,281.5C 289.927,239.823 286.427,198.156 282,156.5C 281.333,152.167 281.333,147.833 282,143.5C 312.833,181.833 343.667,220.167 374.5,258.5C 388.241,211.61 401.575,164.61 414.5,117.5 Z"/></g>
<g><path style="opacity:1" fill="#a4a6aa" d="M 69.5,228.5 C 99.7655,255.929 129.599,283.929 159,312.5C 162.5,316.667 166,320.833 169.5,325C 166.565,327.766 163.232,329.933 159.5,331.5C 163.167,336.167 166.833,340.833 170.5,345.5C 167.053,347.446 163.386,348.279 159.5,348C 139.812,326.319 121.645,303.486 105,279.5C 92.6542,262.791 80.8209,245.791 69.5,228.5 Z"/></g>
<g><path style="opacity:1" fill="#a4a6a9" d="M 759.5,229.5 C 760.525,229.897 760.692,230.563 760,231.5C 736.719,263.782 713.052,295.782 689,327.5C 682.5,334.667 676,341.833 669.5,349C 665.793,348.488 662.126,347.488 658.5,346C 662.5,341.333 666.5,336.667 670.5,332C 666.996,330.082 663.663,327.916 660.5,325.5C 666.647,318.185 672.981,311.018 679.5,304C 706.364,279.3 733.03,254.467 759.5,229.5 Z"/></g>
<g><path style="opacity:1" fill="#373c91" d="M 179.5,293.5 C 183.514,293.334 187.514,293.501 191.5,294C 196.738,297.274 197.904,301.774 195,307.5C 192.271,311.898 188.604,315.231 184,317.5C 177.5,312.333 171.667,306.5 166.5,300C 170.541,297.159 174.874,294.992 179.5,293.5 Z"/></g>
<g><path style="opacity:1" fill="#373c90" d="M 638.5,293.5 C 647.786,293.155 656.453,295.322 664.5,300C 658.291,306.041 652.291,312.208 646.5,318.5C 637.472,314.323 633.306,307.323 634,297.5C 635.397,295.93 636.897,294.596 638.5,293.5 Z"/></g>
<g><path style="opacity:1" fill="#393d93" d="M 384.5,298.5 C 443.16,295.405 500.16,303.572 555.5,323C 594.628,339.265 634.628,352.932 675.5,364C 684.746,365.979 694.079,367.312 703.5,368C 685.407,387.097 666.407,405.097 646.5,422C 635.941,423.234 625.608,422.234 615.5,419C 589.279,409.926 563.279,400.26 537.5,390C 457.352,362.221 377.018,361.554 296.5,388C 268.72,398.927 240.72,409.26 212.5,419C 203.042,422.03 193.376,423.03 183.5,422C 163.259,404.763 143.926,386.43 125.5,367C 154.296,363.801 182.296,357.135 209.5,347C 244.2,332.878 279.534,320.544 315.5,310C 338.388,304.63 361.388,300.796 384.5,298.5 Z"/></g>
<g><path style="opacity:1" fill="#373c91" d="M 206.5,299.5 C 207.822,299.33 208.989,299.663 210,300.5C 214.604,308.766 219.604,316.766 225,324.5C 226.009,326.025 226.509,327.692 226.5,329.5C 213.395,334.258 200.229,338.924 187,343.5C 184.483,341.316 182.317,338.816 180.5,336C 189.55,330.949 197.383,324.449 204,316.5C 207.373,311.176 208.207,305.51 206.5,299.5 Z"/></g>
<g><path style="opacity:1" fill="#373b90" d="M 620.5,299.5 C 622.185,303.789 623.351,308.456 624,313.5C 630.097,322.932 638.097,330.265 648,335.5C 646.857,342.295 643.024,344.462 636.5,342C 624.775,338.372 613.442,333.872 602.5,328.5C 608.761,318.973 614.761,309.306 620.5,299.5 Z"/></g>
<g><path style="opacity:0.882" fill="#a0a3c0" d="M 430.5,320.5 C 423.313,320.175 416.313,320.509 409.5,321.5C 408.957,321.44 408.624,321.107 408.5,320.5C 415.99,319.181 423.323,319.181 430.5,320.5 Z"/></g>
<g><path style="opacity:0.997" fill="#f7f8fa" d="M 381.5,320.5 C 385.182,320.335 388.848,320.501 392.5,321C 390.833,322.833 389.167,324.667 387.5,326.5C 392.547,335.1 398.881,342.6 406.5,349C 398.473,349.511 390.473,349.844 382.5,350C 384.741,348.261 386.408,346.094 387.5,343.5C 381.606,342.051 375.939,342.551 370.5,345C 372.977,346.643 375.31,348.476 377.5,350.5C 366.328,352.13 355.161,353.797 344,355.5C 340.008,352.508 336.342,349.174 333,345.5C 330.323,345.962 327.823,346.796 325.5,348C 326.79,352.52 329.79,355.52 334.5,357C 326.437,359.52 318.437,361.354 310.5,362.5C 312.545,360.241 314.211,357.741 315.5,355C 314.334,349.836 313.167,344.669 312,339.5C 309.913,338.206 307.746,337.039 305.5,336C 304.167,335.333 304.167,334.667 305.5,334C 314.833,331.667 324.167,329.333 333.5,327C 339.476,325.622 344.809,326.789 349.5,330.5C 350.937,335.946 348.937,339.78 343.5,342C 348.042,345.529 352.876,348.696 358,351.5C 363.651,344.369 368.151,336.535 371.5,328C 369.167,326.333 366.833,324.667 364.5,323C 370.288,322.039 375.955,321.205 381.5,320.5 Z"/></g>
<g><path style="opacity:0.998" fill="#f7f7f9" d="M 430.5,320.5 C 432.115,325.013 434.115,329.346 436.5,333.5C 438.96,329.414 441.293,325.247 443.5,321C 451.15,321.331 458.817,321.998 466.5,323C 464.241,324.715 462.074,326.548 460,328.5C 458.761,334.461 458.427,340.461 459,346.5C 460.685,348.017 462.185,349.684 463.5,351.5C 462.667,351.833 461.833,352.167 461,352.5C 453.89,351.199 446.723,350.366 439.5,350C 441.759,348.285 443.926,346.452 446,344.5C 446.669,339.487 447.003,334.487 447,329.5C 443.412,335.675 440.078,342.009 437,348.5C 434.936,349.591 432.769,349.758 430.5,349C 427.479,341.79 424.313,334.623 421,327.5C 420.333,332.833 420.333,338.167 421,343.5C 422.833,345.333 424.667,347.167 426.5,349C 420.141,349.831 413.807,349.664 407.5,348.5C 409.483,347.018 411.316,345.351 413,343.5C 413.667,337.167 413.667,330.833 413,324.5C 411.855,323.364 410.688,322.364 409.5,321.5C 416.313,320.509 423.313,320.175 430.5,320.5 Z"/></g>
<g><path style="opacity:0.997" fill="#f6f6f9" d="M 471.5,323.5 C 486.08,325.615 500.413,328.615 514.5,332.5C 513.375,335.46 512.375,338.46 511.5,341.5C 509.016,339.517 506.683,337.35 504.5,335C 499.24,334.082 494.073,332.916 489,331.5C 487.648,333.594 487.148,335.927 487.5,338.5C 490.219,338.397 492.885,338.731 495.5,339.5C 497.274,339.113 498.941,338.447 500.5,337.5C 501.844,341.103 501.344,344.436 499,347.5C 495.406,344.302 491.239,343.135 486.5,344C 485.577,346.041 485.244,348.208 485.5,350.5C 489.864,350.906 494.197,351.572 498.5,352.5C 502.59,351.859 506.424,350.526 510,348.5C 509.709,352.473 509.209,356.473 508.5,360.5C 494.402,357.985 480.402,355.151 466.5,352C 468.754,350.623 470.92,349.123 473,347.5C 474.219,342.352 475.386,337.185 476.5,332C 475.039,329.041 473.372,326.207 471.5,323.5 Z"/></g>
<g><path style="opacity:1" fill="#373b90" d="M 120.5,326.5 C 126.96,333.396 132.96,340.729 138.5,348.5C 131.272,352.125 123.605,353.291 115.5,352C 110.574,349.647 108.74,345.814 110,340.5C 112.563,335.108 116.063,330.441 120.5,326.5 Z"/></g>
<g><path style="opacity:1" fill="#373c91" d="M 707.5,327.5 C 716.064,331.964 719.897,338.964 719,348.5C 715.601,351.95 711.434,353.283 706.5,352.5C 700.772,352.9 695.439,351.733 690.5,349C 696.381,341.958 702.047,334.792 707.5,327.5 Z"/></g>
<g><path style="opacity:1" fill="#5d479a" d="M 377.5,330.5 C 379.303,332.481 380.97,334.648 382.5,337C 374.463,338.84 372.797,336.673 377.5,330.5 Z"/></g>
<g><path style="opacity:1" fill="#5d459a" d="M 327.5,333.5 C 330.518,333.335 333.518,333.502 336.5,334C 337.86,335.938 337.527,337.604 335.5,339C 332.172,340.166 328.839,341.332 325.5,342.5C 324.205,339.988 323.539,337.321 323.5,334.5C 325.099,334.768 326.432,334.434 327.5,333.5 Z"/></g>
<g><path style="opacity:0.997" fill="#f8f8fa" d="M 519.5,334.5 C 525.916,334.517 532.249,336.017 538.5,339C 541.856,346.213 545.356,353.379 549,360.5C 553.507,354.243 553.341,348.243 548.5,342.5C 554.475,343.54 560.475,345.373 566.5,348C 563.982,349.502 561.482,351.002 559,352.5C 556.983,360.053 554.483,367.386 551.5,374.5C 547.409,373.307 543.575,371.641 540,369.5C 536.667,362.167 533.333,354.833 530,347.5C 525.091,354.33 525.591,360.664 531.5,366.5C 531.167,366.833 530.833,367.167 530.5,367.5C 524.494,365.499 518.494,363.499 512.5,361.5C 514.937,360.074 517.437,358.741 520,357.5C 521.266,351.934 522.766,346.434 524.5,341C 522.984,338.659 521.317,336.492 519.5,334.5 Z"/></g>
<g><path style="opacity:0.997" fill="#f8f8fa" d="M 299.5,336.5 C 301.346,339.294 302.68,342.461 303.5,346C 303.167,346.5 302.833,347 302.5,347.5C 292.526,342.866 283.693,344.533 276,352.5C 273.474,360.335 276.474,364.335 285,364.5C 293.151,364.091 299.818,360.758 305,354.5C 307.352,358.386 306.519,361.552 302.5,364C 293.453,370.277 283.453,372.61 272.5,371C 260.03,363.799 259.363,355.465 270.5,346C 278.757,340.803 287.757,338.47 297.5,339C 298.381,338.292 299.047,337.458 299.5,336.5 Z"/></g>
<g><path style="opacity:0.997" fill="#f8f8fa" d="M 568.5,349.5 C 581.909,353.969 595.242,358.636 608.5,363.5C 607.492,367.692 605.992,371.692 604,375.5C 602.006,369.845 598.34,365.845 593,363.5C 590.44,369.179 588.273,375.012 586.5,381C 587.444,383.722 588.777,386.222 590.5,388.5C 582.801,386.708 575.134,384.041 567.5,380.5C 569.971,378.929 572.637,377.929 575.5,377.5C 576.895,371.314 578.895,365.314 581.5,359.5C 576.421,357.037 571.421,357.37 566.5,360.5C 565.865,356.697 566.532,353.03 568.5,349.5 Z"/></g>
<g><path style="opacity:0.997" fill="#f8f8fa" d="M 249.5,352.5 C 250.675,352.281 251.675,352.614 252.5,353.5C 251.041,355.583 249.708,357.75 248.5,360C 255.47,366.469 263.136,371.969 271.5,376.5C 264.602,379.911 257.602,382.244 250.5,383.5C 251.5,381.5 252.5,379.5 253.5,377.5C 253.192,376.692 252.692,376.025 252,375.5C 247.26,377.469 242.427,379.135 237.5,380.5C 237.5,381.5 237.5,382.5 237.5,383.5C 240.363,383.929 243.029,384.929 245.5,386.5C 239.51,388.831 233.51,391.164 227.5,393.5C 227.167,393.167 226.833,392.833 226.5,392.5C 227.577,390.088 228.744,387.754 230,385.5C 230.66,378.87 231.827,372.37 233.5,366C 230.869,364.673 228.202,363.34 225.5,362C 233.606,358.913 241.606,355.747 249.5,352.5 Z"/></g>
<g><path style="opacity:0.997" fill="#f7f8fa" d="M 215.5,364.5 C 217.105,367.12 218.438,369.953 219.5,373C 209.452,371.511 200.118,373.511 191.5,379C 190.663,380.011 190.33,381.178 190.5,382.5C 195.886,381.319 201.219,379.819 206.5,378C 210.833,377.333 215.167,377.333 219.5,378C 224.224,380.435 225.724,384.269 224,389.5C 219.72,394.059 214.553,397.226 208.5,399C 202.946,400.689 197.279,401.856 191.5,402.5C 191.167,403.5 190.5,404.167 189.5,404.5C 187.981,401.956 186.648,399.289 185.5,396.5C 195.139,397.442 204.472,395.776 213.5,391.5C 216.31,389.116 215.81,387.783 212,387.5C 204.068,390.527 195.902,392.027 187.5,392C 181.547,389.475 180.047,385.309 183,379.5C 191.515,371.492 201.681,367.492 213.5,367.5C 214.193,366.482 214.859,365.482 215.5,364.5 Z"/></g>
<g><path style="opacity:1" fill="#5f499b" d="M 239.5,366.5 C 249.074,370.327 248.741,372.994 238.5,374.5C 239.092,371.873 239.425,369.206 239.5,366.5 Z"/></g>
<g><path style="opacity:0.997" fill="#f8f8fa" d="M 615.5,369.5 C 624.916,368.854 633.583,371.021 641.5,376C 650.833,384 650.833,392 641.5,400C 628.11,404.944 616.61,402.111 607,391.5C 602.31,381.219 605.143,373.886 615.5,369.5 Z"/></g>
<g><path style="opacity:1" fill="#5b4299" d="M 622.5,376.5 C 634.892,376.481 638.559,381.981 633.5,393C 627.938,396.601 622.771,396.101 618,391.5C 615.074,385.085 616.574,380.085 622.5,376.5 Z"/></g>
<g><path style="opacity:0.784" fill="#687378" d="M 111.5,376.5 C 112.043,376.56 112.376,376.893 112.5,377.5C 84.5079,378.5 56.5079,378.833 28.5,378.5C 56.1667,377.833 83.8333,377.167 111.5,376.5 Z"/></g>
<g><path style="opacity:1" fill="#a5a7aa" d="M 398.5,378.5 C 449.593,377.252 498.927,385.919 546.5,404.5C 547.491,408.445 547.824,412.445 547.5,416.5C 459.167,416.5 370.833,416.5 282.5,416.5C 282.203,412.233 282.536,408.066 283.5,404C 320.686,389.666 359.02,381.166 398.5,378.5 Z"/></g>
<g><path style="opacity:0.998" fill="#051922" d="M 520.5,407.5 C 450.002,408.499 379.335,408.833 308.5,408.5C 313.315,404.53 318.315,400.697 323.5,397C 384.167,396.333 444.833,396.333 505.5,397C 510.38,400.72 515.38,404.22 520.5,407.5 Z"/></g>
<g><path style="opacity:1" fill="#383c92" d="M 49.5,398.5 C 81.5017,398.333 113.502,398.5 145.5,399C 154.97,407.469 164.137,416.303 173,425.5C 173.667,456.833 173.667,488.167 173,519.5C 164.641,526.026 156.141,532.359 147.5,538.5C 146.5,498.506 146.167,458.506 146.5,418.5C 121.167,418.5 95.8333,418.5 70.5,418.5C 69.3084,486.586 71.1418,554.586 76,622.5C 80.6391,672.388 90.9724,721.055 107,768.5C 109.021,774.737 111.521,780.737 114.5,786.5C 127.686,774.813 141.019,763.313 154.5,752C 156.788,751.582 158.788,752.249 160.5,754C 164.833,757.833 169.167,761.667 173.5,765.5C 150.51,784.99 129.343,806.323 110,829.5C 89.7752,790.16 75.1086,748.827 66,705.5C 56.3466,656.648 51.0132,607.315 50,557.5C 48.2879,504.502 48.1212,451.502 49.5,398.5 Z"/></g>
<g><path style="opacity:1" fill="#383c92" d="M 758.5,507.5 C 759.498,478.005 759.831,448.338 759.5,418.5C 727.996,418.832 696.662,418.498 665.5,417.5C 670.894,411.44 676.56,405.773 682.5,400.5C 715.16,399.5 747.827,399.167 780.5,399.5C 780.667,443.835 780.5,488.168 780,532.5C 779.681,589.336 774.347,645.669 764,701.5C 754.947,746.6 739.947,789.6 719,830.5C 699.684,807.35 678.517,786.017 655.5,766.5C 660.844,761.157 666.511,756.157 672.5,751.5C 686.278,762.477 699.778,773.81 713,785.5C 719.706,772.385 725.039,758.719 729,744.5C 737.715,714.643 744.048,684.31 748,653.5C 750.614,629.695 745.614,607.695 733,587.5C 713,564.833 693,542.167 673,519.5C 666.177,511.522 661.177,502.522 658,492.5C 656.84,487.566 656.34,482.566 656.5,477.5C 666.167,477.5 675.833,477.5 685.5,477.5C 685.168,486.857 685.502,496.19 686.5,505.5C 710.141,522.64 733.641,539.974 757,557.5C 757.542,540.832 758.042,524.166 758.5,507.5 Z"/></g>
<g><path style="opacity:0.855" fill="#556167" d="M 520.5,407.5 C 521.043,407.56 521.376,407.893 521.5,408.5C 450.334,409.832 379.334,409.832 308.5,408.5C 379.335,408.833 450.002,408.499 520.5,407.5 Z"/></g>
<g><path style="opacity:1" fill="#383c92" d="M 257.5,411.5 C 258.5,411.5 259.5,411.5 260.5,411.5C 260.5,419.167 260.5,426.833 260.5,434.5C 363.167,434.5 465.833,434.5 568.5,434.5C 568.5,426.833 568.5,419.167 568.5,411.5C 574.434,412.7 580.1,414.7 585.5,417.5C 585.001,441.823 585.501,466.156 587,490.5C 589.212,514.83 598.212,536.163 614,554.5C 632.363,572.929 650.03,591.929 667,611.5C 672.848,620.458 675.015,630.291 673.5,641C 673.333,646.167 673.167,651.333 673,656.5C 672.849,659.119 672.015,661.453 670.5,663.5C 662.996,658.913 655.329,654.58 647.5,650.5C 647.167,648.833 646.833,647.167 646.5,645.5C 647.504,637.472 648.338,629.472 649,621.5C 627.258,604.046 605.424,586.713 583.5,569.5C 580.538,609.326 575.205,648.826 567.5,688C 567.645,688.772 567.978,689.439 568.5,690C 603.933,704.868 636.6,724.034 666.5,747.5C 665.5,747.833 664.5,748.167 663.5,748.5C 627.802,738.817 593.802,724.983 561.5,707C 513.547,685.228 463.214,673.728 410.5,672.5C 364.683,674.302 320.683,684.135 278.5,702C 246.086,719.376 212.42,733.71 177.5,745C 172.443,746.186 167.443,747.186 162.5,748C 161.542,746.853 161.875,745.853 163.5,745C 167.051,742.732 170.384,740.232 173.5,737.5C 160.672,694.362 153.339,650.362 151.5,605.5C 160.917,611.293 170.417,616.959 180,622.5C 183.192,656.512 188.525,690.179 196,723.5C 216.206,710.655 237.373,699.488 259.5,690C 260.022,689.439 260.355,688.772 260.5,688C 253.604,653.453 248.604,618.62 245.5,583.5C 234.004,577.253 222.67,570.753 211.5,564C 221.667,556.5 231.833,549 242,541.5C 241.379,500.167 241.546,458.834 242.5,417.5C 247.701,415.723 252.701,413.723 257.5,411.5 Z"/></g>
<g><path style="opacity:0.851" fill="#1c2956" d="M 665.5,417.5 C 696.662,418.498 727.996,418.832 759.5,418.5C 759.831,448.338 759.498,478.005 758.5,507.5C 758.5,478.167 758.5,448.833 758.5,419.5C 727.16,419.833 695.826,419.5 664.5,418.5C 664.624,417.893 664.957,417.56 665.5,417.5 Z"/></g>
<g><path style="opacity:1" fill="#fdfdfd" d="M 81.5,428.5 C 99.5,428.5 117.5,428.5 135.5,428.5C 135.07,471.854 135.736,515.188 137.5,558.5C 152.833,547.5 168.167,536.5 183.5,525.5C 184.5,494.174 184.833,462.84 184.5,431.5C 200.114,430.04 215.78,429.374 231.5,429.5C 231.452,464.845 231.619,500.178 232,535.5C 218.234,544.966 204.734,554.8 191.5,565C 206.415,573.374 221.248,581.874 236,590.5C 238.626,621.046 242.792,651.379 248.5,681.5C 248.167,682.167 247.833,682.833 247.5,683.5C 232.581,690.627 217.914,698.293 203.5,706.5C 196.972,676.473 192.305,646.14 189.5,615.5C 172.536,605.699 155.703,595.699 139,585.5C 140.685,635.112 147.851,683.945 160.5,732C 160.561,733.711 159.894,735.044 158.5,736C 144.442,745.886 131.109,756.72 118.5,768.5C 104.108,727.93 94.2745,686.264 89,643.5C 85.9849,616.244 83.9849,588.911 83,561.5C 81.7382,517.176 81.2382,472.843 81.5,428.5 Z"/></g>
<g><path style="opacity:1" fill="#fdfdfd" d="M 596.5,429.5 C 610.128,428.918 623.628,429.918 637,432.5C 641.923,432.13 646.756,431.297 651.5,430C 683.832,429.5 716.165,429.333 748.5,429.5C 748.93,465.192 748.263,500.859 746.5,536.5C 729.859,524.359 713.359,512.026 697,499.5C 696.5,488.505 696.333,477.505 696.5,466.5C 679.833,466.5 663.167,466.5 646.5,466.5C 643.336,489.501 649.503,509.501 665,526.5C 686.748,550.243 707.748,574.577 728,599.5C 732.597,607.958 735.597,616.958 737,626.5C 737.791,640.528 737.457,654.528 736,668.5C 730.944,694.059 724.944,719.392 718,744.5C 715.775,752.516 712.775,760.183 709,767.5C 670.604,732.979 627.771,704.979 580.5,683.5C 580.167,682.833 579.833,682.167 579.5,681.5C 585.39,651.382 589.723,621.049 592.5,590.5C 608.265,602.096 623.598,614.262 638.5,627C 637.173,635.62 635.84,644.286 634.5,653C 634.585,654.107 634.919,655.107 635.5,656C 649.992,663.41 663.992,671.576 677.5,680.5C 684.182,661.362 686.015,641.695 683,621.5C 681.551,616.601 679.551,611.935 677,607.5C 672.711,601.542 668.044,595.876 663,590.5C 644.893,572.731 627.893,554.065 612,534.5C 603.281,518.961 598.281,502.294 597,484.5C 596.5,466.17 596.333,447.836 596.5,429.5 Z"/></g>
<g><path style="opacity:0.882" fill="#122241" d="M 571.5,486.5 C 571.5,473.5 571.5,460.5 571.5,447.5C 537.167,447.5 502.833,447.5 468.5,447.5C 468.815,451.371 468.482,455.038 467.5,458.5C 467.5,454.5 467.5,450.5 467.5,446.5C 502.5,446.5 537.5,446.5 572.5,446.5C 572.829,460.01 572.496,473.344 571.5,486.5 Z"/></g>
<g><path style="opacity:0.999" fill="#071a24" d="M 259.5,446.5 C 277.833,446.5 296.167,446.5 314.5,446.5C 312.483,519.843 316.483,592.843 326.5,665.5C 326.351,667.32 325.684,668.82 324.5,670C 307.913,673.55 291.746,678.384 276,684.5C 272.834,672.014 270.501,659.347 269,646.5C 260.945,580.077 257.779,513.411 259.5,446.5 Z"/></g>
<g><path style="opacity:0.999" fill="#071a24" d="M 330.5,446.5 C 347.167,446.5 363.833,446.5 380.5,446.5C 380.169,453.863 380.503,461.197 381.5,468.5C 387.929,472.464 394.096,476.798 400,481.5C 400.5,469.838 400.667,458.171 400.5,446.5C 417.167,446.5 433.833,446.5 450.5,446.5C 451.438,517.925 449.438,589.258 444.5,660.5C 429.821,660.583 415.154,660.25 400.5,659.5C 400.833,623.161 400.5,586.827 399.5,550.5C 393.5,546.5 387.5,542.5 381.5,538.5C 381.167,544.833 380.833,551.167 380.5,557.5C 381.35,592.189 382.683,626.855 384.5,661.5C 369.689,662.018 355.023,663.685 340.5,666.5C 339.749,665.624 339.249,664.624 339,663.5C 330.996,591.363 328.163,519.029 330.5,446.5 Z"/></g>
<g><path style="opacity:0.999" fill="#071a24" d="M 571.5,486.5 C 571.796,502.195 571.296,517.862 570,533.5C 556.247,525.706 542.414,518.04 528.5,510.5C 527.506,505.544 527.173,500.544 527.5,495.5C 523.5,495.5 519.5,495.5 515.5,495.5C 515.493,537.599 513.493,579.599 509.5,621.5C 512.455,622.159 515.455,622.492 518.5,622.5C 519.998,609.85 521.331,597.184 522.5,584.5C 520.833,584.5 519.167,584.5 517.5,584.5C 518.291,571.507 518.958,558.507 519.5,545.5C 536.224,546.173 552.891,547.506 569.5,549.5C 567.572,594.519 562.572,639.186 554.5,683.5C 537.966,678.699 521.3,674.199 504.5,670C 488.666,666.4 472.666,663.9 456.5,662.5C 463.415,594.688 467.082,526.688 467.5,458.5C 468.482,455.038 468.815,451.371 468.5,447.5C 502.833,447.5 537.167,447.5 571.5,447.5C 571.5,460.5 571.5,473.5 571.5,486.5 Z"/></g>
<g><path style="opacity:0.776" fill="#d9dcdd" d="M 478.5,458.5 C 505.995,457.502 533.662,457.169 561.5,457.5C 561.827,467.681 561.494,477.681 560.5,487.5C 560.5,477.833 560.5,468.167 560.5,458.5C 533.167,458.5 505.833,458.5 478.5,458.5 Z"/></g>
<g><path style="opacity:1" fill="#fdfdfd" d="M 270.5,457.5 C 281.5,457.5 292.5,457.5 303.5,457.5C 301.989,525.793 305.656,593.793 314.5,661.5C 304.061,663.757 293.728,666.424 283.5,669.5C 273.041,599.234 268.707,528.567 270.5,457.5 Z"/></g>
<g><path style="opacity:1" fill="#fcfcfc" d="M 340.5,457.5 C 350.167,457.5 359.833,457.5 369.5,457.5C 369.334,462.844 369.501,468.177 370,473.5C 383.667,483.167 397.333,492.833 411,502.5C 411.5,487.504 411.667,472.504 411.5,457.5C 420.833,457.5 430.167,457.5 439.5,457.5C 440.775,521.627 438.775,585.627 433.5,649.5C 425.913,649.814 418.413,649.481 411,648.5C 410.667,613.833 410.333,579.167 410,544.5C 396.839,535.252 383.506,526.252 370,517.5C 369.127,562.223 370.293,606.89 373.5,651.5C 365.172,652.233 356.839,652.899 348.5,653.5C 342.648,588.308 339.981,522.975 340.5,457.5 Z"/></g>
<g><path style="opacity:0.999" fill="#fcfcfc" d="M 478.5,458.5 C 505.833,458.5 533.167,458.5 560.5,458.5C 560.5,468.167 560.5,477.833 560.5,487.5C 560.832,496.857 560.498,506.19 559.5,515.5C 552.749,511.374 545.915,507.374 539,503.5C 538.5,497.175 538.334,490.842 538.5,484.5C 527.5,484.5 516.5,484.5 505.5,484.5C 504.825,533.281 502.158,581.948 497.5,630.5C 507.811,632.296 518.145,633.962 528.5,635.5C 530.5,615.497 532.5,595.497 534.5,575.5C 532.738,575.643 531.071,575.309 529.5,574.5C 528.505,568.872 528.171,563.206 528.5,557.5C 538.555,557.42 548.555,558.087 558.5,559.5C 556.06,596.019 551.894,632.352 546,668.5C 545.439,669.022 544.772,669.355 544,669.5C 519.646,661.703 494.813,656.036 469.5,652.5C 469.167,651.167 468.833,649.833 468.5,648.5C 474.825,585.329 478.159,521.996 478.5,458.5 Z"/></g>
<g><path style="opacity:1" fill="#a1a3aa" d="M 411.5,690.5 C 413.5,690.5 415.5,690.5 417.5,690.5C 417.5,695.5 417.5,700.5 417.5,705.5C 425.286,706.099 432.953,707.432 440.5,709.5C 441.442,709.392 442.275,709.059 443,708.5C 445.19,704.778 447.356,701.111 449.5,697.5C 451.368,698.263 453.035,699.263 454.5,700.5C 451.798,703.881 449.465,707.548 447.5,711.5C 478.704,725.7 497.037,749.7 502.5,783.5C 502.684,793.414 500.684,802.748 496.5,811.5C 502.453,767.642 485.619,735.975 446,716.5C 443.757,725.931 444.424,735.264 448,744.5C 457.333,760.5 466.667,776.5 476,792.5C 481.071,805.355 483.904,818.688 484.5,832.5C 483.581,835.089 481.914,837.089 479.5,838.5C 480.209,819.671 476.043,802.005 467,785.5C 460.333,774.833 453.667,764.167 447,753.5C 439.866,741.332 437.7,728.332 440.5,714.5C 432.608,712.522 424.608,711.188 416.5,710.5C 416.5,762.833 416.5,815.167 416.5,867.5C 414.833,867.5 413.167,867.5 411.5,867.5C 411.5,815.167 411.5,762.833 411.5,710.5C 403.441,710.648 395.774,712.315 388.5,715.5C 391.171,728.979 389.005,741.646 382,753.5C 373.163,767.169 364.83,781.169 357,795.5C 351.485,809.304 348.985,823.638 349.5,838.5C 347.5,837.167 345.833,835.5 344.5,833.5C 344.496,820.02 346.996,807.02 352,794.5C 361.761,776.639 371.761,758.972 382,741.5C 384.711,733.157 385.045,724.823 383,716.5C 342.891,736.142 326.058,768.142 332.5,812.5C 328.472,803.363 326.472,793.696 326.5,783.5C 332.156,749.682 350.489,725.516 381.5,711C 379.783,707.058 377.449,703.558 374.5,700.5C 375.965,699.263 377.632,698.263 379.5,697.5C 381.685,701.361 384.019,705.194 386.5,709C 394.712,707.394 403.046,706.228 411.5,705.5C 411.5,700.5 411.5,695.5 411.5,690.5 Z"/></g>
<g><path style="opacity:1" fill="#393d92" d="M 411.5,690.5 C 411.5,695.5 411.5,700.5 411.5,705.5C 403.046,706.228 394.712,707.394 386.5,709C 384.019,705.194 381.685,701.361 379.5,697.5C 389.686,693.129 400.353,690.795 411.5,690.5 Z"/></g>
<g><path style="opacity:1" fill="#393d93" d="M 417.5,690.5 C 428.587,691.05 439.253,693.383 449.5,697.5C 447.356,701.111 445.19,704.778 443,708.5C 442.275,709.059 441.442,709.392 440.5,709.5C 432.953,707.432 425.286,706.099 417.5,705.5C 417.5,700.5 417.5,695.5 417.5,690.5 Z"/></g>
<g><path style="opacity:1" fill="#a6a8ab" d="M 353.5,691.5 C 355.527,691.338 357.527,691.505 359.5,692C 319.445,720.484 304.778,758.817 315.5,807C 309.88,824.433 306.046,842.266 304,860.5C 265.698,826.608 227.532,792.608 189.5,758.5C 234.845,745.825 277.178,726.658 316.5,701C 328.917,697.647 341.25,694.48 353.5,691.5 Z"/></g>
<g><path style="opacity:1" fill="#a6a8ab" d="M 469.5,692.5 C 483.872,694.168 498.205,697.335 512.5,702C 551.049,727.773 592.716,746.773 637.5,759C 599.631,793.205 561.464,827.038 523,860.5C 521.035,843.343 517.535,826.51 512.5,810C 524.084,766.762 513.418,730.096 480.5,700C 476.805,697.49 473.138,694.99 469.5,692.5 Z"/></g>
<g><path style="opacity:0.998" fill="#393d92" d="M 374.5,700.5 C 377.449,703.558 379.783,707.058 381.5,711C 350.489,725.516 332.156,749.682 326.5,783.5C 324.887,753.871 335.554,729.371 358.5,710C 363.393,706.055 368.727,702.888 374.5,700.5 Z"/></g>
<g><path style="opacity:0.999" fill="#393d92" d="M 454.5,700.5 C 478.295,713.044 493.795,732.378 501,758.5C 503.227,766.907 503.727,775.24 502.5,783.5C 497.037,749.7 478.704,725.7 447.5,711.5C 449.465,707.548 451.798,703.881 454.5,700.5 Z"/></g>
<g><path style="opacity:1" fill="#393d93" d="M 411.5,867.5 C 386.338,866.913 365.672,857.247 349.5,838.5C 348.985,823.638 351.485,809.304 357,795.5C 364.83,781.169 373.163,767.169 382,753.5C 389.005,741.646 391.171,728.979 388.5,715.5C 395.774,712.315 403.441,710.648 411.5,710.5C 411.5,762.833 411.5,815.167 411.5,867.5 Z"/></g>
<g><path style="opacity:1" fill="#3a3e94" d="M 479.5,838.5 C 463.081,857.535 442.081,867.202 416.5,867.5C 416.5,815.167 416.5,762.833 416.5,710.5C 424.608,711.188 432.608,712.522 440.5,714.5C 437.7,728.332 439.866,741.332 447,753.5C 453.667,764.167 460.333,774.833 467,785.5C 476.043,802.005 480.209,819.671 479.5,838.5 Z"/></g>
<g><path style="opacity:1" fill="#393d94" d="M 344.5,833.5 C 339.239,827.323 335.239,820.323 332.5,812.5C 326.058,768.142 342.891,736.142 383,716.5C 385.045,724.823 384.711,733.157 382,741.5C 371.761,758.972 361.761,776.639 352,794.5C 346.996,807.02 344.496,820.02 344.5,833.5 Z"/></g>
<g><path style="opacity:1" fill="#393d94" d="M 496.5,811.5 C 494.285,819.605 490.285,826.605 484.5,832.5C 483.904,818.688 481.071,805.355 476,792.5C 466.667,776.5 457.333,760.5 448,744.5C 444.424,735.264 443.757,725.931 446,716.5C 485.619,735.975 502.453,767.642 496.5,811.5 Z"/></g>
<g><path style="opacity:0.999" fill="#383c92" d="M 215.5,864.5 C 214.454,853.192 213.788,841.859 213.5,830.5C 214.203,828.284 215.536,826.451 217.5,825C 231.058,823.028 237.224,828.861 236,842.5C 229.3,850.03 222.467,857.364 215.5,864.5 Z"/></g>
<g><path style="opacity:0.999" fill="#383c92" d="M 615.5,830.5 C 614.935,842.173 614.269,853.84 613.5,865.5C 607.199,859.03 601.033,852.363 595,845.5C 590.782,837.818 592.282,831.318 599.5,826C 606.354,822.834 611.687,824.334 615.5,830.5 Z"/></g>
<g><path style="opacity:1" fill="#a4a6aa" d="M 213.5,830.5 C 213.788,841.859 214.454,853.192 215.5,864.5C 211.199,870.135 206.533,875.468 201.5,880.5C 200.794,868.513 200.461,856.513 200.5,844.5C 204.127,839.206 208.46,834.539 213.5,830.5 Z"/></g>
<g><path style="opacity:1" fill="#a4a6aa" d="M 615.5,830.5 C 620.178,835.179 624.511,840.179 628.5,845.5C 628.237,857.502 627.903,869.502 627.5,881.5C 622.49,876.488 617.823,871.155 613.5,865.5C 614.269,853.84 614.935,842.173 615.5,830.5 Z"/></g>
<g><path style="opacity:0.999" fill="#393d93" d="M 200.5,844.5 C 200.461,856.513 200.794,868.513 201.5,880.5C 192.844,891.154 183.844,901.488 174.5,911.5C 173.723,899.842 173.056,888.175 172.5,876.5C 181.49,865.512 190.823,854.845 200.5,844.5 Z"/></g>
<g><path style="opacity:1" fill="#393d93" d="M 628.5,845.5 C 637.844,855.512 646.844,865.846 655.5,876.5C 655.388,888.174 655.055,899.841 654.5,911.5C 644.788,902.123 635.788,892.123 627.5,881.5C 627.903,869.502 628.237,857.502 628.5,845.5 Z"/></g>
<g><path style="opacity:1" fill="#a4a6aa" d="M 172.5,876.5 C 173.056,888.175 173.723,899.842 174.5,911.5C 170.873,916.794 166.54,921.461 161.5,925.5C 160.465,914.203 159.798,902.87 159.5,891.5C 163.489,886.179 167.822,881.179 172.5,876.5 Z"/></g>
<g><path style="opacity:1" fill="#a3a6aa" d="M 655.5,876.5 C 660.636,881.45 665.302,886.783 669.5,892.5C 668.794,903.83 668.128,915.164 667.5,926.5C 662.8,921.801 658.466,916.801 654.5,911.5C 655.055,899.841 655.388,888.174 655.5,876.5 Z"/></g>
<g><path style="opacity:0.999" fill="#393d92" d="M 159.5,891.5 C 159.798,902.87 160.465,914.203 161.5,925.5C 152.533,936.469 143.199,947.135 133.5,957.5C 133.272,945.83 132.938,934.163 132.5,922.5C 141.133,911.865 150.133,901.532 159.5,891.5 Z"/></g>
<g><path style="opacity:0.999" fill="#393d92" d="M 669.5,892.5 C 679.206,902.263 688.206,912.596 696.5,923.5C 695.928,934.839 695.261,946.173 694.5,957.5C 685.156,947.488 676.156,937.154 667.5,926.5C 668.128,915.164 668.794,903.83 669.5,892.5 Z"/></g>
<g><path style="opacity:1" fill="#a4a6aa" d="M 132.5,922.5 C 132.938,934.163 133.272,945.83 133.5,957.5C 129.511,962.821 125.178,967.821 120.5,972.5C 120.097,960.502 119.763,948.502 119.5,936.5C 123.378,931.411 127.711,926.745 132.5,922.5 Z"/></g>
<g><path style="opacity:1" fill="#a4a6aa" d="M 696.5,923.5 C 701.54,927.931 705.873,932.931 709.5,938.5C 708.991,949.851 708.325,961.184 707.5,972.5C 702.822,967.821 698.489,962.821 694.5,957.5C 695.261,946.173 695.928,934.839 696.5,923.5 Z"/></g>
<g><path style="opacity:0.999" fill="#383c92" d="M 119.5,936.5 C 119.763,948.502 120.097,960.502 120.5,972.5C 117.539,978.626 112.706,982.293 106,983.5C 93.5962,980.025 90.5962,972.691 97,961.5C 104.736,953.27 112.236,944.937 119.5,936.5 Z"/></g>
<g><path style="opacity:0.999" fill="#383d92" d="M 709.5,938.5 C 717.084,946.256 724.584,954.256 732,962.5C 738.064,973.705 734.897,980.705 722.5,983.5C 719.063,983.448 716.063,982.281 713.5,980C 711.666,977.337 709.666,974.837 707.5,972.5C 708.325,961.184 708.991,949.851 709.5,938.5 Z"/></g>
</svg>
