<?xml version="1.0" encoding="UTF-8"?>
<!DOCTYPE svg PUBLIC "-//W3C//DTD SVG 1.1//EN" "http://www.w3.org/Graphics/SVG/1.1/DTD/svg11.dtd">
<svg xmlns="http://www.w3.org/2000/svg" version="1.1" width="1229px" height="1024px" style="shape-rendering:geometricPrecision; text-rendering:geometricPrecision; image-rendering:optimizeQuality; fill-rule:evenodd; clip-rule:evenodd" xmlns:xlink="http://www.w3.org/1999/xlink">
<g><path style="opacity:0.991" fill="#0267b1" d="M 1210.5,496.5 C 1207.19,502.003 1203.19,507.17 1198.5,512C 1191.85,515.231 1184.85,516.231 1177.5,515C 1163.79,511.596 1150.13,508.096 1136.5,504.5C 1136.06,509.412 1136.9,514.078 1139,518.5C 1143.89,524.579 1149.72,529.246 1156.5,532.5C 1166.72,539.543 1176.55,547.21 1186,555.5C 1190.88,560.596 1194.22,566.596 1196,573.5C 1197.42,608.478 1197.92,643.478 1197.5,678.5C 1193.95,689.879 1186.28,697.046 1174.5,700C 1164.45,700.865 1154.45,700.531 1144.5,699C 1120.01,692.337 1095.35,686.503 1070.5,681.5C 1070.83,666.152 1070.5,650.819 1069.5,635.5C 1068.82,635.137 1068.15,634.804 1067.5,634.5C 1071.99,616.038 1075.33,597.371 1077.5,578.5C 1084.18,583.004 1091.02,587.338 1098,591.5C 1098.33,608.167 1098.67,624.833 1099,641.5C 1104.65,643.531 1110.49,644.865 1116.5,645.5C 1117.21,646.404 1118.21,646.737 1119.5,646.5C 1119.83,622.994 1119.5,599.661 1118.5,576.5C 1065.15,550.689 1049.32,509.689 1071,453.5C 1078.34,446.448 1087.17,443.281 1097.5,444C 1090.55,442.77 1083.55,442.27 1076.5,442.5C 1054,311.914 989.331,208.081 882.5,131C 760.774,49.2674 628.774,26.934 486.5,64C 345.382,107.782 244.215,196.948 183,331.5C 167.658,367.867 156.825,405.534 150.5,444.5C 151.167,444.833 151.833,445.167 152.5,445.5C 163.293,442.802 173.96,440.135 184.5,437.5C 191.859,436.195 199.192,434.695 206.5,433C 214.167,432.333 221.833,432.333 229.5,433C 235.758,433.791 240.758,436.624 244.5,441.5C 248.63,446.697 251.13,452.697 252,459.5C 253.583,483.471 253.916,507.471 253,531.5C 248.916,552.921 236.75,567.754 216.5,576C 197.978,581.297 179.311,585.964 160.5,590C 159.522,596.41 159.189,602.91 159.5,609.5C 159.334,617.84 159.5,626.173 160,634.5C 197.863,762.674 274.697,859.841 390.5,926C 522.26,995.092 657.26,1002.09 795.5,947C 911.715,896.285 995.048,812.785 1045.5,696.5C 1058.26,699.515 1070.92,702.515 1083.5,705.5C 1042.48,804.998 976.813,884.165 886.5,943C 766.345,1016.84 637.011,1038.84 498.5,1009C 362.706,974.699 258.039,899.699 184.5,784C 168.865,760.217 155.865,735.384 145.5,709.5C 150.008,707.874 154.675,706.874 159.5,706.5C 159.5,700.167 159.5,693.833 159.5,687.5C 133.013,693.197 106.679,699.531 80.5,706.5C 80.5,642.5 80.5,578.5 80.5,514.5C 54.2899,517.124 42.7899,505.458 46,479.5C 47.7235,477.283 49.2235,474.95 50.5,472.5C 70.5068,466.722 90.5068,460.722 110.5,454.5C 129.521,308.869 199.854,191.036 321.5,101C 452.625,11.7813 595.291,-13.2187 749.5,26C 873.822,62.3743 971.322,134.541 1042,242.5C 1081.97,305.57 1106.8,374.237 1116.5,448.5C 1147.67,456.224 1178.67,464.557 1209.5,473.5C 1209.35,481.196 1209.69,488.862 1210.5,496.5 Z"/></g>
<g><path style="opacity:0.999" fill="#fefdfe" d="M 1076.5,442.5 C 1065.75,443.7 1057.42,448.7 1051.5,457.5C 1050.83,449.833 1050.17,442.167 1049.5,434.5C 1047.4,433.388 1045.07,432.721 1042.5,432.5C 1029.76,368.704 1004.26,310.704 966,258.5C 980.358,311.524 981.191,364.858 968.5,418.5C 962.777,417.621 957.111,416.621 951.5,415.5C 968.365,348.18 962.532,282.847 934,219.5C 852.036,132.114 750.869,85.6136 630.5,80C 644.395,100.959 655.228,123.459 663,147.5C 673.515,177.896 681.682,208.896 687.5,240.5C 681.879,239.646 676.212,239.313 670.5,239.5C 661.14,190.252 645.306,143.252 623,98.5C 619.111,91.89 614.611,85.7234 609.5,80C 486.748,81.8105 382.915,126.644 298,214.5C 299.676,248.538 307.342,281.205 321,312.5C 335.695,345.573 353.195,376.906 373.5,406.5C 368.838,409.492 364.172,412.492 359.5,415.5C 330.687,373.873 308.187,328.873 292,280.5C 287.707,264.995 284.207,249.329 281.5,233.5C 231.013,292.488 198.68,360.488 184.5,437.5C 173.96,440.135 163.293,442.802 152.5,445.5C 151.833,445.167 151.167,444.833 150.5,444.5C 156.825,405.534 167.658,367.867 183,331.5C 244.215,196.948 345.382,107.782 486.5,64C 628.774,26.934 760.774,49.2674 882.5,131C 989.331,208.081 1054,311.914 1076.5,442.5 Z"/></g>
<g><path style="opacity:1" fill="#ec174c" d="M 670.5,239.5 C 654.669,238.5 639.002,238.5 623.5,239.5C 621.5,239.5 619.5,239.5 617.5,239.5C 592.612,238.932 567.945,239.932 543.5,242.5C 541.167,242.5 538.833,242.5 536.5,242.5C 515.131,243.838 493.798,245.671 472.5,248C 471.584,248.278 470.918,248.778 470.5,249.5C 464.819,249.635 459.152,249.968 453.5,250.5C 453.5,251.5 453.5,252.5 453.5,253.5C 447.551,252.421 441.551,252.254 435.5,253C 411.394,256.629 387.394,260.795 363.5,265.5C 358.097,266.448 352.764,267.782 347.5,269.5C 342.949,283.868 347.949,292.868 362.5,296.5C 362.268,324.835 361.935,353.168 361.5,381.5C 385.848,377.474 410.181,373.307 434.5,369C 441.696,366.66 447.529,362.493 452,356.5C 452.498,359.817 452.665,363.15 452.5,366.5C 479.12,363.657 505.787,361.324 532.5,359.5C 532.5,355.833 532.5,352.167 532.5,348.5C 533.833,348.5 535.167,348.5 536.5,348.5C 536.5,340.833 536.5,333.167 536.5,325.5C 526.5,326.167 516.5,326.833 506.5,327.5C 506.5,325.5 506.5,323.5 506.5,321.5C 512.181,321.365 517.848,321.032 523.5,320.5C 523.5,316.833 523.5,313.167 523.5,309.5C 524.5,309.5 525.5,309.5 526.5,309.5C 527.494,300.014 527.827,290.348 527.5,280.5C 524.287,280.19 521.287,280.523 518.5,281.5C 515.5,281.5 512.5,281.5 509.5,281.5C 507.952,281.179 507.285,280.179 507.5,278.5C 509.099,278.768 510.432,278.434 511.5,277.5C 522.496,276.778 533.496,276.111 544.5,275.5C 544.27,303.168 543.937,330.835 543.5,358.5C 560.512,358.105 577.512,357.439 594.5,356.5C 594.5,352.833 594.5,349.167 594.5,345.5C 595.833,345.5 597.167,345.5 598.5,345.5C 598.294,320.489 598.627,295.489 599.5,270.5C 601.89,269.554 604.056,268.221 606,266.5C 605.987,296.497 605.821,326.497 605.5,356.5C 622.167,356.5 638.833,356.5 655.5,356.5C 656.167,353.833 656.833,351.167 657.5,348.5C 661.677,353.429 667.01,356.596 673.5,358C 679.435,359.239 685.435,359.739 691.5,359.5C 693.167,374.167 694.833,388.833 696.5,403.5C 691.505,406.826 686.505,410.159 681.5,413.5C 683.219,405.617 683.886,397.617 683.5,389.5C 631.132,387.894 578.798,388.561 526.5,391.5C 519.646,391.176 512.979,391.509 506.5,392.5C 471.054,394.287 435.721,397.287 400.5,401.5C 391.303,402.199 382.303,403.866 373.5,406.5C 353.195,376.906 335.695,345.573 321,312.5C 307.342,281.205 299.676,248.538 298,214.5C 382.915,126.644 486.748,81.8105 609.5,80C 614.611,85.7234 619.111,91.89 623,98.5C 645.306,143.252 661.14,190.252 670.5,239.5 Z"/></g>
<g><path style="opacity:1" fill="#ec174c" d="M 951.5,415.5 C 950.539,417.265 950.205,419.265 950.5,421.5C 949.512,424.081 948.512,426.748 947.5,429.5C 930.188,414.058 909.855,406.058 886.5,405.5C 882.063,404.199 877.397,403.533 872.5,403.5C 865.514,404.166 858.514,404.499 851.5,404.5C 851.822,410.358 851.489,416.025 850.5,421.5C 844.461,411.293 835.794,404.126 824.5,400C 796.92,393.16 768.92,390.493 740.5,392C 733.386,393.056 726.386,394.556 719.5,396.5C 717.194,396.993 714.861,397.326 712.5,397.5C 711.16,383.445 709.493,369.445 707.5,355.5C 719.676,361.114 732.509,363.447 746,362.5C 758.946,363.762 770.946,361.095 782,354.5C 781.948,358.656 782.781,362.49 784.5,366C 800.51,368.168 816.51,370.334 832.5,372.5C 831.903,367.706 832.57,363.373 834.5,359.5C 836.233,336.84 837.233,313.84 837.5,290.5C 839.764,291.219 842.097,291.552 844.5,291.5C 844.5,307.167 844.5,322.833 844.5,338.5C 843.834,344.324 843.5,350.324 843.5,356.5C 843.504,362.872 844.171,368.872 845.5,374.5C 861.11,377.491 876.776,380.157 892.5,382.5C 892.56,383.043 892.893,383.376 893.5,383.5C 894.493,378.88 894.827,374.214 894.5,369.5C 895.5,369.5 896.5,369.5 897.5,369.5C 898.324,345.51 898.658,321.51 898.5,297.5C 906.167,295.833 910.833,291.167 912.5,283.5C 916.113,279.277 917.447,274.277 916.5,268.5C 892.284,263.523 867.95,259.19 843.5,255.5C 843.5,256.5 843.5,257.5 843.5,258.5C 841.565,257.85 839.565,257.517 837.5,257.5C 837.5,256.5 837.5,255.5 837.5,254.5C 826.033,252.652 814.533,250.985 803,249.5C 801.97,249.836 801.47,250.503 801.5,251.5C 796.285,251.202 791.118,250.536 786,249.5C 784.97,249.836 784.47,250.503 784.5,251.5C 774.056,246.866 763.056,244.366 751.5,244C 743.746,243.268 736.08,243.768 728.5,245.5C 719.4,245.2 711.4,247.866 704.5,253.5C 701.505,245.856 695.838,241.522 687.5,240.5C 681.682,208.896 673.515,177.896 663,147.5C 655.228,123.459 644.395,100.959 630.5,80C 750.869,85.6136 852.036,132.114 934,219.5C 962.532,282.847 968.365,348.18 951.5,415.5 Z"/></g>
<g><path style="opacity:1" fill="#ec184c" d="M 359.5,415.5 C 357.241,418.938 354.741,422.271 352,425.5C 350.121,429.259 348.287,432.925 346.5,436.5C 346.5,427.167 346.5,417.833 346.5,408.5C 322.074,411.682 297.741,415.515 273.5,420C 271.563,420.122 270.23,420.955 269.5,422.5C 261.738,422.952 254.071,424.119 246.5,426C 245.855,431.267 245.188,436.433 244.5,441.5C 240.758,436.624 235.758,433.791 229.5,433C 221.833,432.333 214.167,432.333 206.5,433C 199.192,434.695 191.859,436.195 184.5,437.5C 198.68,360.488 231.013,292.488 281.5,233.5C 284.207,249.329 287.707,264.995 292,280.5C 308.187,328.873 330.687,373.873 359.5,415.5 Z"/></g>
<g><path style="opacity:0.997" fill="#1467af" d="M 617.5,239.5 C 617.849,251.484 612.182,258.818 600.5,261.5C 599.516,264.428 599.183,267.428 599.5,270.5C 598.627,295.489 598.294,320.489 598.5,345.5C 597.167,345.5 595.833,345.5 594.5,345.5C 583.162,345.693 571.828,346.027 560.5,346.5C 561.328,318.842 561.661,291.175 561.5,263.5C 555.771,263.212 550.104,263.546 544.5,264.5C 543.503,257.197 543.169,249.863 543.5,242.5C 567.945,239.932 592.612,238.932 617.5,239.5 Z"/></g>
<g><path style="opacity:0.997" fill="#1768b0" d="M 670.5,239.5 C 676.212,239.313 681.879,239.646 687.5,240.5C 695.838,241.522 701.505,245.856 704.5,253.5C 705.542,264.144 705.709,274.811 705,285.5C 704.501,290.012 702.667,293.845 699.5,297C 700.794,299.087 701.961,301.254 703,303.5C 703.5,318.163 703.667,332.83 703.5,347.5C 674.323,349.267 662.823,335.601 669,306.5C 668.5,305.333 667.667,304.5 666.5,304C 664.19,303.503 661.857,303.337 659.5,303.5C 659.5,317.167 659.5,330.833 659.5,344.5C 647.167,344.5 634.833,344.5 622.5,344.5C 622.629,309.498 622.962,274.498 623.5,239.5C 639.002,238.5 654.669,238.5 670.5,239.5 Z"/></g>
<g><path style="opacity:1" fill="#092d63" d="M 617.5,239.5 C 619.5,239.5 621.5,239.5 623.5,239.5C 622.962,274.498 622.629,309.498 622.5,344.5C 634.833,344.5 647.167,344.5 659.5,344.5C 659.5,330.833 659.5,317.167 659.5,303.5C 661.857,303.337 664.19,303.503 666.5,304C 667.667,304.5 668.5,305.333 669,306.5C 662.823,335.601 674.323,349.267 703.5,347.5C 703.667,332.83 703.5,318.163 703,303.5C 701.961,301.254 700.794,299.087 699.5,297C 702.667,293.845 704.501,290.012 705,285.5C 705.709,274.811 705.542,264.144 704.5,253.5C 711.4,247.866 719.4,245.2 728.5,245.5C 719.414,248.09 713.914,254.09 712,263.5C 711.333,286.5 711.333,309.5 712,332.5C 714.965,340.757 720.799,345.924 729.5,348C 745.441,351.997 761.441,352.33 777.5,349C 783.357,347.664 787.857,344.497 791,339.5C 792.27,327.904 792.936,316.238 793,304.5C 793.667,291.167 793.667,277.833 793,264.5C 791.547,259.223 788.714,254.89 784.5,251.5C 784.47,250.503 784.97,249.836 786,249.5C 791.118,250.536 796.285,251.202 801.5,251.5C 800.598,285.827 799.931,320.161 799.5,354.5C 811.357,355.771 823.024,357.438 834.5,359.5C 832.57,363.373 831.903,367.706 832.5,372.5C 816.51,370.334 800.51,368.168 784.5,366C 782.781,362.49 781.948,358.656 782,354.5C 770.946,361.095 758.946,363.762 746,362.5C 732.509,363.447 719.676,361.114 707.5,355.5C 705.492,353.732 703.326,352.066 701,350.5C 700.502,353.482 700.335,356.482 700.5,359.5C 697.5,359.5 694.5,359.5 691.5,359.5C 685.435,359.739 679.435,359.239 673.5,358C 667.01,356.596 661.677,353.429 657.5,348.5C 657.44,347.957 657.107,347.624 656.5,347.5C 655.516,350.428 655.183,353.428 655.5,356.5C 638.833,356.5 622.167,356.5 605.5,356.5C 605.821,326.497 605.987,296.497 606,266.5C 604.056,268.221 601.89,269.554 599.5,270.5C 599.183,267.428 599.516,264.428 600.5,261.5C 612.182,258.818 617.849,251.484 617.5,239.5 Z"/></g>
<g><path style="opacity:0.998" fill="#1f69b0" d="M 536.5,242.5 C 536.5,249.833 536.5,257.167 536.5,264.5C 526.798,264.9 517.132,265.733 507.5,267C 506.544,270.394 506.211,273.894 506.5,277.5C 506.5,279.167 506.5,280.833 506.5,282.5C 507.791,282.737 508.791,282.404 509.5,281.5C 512.5,281.5 515.5,281.5 518.5,281.5C 521.167,281.5 523.833,281.5 526.5,281.5C 526.5,290.833 526.5,300.167 526.5,309.5C 525.5,309.5 524.5,309.5 523.5,309.5C 517.819,309.635 512.152,309.968 506.5,310.5C 506.5,314.167 506.5,317.833 506.5,321.5C 506.5,323.5 506.5,325.5 506.5,327.5C 516.5,326.833 526.5,326.167 536.5,325.5C 536.5,333.167 536.5,340.833 536.5,348.5C 535.167,348.5 533.833,348.5 532.5,348.5C 511.465,350.17 490.465,352.17 469.5,354.5C 469.561,319.497 469.894,284.497 470.5,249.5C 470.918,248.778 471.584,248.278 472.5,248C 493.798,245.671 515.131,243.838 536.5,242.5 Z"/></g>
<g><path style="opacity:1" fill="#0c2d62" d="M 536.5,242.5 C 538.833,242.5 541.167,242.5 543.5,242.5C 543.169,249.863 543.503,257.197 544.5,264.5C 550.104,263.546 555.771,263.212 561.5,263.5C 561.661,291.175 561.328,318.842 560.5,346.5C 571.828,346.027 583.162,345.693 594.5,345.5C 594.5,349.167 594.5,352.833 594.5,356.5C 577.512,357.439 560.512,358.105 543.5,358.5C 543.937,330.835 544.27,303.168 544.5,275.5C 533.496,276.111 522.496,276.778 511.5,277.5C 509.833,277.5 508.167,277.5 506.5,277.5C 506.211,273.894 506.544,270.394 507.5,267C 517.132,265.733 526.798,264.9 536.5,264.5C 536.5,257.167 536.5,249.833 536.5,242.5 Z"/></g>
<g><path style="opacity:0.999" fill="#fbfdfe" d="M 577.5,243.5 C 589.167,243.5 600.833,243.5 612.5,243.5C 610.778,254.204 604.444,258.87 593.5,257.5C 593.5,285.5 593.5,313.5 593.5,341.5C 584.156,341.599 574.823,341.932 565.5,342.5C 566.288,314.841 566.622,287.174 566.5,259.5C 560.5,259.5 554.5,259.5 548.5,259.5C 548.5,254.833 548.5,250.167 548.5,245.5C 558.328,245.004 567.994,244.337 577.5,243.5 Z"/></g>
<g><path style="opacity:0.999" fill="#fdfdfe" d="M 628.5,243.5 C 647.17,243.333 665.836,243.5 684.5,244C 691.702,244.494 696.535,247.994 699,254.5C 700.937,266.159 700.937,277.826 699,289.5C 697.638,292.236 695.804,294.569 693.5,296.5C 695.968,299.472 697.802,302.806 699,306.5C 699.009,318.826 698.842,331.16 698.5,343.5C 689.627,344.488 682.127,341.821 676,335.5C 675.025,324.807 674.025,314.141 673,303.5C 667.426,299.881 661.259,298.214 654.5,298.5C 654.5,312.5 654.5,326.5 654.5,340.5C 645.5,340.5 636.5,340.5 627.5,340.5C 627.873,308.167 628.207,275.834 628.5,243.5 Z"/></g>
<g><path style="opacity:0.997" fill="#1868b0" d="M 784.5,251.5 C 788.714,254.89 791.547,259.223 793,264.5C 793.667,277.833 793.667,291.167 793,304.5C 792.936,316.238 792.27,327.904 791,339.5C 787.857,344.497 783.357,347.664 777.5,349C 761.441,352.33 745.441,351.997 729.5,348C 720.799,345.924 714.965,340.757 712,332.5C 711.333,309.5 711.333,286.5 712,263.5C 713.914,254.09 719.414,248.09 728.5,245.5C 736.08,243.768 743.746,243.268 751.5,244C 763.056,244.366 774.056,246.866 784.5,251.5 Z"/></g>
<g><path style="opacity:0.999" fill="#fcfdfe" d="M 529.5,246.5 C 531.436,250.715 532.103,255.381 531.5,260.5C 521.529,261.72 511.529,262.72 501.5,263.5C 501.5,271.167 501.5,278.833 501.5,286.5C 508.148,285.861 514.814,285.527 521.5,285.5C 521.5,292.167 521.5,298.833 521.5,305.5C 514.477,305.969 507.477,306.636 500.5,307.5C 500.5,315.833 500.5,324.167 500.5,332.5C 510.471,331.436 520.471,330.77 530.5,330.5C 530.5,335.167 530.5,339.833 530.5,344.5C 512.089,345.94 493.756,347.94 475.5,350.5C 474.619,317.504 474.619,284.504 475.5,251.5C 493.657,249.941 511.657,248.274 529.5,246.5 Z"/></g>
<g><path style="opacity:0.999" fill="#fcfdfe" d="M 732.5,248.5 C 744.2,248.268 755.866,248.768 767.5,250C 777.654,250.313 784.487,255.146 788,264.5C 788.421,288.173 788.088,311.84 787,335.5C 785.969,338.539 784.135,341.039 781.5,343C 768.159,347.834 754.492,348.834 740.5,346C 731.988,345.724 724.821,342.557 719,336.5C 718.333,335.167 717.667,333.833 717,332.5C 716.333,310.167 716.333,287.833 717,265.5C 718.54,256.462 723.707,250.796 732.5,248.5 Z"/></g>
<g><path style="opacity:1" fill="#0a2d62" d="M 470.5,249.5 C 469.894,284.497 469.561,319.497 469.5,354.5C 490.465,352.17 511.465,350.17 532.5,348.5C 532.5,352.167 532.5,355.833 532.5,359.5C 505.787,361.324 479.12,363.657 452.5,366.5C 452.665,363.15 452.498,359.817 452,356.5C 447.529,362.493 441.696,366.66 434.5,369C 410.181,373.307 385.848,377.474 361.5,381.5C 361.935,353.168 362.268,324.835 362.5,296.5C 347.949,292.868 342.949,283.868 347.5,269.5C 352.764,267.782 358.097,266.448 363.5,265.5C 360.843,278.513 366.177,284.846 379.5,284.5C 379.106,312.499 378.773,340.499 378.5,368.5C 398.462,365.141 418.462,361.975 438.5,359C 450.369,356.464 457.536,349.297 460,337.5C 461,314.171 461.333,290.838 461,267.5C 460.821,261.47 458.321,256.803 453.5,253.5C 453.5,252.5 453.5,251.5 453.5,250.5C 459.152,249.968 464.819,249.635 470.5,249.5 Z"/></g>
<g><path style="opacity:0.998" fill="#1367af" d="M 837.5,257.5 C 837.5,268.5 837.5,279.5 837.5,290.5C 837.233,313.84 836.233,336.84 834.5,359.5C 823.024,357.438 811.357,355.771 799.5,354.5C 799.931,320.161 800.598,285.827 801.5,251.5C 801.47,250.503 801.97,249.836 803,249.5C 814.533,250.985 826.033,252.652 837.5,254.5C 837.5,255.5 837.5,256.5 837.5,257.5 Z"/></g>
<g><path style="opacity:0.996" fill="#1768b0" d="M 453.5,253.5 C 458.321,256.803 460.821,261.47 461,267.5C 461.333,290.838 461,314.171 460,337.5C 457.536,349.297 450.369,356.464 438.5,359C 418.462,361.975 398.462,365.141 378.5,368.5C 378.773,340.499 379.106,312.499 379.5,284.5C 366.177,284.846 360.843,278.513 363.5,265.5C 387.394,260.795 411.394,256.629 435.5,253C 441.551,252.254 447.551,252.421 453.5,253.5 Z"/></g>
<g><path style="opacity:0.999" fill="#fbfdfe" d="M 806.5,254.5 C 815.143,255.687 823.81,256.687 832.5,257.5C 831.894,289.83 831.56,322.163 831.5,354.5C 822.489,353.573 813.489,352.573 804.5,351.5C 805.094,319.164 805.761,286.831 806.5,254.5 Z"/></g>
<g><path style="opacity:0.997" fill="#1667af" d="M 912.5,283.5 C 908.307,286.197 903.64,287.197 898.5,286.5C 898.5,290.167 898.5,293.833 898.5,297.5C 898.658,321.51 898.324,345.51 897.5,369.5C 896.5,369.5 895.5,369.5 894.5,369.5C 894.167,369.5 893.833,369.5 893.5,369.5C 882.668,366.75 871.668,364.75 860.5,363.5C 860.909,335.834 861.242,308.168 861.5,280.5C 855.597,279.729 849.763,278.729 844,277.5C 843.5,271.175 843.334,264.842 843.5,258.5C 843.5,257.5 843.5,256.5 843.5,255.5C 867.95,259.19 892.284,263.523 916.5,268.5C 917.447,274.277 916.113,279.277 912.5,283.5 Z"/></g>
<g><path style="opacity:0.999" fill="#fcfdfe" d="M 436.5,256.5 C 441.599,256.175 446.599,256.675 451.5,258C 453.894,259.952 455.394,262.452 456,265.5C 456.525,290.889 455.858,316.222 454,341.5C 451.5,347.333 447.333,351.5 441.5,354C 422.247,357.709 402.914,360.876 383.5,363.5C 384.229,335.839 384.562,308.173 384.5,280.5C 377.262,281.93 371.762,279.596 368,273.5C 367.28,271.888 367.446,270.388 368.5,269C 391.288,264.704 413.955,260.538 436.5,256.5 Z"/></g>
<g><path style="opacity:1" fill="#042d62" d="M 837.5,257.5 C 839.565,257.517 841.565,257.85 843.5,258.5C 843.334,264.842 843.5,271.175 844,277.5C 849.763,278.729 855.597,279.729 861.5,280.5C 861.242,308.168 860.909,335.834 860.5,363.5C 871.668,364.75 882.668,366.75 893.5,369.5C 893.818,374.032 893.485,378.366 892.5,382.5C 876.776,380.157 861.11,377.491 845.5,374.5C 844.521,362.58 844.188,350.58 844.5,338.5C 844.5,322.833 844.5,307.167 844.5,291.5C 842.097,291.552 839.764,291.219 837.5,290.5C 837.5,279.5 837.5,268.5 837.5,257.5 Z"/></g>
<g><path style="opacity:0.993" fill="#0a69b2" d="M 655.5,257.5 C 660.599,257.175 665.599,257.675 670.5,259C 671.126,259.75 671.626,260.584 672,261.5C 672.667,269.167 672.667,276.833 672,284.5C 671.167,285.333 670.333,286.167 669.5,287C 664.845,287.499 660.179,287.666 655.5,287.5C 655.5,277.5 655.5,267.5 655.5,257.5 Z"/></g>
<g><path style="opacity:0.999" fill="#fcfdfe" d="M 848.5,260.5 C 869.595,263.627 890.595,267.294 911.5,271.5C 911.953,275.426 910.62,278.592 907.5,281C 902.964,282.379 898.297,282.879 893.5,282.5C 893.468,309.838 893.135,337.171 892.5,364.5C 883.541,362.908 874.541,361.575 865.5,360.5C 866.161,332.838 866.494,305.172 866.5,277.5C 860.461,276.716 854.461,275.716 848.5,274.5C 848.5,269.833 848.5,265.167 848.5,260.5 Z"/></g>
<g><path style="opacity:1" fill="#ec194c" d="M 1042.5,432.5 C 1019.63,427.526 996.628,423.192 973.5,419.5C 972.081,418.549 970.415,418.216 968.5,418.5C 981.191,364.858 980.358,311.524 966,258.5C 1004.26,310.704 1029.76,368.704 1042.5,432.5 Z"/></g>
<g><path style="opacity:1" fill="#032e63" d="M 660.5,261.5 C 662.792,261.244 664.959,261.577 667,262.5C 667.5,269.492 667.666,276.492 667.5,283.5C 665.167,283.5 662.833,283.5 660.5,283.5C 660.5,276.167 660.5,268.833 660.5,261.5 Z"/></g>
<g><path style="opacity:0.998" fill="#0967b0" d="M 745.5,262.5 C 749.56,262.485 753.56,262.985 757.5,264C 759.049,265.214 760.215,266.714 761,268.5C 761.084,288.497 760.917,308.497 760.5,328.5C 754.676,329.412 749.51,328.078 745,324.5C 744.201,303.803 744.368,283.136 745.5,262.5 Z"/></g>
<g><path style="opacity:1" fill="#052f66" d="M 750.5,266.5 C 752.582,266.472 754.416,267.139 756,268.5C 756.667,286.833 756.667,305.167 756,323.5C 754,324.833 752,324.833 750,323.5C 749.18,304.427 749.347,285.427 750.5,266.5 Z"/></g>
<g><path style="opacity:0.998" fill="#0f69b1" d="M 420.5,273.5 C 424.886,272.769 427.72,274.436 429,278.5C 429.439,299.518 428.939,320.518 427.5,341.5C 422.217,342.757 416.884,343.757 411.5,344.5C 411.5,321.5 411.5,298.5 411.5,275.5C 414.689,275.142 417.689,274.475 420.5,273.5 Z"/></g>
<g><path style="opacity:1" fill="#042e64" d="M 419.5,277.5 C 420.833,277.5 422.167,277.5 423.5,277.5C 424.656,297.836 424.322,318.169 422.5,338.5C 420.591,339.348 418.591,339.682 416.5,339.5C 416.5,319.167 416.5,298.833 416.5,278.5C 417.791,278.737 418.791,278.404 419.5,277.5 Z"/></g>
<g><path style="opacity:0.847" fill="#9b2860" d="M 506.5,277.5 C 508.167,277.5 509.833,277.5 511.5,277.5C 510.432,278.434 509.099,278.768 507.5,278.5C 507.285,280.179 507.952,281.179 509.5,281.5C 508.791,282.404 507.791,282.737 506.5,282.5C 506.5,280.833 506.5,279.167 506.5,277.5 Z"/></g>
<g><path style="opacity:0.773" fill="#4f4f91" d="M 518.5,281.5 C 521.287,280.523 524.287,280.19 527.5,280.5C 527.827,290.348 527.494,300.014 526.5,309.5C 526.5,300.167 526.5,290.833 526.5,281.5C 523.833,281.5 521.167,281.5 518.5,281.5 Z"/></g>
<g><path style="opacity:1" fill="#0e2e63" d="M 912.5,283.5 C 910.833,291.167 906.167,295.833 898.5,297.5C 898.5,293.833 898.5,290.167 898.5,286.5C 903.64,287.197 908.307,286.197 912.5,283.5 Z"/></g>
<g><path style="opacity:1" fill="#0d2d62" d="M 523.5,309.5 C 523.5,313.167 523.5,316.833 523.5,320.5C 517.848,321.032 512.181,321.365 506.5,321.5C 506.5,317.833 506.5,314.167 506.5,310.5C 512.152,309.968 517.819,309.635 523.5,309.5 Z"/></g>
<g><path style="opacity:0.851" fill="#8e1f54" d="M 657.5,348.5 C 656.833,351.167 656.167,353.833 655.5,356.5C 655.183,353.428 655.516,350.428 656.5,347.5C 657.107,347.624 657.44,347.957 657.5,348.5 Z"/></g>
<g><path style="opacity:0.999" fill="#fdfcfc" d="M 707.5,355.5 C 709.493,369.445 711.16,383.445 712.5,397.5C 707.319,399.675 701.986,401.675 696.5,403.5C 694.833,388.833 693.167,374.167 691.5,359.5C 694.5,359.5 697.5,359.5 700.5,359.5C 700.335,356.482 700.502,353.482 701,350.5C 703.326,352.066 705.492,353.732 707.5,355.5 Z"/></g>
<g><path style="opacity:0.933" fill="#572459" d="M 844.5,338.5 C 844.188,350.58 844.521,362.58 845.5,374.5C 844.171,368.872 843.504,362.872 843.5,356.5C 843.5,350.324 843.834,344.324 844.5,338.5 Z"/></g>
<g><path style="opacity:0.882" fill="#742256" d="M 893.5,369.5 C 893.833,369.5 894.167,369.5 894.5,369.5C 894.827,374.214 894.493,378.88 893.5,383.5C 892.893,383.376 892.56,383.043 892.5,382.5C 893.485,378.366 893.818,374.032 893.5,369.5 Z"/></g>
<g><path style="opacity:1" fill="#1067b0" d="M 681.5,413.5 C 674.917,429.386 662.917,438.052 645.5,439.5C 645.5,446.833 645.5,454.167 645.5,461.5C 645.5,518.5 645.5,575.5 645.5,632.5C 619.155,632.275 592.821,632.608 566.5,633.5C 566.5,569.5 566.5,505.5 566.5,441.5C 553.155,441.453 539.821,441.786 526.5,442.5C 526.5,425.5 526.5,408.5 526.5,391.5C 578.798,388.561 631.132,387.894 683.5,389.5C 683.886,397.617 683.219,405.617 681.5,413.5 Z"/></g>
<g><path style="opacity:1" fill="#042d62" d="M 506.5,392.5 C 512.979,391.509 519.646,391.176 526.5,391.5C 526.5,408.5 526.5,425.5 526.5,442.5C 539.821,441.786 553.155,441.453 566.5,441.5C 566.5,505.5 566.5,569.5 566.5,633.5C 592.821,632.608 619.155,632.275 645.5,632.5C 645.5,640.167 645.5,647.833 645.5,655.5C 617.5,655.5 589.5,655.5 561.5,655.5C 554.646,655.176 547.979,655.509 541.5,656.5C 540.5,656.5 539.5,656.5 538.5,656.5C 538.5,654.5 538.5,652.5 538.5,650.5C 538.5,640.5 538.5,630.5 538.5,620.5C 538.5,569.167 538.5,517.833 538.5,466.5C 525.482,466.339 512.482,466.673 499.5,467.5C 499.827,462.786 499.493,458.12 498.5,453.5C 497.893,453.624 497.56,453.957 497.5,454.5C 493.382,458.399 488.715,461.565 483.5,464C 475.219,466.706 466.886,468.54 458.5,469.5C 451.823,467.659 445.99,464.326 441,459.5C 439.734,455.605 439.234,451.605 439.5,447.5C 452.472,446.127 465.472,444.96 478.5,444C 495.886,441.283 507.053,431.45 512,414.5C 512.726,407.131 512.559,399.798 511.5,392.5C 509.833,392.5 508.167,392.5 506.5,392.5 Z"/></g>
<g><path style="opacity:0.998" fill="#0a67b0" d="M 506.5,392.5 C 508.167,392.5 509.833,392.5 511.5,392.5C 512.559,399.798 512.726,407.131 512,414.5C 507.053,431.45 495.886,441.283 478.5,444C 465.472,444.96 452.472,446.127 439.5,447.5C 439.234,451.605 439.734,455.605 441,459.5C 445.99,464.326 451.823,467.659 458.5,469.5C 471.226,472.281 482.726,477.614 493,485.5C 498.12,491.528 500.454,498.528 500,506.5C 500.5,527.831 500.667,549.164 500.5,570.5C 500.5,579.5 500.5,588.5 500.5,597.5C 497.407,614.837 487.74,627.003 471.5,634C 464.312,636.297 456.978,637.964 449.5,639C 424.097,641.342 398.763,644.176 373.5,647.5C 373.5,632.167 373.5,616.833 373.5,601.5C 381.474,600.337 389.474,599.337 397.5,598.5C 405.451,597.32 413.451,596.654 421.5,596.5C 421.5,572.833 421.5,549.167 421.5,525.5C 406.807,524.325 393.474,519.492 381.5,511C 374.45,504.62 369.95,496.787 368,487.5C 367.333,472.833 367.333,458.167 368,443.5C 368.916,421.759 379.749,407.759 400.5,401.5C 435.721,397.287 471.054,394.287 506.5,392.5 Z"/></g>
<g><path style="opacity:0.999" fill="#0467b0" d="M 850.5,421.5 C 854.481,428.612 856.981,436.279 858,444.5C 858.667,496.167 858.667,547.833 858,599.5C 854.877,618.294 844.21,630.627 826,636.5C 811.806,640.624 797.306,642.624 782.5,642.5C 766.061,642.135 749.727,640.635 733.5,638C 716.673,635.177 702.84,627.344 692,614.5C 687.646,607.438 685.313,599.772 685,591.5C 684.031,539.139 684.365,486.806 686,434.5C 690.322,415.684 701.489,403.018 719.5,396.5C 726.386,394.556 733.386,393.056 740.5,392C 768.92,390.493 796.92,393.16 824.5,400C 835.794,404.126 844.461,411.293 850.5,421.5 Z"/></g>
<g><path style="opacity:1" fill="#fefefe" d="M 569.5,398.5 C 603.833,398.5 638.167,398.5 672.5,398.5C 673.148,414.006 666.148,424.173 651.5,429C 645.899,430.217 640.232,430.717 634.5,430.5C 634.5,494.833 634.5,559.167 634.5,623.5C 615.5,623.5 596.5,623.5 577.5,623.5C 577.5,559.5 577.5,495.5 577.5,431.5C 564.157,431.526 550.824,431.859 537.5,432.5C 537.5,421.833 537.5,411.167 537.5,400.5C 548.322,399.955 558.989,399.288 569.5,398.5 Z"/></g>
<g><path style="opacity:0.999" fill="#012d62" d="M 719.5,396.5 C 701.489,403.018 690.322,415.684 686,434.5C 684.365,486.806 684.031,539.139 685,591.5C 685.313,599.772 687.646,607.438 692,614.5C 702.84,627.344 716.673,635.177 733.5,638C 749.727,640.635 766.061,642.135 782.5,642.5C 797.306,642.624 811.806,640.624 826,636.5C 844.21,630.627 854.877,618.294 858,599.5C 858.667,547.833 858.667,496.167 858,444.5C 856.981,436.279 854.481,428.612 850.5,421.5C 851.489,416.025 851.822,410.358 851.5,404.5C 858.514,404.499 865.514,404.166 872.5,403.5C 877.397,403.533 882.063,404.199 886.5,405.5C 882.5,405.5 878.5,405.5 874.5,405.5C 874.5,486.167 874.5,566.833 874.5,647.5C 899.518,650.725 924.518,654.059 949.5,657.5C 949.333,639.164 949.5,620.83 950,602.5C 958.171,622.35 966.338,642.184 974.5,662C 999.153,666.942 1023.82,671.775 1048.5,676.5C 1048.17,595.665 1048.5,514.998 1049.5,434.5C 1049.33,442.84 1049.5,451.173 1050,459.5C 1050.72,458.956 1051.22,458.289 1051.5,457.5C 1057.42,448.7 1065.75,443.7 1076.5,442.5C 1083.55,442.27 1090.55,442.77 1097.5,444C 1087.17,443.281 1078.34,446.448 1071,453.5C 1049.32,509.689 1065.15,550.689 1118.5,576.5C 1119.16,599.858 1118.49,622.858 1116.5,645.5C 1110.49,644.865 1104.65,643.531 1099,641.5C 1098.67,624.833 1098.33,608.167 1098,591.5C 1091.02,587.338 1084.18,583.004 1077.5,578.5C 1066.34,570.669 1057.67,560.669 1051.5,548.5C 1051.22,547.711 1050.72,547.044 1050,546.5C 1049.17,574.67 1049.34,602.67 1050.5,630.5C 1056.11,631.984 1061.77,633.318 1067.5,634.5C 1068.15,634.804 1068.82,635.137 1069.5,635.5C 1070.5,650.819 1070.83,666.152 1070.5,681.5C 1095.35,686.503 1120.01,692.337 1144.5,699C 1154.45,700.531 1164.45,700.865 1174.5,700C 1186.28,697.046 1193.95,689.879 1197.5,678.5C 1197.46,700.169 1187.13,713.502 1166.5,718.5C 1158.05,720.358 1149.88,721.025 1142,720.5C 1123.57,715.808 1105.4,711.141 1087.5,706.5C 1086.02,707.433 1084.68,707.1 1083.5,705.5C 1070.92,702.515 1058.26,699.515 1045.5,696.5C 1034.55,694.244 1023.55,692.244 1012.5,690.5C 1009.41,689.215 1006.08,688.549 1002.5,688.5C 995.711,686.677 988.711,685.343 981.5,684.5C 940.773,676.616 899.773,670.283 858.5,665.5C 856.194,665.007 853.861,664.674 851.5,664.5C 851.5,655.833 851.5,647.167 851.5,638.5C 851.631,637.761 851.464,637.094 851,636.5C 839.372,651.07 824.206,659.57 805.5,662C 778.385,665.578 751.385,665.078 724.5,660.5C 718.749,659.417 713.082,658.084 707.5,656.5C 682.314,649.484 667.481,633.151 663,607.5C 662.343,555.088 662.343,502.755 663,450.5C 658.27,456.09 652.437,459.757 645.5,461.5C 645.5,454.167 645.5,446.833 645.5,439.5C 662.917,438.052 674.917,429.386 681.5,413.5C 686.505,410.159 691.505,406.826 696.5,403.5C 701.986,401.675 707.319,399.675 712.5,397.5C 714.861,397.326 717.194,396.993 719.5,396.5 Z"/></g>
<g><path style="opacity:1" fill="#032d62" d="M 400.5,401.5 C 379.749,407.759 368.916,421.759 368,443.5C 367.333,458.167 367.333,472.833 368,487.5C 369.95,496.787 374.45,504.62 381.5,511C 393.474,519.492 406.807,524.325 421.5,525.5C 421.5,549.167 421.5,572.833 421.5,596.5C 413.451,596.654 405.451,597.32 397.5,598.5C 397.5,581.5 397.5,564.5 397.5,547.5C 374.246,544.065 357.246,532.065 346.5,511.5C 346.5,486.5 346.5,461.5 346.5,436.5C 348.287,432.925 350.121,429.259 352,425.5C 354.741,422.271 357.241,418.938 359.5,415.5C 364.172,412.492 368.838,409.492 373.5,406.5C 382.303,403.866 391.303,402.199 400.5,401.5 Z"/></g>
<g><path style="opacity:1" fill="#fdfefe" d="M 496.5,401.5 C 498.467,401.261 500.301,401.594 502,402.5C 502.653,420.042 494.486,430.875 477.5,435C 461.105,435.948 444.771,437.448 428.5,439.5C 424.754,457.186 431.087,469.353 447.5,476C 458.477,479.214 469.143,483.214 479.5,488C 483.388,490.222 486.221,493.388 488,497.5C 489.138,514.45 489.638,531.45 489.5,548.5C 489.61,566.862 489.11,585.196 488,603.5C 486.444,608.28 484.111,612.613 481,616.5C 469.959,624.739 457.459,629.239 443.5,630C 423.781,631.765 404.114,633.932 384.5,636.5C 384.168,627.475 384.502,618.475 385.5,609.5C 401.066,607.03 416.732,605.363 432.5,604.5C 432.667,576.165 432.5,547.831 432,519.5C 421.845,516.829 411.679,513.996 401.5,511C 389.365,506.534 381.865,498.034 379,485.5C 378.152,467.473 378.485,449.473 380,431.5C 383.671,420.497 391.171,413.663 402.5,411C 433.92,407.251 465.253,404.084 496.5,401.5 Z"/></g>
<g><path style="opacity:0.999" fill="#fefefe" d="M 743.5,402.5 C 767.766,401.878 791.766,404.045 815.5,409C 834.223,414.057 844.723,426.223 847,445.5C 847.667,497.167 847.667,548.833 847,600.5C 844.474,612.695 837.307,620.862 825.5,625C 811.519,629.373 797.185,631.54 782.5,631.5C 763.94,631.177 745.606,629.011 727.5,625C 715.038,622.194 705.538,615.361 699,604.5C 697.384,600.653 696.384,596.653 696,592.5C 695.032,540.472 695.365,488.472 697,436.5C 700.141,422.691 708.308,413.191 721.5,408C 728.812,405.505 736.145,403.672 743.5,402.5 Z"/></g>
<g><path style="opacity:0.997" fill="#0467b0" d="M 886.5,405.5 C 909.855,406.058 930.188,414.058 947.5,429.5C 948.167,430.833 949.167,431.833 950.5,432.5C 959.898,442.625 966.732,454.292 971,467.5C 970.845,451.135 971.679,435.135 973.5,419.5C 996.628,423.192 1019.63,427.526 1042.5,432.5C 1045.07,432.721 1047.4,433.388 1049.5,434.5C 1048.5,514.998 1048.17,595.665 1048.5,676.5C 1023.82,671.775 999.153,666.942 974.5,662C 966.338,642.184 958.171,622.35 950,602.5C 949.5,620.83 949.333,639.164 949.5,657.5C 924.518,654.059 899.518,650.725 874.5,647.5C 874.5,566.833 874.5,486.167 874.5,405.5C 878.5,405.5 882.5,405.5 886.5,405.5 Z"/></g>
<g><path style="opacity:0.996" fill="#0767b1" d="M 346.5,436.5 C 346.5,461.5 346.5,486.5 346.5,511.5C 346.832,558.336 346.499,605.003 345.5,651.5C 320.173,655.499 294.84,659.499 269.5,663.5C 269.5,583.167 269.5,502.833 269.5,422.5C 270.23,420.955 271.563,420.122 273.5,420C 297.741,415.515 322.074,411.682 346.5,408.5C 346.5,417.833 346.5,427.167 346.5,436.5 Z"/></g>
<g><path style="opacity:1" fill="#fefefe" d="M 940.5,552.5 C 940.013,551.527 939.513,550.527 939,549.5C 938.5,581.832 938.333,614.165 938.5,646.5C 920.5,644.167 902.5,641.833 884.5,639.5C 884.5,564.5 884.5,489.5 884.5,414.5C 919.895,415.105 944.729,431.438 959,463.5C 967.272,487.315 974.939,511.315 982,535.5C 982.5,500.502 982.667,465.502 982.5,430.5C 1000.89,433.51 1019.23,436.844 1037.5,440.5C 1037.67,515.501 1037.5,590.501 1037,665.5C 1018.66,661.125 1000.16,657.458 981.5,654.5C 968.228,620.352 954.561,586.352 940.5,552.5 Z"/></g>
<g><path style="opacity:0.999" fill="#032d62" d="M 951.5,415.5 C 957.111,416.621 962.777,417.621 968.5,418.5C 970.415,418.216 972.081,418.549 973.5,419.5C 971.679,435.135 970.845,451.135 971,467.5C 966.732,454.292 959.898,442.625 950.5,432.5C 950.5,428.833 950.5,425.167 950.5,421.5C 950.205,419.265 950.539,417.265 951.5,415.5 Z"/></g>
<g><path style="opacity:0.999" fill="#fefefe" d="M 329.5,419.5 C 331.5,419.5 333.5,419.5 335.5,419.5C 335.833,494.17 335.5,568.836 334.5,643.5C 316.505,646.499 298.505,649.499 280.5,652.5C 280.5,577.5 280.5,502.5 280.5,427.5C 297.007,425.137 313.341,422.471 329.5,419.5 Z"/></g>
<g><path style="opacity:1" fill="#012d62" d="M 269.5,422.5 C 269.5,502.833 269.5,583.167 269.5,663.5C 294.84,659.499 320.173,655.499 345.5,651.5C 345.5,658.833 345.5,666.167 345.5,673.5C 321.925,676.438 298.591,680.104 275.5,684.5C 267.327,685.02 259.327,686.353 251.5,688.5C 249.833,688.5 248.167,688.5 246.5,688.5C 246.5,687.5 246.5,686.5 246.5,685.5C 246.5,677.5 246.5,669.5 246.5,661.5C 246.5,649.5 246.5,637.5 246.5,625.5C 246.667,606.83 246.5,588.164 246,569.5C 245.283,570.044 244.783,570.711 244.5,571.5C 231.825,588.683 214.825,599.016 193.5,602.5C 182.224,605.088 170.891,607.422 159.5,609.5C 159.189,602.91 159.522,596.41 160.5,590C 179.311,585.964 197.978,581.297 216.5,576C 236.75,567.754 248.916,552.921 253,531.5C 253.916,507.471 253.583,483.471 252,459.5C 251.13,452.697 248.63,446.697 244.5,441.5C 245.188,436.433 245.855,431.267 246.5,426C 254.071,424.119 261.738,422.952 269.5,422.5 Z"/></g>
<g><path style="opacity:0.984" fill="#fceef1" d="M 950.5,421.5 C 950.5,425.167 950.5,428.833 950.5,432.5C 949.167,431.833 948.167,430.833 947.5,429.5C 948.512,426.748 949.512,424.081 950.5,421.5 Z"/></g>
<g><path style="opacity:0.792" fill="#9aadc2" d="M 1049.5,434.5 C 1050.17,442.167 1050.83,449.833 1051.5,457.5C 1051.22,458.289 1050.72,458.956 1050,459.5C 1049.5,451.173 1049.33,442.84 1049.5,434.5 Z"/></g>
<g><path style="opacity:0.997" fill="#0267b1" d="M 757.5,435.5 C 765.319,435.032 772.986,435.865 780.5,438C 785.052,439.588 787.885,442.755 789,447.5C 790.635,491.468 790.968,535.468 790,579.5C 789.989,582.659 789.155,585.493 787.5,588C 779.692,588.895 772.025,588.228 764.5,586C 758.836,583.668 755.336,579.501 754,573.5C 753.333,531.5 753.333,489.5 754,447.5C 754.333,444.833 754.667,442.167 755,439.5C 755.48,437.867 756.313,436.534 757.5,435.5 Z"/></g>
<g><path style="opacity:1" fill="#fefefe" d="M 91.5,653.5 C 91.8333,603.162 91.4999,552.829 90.5,502.5C 89.8933,502.624 89.56,502.957 89.5,503.5C 84.699,504.305 79.8657,504.972 75,505.5C 59.9129,503.419 53.7463,494.919 56.5,480C 106.1,465.767 156.1,453.1 206.5,442C 213.567,441.161 220.567,441.494 227.5,443C 235.806,446.754 240.306,453.254 241,462.5C 243.369,484.107 244.036,505.774 243,527.5C 241.593,546.17 232.426,559.337 215.5,567C 193.372,572.758 171.206,578.258 149,583.5C 148.5,615.832 148.333,648.165 148.5,680.5C 129.43,684.914 110.43,689.58 91.5,694.5C 91.5,680.833 91.5,667.167 91.5,653.5 Z"/></g>
<g><path style="opacity:1" fill="#002d62" d="M 765.5,446.5 C 769.702,446.384 773.702,447.217 777.5,449C 778.249,450.734 778.749,452.567 779,454.5C 779.5,495.499 779.667,536.499 779.5,577.5C 774.394,578.075 769.894,576.741 766,573.5C 765.667,572.5 765.333,571.5 765,570.5C 764.201,529.151 764.367,487.818 765.5,446.5 Z"/></g>
<g><path style="opacity:1" fill="#ec174c" d="M 707.5,656.5 C 707.014,696.911 705.014,737.244 701.5,777.5C 667.507,778.327 633.507,778.66 599.5,778.5C 600.369,760.455 598.203,742.789 593,725.5C 584.906,700.987 574.406,677.654 561.5,655.5C 589.5,655.5 617.5,655.5 645.5,655.5C 645.5,647.833 645.5,640.167 645.5,632.5C 645.5,575.5 645.5,518.5 645.5,461.5C 652.437,459.757 658.27,456.09 663,450.5C 662.343,502.755 662.343,555.088 663,607.5C 667.481,633.151 682.314,649.484 707.5,656.5 Z"/></g>
<g><path style="opacity:0.769" fill="#7d2055" d="M 497.5,454.5 C 497.56,453.957 497.893,453.624 498.5,453.5C 499.493,458.12 499.827,462.786 499.5,467.5C 498.833,463.167 498.167,458.833 497.5,454.5 Z"/></g>
<g><path style="opacity:1" fill="#ec174c" d="M 497.5,454.5 C 498.167,458.833 498.833,463.167 499.5,467.5C 512.482,466.673 525.482,466.339 538.5,466.5C 538.5,517.833 538.5,569.167 538.5,620.5C 526.217,603.549 513.55,586.883 500.5,570.5C 500.667,549.164 500.5,527.831 500,506.5C 500.454,498.528 498.12,491.528 493,485.5C 482.726,477.614 471.226,472.281 458.5,469.5C 466.886,468.54 475.219,466.706 483.5,464C 488.715,461.565 493.382,458.399 497.5,454.5 Z"/></g>
<g><path style="opacity:0.999" fill="#fdfefe" d="M 1090.5,454.5 C 1095.55,454.45 1100.55,454.95 1105.5,456C 1136.56,464.015 1167.56,472.182 1198.5,480.5C 1199.8,498.701 1191.47,506.867 1173.5,505C 1157.56,500.516 1141.56,496.349 1125.5,492.5C 1122.66,507.326 1126.66,519.826 1137.5,530C 1150.17,539.333 1162.83,548.667 1175.5,558C 1179.88,562.043 1183.04,566.876 1185,572.5C 1186.63,607.133 1186.96,641.8 1186,676.5C 1181.26,687.373 1172.93,692.706 1161,692.5C 1157.11,692.406 1153.28,691.906 1149.5,691C 1126.9,685.183 1104.23,679.683 1081.5,674.5C 1081.5,665.5 1081.5,656.5 1081.5,647.5C 1097.27,650.692 1112.94,654.359 1128.5,658.5C 1129.67,630.173 1129.83,601.839 1129,573.5C 1117.91,567.042 1107.08,560.208 1096.5,553C 1080.12,539.571 1072.79,522.238 1074.5,501C 1074.71,489.781 1075.55,478.615 1077,467.5C 1079.44,460.888 1083.94,456.555 1090.5,454.5 Z"/></g>
<g><path style="opacity:0.993" fill="#002d62" d="M 50.5,472.5 C 49.2235,474.95 47.7235,477.283 46,479.5C 42.7899,505.458 54.2899,517.124 80.5,514.5C 80.5,578.5 80.5,642.5 80.5,706.5C 106.679,699.531 133.013,693.197 159.5,687.5C 159.5,693.833 159.5,700.167 159.5,706.5C 154.675,706.874 150.008,707.874 145.5,709.5C 116.455,716.678 87.4554,724.011 58.5,731.5C 58.5,666.833 58.5,602.167 58.5,537.5C 50.5952,537.646 43.2619,535.313 36.5,530.5C 31.3671,526.113 27.7005,521.113 25.5,515.5C 18.7895,501.746 21.4561,488.912 33.5,477C 39.1002,475.188 44.7669,473.688 50.5,472.5 Z"/></g>
<g><path style="opacity:0.998" fill="#0367b1" d="M 149.5,556.5 C 148.502,533.673 148.169,510.673 148.5,487.5C 158.785,483.099 169.451,481.933 180.5,484C 182.617,485.731 184.117,487.898 185,490.5C 185.667,509.5 185.667,528.5 185,547.5C 173.287,550.887 161.454,553.887 149.5,556.5 Z"/></g>
<g><path style="opacity:0.753" fill="#9ec5e1" d="M 148.5,487.5 C 148.169,510.673 148.502,533.673 149.5,556.5C 149.44,557.043 149.107,557.376 148.5,557.5C 147.171,534.003 147.171,510.67 148.5,487.5 Z"/></g>
<g><path style="opacity:1" fill="#002e63" d="M 167.5,491.5 C 170.044,491.104 172.211,491.771 174,493.5C 174.833,509.51 174.666,525.51 173.5,541.5C 168.749,542.521 164.082,543.855 159.5,545.5C 158.5,528.179 158.167,510.846 158.5,493.5C 161.781,493.58 164.781,492.913 167.5,491.5 Z"/></g>
<g><path style="opacity:0.983" fill="#002d63" d="M 1210.5,496.5 C 1210.55,513.82 1203.05,525.82 1188,532.5C 1182.79,534.342 1177.45,535.676 1172,536.5C 1166.88,535.662 1161.71,534.328 1156.5,532.5C 1149.72,529.246 1143.89,524.579 1139,518.5C 1136.9,514.078 1136.06,509.412 1136.5,504.5C 1150.13,508.096 1163.79,511.596 1177.5,515C 1184.85,516.231 1191.85,515.231 1198.5,512C 1203.19,507.17 1207.19,502.003 1210.5,496.5 Z"/></g>
<g><path style="opacity:1" fill="#ec184c" d="M 346.5,511.5 C 357.246,532.065 374.246,544.065 397.5,547.5C 397.5,564.5 397.5,581.5 397.5,598.5C 389.474,599.337 381.474,600.337 373.5,601.5C 365.482,602.354 357.482,603.354 349.5,604.5C 349.5,627.167 349.5,649.833 349.5,672.5C 379.468,669.137 409.468,665.97 439.5,663C 461.173,660.918 478.673,651.418 492,634.5C 497.822,623.227 500.655,611.227 500.5,598.5C 513.656,615.479 526.322,632.812 538.5,650.5C 538.5,652.5 538.5,654.5 538.5,656.5C 539.5,656.5 540.5,656.5 541.5,656.5C 560.368,684.585 573.535,715.252 581,748.5C 582.244,758.126 582.744,767.792 582.5,777.5C 499.069,774.141 419.069,755.974 342.5,723C 319.16,711.671 296.827,698.838 275.5,684.5C 298.591,680.104 321.925,676.438 345.5,673.5C 345.5,666.167 345.5,658.833 345.5,651.5C 346.499,605.003 346.832,558.336 346.5,511.5 Z"/></g>
<g><path style="opacity:0.012" fill="#00649b" d="M 36.5,530.5 C 35.8333,531.167 35.8333,531.167 36.5,530.5 Z"/></g>
<g><path style="opacity:0.792" fill="#9db0c3" d="M 1051.5,548.5 C 1050.5,575.662 1050.17,602.995 1050.5,630.5C 1049.34,602.67 1049.17,574.67 1050,546.5C 1050.72,547.044 1051.22,547.711 1051.5,548.5 Z"/></g>
<g><path style="opacity:1" fill="#fdfdfe" d="M 1051.5,548.5 C 1057.67,560.669 1066.34,570.669 1077.5,578.5C 1075.33,597.371 1071.99,616.038 1067.5,634.5C 1061.77,633.318 1056.11,631.984 1050.5,630.5C 1050.17,602.995 1050.5,575.662 1051.5,548.5 Z"/></g>
<g><path style="opacity:0.792" fill="#5fa0cf" d="M 940.5,552.5 C 939.833,583.833 939.167,615.167 938.5,646.5C 938.333,614.165 938.5,581.832 939,549.5C 939.513,550.527 940.013,551.527 940.5,552.5 Z"/></g>
<g><path style="opacity:1" fill="#ec194c" d="M 244.5,571.5 C 245.497,589.326 245.83,607.326 245.5,625.5C 245.828,637.012 245.495,648.346 244.5,659.5C 224.991,642.662 207.991,623.662 193.5,602.5C 214.825,599.016 231.825,588.683 244.5,571.5 Z"/></g>
<g><path style="opacity:0.998" fill="#fefcfd" d="M 500.5,570.5 C 513.55,586.883 526.217,603.549 538.5,620.5C 538.5,630.5 538.5,640.5 538.5,650.5C 526.322,632.812 513.656,615.479 500.5,598.5C 500.5,598.167 500.5,597.833 500.5,597.5C 500.5,588.5 500.5,579.5 500.5,570.5 Z"/></g>
<g><path style="opacity:0.769" fill="#7c2055" d="M 246.5,625.5 C 246.167,625.5 245.833,625.5 245.5,625.5C 245.83,607.326 245.497,589.326 244.5,571.5C 244.783,570.711 245.283,570.044 246,569.5C 246.5,588.164 246.667,606.83 246.5,625.5 Z"/></g>
<g><path style="opacity:0.843" fill="#3183bf" d="M 89.5,503.5 C 89.56,502.957 89.8933,502.624 90.5,502.5C 91.4999,552.829 91.8333,603.162 91.5,653.5C 90.8333,603.5 90.1667,553.5 89.5,503.5 Z"/></g>
<g><path style="opacity:0.765" fill="#004a8b" d="M 1118.5,576.5 C 1119.5,599.661 1119.83,622.994 1119.5,646.5C 1118.21,646.737 1117.21,646.404 1116.5,645.5C 1118.49,622.858 1119.16,599.858 1118.5,576.5 Z"/></g>
<g><path style="opacity:0.999" fill="#032d62" d="M 500.5,597.5 C 500.5,597.833 500.5,598.167 500.5,598.5C 500.655,611.227 497.822,623.227 492,634.5C 478.673,651.418 461.173,660.918 439.5,663C 409.468,665.97 379.468,669.137 349.5,672.5C 349.5,649.833 349.5,627.167 349.5,604.5C 357.482,603.354 365.482,602.354 373.5,601.5C 373.5,616.833 373.5,632.167 373.5,647.5C 398.763,644.176 424.097,641.342 449.5,639C 456.978,637.964 464.312,636.297 471.5,634C 487.74,627.003 497.407,614.837 500.5,597.5 Z"/></g>
<g><path style="opacity:0.998" fill="#fefdfd" d="M 193.5,602.5 C 207.991,623.662 224.991,642.662 244.5,659.5C 244.833,660.5 245.5,661.167 246.5,661.5C 246.5,669.5 246.5,677.5 246.5,685.5C 227.87,669.524 210.537,652.858 194.5,635.5C 228.531,747.671 295.864,833.505 396.5,893C 429.582,899.284 462.582,898.95 495.5,892C 544.029,877.297 572.029,844.797 579.5,794.5C 499.27,791.274 421.937,774.774 347.5,745C 312.703,730.453 280.703,711.619 251.5,688.5C 259.327,686.353 267.327,685.02 275.5,684.5C 296.827,698.838 319.16,711.671 342.5,723C 419.069,755.974 499.069,774.141 582.5,777.5C 582.744,767.792 582.244,758.126 581,748.5C 573.535,715.252 560.368,684.585 541.5,656.5C 547.979,655.509 554.646,655.176 561.5,655.5C 574.406,677.654 584.906,700.987 593,725.5C 598.203,742.789 600.369,760.455 599.5,778.5C 633.507,778.66 667.507,778.327 701.5,777.5C 705.014,737.244 707.014,696.911 707.5,656.5C 713.082,658.084 718.749,659.417 724.5,660.5C 723.692,698.899 721.692,737.232 718.5,775.5C 749.482,773.869 780.149,769.869 810.5,763.5C 819.595,720.216 833.262,678.55 851.5,638.5C 851.5,647.167 851.5,655.833 851.5,664.5C 853.861,664.674 856.194,665.007 858.5,665.5C 845.942,696.16 836.275,727.493 829.5,759.5C 871.349,749.277 910.682,733.111 947.5,711C 959.592,703.067 970.925,694.233 981.5,684.5C 988.711,685.343 995.711,686.677 1002.5,688.5C 979.245,711.061 952.912,729.395 923.5,743.5C 891.769,758.532 858.769,769.866 824.5,777.5C 822.668,793.451 822.168,809.451 823,825.5C 826.979,852.462 842.479,863.628 869.5,859C 875.203,857.824 880.87,856.491 886.5,855C 942.354,810.663 984.354,755.829 1012.5,690.5C 1023.55,692.244 1034.55,694.244 1045.5,696.5C 995.048,812.785 911.715,896.285 795.5,947C 657.26,1002.09 522.26,995.092 390.5,926C 274.697,859.841 197.863,762.674 160,634.5C 159.5,626.173 159.334,617.84 159.5,609.5C 170.891,607.422 182.224,605.088 193.5,602.5 Z"/></g>
<g><path style="opacity:1" fill="#ed184c" d="M 246.5,685.5 C 246.5,686.5 246.5,687.5 246.5,688.5C 248.167,688.5 249.833,688.5 251.5,688.5C 280.703,711.619 312.703,730.453 347.5,745C 421.937,774.774 499.27,791.274 579.5,794.5C 572.029,844.797 544.029,877.297 495.5,892C 462.582,898.95 429.582,899.284 396.5,893C 295.864,833.505 228.531,747.671 194.5,635.5C 210.537,652.858 227.87,669.524 246.5,685.5 Z"/></g>
<g><path style="opacity:1" fill="#ec184c" d="M 851.5,638.5 C 833.262,678.55 819.595,720.216 810.5,763.5C 780.149,769.869 749.482,773.869 718.5,775.5C 721.692,737.232 723.692,698.899 724.5,660.5C 751.385,665.078 778.385,665.578 805.5,662C 824.206,659.57 839.372,651.07 851,636.5C 851.464,637.094 851.631,637.761 851.5,638.5 Z"/></g>
<g><path style="opacity:0.89" fill="#bd1f52" d="M 245.5,625.5 C 245.833,625.5 246.167,625.5 246.5,625.5C 246.5,637.5 246.5,649.5 246.5,661.5C 245.5,661.167 244.833,660.5 244.5,659.5C 245.495,648.346 245.828,637.012 245.5,625.5 Z"/></g>
<g><path style="opacity:1" fill="#ec184c" d="M 858.5,665.5 C 899.773,670.283 940.773,676.616 981.5,684.5C 970.925,694.233 959.592,703.067 947.5,711C 910.682,733.111 871.349,749.277 829.5,759.5C 836.275,727.493 845.942,696.16 858.5,665.5 Z"/></g>
<g><path style="opacity:1" fill="#ed184c" d="M 1002.5,688.5 C 1006.08,688.549 1009.41,689.215 1012.5,690.5C 984.354,755.829 942.354,810.663 886.5,855C 880.87,856.491 875.203,857.824 869.5,859C 842.479,863.628 826.979,852.462 823,825.5C 822.168,809.451 822.668,793.451 824.5,777.5C 858.769,769.866 891.769,758.532 923.5,743.5C 952.912,729.395 979.245,711.061 1002.5,688.5 Z"/></g>
<g><path style="opacity:1" fill="#ed184c" d="M 803.5,781.5 C 804.873,781.343 806.207,781.51 807.5,782C 804.496,801.216 804.996,820.382 809,839.5C 815.95,863.104 831.783,875.604 856.5,877C 802.57,913.8 743.237,936.3 678.5,944.5C 689.734,921.571 697.901,897.571 703,872.5C 708.691,846.019 713.191,819.353 716.5,792.5C 745.956,791.36 774.956,787.693 803.5,781.5 Z"/></g>
<g><path style="opacity:1" fill="#ed184c" d="M 677.5,794.5 C 684.841,794.334 692.174,794.5 699.5,795C 695.806,822.33 690.972,849.497 685,876.5C 679.396,900.699 670.729,923.699 659,945.5C 658.255,946.99 657.088,947.99 655.5,948.5C 580.913,955.886 509.246,944.719 440.5,915C 469.267,915.913 496.934,910.913 523.5,900C 565.551,877.746 589.885,842.913 596.5,795.5C 623.672,795.831 650.672,795.498 677.5,794.5 Z"/></g>
</svg>
