<?xml version="1.0" encoding="UTF-8"?>
<!DOCTYPE svg PUBLIC "-//W3C//DTD SVG 1.1//EN" "http://www.w3.org/Graphics/SVG/1.1/DTD/svg11.dtd">
<svg xmlns="http://www.w3.org/2000/svg" version="1.1" width="2000px" height="2000px" style="shape-rendering:geometricPrecision; text-rendering:geometricPrecision; image-rendering:optimizeQuality; fill-rule:evenodd; clip-rule:evenodd" xmlns:xlink="http://www.w3.org/1999/xlink">
<g><path style="opacity:0.955" fill="#000000" d="M 996.5,37.5 C 1258.88,32.9733 1508.88,85.9733 1746.5,196.5C 1748.08,348.669 1733.58,499.336 1703,648.5C 1675.55,782.042 1629.55,908.709 1565,1028.5C 1480.55,1177.73 1369.72,1304.23 1232.5,1408C 1174.73,1450.9 1112.06,1485.57 1044.5,1512C 1036.85,1515.11 1029.02,1517.61 1021,1519.5C 989.325,1509.94 958.825,1497.44 929.5,1482C 859.246,1443.08 794.58,1396.41 735.5,1342C 633.094,1248.32 547.261,1141.82 478,1022.5C 415.663,909.504 370.663,789.838 343,663.5C 309.448,508.977 293.781,352.643 296,194.5C 337.392,174.055 379.892,156.221 423.5,141C 609.249,76.7102 800.249,42.2102 996.5,37.5 Z M 980.5,65.5 C 1238.06,58.7299 1484.06,108.397 1718.5,214.5C 1722.9,395.934 1700.4,573.934 1651,748.5C 1577.25,999.664 1439.09,1207.16 1236.5,1371C 1187.9,1409.53 1135.57,1442.53 1079.5,1470C 1060.81,1478.77 1041.64,1486.27 1022,1492.5C 987.358,1481.84 954.191,1467.67 922.5,1450C 851.874,1409.06 787.207,1360.06 728.5,1303C 632.295,1209.85 551.795,1105.02 487,988.5C 425.234,868.873 381.568,742.873 356,610.5C 329.269,478.731 319.269,345.731 326,211.5C 361.558,194.199 398.058,179.032 435.5,166C 612.25,105.148 793.917,71.6481 980.5,65.5 Z"/></g>
<g><path style="opacity:0.997" fill="#000000" d="M 972.5,83.5 C 1138.74,80.2114 1302.4,99.0448 1463.5,140C 1544.66,160.995 1623.32,188.828 1699.5,223.5C 1701.81,321.187 1696.98,418.521 1685,515.5C 1675.73,582.837 1661.73,649.17 1643,714.5C 1624.67,779.485 1602.67,843.151 1577,905.5C 1498.74,1074.77 1388.91,1220.27 1247.5,1342C 1190.29,1390.13 1127.29,1429.47 1058.5,1460C 1046.87,1464.6 1035.21,1469.1 1023.5,1473.5C 977.588,1457.38 934.255,1436.21 893.5,1410C 820.508,1361.39 753.675,1304.89 693,1240.5C 628.279,1172.14 571.612,1097.8 523,1017.5C 454.303,892.422 405.969,759.755 378,619.5C 351.438,489.482 339.938,358.149 343.5,225.5C 427.781,183.681 515.781,151.848 607.5,130C 727.689,101.768 849.356,86.2684 972.5,83.5 Z"/></g>
<g><path style="opacity:1" fill="#fdfdfd" d="M 1000.5,143.5 C 1003.6,143.154 1006.44,143.821 1009,145.5C 1009.67,157.833 1009.67,170.167 1009,182.5C 1008.17,183.333 1007.33,184.167 1006.5,185C 959.377,185.556 912.377,188.223 865.5,193C 851.432,194.841 837.432,197.008 823.5,199.5C 823.167,252.837 823.5,306.171 824.5,359.5C 846.668,355.544 869.002,352.711 891.5,351C 918.861,349.689 946.195,348.522 973.5,347.5C 974.086,347.709 974.586,348.043 975,348.5C 975.667,361.167 975.667,373.833 975,386.5C 974.626,387.416 974.126,388.25 973.5,389C 922.84,389.047 872.507,392.88 822.5,400.5C 822.5,460.5 822.5,520.5 822.5,580.5C 884.244,571.692 946.078,568.026 1008,569.5C 1008.67,582.167 1008.67,594.833 1008,607.5C 1007.25,608.126 1006.42,608.626 1005.5,609C 926.829,609.802 848.662,616.302 771,628.5C 769.236,628.456 767.569,628.122 766,627.5C 764.708,473.835 764.375,320.168 765,166.5C 765.903,165.299 767.069,164.465 768.5,164C 845.449,151.377 922.783,144.544 1000.5,143.5 Z"/></g>
<g><path style="opacity:1" fill="#fcfcfc" d="M 1218.5,196.5 C 1217.79,195.596 1216.79,195.263 1215.5,195.5C 1215.5,335.5 1215.5,475.5 1215.5,615.5C 1215.39,616.117 1215.06,616.617 1214.5,617C 1196.46,616.998 1178.46,615.998 1160.5,614C 1158.95,612.786 1157.78,611.286 1157,609.5C 1156.5,469.834 1156.33,330.167 1156.5,190.5C 1118.9,187.448 1081.23,185.614 1043.5,185C 1043,184.5 1042.5,184 1042,183.5C 1041.83,177 1041.67,170.5 1041.5,164C 1041.52,157.094 1042.19,150.428 1043.5,144C 1121.49,144.977 1199.16,150.644 1276.5,161C 1294.63,163.779 1312.63,167.113 1330.5,171C 1331,171.5 1331.5,172 1332,172.5C 1332.67,184.833 1332.67,197.167 1332,209.5C 1330.67,211.833 1328.67,212.833 1326,212.5C 1290.34,205.906 1254.51,200.572 1218.5,196.5 Z"/></g>
<g><path style="opacity:1" fill="#fdfdfd" d="M 703.5,176.5 C 706.448,176.223 709.281,176.556 712,177.5C 711.838,330.499 711.505,483.499 711,636.5C 710.727,638.329 709.893,639.829 708.5,641C 686.678,646.955 664.678,652.289 642.5,657C 638.882,657.966 635.549,657.466 632.5,655.5C 587.971,542.579 543.637,429.579 499.5,316.5C 498.675,315.614 497.675,315.281 496.5,315.5C 497.583,442.164 498.083,568.831 498,695.5C 497.215,697.286 496.049,698.786 494.5,700C 480.06,704.721 465.727,709.721 451.5,715C 448.692,715.92 446.525,715.087 445,712.5C 444.333,559.833 444.333,407.167 445,254.5C 446.167,253.333 447.333,252.167 448.5,251C 469.833,243 491.167,235 512.5,227C 515.025,226.104 517.192,226.604 519,228.5C 564.333,342.5 609.667,456.5 655,570.5C 655.71,571.973 656.876,572.64 658.5,572.5C 657.607,445.159 656.774,317.826 656,190.5C 656.465,189.069 657.299,187.903 658.5,187C 673.587,183.309 688.587,179.809 703.5,176.5 Z"/></g>
<g><path style="opacity:1" fill="#fdfdfd" d="M 1421.5,191.5 C 1441.16,191.428 1460.49,193.928 1479.5,199C 1502.62,206.041 1524.95,215.041 1546.5,226C 1574.5,242.177 1593.33,265.677 1603,296.5C 1603.67,299.833 1604.33,303.167 1605,306.5C 1606.55,333.827 1607.55,361.16 1608,388.5C 1606.97,390.516 1605.31,391.516 1603,391.5C 1586.95,386.261 1571.12,380.428 1555.5,374C 1553.91,372.954 1552.41,371.787 1551,370.5C 1566.24,286.281 1531.41,241.614 1446.5,236.5C 1427.68,236.473 1416.51,245.806 1413,264.5C 1411.61,284.29 1413.94,303.624 1420,322.5C 1422.49,328.157 1425.49,333.49 1429,338.5C 1440.29,352.792 1451.96,366.792 1464,380.5C 1499.06,416.229 1533.4,452.562 1567,489.5C 1582.01,506.525 1594.68,525.191 1605,545.5C 1615.48,575.779 1618.48,606.779 1614,638.5C 1606.19,675.092 1583.52,692.092 1546,689.5C 1520.51,689.169 1495.68,685.002 1471.5,677C 1442.23,668.7 1414.9,656.366 1389.5,640C 1360.52,619.535 1343.68,591.701 1339,556.5C 1338.33,531.167 1338.33,505.833 1339,480.5C 1340.13,479.056 1341.63,478.39 1343.5,478.5C 1360.17,481.666 1376.83,484.833 1393.5,488C 1394.67,488.5 1395.5,489.333 1396,490.5C 1396.33,515.5 1396.67,540.5 1397,565.5C 1403.96,589.914 1418.46,608.414 1440.5,621C 1470.43,637.818 1502.43,645.151 1536.5,643C 1548.4,639.094 1555.24,630.928 1557,618.5C 1557.67,601.167 1557.67,583.833 1557,566.5C 1550.8,547.423 1541.46,530.09 1529,514.5C 1525,509.833 1521,505.167 1517,500.5C 1474.64,458.472 1432.64,416.139 1391,373.5C 1372.86,351.558 1360.86,326.558 1355,298.5C 1354.33,285.5 1354.33,272.5 1355,259.5C 1356.44,246.173 1360.11,233.506 1366,221.5C 1375.57,208.117 1388.4,199.284 1404.5,195C 1410.33,193.961 1415.99,192.795 1421.5,191.5 Z"/></g>
<g><path style="opacity:1" fill="#555555" d="M 1218.5,196.5 C 1216.83,335.997 1215.83,475.664 1215.5,615.5C 1215.5,475.5 1215.5,335.5 1215.5,195.5C 1216.79,195.263 1217.79,195.596 1218.5,196.5 Z"/></g>
<g><path style="opacity:1" fill="#fcfcfc" d="M 1001.5,678.5 C 1112.37,676.154 1204.87,715.821 1279,797.5C 1300.04,822.237 1315.37,850.237 1325,881.5C 1326.91,888.364 1327.74,895.364 1327.5,902.5C 1326.8,915.915 1325.3,929.248 1323,942.5C 1321.12,949.474 1318.45,956.141 1315,962.5C 1311.64,967.356 1307.48,971.356 1302.5,974.5C 1276.86,897.106 1235.53,829.606 1178.5,772C 1125.94,721.557 1063.27,691.724 990.5,682.5C 990.5,681.5 990.5,680.5 990.5,679.5C 994.371,679.815 998.038,679.482 1001.5,678.5 Z"/></g>
<g><path style="opacity:1" fill="#fefefe" d="M 1156.5,1133.5 C 1155.51,1140.31 1155.18,1147.31 1155.5,1154.5C 1156.79,1154.74 1157.79,1154.4 1158.5,1153.5C 1205.47,1144.34 1250.63,1129.68 1294,1109.5C 1293.46,1131.23 1289.96,1152.4 1283.5,1173C 1239.33,1197.59 1194.99,1221.92 1150.5,1246C 1121.83,1260.56 1092.83,1274.56 1063.5,1288C 1033.35,1301.37 1002.02,1310.7 969.5,1316C 940.128,1319.4 910.794,1319.07 881.5,1315C 833.606,1297.3 793.773,1268.47 762,1228.5C 725.043,1181.91 701.043,1129.24 690,1070.5C 689.084,1065.51 688.75,1060.51 689,1055.5C 710.652,1083.83 737.152,1106.33 768.5,1123C 809.907,1145.3 853.907,1159.47 900.5,1165.5C 900.5,1156.83 900.5,1148.17 900.5,1139.5C 846.435,1128.53 794.768,1110.7 745.5,1086C 722.337,1073.18 702.503,1056.34 686,1035.5C 683.996,972.853 696.329,913.186 723,856.5C 726.217,850.563 730.051,845.063 734.5,840C 776.715,838.06 817.382,845.06 856.5,861C 871.774,866.869 886.607,873.703 901,881.5C 901.831,874.476 901.664,867.476 900.5,860.5C 875.976,846.903 850.31,836.07 823.5,828C 797.515,821.025 771.181,819.025 744.5,822C 784.96,767.092 836.96,727.092 900.5,702C 917.167,695.167 934.5,692 952.5,692.5C 1017.47,694.654 1076.13,714.821 1128.5,753C 1207.05,811.841 1258.88,889.007 1284,984.5C 1284.81,986.902 1284.65,989.235 1283.5,991.5C 1260.9,999.876 1237.56,1002.71 1213.5,1000C 1185.85,997.06 1159.52,989.56 1134.5,977.5C 1133.01,983.305 1130.35,988.471 1126.5,993C 1132.3,997.794 1136.97,1003.46 1140.5,1010C 1163.46,1016.91 1186.79,1022.24 1210.5,1026C 1225.5,1026.67 1240.5,1026.67 1255.5,1026C 1267.92,1023.92 1279.59,1019.75 1290.5,1013.5C 1292.5,1019.67 1293.67,1026 1294,1032.5C 1295.49,1051.16 1295.66,1069.83 1294.5,1088.5C 1250.04,1108.32 1204.04,1123.32 1156.5,1133.5 Z"/></g>
<g><path style="opacity:1" fill="#010101" d="M 932.5,777.5 C 971.168,777.333 1009.83,777.5 1048.5,778C 1078.91,780.738 1099.08,796.572 1109,825.5C 1110.98,833.056 1112.31,840.723 1113,848.5C 1113.45,881.177 1113.79,913.843 1114,946.5C 1113.04,968.268 1103.87,985.435 1086.5,998C 1109.76,1008.6 1124.26,1026.44 1130,1051.5C 1130.67,1098.5 1130.67,1145.5 1130,1192.5C 1123.14,1226.69 1102.98,1248.86 1069.5,1259C 1062.29,1260.86 1054.96,1261.86 1047.5,1262C 1010.49,1262.47 973.492,1262.8 936.5,1263C 931.727,1261.23 928.227,1258.06 926,1253.5C 925.333,1097.17 925.333,940.833 926,784.5C 927.694,781.642 929.861,779.309 932.5,777.5 Z"/></g>
<g><path style="opacity:1" fill="#fdfdfd" d="M 982.5,828.5 C 999.837,828.333 1017.17,828.5 1034.5,829C 1046.22,830.757 1053.72,837.257 1057,848.5C 1057.67,878.833 1057.67,909.167 1057,939.5C 1055.35,958.49 1045.18,969.99 1026.5,974C 1011.84,974.5 997.17,974.667 982.5,974.5C 982.5,925.833 982.5,877.167 982.5,828.5 Z"/></g>
<g><path style="opacity:1" fill="#fbfbfb" d="M 1344.5,932.5 C 1346.83,936.513 1348.67,940.846 1350,945.5C 1356.42,970.099 1358.75,995.099 1357,1020.5C 1350.68,1037.99 1341.18,1053.49 1328.5,1067C 1324.95,1070.22 1321.11,1073.05 1317,1075.5C 1316.54,1050.2 1313.7,1025.2 1308.5,1000.5C 1327.33,981.514 1339.33,958.847 1344.5,932.5 Z"/></g>
<g><path style="opacity:1" fill="#fefefe" d="M 1025.5,1028.5 C 1049.01,1029.53 1065.18,1040.87 1074,1062.5C 1074.67,1100.5 1074.67,1138.5 1074,1176.5C 1072.61,1192.16 1064.77,1203 1050.5,1209C 1038.55,1210.11 1026.55,1210.61 1014.5,1210.5C 1003.99,1210.5 993.661,1210.17 983.5,1209.5C 983.5,1149.17 983.5,1088.83 983.5,1028.5C 997.5,1028.5 1011.5,1028.5 1025.5,1028.5 Z"/></g>
<g><path style="opacity:1" fill="#bfbfbf" d="M 1025.5,1028.5 C 1011.5,1028.5 997.5,1028.5 983.5,1028.5C 983.5,1088.83 983.5,1149.17 983.5,1209.5C 982.501,1149 982.168,1088.34 982.5,1027.5C 997.01,1027.17 1011.34,1027.5 1025.5,1028.5 Z"/></g>
<g><path style="opacity:1" fill="#fafafa" d="M 1352.5,1057.5 C 1350.68,1089.33 1343.18,1120 1330,1149.5C 1327.66,1154.86 1324.82,1159.86 1321.5,1164.5C 1319.48,1163.83 1317.82,1162.66 1316.5,1161C 1312.8,1160.42 1309.13,1160.59 1305.5,1161.5C 1308.63,1148.26 1311.47,1134.92 1314,1121.5C 1315.47,1113.56 1316.47,1105.56 1317,1097.5C 1333.23,1088 1345.07,1074.67 1352.5,1057.5 Z"/></g>
<g><path style="opacity:1" fill="#757575" d="M 1156.5,1133.5 C 1155.87,1140.58 1156.54,1147.25 1158.5,1153.5C 1157.79,1154.4 1156.79,1154.74 1155.5,1154.5C 1155.18,1147.31 1155.51,1140.31 1156.5,1133.5 Z"/></g>
<g><path style="opacity:1" fill="#f3f3f3" d="M 1270.5,1237.5 C 1278.48,1223.54 1285.98,1209.2 1293,1194.5C 1295.47,1189.77 1297.13,1184.77 1298,1179.5C 1301.95,1176.1 1306.45,1174.27 1311.5,1174C 1312.02,1174.56 1312.36,1175.23 1312.5,1176C 1309.86,1184.45 1306.03,1192.28 1301,1199.5C 1291.73,1212.93 1281.56,1225.6 1270.5,1237.5 Z"/></g>
<g><path style="opacity:1" fill="#fcfcfc" d="M 1276.5,1194.5 C 1269.7,1220.09 1257.53,1243.09 1240,1263.5C 1206.1,1299.67 1164.93,1323.83 1116.5,1336C 1062.07,1350.58 1007.07,1353.25 951.5,1344C 937.305,1341.71 923.972,1337.05 911.5,1330C 964.273,1335.65 1015.61,1329.32 1065.5,1311C 1095.46,1299.79 1124.46,1286.46 1152.5,1271C 1194.73,1246.73 1236.07,1221.23 1276.5,1194.5 Z"/></g>
<g><path style="opacity:1" fill="#767676" d="M 1270.5,1237.5 C 1270.54,1238.76 1270.04,1239.76 1269,1240.5C 1268.42,1239 1268.92,1238 1270.5,1237.5 Z"/></g>
<g><path style="opacity:0.983" fill="#000000" d="M 971.5,1597.5 C 997.834,1596.09 1019.33,1605.43 1036,1625.5C 1043.51,1636.7 1047.84,1649.03 1049,1662.5C 1049.99,1742.87 1049.65,1823.2 1048,1903.5C 1041.72,1930.45 1025.22,1947.61 998.5,1955C 966.966,1962.77 939.799,1955.27 917,1932.5C 907.142,1919.93 901.808,1905.6 901,1889.5C 900.021,1811.81 900.354,1734.14 902,1656.5C 911.619,1620.79 934.786,1601.12 971.5,1597.5 Z"/></g>
<g><path style="opacity:0.983" fill="#010101" d="M 801.5,1598.5 C 829.423,1595.89 852.256,1605.23 870,1626.5C 877.719,1637.99 882.052,1650.66 883,1664.5C 883.983,1744.53 883.649,1824.53 882,1904.5C 873.31,1935.85 852.81,1953.69 820.5,1958C 788.725,1961.36 763.558,1950.19 745,1924.5C 739.045,1914.3 735.711,1903.3 735,1891.5C 734.018,1813.14 734.351,1734.8 736,1656.5C 742.206,1631.63 757.039,1614.13 780.5,1604C 787.509,1601.67 794.509,1599.83 801.5,1598.5 Z"/></g>
<g><path style="opacity:0.972" fill="#000000" d="M 1069.5,1600.5 C 1080.17,1600.33 1090.84,1600.5 1101.5,1601C 1102,1601.5 1102.5,1602 1103,1602.5C 1103.33,1649.5 1103.67,1696.5 1104,1743.5C 1128.26,1696.66 1152.26,1649.66 1176,1602.5C 1182.26,1601.84 1188.59,1601.51 1195,1601.5C 1214.79,1596.68 1219.46,1602.68 1209,1619.5C 1186.91,1660.68 1165.08,1702.01 1143.5,1743.5C 1167.1,1808.46 1190.6,1873.46 1214,1938.5C 1214.8,1942.75 1214.63,1946.92 1213.5,1951C 1202.17,1951.67 1190.83,1951.67 1179.5,1951C 1178.69,1950.69 1178.03,1950.19 1177.5,1949.5C 1158.26,1896.03 1138.76,1842.7 1119,1789.5C 1114.25,1798.66 1109.25,1807.66 1104,1816.5C 1103.67,1860.83 1103.33,1905.17 1103,1949.5C 1097.41,1950.81 1091.58,1951.48 1085.5,1951.5C 1079.42,1951.48 1073.59,1950.81 1068,1949.5C 1066.91,1834.17 1066.57,1718.83 1067,1603.5C 1067.7,1602.31 1068.53,1601.31 1069.5,1600.5 Z"/></g>
<g><path style="opacity:0.97" fill="#000000" d="M 1229.5,1601.5 C 1239.82,1602.1 1250.16,1602.6 1260.5,1603C 1261.7,1603.9 1262.53,1605.07 1263,1606.5C 1263.5,1710.5 1263.67,1814.5 1263.5,1918.5C 1291.17,1918.33 1318.84,1918.5 1346.5,1919C 1347.93,1919.47 1349.1,1920.3 1350,1921.5C 1350.67,1930.5 1350.67,1939.5 1350,1948.5C 1349.5,1950.33 1348.33,1951.5 1346.5,1952C 1307.83,1952.67 1269.17,1952.67 1230.5,1952C 1228.15,1951.89 1226.65,1950.72 1226,1948.5C 1225.33,1833.83 1225.33,1719.17 1226,1604.5C 1227.15,1603.36 1228.31,1602.36 1229.5,1601.5 Z"/></g>
<g><path style="opacity:0.968" fill="#000000" d="M 1443.5,1601.5 C 1453.2,1602.28 1462.86,1602.45 1472.5,1602C 1476.91,1602.75 1478.41,1605.25 1477,1609.5C 1453.67,1672.83 1430.33,1736.17 1407,1799.5C 1406.67,1849.5 1406.33,1899.5 1406,1949.5C 1405.63,1950.42 1405.13,1951.25 1404.5,1952C 1393.83,1952.67 1383.17,1952.67 1372.5,1952C 1371.9,1900.89 1371.06,1849.73 1370,1798.5C 1348.47,1738.24 1327.14,1677.91 1306,1617.5C 1304.27,1613.98 1303.6,1610.32 1304,1606.5C 1304.5,1604.67 1305.67,1603.5 1307.5,1603C 1317.83,1602.33 1328.17,1602.33 1338.5,1603C 1339.67,1604.17 1340.83,1605.33 1342,1606.5C 1358,1653.83 1374,1701.17 1390,1748.5C 1406.73,1700.98 1423.06,1653.32 1439,1605.5C 1440.4,1603.93 1441.9,1602.6 1443.5,1601.5 Z"/></g>
<g><path style="opacity:0.983" fill="#000000" d="M 412.5,1602.5 C 444.865,1602.94 477.198,1603.78 509.5,1605C 525.93,1609.76 536.763,1620.26 542,1636.5C 543.637,1668.79 543.971,1701.12 543,1733.5C 539.873,1746.1 533.04,1756.1 522.5,1763.5C 540.242,1769.74 551.075,1782.08 555,1800.5C 555.667,1835.83 555.667,1871.17 555,1906.5C 551.467,1923.72 541.967,1936.56 526.5,1945C 520.411,1948.25 514.078,1950.92 507.5,1953C 476.5,1953.67 445.5,1953.67 414.5,1953C 413.874,1952.25 413.374,1951.42 413,1950.5C 412.5,1834.5 412.333,1718.5 412.5,1602.5 Z"/></g>
<g><path style="opacity:0.967" fill="#000000" d="M 1486.5,1602.5 C 1500.17,1602.33 1513.84,1602.5 1527.5,1603C 1528.7,1603.9 1529.53,1605.07 1530,1606.5C 1552.82,1697.46 1575.49,1788.46 1598,1879.5C 1596.96,1787.83 1595.96,1696.17 1595,1604.5C 1595.5,1604 1596,1603.5 1596.5,1603C 1606.83,1602.33 1617.17,1602.33 1627.5,1603C 1629.33,1603.5 1630.5,1604.67 1631,1606.5C 1631.67,1720.5 1631.67,1834.5 1631,1948.5C 1630.89,1950.85 1629.72,1952.35 1627.5,1953C 1614.5,1953.67 1601.5,1953.67 1588.5,1953C 1585.77,1952.6 1583.93,1951.1 1583,1948.5C 1561.49,1860.8 1539.82,1773.13 1518,1685.5C 1518.49,1773.83 1518.49,1862.16 1518,1950.5C 1517.17,1951.33 1516.33,1952.17 1515.5,1953C 1505.5,1953.67 1495.5,1953.67 1485.5,1953C 1485,1952.5 1484.5,1952 1484,1951.5C 1483.33,1836.17 1483.33,1720.83 1484,1605.5C 1484.7,1604.31 1485.53,1603.31 1486.5,1602.5 Z"/></g>
<g><path style="opacity:0.978" fill="#000000" d="M 652.5,1603.5 C 676.616,1602.47 695.45,1611.8 709,1631.5C 712.181,1637.53 714.514,1643.86 716,1650.5C 716.955,1682.53 716.622,1714.53 715,1746.5C 711.349,1757.62 704.849,1766.78 695.5,1774C 688.094,1779.03 680.428,1783.53 672.5,1787.5C 691.667,1837.83 710.833,1888.17 730,1938.5C 731.457,1942.74 731.791,1947.07 731,1951.5C 730.25,1952.13 729.416,1952.63 728.5,1953C 717.833,1953.67 707.167,1953.67 696.5,1953C 675.445,1899.04 654.778,1844.88 634.5,1790.5C 626.193,1789.5 617.86,1789.17 609.5,1789.5C 608.693,1842.82 608.193,1896.15 608,1949.5C 606.512,1952.12 604.179,1953.46 601,1953.5C 593.162,1952.18 585.329,1952.18 577.5,1953.5C 575.971,1953.47 574.804,1952.8 574,1951.5C 572.681,1835.84 571.848,1720.18 571.5,1604.5C 598.672,1604.83 625.672,1604.5 652.5,1603.5 Z"/></g>
<g><path style="opacity:1" fill="#fefefe" d="M 799.5,1633.5 C 817.619,1631.15 832.119,1637.15 843,1651.5C 845.435,1656.24 847.101,1661.24 848,1666.5C 848.667,1740.83 848.667,1815.17 848,1889.5C 844,1911.32 830.834,1922.66 808.5,1923.5C 788.67,1922.67 776.17,1912.67 771,1893.5C 770.333,1815.83 770.333,1738.17 771,1660.5C 775.553,1646.11 785.053,1637.11 799.5,1633.5 Z"/></g>
<g><path style="opacity:1" fill="#fefefe" d="M 966.5,1632.5 C 982.549,1630.9 996.049,1635.9 1007,1647.5C 1010.42,1652.34 1012.75,1657.68 1014,1663.5C 1014.67,1739.17 1014.67,1814.83 1014,1890.5C 1007.59,1915.64 991.419,1926.14 965.5,1922C 950.224,1917.72 940.724,1907.89 937,1892.5C 936.333,1815.17 936.333,1737.83 937,1660.5C 941.858,1645.81 951.691,1636.47 966.5,1632.5 Z"/></g>
<g><path style="opacity:1" fill="#fdfdfd" d="M 448.5,1636.5 C 461.171,1636.33 473.838,1636.5 486.5,1637C 497.105,1637.28 503.938,1642.45 507,1652.5C 507.667,1676.5 507.667,1700.5 507,1724.5C 504.009,1738.82 495.175,1746.99 480.5,1749C 469.839,1749.5 459.172,1749.67 448.5,1749.5C 448.5,1711.83 448.5,1674.17 448.5,1636.5 Z"/></g>
<g><path style="opacity:1" fill="#fdfdfd" d="M 608.5,1636.5 C 624.837,1636.33 641.17,1636.5 657.5,1637C 669.87,1638.87 677.036,1646.03 679,1658.5C 679.667,1684.17 679.667,1709.83 679,1735.5C 677.247,1746.25 671.08,1752.75 660.5,1755C 643.17,1755.5 625.837,1755.67 608.5,1755.5C 608.5,1715.83 608.5,1676.17 608.5,1636.5 Z"/></g>
<g><path style="opacity:1" fill="#fdfdfd" d="M 448.5,1782.5 C 461.837,1782.33 475.171,1782.5 488.5,1783C 505.65,1785.15 516.15,1794.65 520,1811.5C 520.167,1824.67 520.333,1837.83 520.5,1851C 520.616,1866.2 520.116,1881.37 519,1896.5C 516.578,1909.25 509.078,1917.09 496.5,1920C 480.503,1920.5 464.503,1920.67 448.5,1920.5C 448.5,1874.5 448.5,1828.5 448.5,1782.5 Z"/></g>
</svg>
