<?xml version="1.0" encoding="UTF-8"?>
<!DOCTYPE svg PUBLIC "-//W3C//DTD SVG 1.1//EN" "http://www.w3.org/Graphics/SVG/1.1/DTD/svg11.dtd">
<svg xmlns="http://www.w3.org/2000/svg" version="1.1" width="1280px" height="924px" style="shape-rendering:geometricPrecision; text-rendering:geometricPrecision; image-rendering:optimizeQuality; fill-rule:evenodd; clip-rule:evenodd" xmlns:xlink="http://www.w3.org/1999/xlink">
<g><path style="opacity:0.996" fill="#fefefe" d="M 784.5,-0.5 C 804.833,-0.5 825.167,-0.5 845.5,-0.5C 1000.76,13.6772 1121.26,85.3439 1207,214.5C 1276.63,328.892 1295.3,451.226 1263,581.5C 1225.32,715.828 1144.48,814.662 1020.5,878C 965.263,904.141 907.263,919.308 846.5,923.5C 825.167,923.5 803.833,923.5 782.5,923.5C 681.843,917.148 592.843,881.981 515.5,818C 495.021,800.192 476.687,780.526 460.5,759C 423.833,758.333 387.167,758.333 350.5,759C 325.06,787.046 295.06,808.713 260.5,824C 226.845,837.618 192.511,839.618 157.5,830C 63.5342,808.54 10.8675,750.04 -0.5,654.5C -0.5,627.833 -0.5,601.167 -0.5,574.5C 4.20714,525.354 18.3738,479.021 42,435.5C 62.1613,399.686 89.6613,370.853 124.5,349C 106.101,348.961 87.768,348.294 69.5,347C 65.3074,345.474 62.4741,342.641 61,338.5C 60.3687,333.655 61.0354,328.988 63,324.5C 120.5,255.667 178,186.833 235.5,118C 243.667,112.386 252.667,108.72 262.5,107C 348.167,106.667 433.833,106.333 519.5,106C 562.771,66.3489 612.771,38.0156 669.5,21C 707.216,9.75506 745.549,2.58839 784.5,-0.5 Z"/></g>
<g><path style="opacity:1" fill="#ea2350" d="M 315.5,714.5 C 305.833,713.167 296.167,713.167 286.5,714.5C 253.832,714.667 221.165,714.5 188.5,714C 182.108,710.713 179.275,705.546 180,698.5C 180.833,697 182,695.833 183.5,695C 481.833,694.333 780.167,694.333 1078.5,695C 1080.46,706.561 1075.46,712.728 1063.5,713.5C 1020.5,713.5 977.5,713.5 934.5,713.5C 934.5,720.167 934.5,726.833 934.5,733.5C 933.223,766.052 926.39,797.386 914,827.5C 910.882,834.239 907.382,840.739 903.5,847C 1009.72,822.751 1092.22,764.918 1151,673.5C 1207.13,579.485 1223.8,478.819 1201,371.5C 1187.95,315.23 1163.11,265.063 1126.5,221C 1095.59,230.246 1063.93,235.912 1031.5,238C 943.494,247.04 858.827,234.373 777.5,200C 761.474,192.663 746.474,183.83 732.5,173.5C 715.551,179.475 699.217,186.808 683.5,195.5C 715.306,218.801 743.806,245.801 769,276.5C 773.674,282.519 777.841,288.853 781.5,295.5C 891.828,297.498 1002.49,298.165 1113.5,297.5C 1119.27,298.764 1122.93,302.264 1124.5,308C 1124.36,310.151 1123.36,311.818 1121.5,313C 796.5,313.667 471.5,313.667 146.5,313C 143.413,307.892 144.413,303.558 149.5,300C 151.65,298.589 153.984,297.755 156.5,297.5C 250.839,298.164 344.839,297.498 438.5,295.5C 442.262,283.808 447.262,272.641 453.5,262C 361.167,261.667 268.833,261.333 176.5,261C 174.016,258.716 173.849,256.216 176,253.5C 178.1,250.533 180.934,248.7 184.5,248C 277.167,247.667 369.833,247.333 462.5,247C 470.011,235.646 478.011,224.646 486.5,214C 396.5,213.667 306.5,213.333 216.5,213C 215.168,205.268 218.501,200.268 226.5,198C 317.5,197.667 408.5,197.333 499.5,197C 507.26,186.072 516.26,176.238 526.5,167.5C 527.043,167.44 527.376,167.107 527.5,166.5C 440.836,165.5 354.169,165.167 267.5,165.5C 266.883,165.389 266.383,165.056 266,164.5C 265.007,157.787 267.84,153.287 274.5,151C 365.167,150.667 455.833,150.333 546.5,150C 655.223,59.9047 778.89,29.9047 917.5,60C 1049.12,95.9534 1142.95,176.12 1199,300.5C 1235.68,389.101 1241.68,479.768 1217,572.5C 1181.91,691.553 1109.08,779.053 998.5,835C 900.767,880.685 800.1,888.352 696.5,858C 611.713,832.303 542.046,784.803 487.5,715.5C 430.171,714.5 372.837,714.167 315.5,714.5 Z"/></g>
<g><path style="opacity:1" fill="#fefdfd" d="M 794.5,69.5 C 861.193,66.9265 924.859,79.4265 985.5,107C 992.833,111 1000.17,115 1007.5,119C 935.588,111.286 864.254,114.953 793.5,130C 775.626,134.343 758.126,139.843 741,146.5C 735.238,143.055 731.238,138.055 729,131.5C 723.176,114.053 724.842,97.3867 734,81.5C 735.395,79.8603 736.895,78.3603 738.5,77C 757.247,74.0129 775.913,71.5129 794.5,69.5 Z"/></g>
<g><path style="opacity:1" fill="#fefdfd" d="M 710.5,83.5 C 711.376,83.3691 712.043,83.7025 712.5,84.5C 709.975,89.2423 708.141,94.2423 707,99.5C 705.673,113.699 706.673,127.699 710,141.5C 711.629,145.931 714.129,149.764 717.5,153C 697.21,161.562 677.377,171.062 658,181.5C 638.805,171.485 618.972,162.985 598.5,156C 591.943,153.98 585.276,152.48 578.5,151.5C 593.923,138.611 610.59,127.445 628.5,118C 654.928,104.034 682.261,92.5339 710.5,83.5 Z"/></g>
<g><path style="opacity:1" fill="#fefefe" d="M 908.5,135.5 C 948.379,133.992 988.046,136.159 1027.5,142C 1038.47,143.546 1048.8,146.879 1058.5,152C 1075.93,166.764 1092.77,182.264 1109,198.5C 1109.64,199.966 1110.47,201.3 1111.5,202.5C 1080.48,211.504 1048.81,217.004 1016.5,219C 955.364,224.191 895.364,218.191 836.5,201C 810.994,193.577 786.994,182.911 764.5,169C 762.5,167.333 760.5,165.667 758.5,164C 779.278,154.854 800.945,148.521 823.5,145C 851.831,140.473 880.164,137.306 908.5,135.5 Z"/></g>
<g><path style="opacity:1" fill="#ee4c71" d="M 267.5,165.5 C 354.169,165.167 440.836,165.5 527.5,166.5C 527.376,167.107 527.043,167.44 526.5,167.5C 440.167,166.833 353.833,166.167 267.5,165.5 Z"/></g>
<g><path style="opacity:1" fill="#fefdfd" d="M 556.5,166.5 C 584.336,170.056 610.336,178.89 634.5,193C 617.012,201.338 601.012,211.838 586.5,224.5C 567.051,213.294 546.384,205.127 524.5,200C 535.006,188.661 545.672,177.495 556.5,166.5 Z"/></g>
<g><path style="opacity:1" fill="#fefefe" d="M 657.5,205.5 C 663.449,206.64 668.782,209.14 673.5,213C 695.218,229.714 715.385,248.214 734,268.5C 741.442,277.22 748.276,286.387 754.5,296C 723.167,296.667 691.833,296.667 660.5,296C 645.826,273.49 627.826,253.99 606.5,237.5C 622.475,225.19 639.475,214.524 657.5,205.5 Z"/></g>
<g><path style="opacity:1" fill="#fefdfd" d="M 510.5,217.5 C 523.51,219.669 536.177,223.169 548.5,228C 555.276,230.554 561.609,233.887 567.5,238C 546.892,256.606 526.892,275.939 507.5,296C 492.17,296.5 476.837,296.667 461.5,296.5C 473.533,267.42 489.866,241.087 510.5,217.5 Z"/></g>
<g><path style="opacity:1" fill="#fefefe" d="M 584.5,249.5 C 586.783,249.608 588.783,250.441 590.5,252C 606.537,265.036 620.87,279.703 633.5,296C 600.5,296.667 567.5,296.667 534.5,296C 550.16,279.165 566.826,263.665 584.5,249.5 Z"/></g>
<g><path style="opacity:1" fill="#eb305b" d="M 438.5,295.5 C 344.839,297.498 250.839,298.164 156.5,297.5C 250.402,296.831 344.402,296.164 438.5,295.5 Z"/></g>
<g><path style="opacity:1" fill="#eb2e5a" d="M 781.5,295.5 C 892.264,296.165 1002.93,296.831 1113.5,297.5C 1002.49,298.165 891.828,297.498 781.5,295.5 Z"/></g>
<g><path style="opacity:1" fill="#166cb5" d="M 286.5,714.5 C 296.167,713.167 305.833,713.167 315.5,714.5C 295.5,740.671 270.834,761.171 241.5,776C 176.082,800.189 122.249,784.689 80,729.5C 60.6266,700.386 48.96,668.386 45,633.5C 37.1114,547.502 61.7781,472.502 119,408.5C 183.806,342.72 259.973,324.886 347.5,355C 366.073,358.272 384.739,359.272 403.5,358C 404.342,363.847 403.842,369.68 402,375.5C 395.233,398.718 388.733,422.051 382.5,445.5C 382.167,445.833 381.833,446.167 381.5,446.5C 367.106,384.808 328.439,357.308 265.5,364C 227.883,373.387 198.383,394.221 177,426.5C 133.571,490.791 111.905,561.791 112,639.5C 113.057,672.34 123.057,702.006 142,728.5C 172.878,761.552 208.378,767.385 248.5,746C 262.815,737.521 275.481,727.021 286.5,714.5 Z"/></g>
<g><path style="opacity:1" fill="#1b6eb6" d="M 527.5,352.5 C 554.007,351.853 564.174,364.52 558,390.5C 551.088,409.041 537.921,416.208 518.5,412C 507.897,407.141 502.897,398.808 503.5,387C 503.955,370.074 511.955,358.574 527.5,352.5 Z"/></g>
<g><path style="opacity:1" fill="#1d6fb6" d="M 626.5,370.5 C 622.5,370.5 618.5,370.5 614.5,370.5C 614.737,369.209 614.404,368.209 613.5,367.5C 611.46,363.895 608.294,362.228 604,362.5C 598.742,362.266 595.242,364.6 593.5,369.5C 593.864,372.032 595.197,373.865 597.5,375C 604.277,377.027 610.943,379.361 617.5,382C 623.25,388.784 624.083,396.284 620,404.5C 616.209,409.812 611.043,412.646 604.5,413C 594.583,415.137 586.083,412.637 579,405.5C 576.505,401.515 575.338,397.182 575.5,392.5C 579.5,392.5 583.5,392.5 587.5,392.5C 587.175,397.382 589.175,400.882 593.5,403C 599.052,404.196 604.219,403.363 609,400.5C 611.364,396.526 610.864,393.026 607.5,390C 600.533,388.539 593.867,386.206 587.5,383C 580.989,376.749 579.823,369.582 584,361.5C 593.259,352.146 604.093,349.98 616.5,355C 622.842,358.184 626.176,363.351 626.5,370.5 Z"/></g>
<g><path style="opacity:1" fill="#1f70b7" d="M 865.5,352.5 C 874.589,351.235 882.922,353.068 890.5,358C 895.147,362.102 897.147,367.269 896.5,373.5C 892.167,373.5 887.833,373.5 883.5,373.5C 883.654,369.975 882.321,367.141 879.5,365C 866.445,361.707 857.945,366.541 854,379.5C 850.917,399.675 858.75,406.175 877.5,399C 879.782,396.603 881.116,393.769 881.5,390.5C 877.116,390.826 872.783,390.492 868.5,389.5C 869.642,386.601 870.308,383.601 870.5,380.5C 878.86,380.169 887.193,380.502 895.5,381.5C 892.692,391.732 890.359,402.065 888.5,412.5C 885.833,412.5 883.167,412.5 880.5,412.5C 880.66,410.801 880.494,409.134 880,407.5C 867.24,416.43 855.573,415.096 845,403.5C 837.405,386.706 840.239,371.873 853.5,359C 857.434,356.536 861.434,354.369 865.5,352.5 Z"/></g>
<g><path style="opacity:1" fill="#5293c9" d="M 924.5,354.5 C 938.99,353.504 953.657,353.171 968.5,353.5C 968.737,354.791 968.404,355.791 967.5,356.5C 953.539,354.517 939.206,353.85 924.5,354.5 Z"/></g>
<g><path style="opacity:1" fill="#5494c9" d="M 1046.5,354.5 C 1060.99,353.504 1075.66,353.171 1090.5,353.5C 1090.74,354.791 1090.4,355.791 1089.5,356.5C 1075.54,354.517 1061.21,353.85 1046.5,354.5 Z"/></g>
<g><path style="opacity:1" fill="#1c6fb6" d="M 1103.5,398.5 C 1103.5,396.833 1103.5,395.167 1103.5,393.5C 1107.17,393.5 1110.83,393.5 1114.5,393.5C 1114.26,394.791 1114.6,395.791 1115.5,396.5C 1116.82,401.922 1120.32,404.255 1126,403.5C 1136.13,403.861 1139.29,399.527 1135.5,390.5C 1129.14,388.469 1122.8,386.302 1116.5,384C 1109.46,379.745 1106.96,373.578 1109,365.5C 1113.56,356.967 1120.72,352.633 1130.5,352.5C 1139.53,352.108 1146.7,355.442 1152,362.5C 1153.25,365.014 1153.75,367.68 1153.5,370.5C 1149.5,370.5 1145.5,370.5 1141.5,370.5C 1141.53,368.418 1140.86,366.584 1139.5,365C 1133.74,361.795 1128.07,361.795 1122.5,365C 1119.5,369.003 1120.17,372.336 1124.5,375C 1130.39,377.307 1136.39,379.307 1142.5,381C 1144.61,382.141 1146.44,383.641 1148,385.5C 1152.83,400.981 1147.33,410.147 1131.5,413C 1121.66,414.772 1113.16,412.272 1106,405.5C 1104.86,403.257 1104.03,400.924 1103.5,398.5 Z"/></g>
<g><path style="opacity:1" fill="#1a6eb6" d="M 479.5,411.5 C 465.459,412.149 451.792,411.482 438.5,409.5C 442.167,390.833 445.833,372.167 449.5,353.5C 454.167,353.5 458.833,353.5 463.5,353.5C 459.784,369.413 456.451,385.413 453.5,401.5C 462.833,401.5 472.167,401.5 481.5,401.5C 480.626,404.789 479.959,408.123 479.5,411.5 Z"/></g>
<g><path style="opacity:1" fill="#2070b7" d="M 730.5,402.5 C 730.5,401.167 730.5,399.833 730.5,398.5C 722.648,398.175 714.982,398.508 707.5,399.5C 705.206,403.751 703.206,408.084 701.5,412.5C 696.786,412.827 692.12,412.493 687.5,411.5C 698.866,392.63 710.033,373.63 721,354.5C 725.737,353.531 730.57,353.197 735.5,353.5C 738.609,373.151 741.609,392.818 744.5,412.5C 739.833,412.5 735.167,412.5 730.5,412.5C 730.5,409.167 730.5,405.833 730.5,402.5 Z"/></g>
<g><path style="opacity:1" fill="#1e6fb6" d="M 773.5,353.5 C 778.214,353.173 782.88,353.507 787.5,354.5C 792.765,367.794 797.931,381.127 803,394.5C 805.54,381.465 808.207,368.465 811,355.5C 814.494,353.623 818.327,352.956 822.5,353.5C 818.5,373.167 814.5,392.833 810.5,412.5C 806.233,412.797 802.066,412.464 798,411.5C 793.118,398.347 787.951,385.347 782.5,372.5C 778.967,385.331 776.133,398.331 774,411.5C 769.934,412.464 765.767,412.797 761.5,412.5C 765.5,392.833 769.5,373.167 773.5,353.5 Z"/></g>
<g><path style="opacity:1" fill="#166db5" d="M 924.5,354.5 C 939.206,353.85 953.539,354.517 967.5,356.5C 967.425,359.206 967.092,361.873 966.5,364.5C 956.145,364.168 945.812,364.501 935.5,365.5C 934.03,369.048 933.03,372.715 932.5,376.5C 941.652,377.494 950.985,377.827 960.5,377.5C 960.5,378.833 960.5,380.167 960.5,381.5C 960.5,383.167 960.5,384.833 960.5,386.5C 950.5,386.5 940.5,386.5 930.5,386.5C 929.341,391.468 928.341,396.468 927.5,401.5C 937.833,401.5 948.167,401.5 958.5,401.5C 958.384,404.86 958.051,408.193 957.5,411.5C 942.462,412.15 927.795,411.483 913.5,409.5C 916.783,391.086 920.449,372.753 924.5,354.5 Z"/></g>
<g><path style="opacity:1" fill="#1a6eb6" d="M 1019.5,411.5 C 1006.5,411.5 993.5,411.5 980.5,411.5C 980.5,410.5 980.5,409.5 980.5,408.5C 984.059,390.145 987.726,371.812 991.5,353.5C 995.5,353.5 999.5,353.5 1003.5,353.5C 1000.25,369.441 997.245,385.441 994.5,401.5C 1003.5,401.5 1012.5,401.5 1021.5,401.5C 1021.21,404.939 1020.55,408.272 1019.5,411.5 Z"/></g>
<g><path style="opacity:1" fill="#176db5" d="M 1046.5,354.5 C 1061.21,353.85 1075.54,354.517 1089.5,356.5C 1089.17,359.167 1088.83,361.833 1088.5,364.5C 1078.17,364.5 1067.83,364.5 1057.5,364.5C 1056.7,368.476 1056.04,372.476 1055.5,376.5C 1064.71,376.844 1073.71,377.844 1082.5,379.5C 1082.5,381.833 1082.5,384.167 1082.5,386.5C 1072.48,386.168 1062.48,386.501 1052.5,387.5C 1050.87,392.037 1049.87,396.704 1049.5,401.5C 1060.17,401.5 1070.83,401.5 1081.5,401.5C 1081.04,404.877 1080.37,408.211 1079.5,411.5C 1064.46,412.15 1049.8,411.483 1035.5,409.5C 1038.63,391.036 1042.3,372.702 1046.5,354.5 Z"/></g>
<g><path style="opacity:1" fill="#fbfcfd" d="M 529.5,363.5 C 540.788,361.966 546.788,366.799 547.5,378C 547.239,386.805 543.905,394.138 537.5,400C 524.385,405.443 517.051,401.109 515.5,387C 515.889,376.48 520.556,368.647 529.5,363.5 Z"/></g>
<g><path style="opacity:1" fill="#f1f6fa" d="M 725.5,367.5 C 727.218,374.599 728.218,381.933 728.5,389.5C 723.456,389.827 718.456,389.494 713.5,388.5C 717.777,381.608 721.777,374.608 725.5,367.5 Z"/></g>
<g><path style="opacity:1" fill="#b5d0e8" d="M 613.5,367.5 C 614.404,368.209 614.737,369.209 614.5,370.5C 618.5,370.5 622.5,370.5 626.5,370.5C 622.366,371.485 618.032,371.818 613.5,371.5C 613.5,370.167 613.5,368.833 613.5,367.5 Z"/></g>
<g><path style="opacity:1" fill="#74a9d4" d="M 932.5,376.5 C 942.167,376.5 951.833,376.5 961.5,376.5C 961.784,378.415 961.451,380.081 960.5,381.5C 960.5,380.167 960.5,378.833 960.5,377.5C 950.985,377.827 941.652,377.494 932.5,376.5 Z"/></g>
<g><path style="opacity:1" fill="#75a9d4" d="M 1055.5,376.5 C 1064.83,376.5 1074.17,376.5 1083.5,376.5C 1083.74,377.791 1083.4,378.791 1082.5,379.5C 1073.71,377.844 1064.71,376.844 1055.5,376.5 Z"/></g>
<g><path style="opacity:1" fill="#659dce" d="M 1115.5,396.5 C 1114.6,395.791 1114.26,394.791 1114.5,393.5C 1110.83,393.5 1107.17,393.5 1103.5,393.5C 1103.5,395.167 1103.5,396.833 1103.5,398.5C 1102.54,396.735 1102.21,394.735 1102.5,392.5C 1106.83,392.5 1111.17,392.5 1115.5,392.5C 1115.5,393.833 1115.5,395.167 1115.5,396.5 Z"/></g>
<g><path style="opacity:1" fill="#adcce5" d="M 707.5,399.5 C 714.982,398.508 722.648,398.175 730.5,398.5C 730.5,399.833 730.5,401.167 730.5,402.5C 729.596,401.791 729.263,400.791 729.5,399.5C 722.167,399.5 714.833,399.5 707.5,399.5 Z"/></g>
<g><path style="opacity:1" fill="#5896ca" d="M 438.5,409.5 C 451.792,411.482 465.459,412.149 479.5,411.5C 465.677,412.496 451.677,412.829 437.5,412.5C 437.263,411.209 437.596,410.209 438.5,409.5 Z"/></g>
<g><path style="opacity:1" fill="#5594c9" d="M 913.5,409.5 C 927.795,411.483 942.462,412.15 957.5,411.5C 942.676,412.496 927.676,412.829 912.5,412.5C 912.263,411.209 912.596,410.209 913.5,409.5 Z"/></g>
<g><path style="opacity:1" fill="#5695ca" d="M 980.5,408.5 C 980.5,409.5 980.5,410.5 980.5,411.5C 993.5,411.5 1006.5,411.5 1019.5,411.5C 1006.34,412.496 993.01,412.829 979.5,412.5C 979.232,410.901 979.566,409.568 980.5,408.5 Z"/></g>
<g><path style="opacity:1" fill="#5192c8" d="M 1035.5,409.5 C 1049.8,411.483 1064.46,412.15 1079.5,411.5C 1064.68,412.496 1049.68,412.829 1034.5,412.5C 1034.26,411.209 1034.6,410.209 1035.5,409.5 Z"/></g>
<g><path style="opacity:1" fill="#176db5" d="M 1059.5,452.5 C 1072.07,452.14 1084.07,454.64 1095.5,460C 1105.23,461.314 1114.56,460.147 1123.5,456.5C 1120.86,475.604 1116.03,494.27 1109,512.5C 1110.43,499.5 1107.76,487.5 1101,476.5C 1090.2,465.741 1078.04,463.908 1064.5,471C 1056.53,477.158 1054.36,484.992 1058,494.5C 1060.41,499.659 1063.08,504.659 1066,509.5C 1079.25,527.656 1091.25,546.656 1102,566.5C 1113.77,595.915 1108.27,621.415 1085.5,643C 1062.72,657.522 1039.05,659.189 1014.5,648C 1009.17,647.333 1003.83,647.333 998.5,648C 993.376,650.562 988.043,652.562 982.5,654C 978.668,654.762 975.002,654.262 971.5,652.5C 959.769,661.803 946.769,663.969 932.5,659C 923.546,654.711 917.379,647.877 914,638.5C 912.719,624.568 912.052,610.568 912,596.5C 911.071,587.117 908.738,578.117 905,569.5C 898.314,562.114 893.314,563.114 890,572.5C 886.967,587.332 883.301,601.999 879,616.5C 877.928,624.029 878.595,631.362 881,638.5C 885.081,642.776 889.581,646.443 894.5,649.5C 866.173,650.667 837.839,650.833 809.5,650C 819.59,645.235 826.09,637.402 829,626.5C 838.142,593.598 846.808,560.598 855,527.5C 858.58,513.354 861.08,499.021 862.5,484.5C 862.537,480.744 862.037,477.078 861,473.5C 858.333,469.5 855,466.167 851,463.5C 850.544,462.256 851.044,461.423 852.5,461C 887.833,460.333 923.167,460.333 958.5,461C 989.568,464.243 1002.4,481.41 997,512.5C 992.244,527.259 983.077,538.426 969.5,546C 961.333,550.055 952.999,553.722 944.5,557C 943.446,558.388 943.28,559.888 944,561.5C 947.035,564.87 950.368,567.87 954,570.5C 955.275,572.717 956.275,575.051 957,577.5C 957.745,588.162 958.411,598.828 959,609.5C 959.534,617.978 960.867,626.311 963,634.5C 966.274,639.738 970.774,640.904 976.5,638C 980.208,634.09 983.042,629.59 985,624.5C 989.203,610.225 993.203,595.891 997,581.5C 997.368,580.09 998.201,579.09 999.5,578.5C 998.306,598.738 1003.47,617.071 1015,633.5C 1023.8,643.155 1034.64,646.988 1047.5,645C 1063.15,637.527 1068.99,625.361 1065,608.5C 1061.8,599.77 1057.8,591.437 1053,583.5C 1044.39,570.555 1035.39,557.889 1026,545.5C 1015.41,525.565 1013.74,504.899 1021,483.5C 1028.7,466.615 1041.54,456.282 1059.5,452.5 Z"/></g>
<g><path style="opacity:1" fill="#196db5" d="M 184.5,462.5 C 214.314,462.009 243.981,462.509 273.5,464C 261.944,469.889 253.444,478.723 248,490.5C 234.149,537.737 221.316,585.237 209.5,633C 209.081,635.981 210.081,638.314 212.5,640C 235.754,642.789 254.588,634.956 269,616.5C 274.18,608.796 279.346,601.13 284.5,593.5C 281.697,613.363 276.364,632.696 268.5,651.5C 226.837,652.667 185.171,652.833 143.5,652C 143.043,651.586 142.709,651.086 142.5,650.5C 152.498,643.881 159.665,634.881 164,623.5C 176.046,580.271 187.713,536.937 199,493.5C 199.667,488.5 199.667,483.5 199,478.5C 195.049,472.428 189.882,467.595 183.5,464C 184.056,463.617 184.389,463.117 184.5,462.5 Z"/></g>
<g><path style="opacity:1" fill="#176db5" d="M 319.5,462.5 C 345.169,462.333 370.835,462.5 396.5,463C 392.759,466.286 388.925,469.453 385,472.5C 382.139,476.888 379.806,481.554 378,486.5C 365.866,530.036 354.199,573.703 343,617.5C 341.968,625.331 342.635,632.998 345,640.5C 346.362,643.236 348.196,645.569 350.5,647.5C 351.871,650.326 350.871,651.826 347.5,652C 324.5,652.667 301.5,652.667 278.5,652C 276.842,651.275 276.342,650.108 277,648.5C 285.481,641.683 291.148,633.017 294,622.5C 305.511,578.123 317.177,533.79 329,489.5C 331.499,478.981 328.165,470.981 319,465.5C 318.53,464.423 318.697,463.423 319.5,462.5 Z"/></g>
<g><path style="opacity:1" fill="#176db5" d="M 414.5,463.5 C 432.497,462.833 450.664,462.5 469,462.5C 489.861,462.382 510.695,462.882 531.5,464C 552.397,470.934 561.23,485.434 558,507.5C 552.555,530.288 539.055,546.454 517.5,556C 498.932,564.029 479.599,566.696 459.5,564C 456.193,566.778 454.026,570.278 453,574.5C 448.607,591.569 444.774,608.736 441.5,626C 441.621,631.078 442.787,635.912 445,640.5C 448.552,643.719 452.385,646.552 456.5,649C 457.833,650 457.833,651 456.5,652C 430.167,652.667 403.833,652.667 377.5,652C 376.643,651.311 375.977,650.478 375.5,649.5C 383.068,643.415 388.568,635.748 392,626.5C 403.849,582.1 415.849,537.767 428,493.5C 431.317,479.81 426.817,469.81 414.5,463.5 Z"/></g>
<g><path style="opacity:1" fill="#176db5" d="M 559.5,463.5 C 595.998,462.336 632.664,462.169 669.5,463C 693.997,467.827 705.163,482.66 703,507.5C 696.665,532.174 681.498,549.007 657.5,558C 640.311,564.2 622.645,566.2 604.5,564C 603.667,564.833 602.833,565.667 602,566.5C 594.933,585.502 589.767,605.002 586.5,625C 586.674,630.864 588.174,636.364 591,641.5C 594.783,644.316 598.283,647.483 601.5,651C 601.167,651.333 600.833,651.667 600.5,652C 573.354,652.99 546.354,652.656 519.5,651C 528.122,645.261 533.955,637.428 537,627.5C 548.999,582.172 560.999,536.838 573,491.5C 573.667,486.5 573.667,481.5 573,476.5C 569.883,470.699 565.383,466.365 559.5,463.5 Z"/></g>
<g><path style="opacity:1" fill="#166db5" d="M 700.5,462.5 C 746.833,462.5 793.167,462.5 839.5,462.5C 837.205,475.936 834.371,489.27 831,502.5C 830.092,506.199 828.592,509.532 826.5,512.5C 825.749,511.624 825.249,510.624 825,509.5C 826.646,496.892 823.146,486.059 814.5,477C 808.646,473.617 802.313,471.617 795.5,471C 788.167,470.333 780.833,470.333 773.5,471C 772.069,471.465 770.903,472.299 770,473.5C 761.51,494.794 756.176,516.794 754,539.5C 755.648,541.028 757.648,541.695 760,541.5C 769.505,540.335 778.005,536.835 785.5,531C 791.376,525.292 797.042,519.459 802.5,513.5C 802.833,514.5 803.167,515.5 803.5,516.5C 797.668,539.827 791.835,563.161 786,586.5C 785.311,589.408 784.145,592.075 782.5,594.5C 783.018,579.694 778.018,567.194 767.5,557C 761.307,552.931 754.973,552.597 748.5,556C 746.348,558.469 744.848,561.302 744,564.5C 738.515,584.774 733.181,605.107 728,625.5C 726.838,630.125 726.504,634.792 727,639.5C 727.833,641.667 729.333,643.167 731.5,644C 745.679,645.25 759.679,644.25 773.5,641C 782.637,637.005 790.47,631.172 797,623.5C 804.426,613.651 812.093,603.985 820,594.5C 816.269,612.747 811.269,630.747 805,648.5C 804.5,649 804,649.5 803.5,650C 755.501,650.5 707.501,650.667 659.5,650.5C 660.528,647.286 662.862,645.452 666.5,645C 672.819,639.017 677.986,632.184 682,624.5C 693.95,580.701 705.283,536.701 716,492.5C 720.084,479.166 715.584,470.333 702.5,466C 701.177,465.184 700.511,464.017 700.5,462.5 Z"/></g>
<g><path style="opacity:1" fill="#fcfdfe" d="M 487.5,469.5 C 506.888,470.083 514.721,480.083 511,499.5C 510.179,518.332 503.012,534.165 489.5,547C 481.166,552.228 472.166,554.561 462.5,554C 459.651,551.441 458.817,548.274 460,544.5C 466.449,520.953 473.449,497.619 481,474.5C 482.965,472.45 485.132,470.783 487.5,469.5 Z"/></g>
<g><path style="opacity:1" fill="#fcfdfe" d="M 631.5,470.5 C 648.76,468.928 657.094,476.762 656.5,494C 655.876,507.786 652.71,520.953 647,533.5C 638.871,548.314 626.371,555.481 609.5,555C 607.667,554.5 606.5,553.333 606,551.5C 605.39,547.764 605.723,544.097 607,540.5C 612.17,520.822 617.504,501.155 623,481.5C 624.582,476.765 627.415,473.098 631.5,470.5 Z"/></g>
<g><path style="opacity:1" fill="#fcfdfe" d="M 923.5,471.5 C 937.91,470.117 946.744,476.451 950,490.5C 952.466,509.768 946.966,526.268 933.5,540C 927.992,543.255 922.325,546.255 916.5,549C 904.966,553.451 899.799,549.617 901,537.5C 906.333,517.5 911.667,497.5 917,477.5C 918.494,474.686 920.66,472.686 923.5,471.5 Z"/></g>
<g><path style="opacity:1" fill="#f27995" d="M 628.5,714.5 C 590.33,714.168 552.33,714.501 514.5,715.5C 513.957,715.44 513.624,715.107 513.5,714.5C 551.998,713.17 590.331,713.17 628.5,714.5 Z"/></g>
<g><path style="opacity:1" fill="#f27995" d="M 749.5,714.5 C 804.664,713.501 859.997,713.168 915.5,713.5C 915.819,718.363 915.486,723.03 914.5,727.5C 914.5,723.167 914.5,718.833 914.5,714.5C 859.5,714.5 804.5,714.5 749.5,714.5 Z"/></g>
<g><path style="opacity:1" fill="#fefefe" d="M 628.5,714.5 C 615.171,733.336 599.838,750.502 582.5,766C 579.42,768.29 576.253,770.457 573,772.5C 551.367,755.7 531.867,736.7 514.5,715.5C 552.33,714.501 590.33,714.168 628.5,714.5 Z"/></g>
<g><path style="opacity:1" fill="#fefefe" d="M 651.5,714.5 C 678.167,714.5 704.833,714.5 731.5,714.5C 731.879,754.559 726.712,793.893 716,832.5C 714.735,835.461 713.569,838.461 712.5,841.5C 711.667,841.833 710.833,842.167 710,842.5C 666.276,830.219 626.109,810.885 589.5,784.5C 612.704,763.303 633.37,739.97 651.5,714.5 Z"/></g>
<g><path style="opacity:1" fill="#fefefe" d="M 749.5,714.5 C 804.5,714.5 859.5,714.5 914.5,714.5C 914.5,718.833 914.5,723.167 914.5,727.5C 911.887,769.625 900.72,809.291 881,846.5C 879.542,848.96 877.709,851.127 875.5,853C 834.833,857.645 794.166,857.645 753.5,853C 746.169,851.387 738.835,849.887 731.5,848.5C 744.051,804.761 750.051,760.094 749.5,714.5 Z"/></g>
<g><path style="opacity:1" fill="#f7a0b3" d="M 1063.5,713.5 C 1021,714.499 978.337,714.832 935.5,714.5C 935.823,721.022 935.49,727.355 934.5,733.5C 934.5,726.833 934.5,720.167 934.5,713.5C 977.5,713.5 1020.5,713.5 1063.5,713.5 Z"/></g>
</svg>
