<?xml version="1.0" encoding="UTF-8"?>
<!DOCTYPE svg PUBLIC "-//W3C//DTD SVG 1.1//EN" "http://www.w3.org/Graphics/SVG/1.1/DTD/svg11.dtd">
<svg xmlns="http://www.w3.org/2000/svg" version="1.1" width="1024px" height="1024px" style="shape-rendering:geometricPrecision; text-rendering:geometricPrecision; image-rendering:optimizeQuality; fill-rule:evenodd; clip-rule:evenodd" xmlns:xlink="http://www.w3.org/1999/xlink">
<g><path style="opacity:1" fill="#091a23" d="M 245.5,19.5 C 289.875,17.3578 325.209,34.0244 351.5,69.5C 387.054,55.9449 423.721,46.7782 461.5,42C 472.819,36.1737 484.485,31.1737 496.5,27C 520.235,20.9193 541.235,25.9193 559.5,42C 701.129,60.6809 810.629,129.514 888,248.5C 954.376,360.499 970.71,479.499 937,605.5C 906.519,706.52 848.186,787.187 762,847.5C 762.818,852.454 763.818,857.454 765,862.5C 766.57,866.075 768.57,869.408 771,872.5C 771.167,874 771.333,875.5 771.5,877C 769.194,889.048 767.861,901.215 767.5,913.5C 768.979,940.186 768.813,966.852 767,993.5C 765.533,1000.44 762.867,1001.11 759,995.5C 754.195,982.417 750.195,969.083 747,955.5C 744.322,933.066 740.989,910.733 737,888.5C 735.128,881.085 731.462,874.752 726,869.5C 665.185,902.998 600.018,921.498 530.5,925C 537.597,934.121 536.597,942.454 527.5,950C 514.813,958.119 500.98,963.286 486,965.5C 476.9,961.127 467.4,960.294 457.5,963C 450.583,972.588 442.916,981.588 434.5,990C 420.328,1001.83 403.995,1006.17 385.5,1003C 376.66,1001.61 368.66,998.278 361.5,993C 351.724,986.224 342.891,978.39 335,969.5C 331.599,964.641 330.266,959.308 331,953.5C 332.971,946.031 336.805,939.698 342.5,934.5C 340.494,929.65 338.994,924.65 338,919.5C 337.667,909.5 337.333,899.5 337,889.5C 206.532,830.07 121.865,731.737 83,594.5C 50.6883,458.401 74.6883,333.401 155,219.5C 159.287,214.425 163.453,209.258 167.5,204C 141.266,168.98 135.766,130.813 151,89.5C 169.902,49.0907 201.402,25.7573 245.5,19.5 Z"/></g>
<g><path style="opacity:1" fill="#a43631" d="M 240.5,25.5 C 243.898,25.1796 247.232,25.513 250.5,26.5C 244.49,36.697 240.99,47.697 240,59.5C 241.055,78.2895 238.722,96.6229 233,114.5C 231.274,115.576 229.441,115.743 227.5,115C 212.563,93.3917 192.563,78.725 167.5,71C 185.83,46.1701 210.163,31.0034 240.5,25.5 Z"/></g>
<g><path style="opacity:1" fill="#a53631" d="M 260.5,25.5 C 305.662,28.9857 337.496,51.319 356,92.5C 364.12,113.714 365.62,135.38 360.5,157.5C 346.107,152.045 331.774,152.212 317.5,158C 282.041,174.062 262.707,201.562 259.5,240.5C 229.822,241.555 204.156,232.055 182.5,212C 238.444,195.958 280.944,162.791 310,112.5C 316.351,100.814 320.685,88.4805 323,75.5C 305.268,113.781 279.768,145.948 246.5,172C 226.248,187.796 203.915,199.963 179.5,208.5C 167.349,197.205 159.016,183.538 154.5,167.5C 177.255,167.73 198.255,161.896 217.5,150C 229.472,140.228 236.972,127.728 240,112.5C 243.005,90.7814 246.338,69.1148 250,47.5C 252.182,39.4708 255.682,32.1375 260.5,25.5 Z"/></g>
<g><path style="opacity:1" fill="#028248" d="M 568.5,55.5 C 701.221,76.2328 804.054,142.566 877,254.5C 937.81,355.234 955.81,463.234 931,578.5C 905.207,684.157 848.541,768.824 761,832.5C 760.39,828.764 760.723,825.097 762,821.5C 764.391,815.051 767.058,808.718 770,802.5C 770.667,799.167 770.667,795.833 770,792.5C 765.711,786.542 761.044,780.876 756,775.5C 756.24,769.514 756.24,763.514 756,757.5C 753.863,751.421 751.529,745.421 749,739.5C 747.637,735.239 747.304,730.905 748,726.5C 754.229,717.215 761.062,708.382 768.5,700C 769.5,699.333 770.5,699.333 771.5,700C 774.849,705.567 779.516,706.9 785.5,704C 795.685,692.465 804.519,679.965 812,666.5C 815.002,651.517 812.836,637.35 805.5,624C 848.997,527.406 848.164,431.24 803,335.5C 760.049,254.557 695.049,199.557 608,170.5C 606.979,161.042 605.313,151.709 603,142.5C 599.81,133.958 595.977,125.791 591.5,118C 591.833,117.167 592.167,116.333 592.5,115.5C 604.865,110.28 616.032,103.28 626,94.5C 629.17,86.0092 626.67,79.8425 618.5,76C 616.833,75.3333 615.167,75.3333 613.5,76C 609.619,79.7277 605.952,83.7277 602.5,88C 594.896,92.6352 586.896,96.4685 578.5,99.5C 577.731,84.2033 574.398,69.5366 568.5,55.5 Z"/></g>
<g><path style="opacity:1" fill="#008047" d="M 434.5,58.5 C 435.376,58.3691 436.043,58.7025 436.5,59.5C 418.356,75.3473 410.856,95.3473 414,119.5C 414.899,128.098 416.899,136.431 420,144.5C 423.349,150.856 426.349,157.19 429,163.5C 427.5,165 426,166.5 424.5,168C 397.529,175.403 372.029,186.236 348,200.5C 351.912,192.677 355.912,184.677 360,176.5C 367.923,155.781 370.256,134.448 367,112.5C 364.43,101.463 361.096,90.7959 357,80.5C 382.239,70.5698 408.072,63.2365 434.5,58.5 Z"/></g>
<g><path style="opacity:1" fill="#b79552" d="M 553.5,58.5 C 554.653,61.7667 555.153,65.1001 555,68.5C 548.709,69.4738 543.709,72.4738 540,77.5C 539.333,79.5 539.333,81.5 540,83.5C 542.777,86.718 544.777,90.3847 546,94.5C 549.026,97.8645 552.526,98.3645 556.5,96C 559.008,92.6619 561.675,89.4952 564.5,86.5C 566.816,91.6696 567.149,97.0029 565.5,102.5C 550.383,105.323 535.717,109.656 521.5,115.5C 519.981,112.979 518.314,110.479 516.5,108C 520.5,107.667 524.5,107.333 528.5,107C 530.776,106.126 532.11,104.459 532.5,102C 531.309,99.665 529.976,97.4984 528.5,95.5C 529.091,93.7338 529.924,92.0672 531,90.5C 531.468,82.0785 527.968,80.2452 520.5,85C 519.12,86.9252 517.62,88.7585 516,90.5C 516.186,86.5159 516.186,82.5159 516,78.5C 515.338,77.0161 514.504,75.6828 513.5,74.5C 526.378,68.0621 539.711,62.7287 553.5,58.5 Z"/></g>
<g><path style="opacity:1" fill="#09864a" d="M 565.5,102.5 C 567.149,97.0029 566.816,91.6696 564.5,86.5C 561.675,89.4952 559.008,92.6619 556.5,96C 552.526,98.3645 549.026,97.8645 546,94.5C 544.777,90.3847 542.777,86.718 540,83.5C 539.333,81.5 539.333,79.5 540,77.5C 543.709,72.4738 548.709,69.4738 555,68.5C 555.153,65.1001 554.653,61.7667 553.5,58.5C 555.67,57.232 557.837,57.232 560,58.5C 568.119,71.7811 570.952,86.1145 568.5,101.5C 567.583,102.127 566.583,102.461 565.5,102.5 Z"/></g>
<g><path style="opacity:1" fill="#0a8549" d="M 513.5,74.5 C 514.504,75.6828 515.338,77.0161 516,78.5C 516.186,82.5159 516.186,86.5159 516,90.5C 517.62,88.7585 519.12,86.9252 520.5,85C 527.968,80.2452 531.468,82.0785 531,90.5C 529.924,92.0672 529.091,93.7338 528.5,95.5C 529.976,97.4984 531.309,99.665 532.5,102C 532.11,104.459 530.776,106.126 528.5,107C 524.5,107.333 520.5,107.667 516.5,108C 518.314,110.479 519.981,112.979 521.5,115.5C 517.836,118.335 513.836,120.668 509.5,122.5C 510.779,119.998 510.779,117.498 509.5,115C 508.365,114.251 507.365,114.417 506.5,115.5C 503.551,122.645 498.551,124.812 491.5,122C 489.848,115.85 485.848,112.35 479.5,111.5C 478.031,108.207 478.698,105.373 481.5,103C 484.833,102.667 488.167,102.333 491.5,102C 492.022,101.439 492.355,100.772 492.5,100C 489.964,96.9664 487.63,93.7997 485.5,90.5C 489.833,87.331 494.5,84.6643 499.5,82.5C 499.722,85.0764 501.055,85.9098 503.5,85C 504.669,82.9935 505.335,80.8268 505.5,78.5C 508.167,77.1667 510.833,75.8333 513.5,74.5 Z"/></g>
<g><path style="opacity:1" fill="#a53631" d="M 163.5,77.5 C 177.458,80.4788 189.791,86.6454 200.5,96C 209.069,103.9 216.903,112.4 224,121.5C 226.18,125.414 225.846,129.081 223,132.5C 207.66,151.497 187.66,160.497 163,159.5C 159.167,159.167 155.333,158.833 151.5,158.5C 144.35,129.743 148.35,102.743 163.5,77.5 Z"/></g>
<g><path style="opacity:1" fill="#af9251" d="M 505.5,78.5 C 505.335,80.8268 504.669,82.9935 503.5,85C 501.055,85.9098 499.722,85.0764 499.5,82.5C 501.463,81.1798 503.463,79.8465 505.5,78.5 Z"/></g>
<g><path style="opacity:1" fill="#f7f7f8" d="M 614.5,80.5 C 621.797,82.2914 623.964,86.6248 621,93.5C 618.106,96.3614 614.939,98.8614 611.5,101C 602.399,105.551 593.065,109.551 583.5,113C 568.547,117.822 553.547,122.488 538.5,127C 523.783,132.523 510.116,139.856 497.5,149C 476.265,168.576 453.598,186.243 429.5,202C 423.452,205.791 417.286,206.291 411,203.5C 410.837,201.613 411.671,200.113 413.5,199C 438.1,185.408 460.766,169.075 481.5,150C 497.955,136.912 515.955,126.245 535.5,118C 551.285,113.405 566.952,108.405 582.5,103C 595.009,97.9705 605.676,90.4705 614.5,80.5 Z"/></g>
<g><path style="opacity:1" fill="#b69452" d="M 485.5,90.5 C 487.63,93.7997 489.964,96.9664 492.5,100C 492.355,100.772 492.022,101.439 491.5,102C 488.167,102.333 484.833,102.667 481.5,103C 478.698,105.373 478.031,108.207 479.5,111.5C 485.848,112.35 489.848,115.85 491.5,122C 498.551,124.812 503.551,122.645 506.5,115.5C 507.365,114.417 508.365,114.251 509.5,115C 510.779,117.498 510.779,119.998 509.5,122.5C 495.342,131.314 482.009,141.314 469.5,152.5C 465.207,151.251 463.541,148.584 464.5,144.5C 470.378,142.895 476.044,140.728 481.5,138C 482.78,135.868 482.78,133.702 481.5,131.5C 476.182,128.439 474.015,123.772 475,117.5C 471.587,114.744 468.42,115.077 465.5,118.5C 464.412,121.732 463.079,124.732 461.5,127.5C 460.39,121.391 456.723,118.058 450.5,117.5C 461.286,107.383 472.953,98.3829 485.5,90.5 Z"/></g>
<g><path style="opacity:1" fill="#068549" d="M 469.5,152.5 C 466.192,155.471 462.859,158.471 459.5,161.5C 459.174,158.689 458.341,156.022 457,153.5C 455.989,152.663 454.822,152.33 453.5,152.5C 452.88,160.421 448.88,165.754 441.5,168.5C 436.054,163.284 432.387,156.951 430.5,149.5C 433.91,149.543 437.243,149.043 440.5,148C 441.554,146.612 441.72,145.112 441,143.5C 438.002,141.332 435.169,138.999 432.5,136.5C 437.797,129.536 443.797,123.202 450.5,117.5C 456.723,118.058 460.39,121.391 461.5,127.5C 463.079,124.732 464.412,121.732 465.5,118.5C 468.42,115.077 471.587,114.744 475,117.5C 474.015,123.772 476.182,128.439 481.5,131.5C 482.78,133.702 482.78,135.868 481.5,138C 476.044,140.728 470.378,142.895 464.5,144.5C 463.541,148.584 465.207,151.251 469.5,152.5 Z"/></g>
<g><path style="opacity:1" fill="#f5af80" d="M 530.5,136.5 C 532.199,136.34 533.866,136.506 535.5,137C 539.149,142.068 543.983,145.235 550,146.5C 552.808,145.614 555.641,145.447 558.5,146C 559.701,146.903 560.535,148.069 561,149.5C 560.004,158.849 563.671,165.516 572,169.5C 573.134,189.297 568.467,207.631 558,224.5C 553.333,231.167 548.667,237.833 544,244.5C 543.51,245.793 543.343,247.127 543.5,248.5C 551.808,247.795 560.141,247.295 568.5,247C 571.172,244.049 574.505,242.883 578.5,243.5C 579.698,227.274 585.698,213.108 596.5,201C 604.194,194.537 611.027,195.371 617,203.5C 620.177,210.122 620.177,216.789 617,223.5C 612.876,232.293 607.21,239.959 600,246.5C 598.414,248.67 597.08,251.004 596,253.5C 594.647,270.708 587.147,284.541 573.5,295C 562.289,299.426 551.123,303.926 540,308.5C 539.821,305.447 539.321,302.447 538.5,299.5C 534.765,304.626 531.265,309.959 528,315.5C 524.586,320.252 520.086,323.419 514.5,325C 494.541,331.021 481.208,324.354 474.5,305C 474.667,303.5 475.5,302.667 477,302.5C 480.455,303.55 483.955,303.717 487.5,303C 473.951,296.814 460.284,290.814 446.5,285C 436.138,278.082 429.971,268.582 428,256.5C 429.388,255.446 430.888,255.28 432.5,256C 449.019,266.095 466.019,275.428 483.5,284C 493.344,285.94 502.011,283.606 509.5,277C 516.803,270.698 523.803,264.032 530.5,257C 531.5,256.333 532.5,256.333 533.5,257C 534.927,259.369 536.761,259.869 539,258.5C 540.378,254.102 539.212,250.602 535.5,248C 530.764,245.565 525.764,243.899 520.5,243C 512.846,243.185 505.513,241.852 498.5,239C 494.5,234.667 490.5,230.333 486.5,226C 484.741,225.202 483.074,225.369 481.5,226.5C 483.098,229.601 485.265,232.268 488,234.5C 490.661,239.277 489.828,243.11 485.5,246C 479.5,246.333 473.5,246.667 467.5,247C 462.381,250.115 456.881,252.282 451,253.5C 444.849,252.683 441.349,249.183 440.5,243C 440.795,240.077 442.129,237.743 444.5,236C 460.796,232.035 472.63,222.535 480,207.5C 483.831,198.658 483.331,190.158 478.5,182C 477.5,181.333 476.5,181.333 475.5,182C 482.421,192.156 481.921,201.989 474,211.5C 471.877,214.113 469.544,216.446 467,218.5C 465.977,217.4 465.477,216.067 465.5,214.5C 467.27,207.275 466.77,200.275 464,193.5C 462.457,191.622 460.624,190.122 458.5,189C 474.21,175.621 490.21,162.621 506.5,150C 514.109,144.698 522.109,140.198 530.5,136.5 Z"/></g>
<g><path style="opacity:1" fill="#b39452" d="M 432.5,136.5 C 435.169,138.999 438.002,141.332 441,143.5C 441.72,145.112 441.554,146.612 440.5,148C 437.243,149.043 433.91,149.543 430.5,149.5C 427.488,144.559 428.155,140.226 432.5,136.5 Z"/></g>
<g><path style="opacity:1" fill="#b59552" d="M 459.5,161.5 C 455.854,165.812 451.854,169.812 447.5,173.5C 444.871,172.533 442.871,170.867 441.5,168.5C 448.88,165.754 452.88,160.421 453.5,152.5C 454.822,152.33 455.989,152.663 457,153.5C 458.341,156.022 459.174,158.689 459.5,161.5 Z"/></g>
<g><path style="opacity:1" fill="#0e1d24" d="M 529.5,156.5 C 539.845,160.344 548.345,166.677 555,175.5C 555.483,176.448 555.649,177.448 555.5,178.5C 554.325,178.281 553.325,178.614 552.5,179.5C 552.023,180.931 551.357,182.264 550.5,183.5C 542.546,176.131 533.546,174.297 523.5,178C 519.777,179.385 516.277,181.219 513,183.5C 511.47,190.702 511.304,197.869 512.5,205C 529.722,205.369 545.388,200.702 559.5,191C 560.944,190.219 562.277,190.386 563.5,191.5C 559.145,196.687 553.812,200.52 547.5,203C 535.841,205.546 524.174,208.046 512.5,210.5C 514.575,212.83 517.242,213.997 520.5,214C 525.211,220.34 531.211,222.007 538.5,219C 543.634,216.031 548.634,212.864 553.5,209.5C 545.942,223.38 534.608,226.88 519.5,220C 512.671,217.509 508.337,212.842 506.5,206C 507.768,199.893 508.435,193.727 508.5,187.5C 505.951,187.387 503.618,188.054 501.5,189.5C 495.905,186.074 490.738,182.074 486,177.5C 485.333,176.5 485.333,175.5 486,174.5C 487.763,173.056 489.763,172.056 492,171.5C 492.494,169.866 492.66,168.199 492.5,166.5C 498.464,166.121 503.964,164.454 509,161.5C 511.521,162.673 514.021,162.673 516.5,161.5C 517.246,160.264 517.579,158.93 517.5,157.5C 520.673,157.401 523.673,158.068 526.5,159.5C 528.516,159.484 529.516,158.484 529.5,156.5 Z"/></g>
<g><path style="opacity:1" fill="#fbfdfc" d="M 759.5,159.5 C 784.819,157.822 799.486,169.489 803.5,194.5C 798.108,195.181 792.774,196.181 787.5,197.5C 784.057,181.928 774.39,175.761 758.5,179C 746.037,184.766 741.87,194.266 746,207.5C 750.014,216.355 756.847,221.022 766.5,221.5C 765.759,227.471 765.425,233.471 765.5,239.5C 749.683,238.177 737.516,230.843 729,217.5C 721.644,195.569 727.477,178.069 746.5,165C 750.741,162.651 755.075,160.818 759.5,159.5 Z"/></g>
<g><path style="opacity:1" fill="#a43631" d="M 332.5,161.5 C 338.176,161.334 343.843,161.501 349.5,162C 357.975,163.639 359.808,168.139 355,175.5C 348.338,190.816 338.671,203.816 326,214.5C 322.093,208.359 318.426,202.025 315,195.5C 310.486,189.656 305.986,183.822 301.5,178C 302.487,175.679 304.154,174.013 306.5,173C 314.914,168.286 323.581,164.453 332.5,161.5 Z"/></g>
<g><path style="opacity:1" fill="#fdfefe" d="M 741.5,607.5 C 740.49,605.162 738.823,603.496 736.5,602.5C 738.792,600.09 740.459,597.257 741.5,594C 740.465,592.726 739.298,591.56 738,590.5C 733.603,575.97 729.603,561.303 726,546.5C 724.87,541.731 722.37,537.897 718.5,535C 710.765,505.961 705.599,476.461 703,446.5C 699.801,443.871 696.801,444.204 694,447.5C 696.341,424.784 699.341,402.117 703,379.5C 703.667,375.5 703.667,371.5 703,367.5C 698.138,355.913 693.471,344.246 689,332.5C 683.735,321.777 676.902,312.277 668.5,304C 666.091,303.065 663.591,302.565 661,302.5C 653.812,304.894 646.479,306.894 639,308.5C 637.833,308.333 636.667,308.167 635.5,308C 626.404,297.479 624.571,298.646 630,311.5C 634.517,315.242 639.684,316.409 645.5,315C 651.368,313.322 657.034,311.156 662.5,308.5C 663.938,308.719 665.271,309.219 666.5,310C 669.708,314.247 672.542,318.747 675,323.5C 682.139,339.917 689.473,356.25 697,372.5C 694.277,400.111 690.444,427.611 685.5,455C 685.556,457.626 686.723,459.46 689,460.5C 691.684,458.32 694.517,456.32 697.5,454.5C 701.319,480.761 706.485,506.761 713,532.5C 713.667,535.167 713.667,537.833 713,540.5C 701.596,545.971 689.763,550.471 677.5,554C 673.1,554.978 668.933,554.478 665,552.5C 655.842,534.182 646.175,516.182 636,498.5C 635.333,494.5 635.333,490.5 636,486.5C 639.837,476.32 643.671,466.153 647.5,456C 645.177,441.208 641.677,426.708 637,412.5C 636.385,410.884 635.385,409.551 634,408.5C 627.619,422.302 621.619,436.302 616,450.5C 602.337,466.667 591.671,465 584,445.5C 580.9,434.693 579.9,423.693 581,412.5C 587.356,370.312 602.189,331.478 625.5,296C 625.355,295.228 625.022,294.561 624.5,294C 614.474,290.24 605.307,285.074 597,278.5C 595.699,269.736 598.032,262.07 604,255.5C 607.37,252.465 610.37,249.132 613,245.5C 615.984,239.531 618.984,233.531 622,227.5C 627.879,210.965 623.379,198.298 608.5,189.5C 607.511,185.893 607.177,182.226 607.5,178.5C 684.884,203.724 744.717,251.058 787,320.5C 835.804,407.482 843.804,498.149 811,592.5C 807.784,600.658 804.284,608.658 800.5,616.5C 797.021,609.348 791.354,605.348 783.5,604.5C 779.026,605.908 774.693,607.575 770.5,609.5C 762.859,607.265 755.359,604.598 748,601.5C 745.348,602.985 743.182,604.985 741.5,607.5 Z"/></g>
<g><path style="opacity:1" fill="#fcfcfc" d="M 490.5,343.5 C 490.833,343.5 491.167,343.5 491.5,343.5C 491.664,346.187 491.497,348.854 491,351.5C 480.327,363.851 471.661,377.517 465,392.5C 460.44,400.393 455.107,407.727 449,414.5C 446.374,411.769 443.207,409.936 439.5,409C 428.959,405.76 418.293,403.427 407.5,402C 403.605,414.012 399.105,425.846 394,437.5C 389.005,445.309 383.171,452.475 376.5,459C 373.97,460.422 371.303,460.755 368.5,460C 359.745,448.574 350.245,437.741 340,427.5C 339.582,425.212 340.249,423.212 342,421.5C 349.816,412.53 357.149,403.196 364,393.5C 367.61,385.943 371.443,378.61 375.5,371.5C 382.224,381.728 390.224,390.894 399.5,399C 401.5,399.667 403.5,399.667 405.5,399C 405.957,398.586 406.291,398.086 406.5,397.5C 393.982,387.644 383.982,375.644 376.5,361.5C 374.31,363.856 372.31,366.356 370.5,369C 369.668,369.688 369.002,369.521 368.5,368.5C 365.512,360.094 363.679,351.428 363,342.5C 362.384,330.437 361.384,318.437 360,306.5C 358.262,302.759 355.762,299.592 352.5,297C 328.509,286.323 315.342,267.823 313,241.5C 312.333,238.5 312.333,235.5 313,232.5C 343.055,208.222 376.555,190.389 413.5,179C 407.821,185.172 403.155,192.006 399.5,199.5C 404.479,212.654 413.479,216.487 426.5,211C 430.675,209.416 434.341,207.082 437.5,204C 438.793,203.51 440.127,203.343 441.5,203.5C 441.561,207.049 440.727,210.382 439,213.5C 434.333,220.167 429.667,226.833 425,233.5C 422.944,237.268 421.778,241.268 421.5,245.5C 401.463,248.951 381.463,252.617 361.5,256.5C 358.5,256.833 357.167,255.5 357.5,252.5C 359.474,246.079 361.14,239.579 362.5,233C 362.833,230.333 361.833,228.333 359.5,227C 348.474,223.628 338.474,225.461 329.5,232.5C 328.549,231.674 327.549,231.508 326.5,232C 325.529,241.568 326.362,251.068 329,260.5C 331.377,269.084 336.877,271.918 345.5,269C 371.052,264.374 396.719,260.54 422.5,257.5C 424.632,275.574 434.299,287.741 451.5,294C 456.853,295.335 462.186,296.668 467.5,298C 469.278,300.135 469.945,302.635 469.5,305.5C 459.073,303.247 448.74,300.581 438.5,297.5C 434.467,298.016 431.3,300.016 429,303.5C 425.028,312.224 423.195,321.39 423.5,331C 423.182,343.63 425.349,355.796 430,367.5C 432.251,371.126 435.418,372.293 439.5,371C 454.167,364.333 468.833,357.667 483.5,351C 486.039,348.63 488.372,346.13 490.5,343.5 Z"/></g>
<g><path style="opacity:1" fill="#a43631" d="M 293.5,183.5 C 294.873,183.343 296.207,183.51 297.5,184C 306.539,195.247 313.039,207.747 317,221.5C 301.258,232.471 283.758,238.805 264.5,240.5C 267.067,217.698 276.733,198.698 293.5,183.5 Z"/></g>
<g><path style="opacity:1" fill="#f3f4f5" d="M 451.5,192.5 C 454.903,193.363 458.236,194.53 461.5,196C 462.43,197.194 463.097,198.527 463.5,200C 461.014,203.156 458.514,206.322 456,209.5C 454.839,214.416 454.173,219.416 454,224.5C 446.39,226.224 443.223,223.057 444.5,215C 445.125,206.959 447.458,199.459 451.5,192.5 Z"/></g>
<g><path style="opacity:1" fill="#0f1d24" d="M 604.5,207.5 C 608.509,207.014 610.342,208.68 610,212.5C 606.703,214.795 603.703,217.462 601,220.5C 600.431,226.009 599.264,231.343 597.5,236.5C 596.407,234.23 594.907,233.897 593,235.5C 591.502,233.441 589.502,232.108 587,231.5C 586.333,229.833 586.333,228.167 587,226.5C 591.312,218.691 597.145,212.358 604.5,207.5 Z"/></g>
<g><path style="opacity:1" fill="#028248" d="M 175.5,212.5 C 208.53,242.841 246.863,252.341 290.5,241C 196.508,334.775 166.008,446.275 199,575.5C 217.077,634.509 248.911,684.676 294.5,726C 305.38,735.053 316.38,743.887 327.5,752.5C 324.589,757.81 322.755,763.477 322,769.5C 321.301,779.522 321.468,789.522 322.5,799.5C 328.072,798.99 333.405,799.823 338.5,802C 347.864,814.618 352.03,828.784 351,844.5C 346.784,855.312 343.284,866.312 340.5,877.5C 215.153,819.644 133.319,724.31 95,591.5C 62.1172,452.057 88.9506,325.724 175.5,212.5 Z"/></g>
<g><path style="opacity:1" fill="#fbfdfc" d="M 840.5,221.5 C 842.39,221.297 843.89,221.963 845,223.5C 856.377,239.755 867.877,255.921 879.5,272C 875.5,275 871.5,278 867.5,281C 866.833,281.667 866.167,281.667 865.5,281C 857.694,269.534 849.528,258.367 841,247.5C 837.546,249.474 834.379,251.807 831.5,254.5C 839.29,265.246 846.956,276.079 854.5,287C 850.167,290.167 845.833,293.333 841.5,296.5C 834.067,285.288 826.4,274.288 818.5,263.5C 814.779,265.354 811.446,267.687 808.5,270.5C 815.167,280.833 821.833,291.167 828.5,301.5C 824.462,304.708 820.296,307.708 816,310.5C 804.472,295.298 793.305,279.798 782.5,264C 802.016,249.97 821.349,235.803 840.5,221.5 Z"/></g>
<g><path style="opacity:1" fill="#efab7e" d="M 437.5,222.5 C 438.675,222.281 439.675,222.614 440.5,223.5C 441.253,225.753 442.586,227.587 444.5,229C 439.877,232.746 437.877,237.579 438.5,243.5C 435.183,244.221 431.849,244.388 428.5,244C 427.196,243.196 426.529,242.029 426.5,240.5C 429.363,233.979 433.03,227.979 437.5,222.5 Z"/></g>
<g><path style="opacity:1" fill="#fafbfb" d="M 340.5,231.5 C 344.514,231.334 348.514,231.501 352.5,232C 353.72,233.525 354.387,235.359 354.5,237.5C 353.771,244.041 352.771,250.541 351.5,257C 351.167,259.667 352.167,261.667 354.5,263C 349.804,265.68 344.804,266.68 339.5,266C 337.622,264.457 336.122,262.624 335,260.5C 332.128,252.393 331.128,244.059 332,235.5C 334.876,234.052 337.709,232.719 340.5,231.5 Z"/></g>
<g><path style="opacity:1" fill="#f5af80" d="M 304.5,236.5 C 307.292,236.452 309.125,237.785 310,240.5C 309.619,260.38 316.786,276.88 331.5,290C 336.996,293.916 342.663,297.582 348.5,301C 350.377,303.251 351.877,305.751 353,308.5C 352.22,328.152 355.22,347.152 362,365.5C 363.667,368.167 365.333,370.833 367,373.5C 367.667,375.167 367.667,376.833 367,378.5C 360.314,392.851 349.481,402.684 334.5,408C 324.253,409.792 316.42,406.292 311,397.5C 309.543,393.259 309.209,388.926 310,384.5C 311.955,381.281 313.288,377.947 314,374.5C 303.029,384.304 292.696,383.637 283,372.5C 272.84,361.78 273.007,351.28 283.5,341C 285.167,340.333 286.833,340.333 288.5,341C 289.022,341.561 289.355,342.228 289.5,343C 284.384,352.792 285.717,361.459 293.5,369C 300.534,371.333 306.201,369.333 310.5,363C 311.833,362.333 313.167,362.333 314.5,363C 316.906,367.208 318.74,371.708 320,376.5C 324.356,383.857 330.689,388.524 339,390.5C 345.243,389.467 349.743,386.134 352.5,380.5C 351.667,380.167 350.833,379.833 350,379.5C 334.412,387.041 324.412,382.374 320,365.5C 319.833,361.333 319.667,357.167 319.5,353C 319.522,346.388 320.022,339.888 321,333.5C 316.954,346.199 309.787,356.699 299.5,365C 294.208,365.716 291.208,363.383 290.5,358C 293.249,346.505 296.082,335.005 299,323.5C 300.422,316.079 304.922,312.246 312.5,312C 321.764,310.342 331.097,309.509 340.5,309.5C 340.64,307.876 339.973,306.71 338.5,306C 332.167,305.667 325.833,305.333 319.5,305C 316.228,303.392 313.228,301.392 310.5,299C 304.71,288.584 298.544,278.417 292,268.5C 288.117,254.61 292.284,243.944 304.5,236.5 Z"/></g>
<g><path style="opacity:1" fill="#f5af80" d="M 494.5,243.5 C 496.593,244.045 498.593,244.878 500.5,246C 508.53,246.848 516.53,247.848 524.5,249C 527.902,250.786 528.402,253.286 526,256.5C 518.286,265.891 509.119,273.391 498.5,279C 492.818,280.936 487.152,280.936 481.5,279C 470.01,273.425 459.01,267.091 448.5,260C 447.663,258.989 447.33,257.822 447.5,256.5C 452.172,257.003 456.839,257.169 461.5,257C 462.104,254.532 463.438,252.532 465.5,251C 473.562,250.864 481.562,250.197 489.5,249C 492.056,247.945 493.723,246.112 494.5,243.5 Z"/></g>
<g><path style="opacity:1" fill="#e1e4e5" d="M 432.5,246.5 C 434.5,246.5 436.5,246.5 438.5,246.5C 438.586,248.677 439.253,250.677 440.5,252.5C 440,252.833 439.5,253.167 439,253.5C 434.542,252.421 430.042,252.254 425.5,253C 409.349,255.573 393.182,258.073 377,260.5C 371.191,260.65 371.024,259.816 376.5,258C 395.332,254.334 413.998,250.501 432.5,246.5 Z"/></g>
<g><path style="opacity:1" fill="#fbfdfc" d="M 166.5,248.5 C 187.816,260.806 209.15,273.139 230.5,285.5C 226.697,291.801 222.697,297.968 218.5,304C 201.163,304.572 183.83,305.238 166.5,306C 179.5,313.5 192.5,321 205.5,328.5C 202.419,334.331 199.085,339.998 195.5,345.5C 175.167,333.667 154.833,321.833 134.5,310C 133.978,309.439 133.645,308.772 133.5,308C 135.697,303.106 138.03,298.272 140.5,293.5C 160.467,292.001 180.467,291.167 200.5,291C 186.669,281.917 172.669,273.083 158.5,264.5C 157.417,263.635 157.251,262.635 158,261.5C 160.844,257.138 163.677,252.805 166.5,248.5 Z"/></g>
<g><path style="opacity:1" fill="#fefefe" d="M 284.5,257.5 C 286.397,262.687 288.23,268.021 290,273.5C 294,279.5 298,285.5 302,291.5C 303.009,293.025 303.509,294.692 303.5,296.5C 302.448,296.351 301.448,296.517 300.5,297C 292.263,304.567 284.763,312.733 278,321.5C 277.667,327.167 277.333,332.833 277,338.5C 273.41,343.014 270.91,348.014 269.5,353.5C 272.038,365.748 278.038,375.915 287.5,384C 292.386,386.585 297.553,388.085 303,388.5C 304.509,400.662 310.675,409.495 321.5,415C 326.087,415.799 330.587,415.632 335,414.5C 335.315,415.908 334.982,417.241 334,418.5C 331.65,420.683 329.483,423.016 327.5,425.5C 330.699,427.864 334.032,430.03 337.5,432C 347.131,443.299 357.131,454.299 367.5,465C 369.394,466.404 371.394,467.57 373.5,468.5C 377.554,465.942 381.72,463.609 386,461.5C 390.675,462.838 394.175,465.672 396.5,470C 395.899,471.605 394.899,472.938 393.5,474C 376.076,486.756 360.576,501.59 347,518.5C 339.058,529.383 333.558,541.383 330.5,554.5C 330.326,556.693 330.993,558.527 332.5,560C 335.833,560.333 339.167,560.667 342.5,561C 343.667,562.167 344.833,563.333 346,564.5C 349.75,571.002 353.75,577.335 358,583.5C 356.495,590.616 356.162,597.949 357,605.5C 363.935,629.972 372.269,653.972 382,677.5C 387.83,699.992 395.83,721.658 406,742.5C 409.444,748.276 413.277,753.776 417.5,759C 410.342,763.017 402.675,764.35 394.5,763C 389.185,757.417 383.852,751.75 378.5,746C 369.619,740.563 360.452,740.063 351,744.5C 344.161,740.172 337.661,740.505 331.5,745.5C 254.846,691.927 209.346,618.593 195,525.5C 183.261,421.882 213.095,332.549 284.5,257.5 Z"/></g>
<g><path style="opacity:1" fill="#b89552" d="M 576.5,440.5 C 573.414,446.046 568.581,449.046 562,449.5C 550.508,445.722 544.841,449.722 545,461.5C 545.792,463.587 546.959,465.421 548.5,467C 551.503,468.166 554.17,469.833 556.5,472C 552.843,471.892 549.177,471.892 545.5,472C 540.382,477.313 539.048,483.313 541.5,490C 544.89,491.125 548.057,492.625 551,494.5C 550.607,499.132 550.607,503.799 551,508.5C 552.458,514.059 555.958,515.892 561.5,514C 563.167,513 564.833,512 566.5,511C 570.949,505.937 574.783,500.437 578,494.5C 579.557,497.294 579.89,500.294 579,503.5C 576.617,508.595 575.117,513.929 574.5,519.5C 579.297,519.879 583.964,519.379 588.5,518C 589.333,517.167 590.167,516.333 591,515.5C 593.783,508.036 595.783,500.37 597,492.5C 598.678,490.447 600.511,490.113 602.5,491.5C 600.797,506.575 601.297,521.575 604,536.5C 605.35,542.883 607.683,548.883 611,554.5C 616.265,562.7 621.265,571.033 626,579.5C 627.476,584.076 627.81,588.743 627,593.5C 625.667,595.833 623.667,596.833 621,596.5C 612.853,595.445 604.686,595.279 596.5,596C 589.819,597.504 583.153,599.004 576.5,600.5C 575.716,593.795 574.716,587.128 573.5,580.5C 574.552,580.351 575.552,580.517 576.5,581C 581.633,586.15 587.799,589.316 595,590.5C 602.579,589.926 606.246,585.926 606,578.5C 603.772,574.54 601.938,570.373 600.5,566C 603.205,560.79 604.038,555.29 603,549.5C 601.931,544.743 599.098,542.909 594.5,544C 590.263,548.48 586.263,553.147 582.5,558C 581.552,558.483 580.552,558.649 579.5,558.5C 581.156,552.322 584.656,547.322 590,543.5C 593.582,538.553 592.749,534.387 587.5,531C 584.298,529.517 580.964,529.183 577.5,530C 572.54,532.147 567.873,534.814 563.5,538C 558.087,538.306 552.754,537.973 547.5,537C 541.789,539.388 538.456,543.721 537.5,550C 538.101,551.605 539.101,552.938 540.5,554C 546.783,556.114 550.783,560.281 552.5,566.5C 546.434,566.134 541.434,563.634 537.5,559C 526.833,558.022 523,562.856 526,573.5C 528.063,576.054 529.897,578.72 531.5,581.5C 527.714,589.211 529.381,595.377 536.5,600C 539.167,600.667 541.833,600.667 544.5,600C 549.649,596.018 554.315,591.518 558.5,586.5C 559.736,585.754 561.07,585.421 562.5,585.5C 561.833,592.167 561.167,598.833 560.5,605.5C 523.071,617.213 488.738,634.713 457.5,658C 455.5,658.667 453.5,658.667 451.5,658C 444.865,650.364 437.865,643.03 430.5,636C 428.5,635.667 426.5,635.333 424.5,635C 420.727,629.078 418.894,622.578 419,615.5C 417.504,593.15 422.17,572.15 433,552.5C 451.355,523.452 465.688,492.452 476,459.5C 477.899,454.604 480.065,449.937 482.5,445.5C 486.506,442.074 491.173,440.741 496.5,441.5C 495.485,447.543 493.318,453.21 490,458.5C 487.677,467.366 490.177,469.366 497.5,464.5C 500.559,467.53 504.226,469.197 508.5,469.5C 508.765,465.147 509.265,460.813 510,456.5C 510.299,453.531 511.799,452.031 514.5,452C 520.311,461.747 527.478,462.913 536,455.5C 536.808,453.577 537.308,451.577 537.5,449.5C 536.531,445.509 536.031,441.509 536,437.5C 540.857,433.399 545.524,429.066 550,424.5C 551.167,417.667 548.333,414.833 541.5,416C 537.752,418.564 533.752,419.897 529.5,420C 533.333,414.833 537.833,410.333 543,406.5C 544.967,403.002 544.633,399.668 542,396.5C 539.809,395.167 537.976,393.5 536.5,391.5C 542.382,385.115 547.716,378.282 552.5,371C 557.833,371.667 563.167,372.333 568.5,373C 572.843,371.99 576.01,369.49 578,365.5C 584.351,351.11 588.685,336.11 591,320.5C 592.225,316.385 593.725,312.385 595.5,308.5C 593.703,303.536 590.369,300.036 585.5,298C 584.251,295.79 584.418,293.624 586,291.5C 588.374,289.461 590.374,287.128 592,284.5C 593.388,283.446 594.888,283.28 596.5,284C 604.078,287.706 611.578,291.539 619,295.5C 609.123,313.806 599.456,332.473 590,351.5C 582.765,368.873 577.765,386.873 575,405.5C 574.184,417.231 574.684,428.898 576.5,440.5 Z"/></g>
<g><path style="opacity:1" fill="#ecaa7d" d="M 303.5,300.5 C 307.474,300.15 310.14,301.817 311.5,305.5C 308.327,307.283 304.994,308.783 301.5,310C 300.257,311.154 299.257,312.488 298.5,314C 294.513,314.339 293.013,312.506 294,308.5C 297.145,305.696 300.312,303.03 303.5,300.5 Z"/></g>
<g><path style="opacity:1" fill="#b69452" d="M 491.5,343.5 C 491.167,343.5 490.833,343.5 490.5,343.5C 489.127,343.343 487.793,343.51 486.5,344C 481.475,347.174 476.142,349.674 470.5,351.5C 466.06,350.624 462.727,348.291 460.5,344.5C 461,343.119 462,342.453 463.5,342.5C 467.761,344.869 471.928,344.869 476,342.5C 475.661,339.953 474.827,337.453 473.5,335C 475.864,322.526 472.197,320.36 462.5,328.5C 462.167,328 461.833,327.5 461.5,327C 466.823,316.829 464.157,313.662 453.5,317.5C 450.752,315.709 447.752,315.209 444.5,316C 443.426,316.739 442.759,317.739 442.5,319C 443.687,321.724 444.353,324.557 444.5,327.5C 441.459,327.449 438.792,326.449 436.5,324.5C 433.231,325.56 431.565,327.893 431.5,331.5C 433.757,337.288 435.257,343.288 436,349.5C 437.117,351.124 438.617,352.124 440.5,352.5C 443.262,351.241 445.596,349.407 447.5,347C 449.025,345.991 450.692,345.491 452.5,345.5C 452.387,350.518 452.053,355.518 451.5,360.5C 447.402,362.048 443.402,363.881 439.5,366C 435.507,366.753 432.674,365.253 431,361.5C 427.355,354.085 425.855,346.252 426.5,338C 426.325,326.913 427.825,316.079 431,305.5C 433.559,302.651 436.726,301.817 440.5,303C 450.269,306.442 460.269,308.942 470.5,310.5C 475.059,320.393 482.059,328.06 491.5,333.5C 492.788,336.967 492.788,340.3 491.5,343.5 Z"/></g>
<g><path style="opacity:1" fill="#b59352" d="M 547.5,359.5 C 549.53,356.818 552.197,355.151 555.5,354.5C 555.174,350.116 555.508,345.783 556.5,341.5C 557.941,342.865 559.274,344.365 560.5,346C 564.475,347.379 567.309,346.213 569,342.5C 569.176,339.118 569.676,335.785 570.5,332.5C 574.917,330.584 575.584,327.751 572.5,324C 569.147,323.253 565.98,323.753 563,325.5C 562.5,325.167 562,324.833 561.5,324.5C 567.843,316.666 566.009,313.666 556,315.5C 553.366,314.774 551.199,313.441 549.5,311.5C 561.204,306.328 573.538,304.161 586.5,305C 585.834,325.83 580.834,345.663 571.5,364.5C 568.29,367.222 564.624,368.056 560.5,367C 555.501,365.467 551.167,362.967 547.5,359.5 Z"/></g>
<g><path style="opacity:1" fill="#fcfdfc" d="M 894.5,310.5 C 895.376,310.369 896.043,310.702 896.5,311.5C 899.167,317.167 901.833,322.833 904.5,328.5C 889.591,335.026 874.591,341.359 859.5,347.5C 858.417,348.365 858.251,349.365 859,350.5C 863.167,359.5 867.333,368.5 871.5,377.5C 865.426,380.62 859.259,383.62 853,386.5C 851.181,384.874 849.848,382.874 849,380.5C 843.218,366.483 837.051,352.649 830.5,339C 852.041,329.724 873.375,320.224 894.5,310.5 Z"/></g>
<g><path style="opacity:1" fill="#09854a" d="M 549.5,311.5 C 551.199,313.441 553.366,314.774 556,315.5C 566.009,313.666 567.843,316.666 561.5,324.5C 562,324.833 562.5,325.167 563,325.5C 565.98,323.753 569.147,323.253 572.5,324C 575.584,327.751 574.917,330.584 570.5,332.5C 569.676,335.785 569.176,339.118 569,342.5C 567.309,346.213 564.475,347.379 560.5,346C 559.274,344.365 557.941,342.865 556.5,341.5C 555.508,345.783 555.174,350.116 555.5,354.5C 552.197,355.151 549.53,356.818 547.5,359.5C 545.668,358.752 544.001,357.752 542.5,356.5C 543.499,351.169 544.332,345.836 545,340.5C 544.439,339.978 543.772,339.645 543,339.5C 539.778,341.705 536.278,342.539 532.5,342C 528.432,338.255 528.932,335.088 534,332.5C 533.435,329.288 533.602,326.121 534.5,323C 537.968,322.566 541.302,323.066 544.5,324.5C 544.276,320.821 543.942,317.154 543.5,313.5C 545.421,312.637 547.421,311.971 549.5,311.5 Z"/></g>
<g><path style="opacity:1" fill="#b59452" d="M 543.5,313.5 C 543.942,317.154 544.276,320.821 544.5,324.5C 541.302,323.066 537.968,322.566 534.5,323C 533.602,326.121 533.435,329.288 534,332.5C 528.932,335.088 528.432,338.255 532.5,342C 536.278,342.539 539.778,341.705 543,339.5C 543.772,339.645 544.439,339.978 545,340.5C 544.332,345.836 543.499,351.169 542.5,356.5C 534.032,352.099 525.699,347.432 517.5,342.5C 516.106,339.092 516.272,335.759 518,332.5C 524.935,324.111 533.435,317.777 543.5,313.5 Z"/></g>
<g><path style="opacity:1" fill="#0d854a" d="M 470.5,351.5 C 464.11,354.193 457.777,357.193 451.5,360.5C 452.053,355.518 452.387,350.518 452.5,345.5C 450.692,345.491 449.025,345.991 447.5,347C 445.596,349.407 443.262,351.241 440.5,352.5C 438.617,352.124 437.117,351.124 436,349.5C 435.257,343.288 433.757,337.288 431.5,331.5C 431.565,327.893 433.231,325.56 436.5,324.5C 438.792,326.449 441.459,327.449 444.5,327.5C 444.353,324.557 443.687,321.724 442.5,319C 442.759,317.739 443.426,316.739 444.5,316C 447.752,315.209 450.752,315.709 453.5,317.5C 464.157,313.662 466.823,316.829 461.5,327C 461.833,327.5 462.167,328 462.5,328.5C 472.197,320.36 475.864,322.526 473.5,335C 474.827,337.453 475.661,339.953 476,342.5C 471.928,344.869 467.761,344.869 463.5,342.5C 462,342.453 461,343.119 460.5,344.5C 462.727,348.291 466.06,350.624 470.5,351.5 Z"/></g>
<g><path style="opacity:1" fill="#eeab7e" d="M 288.5,316.5 C 291.827,316.986 294.161,318.82 295.5,322C 294.125,326.537 292.625,331.037 291,335.5C 288.872,339.376 286.539,339.376 284,335.5C 280.918,327.977 282.418,321.644 288.5,316.5 Z"/></g>
<g><path style="opacity:1" fill="#565038" d="M 506.5,331.5 C 509.687,330.194 513.02,330.194 516.5,331.5C 516.376,332.107 516.043,332.44 515.5,332.5C 512.713,331.523 509.713,331.19 506.5,331.5 Z"/></g>
<g><path style="opacity:1" fill="#b69352" d="M 506.5,331.5 C 509.713,331.19 512.713,331.523 515.5,332.5C 513.842,338.313 511.509,343.813 508.5,349C 503.801,350.713 501.468,349.213 501.5,344.5C 499.856,344.714 498.356,344.38 497,343.5C 493.821,334.193 496.988,330.193 506.5,331.5 Z"/></g>
<g><path style="opacity:1" fill="#fbfdfc" d="M 135.5,346.5 C 159.277,345.794 174.444,356.794 181,379.5C 182.301,403.415 171.468,418.582 148.5,425C 125.041,427.188 109.874,417.021 103,394.5C 100.674,369.462 111.507,353.462 135.5,346.5 Z"/></g>
<g><path style="opacity:1" fill="#fcfcfd" d="M 516.5,348.5 C 527.49,353.417 537.657,359.75 547,367.5C 547.667,368.833 547.667,370.167 547,371.5C 526.285,393.049 504.785,413.716 482.5,433.5C 481.201,432.91 480.368,431.91 480,430.5C 476.387,419.941 472.22,409.607 467.5,399.5C 474.702,383.589 484.035,369.089 495.5,356C 500.721,354.768 506.054,354.101 511.5,354C 513.715,352.621 515.381,350.787 516.5,348.5 Z"/></g>
<g><path style="opacity:1" fill="#07834a" d="M 136.5,365.5 C 155.625,365.449 163.792,374.783 161,393.5C 155.975,404.428 147.475,408.595 135.5,406C 124,400.834 119.5,392.001 122,379.5C 123.439,376.397 125.273,373.564 127.5,371C 130.564,369.141 133.564,367.308 136.5,365.5 Z"/></g>
<g><path style="opacity:1" fill="#fafdfc" d="M 910.5,385.5 C 915.833,385.5 921.167,385.5 926.5,385.5C 927.836,406.862 929.502,428.195 931.5,449.5C 925.107,449.207 918.773,449.54 912.5,450.5C 911.108,444.244 910.441,437.911 910.5,431.5C 895.47,432.92 880.47,434.587 865.5,436.5C 865.1,430.171 864.767,423.838 864.5,417.5C 878.867,416.494 893.2,415.161 907.5,413.5C 907.44,404.487 907.107,395.487 906.5,386.5C 908.099,386.768 909.432,386.434 910.5,385.5 Z"/></g>
<g><path style="opacity:1" fill="#088449" d="M 536.5,391.5 C 537.976,393.5 539.809,395.167 542,396.5C 544.633,399.668 544.967,403.002 543,406.5C 537.833,410.333 533.333,414.833 529.5,420C 533.752,419.897 537.752,418.564 541.5,416C 548.333,414.833 551.167,417.667 550,424.5C 545.524,429.066 540.857,433.399 536,437.5C 536.031,441.509 536.531,445.509 537.5,449.5C 537.308,451.577 536.808,453.577 536,455.5C 527.478,462.913 520.311,461.747 514.5,452C 511.799,452.031 510.299,453.531 510,456.5C 509.265,460.813 508.765,465.147 508.5,469.5C 504.226,469.197 500.559,467.53 497.5,464.5C 490.177,469.366 487.677,467.366 490,458.5C 493.318,453.21 495.485,447.543 496.5,441.5C 491.173,440.741 486.506,442.074 482.5,445.5C 483.072,443.745 483.906,442.078 485,440.5C 502.036,423.963 519.202,407.629 536.5,391.5 Z"/></g>
<g><path style="opacity:1" fill="#b89552" d="M 368.5,592.5 C 368.094,587.904 370.094,584.904 374.5,583.5C 378.581,586.235 382.915,588.569 387.5,590.5C 394.061,588.877 397.727,584.711 398.5,578C 397.816,573.596 396.816,569.262 395.5,565C 397.181,561.137 399.014,557.303 401,553.5C 402.011,549.018 400.844,545.184 397.5,542C 395.833,541.333 394.167,541.333 392.5,542C 385.74,546.258 379.407,551.091 373.5,556.5C 372.369,554.926 372.202,553.259 373,551.5C 375.254,547.993 377.254,544.327 379,540.5C 379.959,533.785 376.959,530.452 370,530.5C 365.24,531.868 360.407,532.368 355.5,532C 352.743,531.062 350.41,529.562 348.5,527.5C 355.342,515.653 364.342,505.653 375.5,497.5C 381.141,498.291 386.807,498.457 392.5,498C 393.718,499.438 394.385,501.105 394.5,503C 392.927,511.11 392.427,519.277 393,527.5C 397.401,528.467 401.901,528.8 406.5,528.5C 406.334,521.492 406.5,514.492 407,507.5C 410.324,498.261 413.324,498.261 416,507.5C 419.396,511.203 423.563,512.369 428.5,511C 433.427,509.125 437.26,505.958 440,501.5C 444.189,495.123 447.855,488.456 451,481.5C 452.123,478.044 451.29,475.21 448.5,473C 444.571,471.971 440.571,471.137 436.5,470.5C 439.484,467.015 442.651,463.682 446,460.5C 446.683,456.16 444.85,453.327 440.5,452C 435.998,450.635 431.664,449.135 427.5,447.5C 440.38,434.136 451.88,419.803 462,404.5C 462.772,404.645 463.439,404.978 464,405.5C 469.91,417.655 474.41,430.322 477.5,443.5C 472.833,456.335 468.666,469.335 465,482.5C 451.333,509.167 437.667,535.833 424,562.5C 417.999,575.17 414.832,588.504 414.5,602.5C 415.782,614.515 416.949,626.515 418,638.5C 413.579,643.594 408.579,647.927 403,651.5C 402.5,651.167 402,650.833 401.5,650.5C 399.755,642.432 396.922,634.765 393,627.5C 384.824,615.804 376.657,604.138 368.5,592.5 Z"/></g>
<g><path style="opacity:1" fill="#fbfbfb" d="M 408.5,408.5 C 417.689,409.838 426.689,412.005 435.5,415C 438.833,415.333 442.167,415.667 445.5,416C 446.022,416.561 446.355,417.228 446.5,418C 435.091,436.743 420.258,452.243 402,464.5C 397.163,461.828 393.996,457.828 392.5,452.5C 399.517,438.462 404.85,423.796 408.5,408.5 Z"/></g>
<g><path style="opacity:1" fill="#fdfdfd" d="M 632.5,423.5 C 634.017,423.511 635.184,424.177 636,425.5C 638.046,433.967 639.879,442.467 641.5,451C 641.333,452.833 641.167,454.667 641,456.5C 637.461,466.782 634.128,477.116 631,487.5C 630.333,491.5 630.333,495.5 631,499.5C 641.397,519.96 652.063,540.293 663,560.5C 664.114,578.871 668.114,596.537 675,613.5C 680.082,617.791 685.916,620.624 692.5,622C 694.102,626.038 696.102,629.871 698.5,633.5C 694.062,636.444 690.896,640.444 689,645.5C 689.201,656.389 687.868,667.055 685,677.5C 684.333,681.167 684.333,684.833 685,688.5C 688.726,693.228 692.059,698.228 695,703.5C 695.859,710.388 697.525,717.055 700,723.5C 702.398,724.856 704.898,726.023 707.5,727C 709.013,729.916 708.68,732.582 706.5,735C 666.285,765.476 621.285,785.643 571.5,795.5C 579.285,771.697 586.451,747.697 593,723.5C 600.667,704.167 608.333,684.833 616,665.5C 623.274,638.429 628.607,611.095 632,583.5C 625.881,568.595 619.215,553.929 612,539.5C 607.357,520.523 607.357,501.523 612,482.5C 617.167,462.185 624,442.518 632.5,423.5 Z"/></g>
<g><path style="opacity:1" fill="#068449" d="M 576.5,440.5 C 579.734,450.78 585.401,459.614 593.5,467C 595.65,468.411 597.984,469.245 600.5,469.5C 602.531,469.972 604.198,470.972 605.5,472.5C 605.216,479.084 604.216,485.417 602.5,491.5C 600.511,490.113 598.678,490.447 597,492.5C 595.783,500.37 593.783,508.036 591,515.5C 590.167,516.333 589.333,517.167 588.5,518C 583.964,519.379 579.297,519.879 574.5,519.5C 575.117,513.929 576.617,508.595 579,503.5C 579.89,500.294 579.557,497.294 578,494.5C 574.783,500.437 570.949,505.937 566.5,511C 564.833,512 563.167,513 561.5,514C 555.958,515.892 552.458,514.059 551,508.5C 550.607,503.799 550.607,499.132 551,494.5C 548.057,492.625 544.89,491.125 541.5,490C 539.048,483.313 540.382,477.313 545.5,472C 549.177,471.892 552.843,471.892 556.5,472C 554.17,469.833 551.503,468.166 548.5,467C 546.959,465.421 545.792,463.587 545,461.5C 544.841,449.722 550.508,445.722 562,449.5C 568.581,449.046 573.414,446.046 576.5,440.5 Z"/></g>
<g><path style="opacity:1" fill="#068449" d="M 427.5,447.5 C 431.664,449.135 435.998,450.635 440.5,452C 444.85,453.327 446.683,456.16 446,460.5C 442.651,463.682 439.484,467.015 436.5,470.5C 440.571,471.137 444.571,471.971 448.5,473C 451.29,475.21 452.123,478.044 451,481.5C 447.855,488.456 444.189,495.123 440,501.5C 437.26,505.958 433.427,509.125 428.5,511C 423.563,512.369 419.396,511.203 416,507.5C 413.324,498.261 410.324,498.261 407,507.5C 406.5,514.492 406.334,521.492 406.5,528.5C 401.901,528.8 397.401,528.467 393,527.5C 392.427,519.277 392.927,511.11 394.5,503C 394.385,501.105 393.718,499.438 392.5,498C 386.807,498.457 381.141,498.291 375.5,497.5C 393.163,481.17 410.497,464.503 427.5,447.5 Z"/></g>
<g><path style="opacity:1" fill="#fcfdfd" d="M 113.5,472.5 C 130.5,472.5 147.5,472.5 164.5,472.5C 164.5,477.833 164.5,483.167 164.5,488.5C 147.5,488.5 130.5,488.5 113.5,488.5C 113.5,496.167 113.5,503.833 113.5,511.5C 108.167,511.5 102.833,511.5 97.5,511.5C 97.5,506.5 97.5,501.5 97.5,496.5C 97.5,481.5 97.5,466.5 97.5,451.5C 102.5,451.5 107.5,451.5 112.5,451.5C 112.175,458.687 112.509,465.687 113.5,472.5 Z"/></g>
<g><path style="opacity:1" fill="#94cab1" d="M 113.5,472.5 C 112.509,465.687 112.175,458.687 112.5,451.5C 107.5,451.5 102.5,451.5 97.5,451.5C 97.5,466.5 97.5,481.5 97.5,496.5C 96.5038,481.342 96.1705,466.009 96.5,450.5C 102.167,450.5 107.833,450.5 113.5,450.5C 113.5,457.833 113.5,465.167 113.5,472.5 Z"/></g>
<g><path style="opacity:1" fill="#025136" d="M 600.5,469.5 C 602.5,469.5 604.5,469.5 606.5,469.5C 606.737,470.791 606.404,471.791 605.5,472.5C 604.198,470.972 602.531,469.972 600.5,469.5 Z"/></g>
<g><path style="opacity:1" fill="#088449" d="M 509.5,478.5 C 520.592,478.1 524.092,483.1 520,493.5C 518,496.833 516,500.167 514,503.5C 513.333,504.833 513.333,506.167 514,507.5C 518.078,503.016 521.411,498.016 524,492.5C 530.2,488.397 535.2,489.731 539,496.5C 539.667,498.167 539.667,499.833 539,501.5C 537.209,505.411 535.709,509.411 534.5,513.5C 535.435,517.374 536.935,521.04 539,524.5C 540.778,532.788 537.611,537.955 529.5,540C 524.149,540.263 518.816,540.263 513.5,540C 510.332,547.501 506.499,554.667 502,561.5C 496.636,565.925 492.47,564.925 489.5,558.5C 492.828,553.658 495.995,548.658 499,543.5C 500.833,537.943 499,535.443 493.5,536C 489.639,541.374 485.306,546.374 480.5,551C 473.663,554.943 467.83,553.777 463,547.5C 463.174,542.448 464.007,537.448 465.5,532.5C 463.895,527.865 462.229,523.198 460.5,518.5C 465.389,505.729 473.389,503.396 484.5,511.5C 484.833,511 485.167,510.5 485.5,510C 480.641,506.807 476.808,502.64 474,497.5C 471.626,484.528 476.459,480.362 488.5,485C 491.167,485.667 493.833,485.667 496.5,485C 500.894,482.803 505.227,480.636 509.5,478.5 Z"/></g>
<g><path style="opacity:1" fill="#fcfdfd" d="M 866.5,480.5 C 887.833,480.5 909.167,480.5 930.5,480.5C 930.5,487.833 930.5,495.167 930.5,502.5C 909.167,502.5 887.833,502.5 866.5,502.5C 866.5,495.167 866.5,487.833 866.5,480.5 Z"/></g>
<g><path style="opacity:1" fill="#058449" d="M 348.5,527.5 C 350.41,529.562 352.743,531.062 355.5,532C 360.407,532.368 365.24,531.868 370,530.5C 376.959,530.452 379.959,533.785 379,540.5C 377.254,544.327 375.254,547.993 373,551.5C 372.202,553.259 372.369,554.926 373.5,556.5C 379.407,551.091 385.74,546.258 392.5,542C 394.167,541.333 395.833,541.333 397.5,542C 400.844,545.184 402.011,549.018 401,553.5C 399.014,557.303 397.181,561.137 395.5,565C 396.816,569.262 397.816,573.596 398.5,578C 397.727,584.711 394.061,588.877 387.5,590.5C 382.915,588.569 378.581,586.235 374.5,583.5C 370.094,584.904 368.094,587.904 368.5,592.5C 361.339,582.859 355.173,572.526 350,561.5C 348.167,559.667 346.333,557.833 344.5,556C 342.236,555.764 340.069,555.264 338,554.5C 338.148,544.203 341.648,535.203 348.5,527.5 Z"/></g>
<g><path style="opacity:1" fill="#078449" d="M 576.5,600.5 C 571.384,602.537 566.051,604.203 560.5,605.5C 561.167,598.833 561.833,592.167 562.5,585.5C 561.07,585.421 559.736,585.754 558.5,586.5C 554.315,591.518 549.649,596.018 544.5,600C 541.833,600.667 539.167,600.667 536.5,600C 529.381,595.377 527.714,589.211 531.5,581.5C 529.897,578.72 528.063,576.054 526,573.5C 523,562.856 526.833,558.022 537.5,559C 541.434,563.634 546.434,566.134 552.5,566.5C 550.783,560.281 546.783,556.114 540.5,554C 539.101,552.938 538.101,551.605 537.5,550C 538.456,543.721 541.789,539.388 547.5,537C 552.754,537.973 558.087,538.306 563.5,538C 567.873,534.814 572.54,532.147 577.5,530C 580.964,529.183 584.298,529.517 587.5,531C 592.749,534.387 593.582,538.553 590,543.5C 584.656,547.322 581.156,552.322 579.5,558.5C 580.552,558.649 581.552,558.483 582.5,558C 586.263,553.147 590.263,548.48 594.5,544C 599.098,542.909 601.931,544.743 603,549.5C 604.038,555.29 603.205,560.79 600.5,566C 601.938,570.373 603.772,574.54 606,578.5C 606.246,585.926 602.579,589.926 595,590.5C 587.799,589.316 581.633,586.15 576.5,581C 575.552,580.517 574.552,580.351 573.5,580.5C 574.716,587.128 575.716,593.795 576.5,600.5 Z"/></g>
<g><path style="opacity:1" fill="#fbfdfc" d="M 102.5,542.5 C 107.363,542.181 112.03,542.514 116.5,543.5C 113.67,552.218 113.836,560.885 117,569.5C 120.621,573.839 123.621,573.505 126,568.5C 125.122,555.852 128.622,544.685 136.5,535C 149.1,528.64 159.266,531.473 167,543.5C 172.231,554.255 173.898,565.588 172,577.5C 167.822,579.399 163.322,580.065 158.5,579.5C 160.05,571.613 159.216,563.946 156,556.5C 150.924,549.524 146.591,549.857 143,557.5C 142.784,568.033 140.451,578.033 136,587.5C 130.266,593.576 123.433,595.076 115.5,592C 104.529,583.457 99.5288,572.124 100.5,558C 100.381,552.683 101.048,547.516 102.5,542.5 Z"/></g>
<g><path style="opacity:1" fill="#fbfdfc" d="M 878.5,532.5 C 910.482,530.654 926.982,545.654 928,577.5C 925.938,588.555 920.272,597.222 911,603.5C 907.5,599.333 904,595.167 900.5,591C 911.113,582.387 913.28,571.887 907,559.5C 898.267,549.726 888.1,547.892 876.5,554C 867.777,561.708 865.11,571.208 868.5,582.5C 863.058,583.758 857.724,585.425 852.5,587.5C 843.787,560.601 852.454,542.268 878.5,532.5 Z"/></g>
<g><path style="opacity:1" fill="#5eb08b" d="M 102.5,542.5 C 107.348,541.186 112.348,541.186 117.5,542.5C 117.376,543.107 117.043,543.44 116.5,543.5C 112.03,542.514 107.363,542.181 102.5,542.5 Z"/></g>
<g><path style="opacity:1" fill="#fcfcfc" d="M 712.5,545.5 C 716.471,544.758 719.304,546.091 721,549.5C 724.286,565.31 729.12,580.643 735.5,595.5C 720.485,608.115 703.151,613.615 683.5,612C 681.951,610.786 680.785,609.286 680,607.5C 674.735,592.78 671.235,577.78 669.5,562.5C 684.673,558.739 699.006,553.072 712.5,545.5 Z"/></g>
<g><path style="opacity:1" fill="#068349" d="M 471.5,562.5 C 475.182,562.335 478.848,562.501 482.5,563C 486.007,564.861 487.173,567.695 486,571.5C 483.893,575.381 482.059,579.381 480.5,583.5C 480.833,583.833 481.167,584.167 481.5,584.5C 485.327,580.843 489.327,577.343 493.5,574C 497.118,573.034 500.451,573.534 503.5,575.5C 504.565,577.853 504.398,580.186 503,582.5C 500.246,585.508 498.413,589.008 497.5,593C 500.569,597.749 503.236,602.749 505.5,608C 503.776,615.387 499.11,619.72 491.5,621C 486.632,622.186 482.298,621.186 478.5,618C 476.527,617.505 474.527,617.338 472.5,617.5C 472.343,618.873 472.51,620.207 473,621.5C 475.516,626.01 478.016,630.51 480.5,635C 480.355,635.772 480.022,636.439 479.5,637C 477.167,637.333 474.833,637.667 472.5,638C 470.109,643.352 466.943,643.852 463,639.5C 460.58,632.041 457.913,624.707 455,617.5C 451.958,622.419 448.791,627.252 445.5,632C 434.689,634.465 429.523,629.965 430,618.5C 425.866,614.036 423.033,608.869 421.5,603C 422.973,592.302 428.306,589.469 437.5,594.5C 440.246,593.904 441.08,592.237 440,589.5C 433.533,583.96 433.033,578.127 438.5,572C 445.483,570.953 452.483,569.953 459.5,569C 464.01,567.582 468.01,565.415 471.5,562.5 Z"/></g>
<g><path style="opacity:1" fill="#f5af80" d="M 736.5,602.5 C 738.823,603.496 740.49,605.162 741.5,607.5C 736.536,612.965 731.37,618.298 726,623.5C 725.383,624.449 725.549,625.282 726.5,626C 728.289,626.52 729.956,626.187 731.5,625C 736.198,617.959 742.365,612.792 750,609.5C 755.472,610.492 760.639,612.326 765.5,615C 767.041,616.579 768.208,618.413 769,620.5C 770.259,637.157 770.926,653.824 771,670.5C 768.393,679.433 765.56,688.266 762.5,697C 758.738,699.156 754.738,699.823 750.5,699C 748.333,698.167 746.833,696.667 746,694.5C 744.877,684.485 745.711,674.652 748.5,665C 747.354,657.589 745.521,650.422 743,643.5C 742.535,644.931 741.701,646.097 740.5,647C 727.743,654.099 718.909,664.599 714,678.5C 715.64,685.059 717.306,691.725 719,698.5C 719.667,703.5 719.667,708.5 719,713.5C 707.535,724.812 701.202,722.478 700,706.5C 696.667,700.5 693.333,694.5 690,688.5C 689.333,685.167 689.333,681.833 690,678.5C 691.578,675.343 692.578,672.009 693,668.5C 693.333,661.833 693.667,655.167 694,648.5C 700.697,643.982 707.03,638.982 713,633.5C 714.252,630.986 714.752,628.32 714.5,625.5C 711.033,625.446 708.366,626.946 706.5,630C 702.774,630.961 700.608,629.461 700,625.5C 699.333,624.167 699.333,622.833 700,621.5C 713.952,618.442 726.119,612.109 736.5,602.5 Z"/></g>
<g><path style="opacity:1" fill="#fbfdfc" d="M 160.5,606.5 C 183.607,605.296 198.773,615.629 206,637.5C 207.542,670.625 191.708,686.458 158.5,685C 136.789,677.615 126.622,662.448 128,639.5C 132.348,621.986 143.182,610.986 160.5,606.5 Z"/></g>
<g><path style="opacity:1" fill="#f4ae80" d="M 776.5,613.5 C 794.603,616.138 800.436,626.138 794,643.5C 789.057,658.331 783.724,672.997 778,687.5C 776.595,689.651 774.761,691.318 772.5,692.5C 771.009,691.652 770.342,690.319 770.5,688.5C 775.047,668.553 776.714,648.386 775.5,628C 775.425,624.857 774.759,621.857 773.5,619C 773.863,616.808 774.863,614.974 776.5,613.5 Z"/></g>
<g><path style="opacity:1" fill="#fafcfb" d="M 835.5,614.5 C 839.09,615.628 842.423,617.295 845.5,619.5C 836.661,627.179 832.827,636.846 834,648.5C 837.433,650.798 840.933,650.631 844.5,648C 853.591,639.572 863.258,631.905 873.5,625C 881.506,621.662 888.006,623.495 893,630.5C 899.9,642.919 900.233,655.586 894,668.5C 892.266,672.57 890.1,676.403 887.5,680C 882.066,678.274 877.066,675.44 872.5,671.5C 878.357,663.766 880.857,655.1 880,645.5C 876.804,641.813 873.304,641.647 869.5,645C 859.933,653.895 849.266,661.228 837.5,667C 827.919,670.754 822.085,667.587 820,657.5C 817.395,640.192 822.562,625.858 835.5,614.5 Z"/></g>
<g><path style="opacity:1" fill="#07834a" d="M 161.5,625.5 C 181.893,625.048 190.059,634.715 186,654.5C 179.772,665.36 170.605,668.86 158.5,665C 148.187,658.874 144.687,650.04 148,638.5C 151.076,632.589 155.576,628.255 161.5,625.5 Z"/></g>
<g><path style="opacity:1" fill="#f1ad7f" d="M 803.5,632.5 C 804.496,632.414 805.329,632.748 806,633.5C 807.947,637.284 809.28,641.284 810,645.5C 810.667,652.5 810.667,659.5 810,666.5C 803.915,676.338 797.582,686.004 791,695.5C 788.561,698.612 785.561,700.945 782,702.5C 779.681,701.591 779.014,699.925 780,697.5C 784.345,691.48 787.012,684.814 788,677.5C 794.244,662.853 799.41,647.853 803.5,632.5 Z"/></g>
<g><path style="opacity:1" fill="#a43631" d="M 731.5,663.5 C 735.53,663.799 739.363,664.799 743,666.5C 742.92,672.339 742.42,678.173 741.5,684C 740.872,693.571 744.372,701.071 752,706.5C 752.167,707.5 752.333,708.5 752.5,709.5C 749.771,714.63 747.271,719.964 745,725.5C 744.226,732.224 744.559,738.89 746,745.5C 748.269,749.038 750.269,752.705 752,756.5C 751.695,763.15 751.695,769.817 752,776.5C 755.333,780.5 758.667,784.5 762,788.5C 763.92,791.838 765.42,795.338 766.5,799C 761.996,805.869 757.829,813.036 754,820.5C 750.354,829.29 749.687,838.29 752,847.5C 754.554,854.276 757.887,860.609 762,866.5C 762.906,868.744 763.406,871.077 763.5,873.5C 762.566,877.806 761.733,882.139 761,886.5C 760.667,911.167 760.333,935.833 760,960.5C 759.716,962.886 758.716,963.552 757,962.5C 751.847,936.882 746.847,911.216 742,885.5C 738.609,875.048 732.942,866.048 725,858.5C 724.333,855.833 724.333,853.167 725,850.5C 727.54,838.928 729.54,827.261 731,815.5C 733.946,797.23 730.612,780.23 721,764.5C 716.431,758.934 712.264,753.101 708.5,747C 709.864,743.773 711.364,740.606 713,737.5C 713.147,730.057 715.481,723.39 720,717.5C 721.632,710.412 722.798,703.245 723.5,696C 722.579,691.505 722.079,687.005 722,682.5C 725.18,676.14 728.347,669.807 731.5,663.5 Z"/></g>
<g><path style="opacity:1" fill="#f2f3f4" d="M 505.5,705.5 C 498.8,705.17 492.134,705.503 485.5,706.5C 485.624,707.107 485.957,707.44 486.5,707.5C 490.786,721.229 491.62,735.229 489,749.5C 487.482,757.572 485.649,765.572 483.5,773.5C 485.363,777.755 487.03,782.088 488.5,786.5C 488.473,788.704 487.473,789.538 485.5,789C 478.562,777.067 471.229,765.4 463.5,754C 461.833,753.333 460.167,753.333 458.5,754C 456.57,756.258 455.07,758.758 454,761.5C 452.167,760.333 450.333,759.167 448.5,758C 451.911,753.402 456.244,750.235 461.5,748.5C 463.299,748.577 464.966,749.077 466.5,750C 470.009,754.34 473.676,758.507 477.5,762.5C 478.314,760.234 478.814,757.9 479,755.5C 479.667,742.833 479.667,730.167 479,717.5C 478.23,710.781 475.063,705.614 469.5,702C 446.817,697.743 427.317,687.577 411,671.5C 410.517,670.552 410.351,669.552 410.5,668.5C 415.209,668.672 418.875,670.839 421.5,675C 440.968,689.825 462.968,698.159 487.5,700C 500.513,700.167 513.513,700.667 526.5,701.5C 525.619,702.971 524.286,703.804 522.5,704C 516.865,704.904 511.198,705.404 505.5,705.5 Z"/></g>
<g><path style="opacity:1" fill="#fbfdfc" d="M 218.5,688.5 C 225.181,688.669 231.181,690.836 236.5,695C 250.628,708.787 263.628,723.453 275.5,739C 258.895,754.069 241.729,768.569 224,782.5C 207.793,769.301 194.126,753.968 183,736.5C 179.545,726.578 182.711,719.745 192.5,716C 198.104,715.277 203.604,715.777 209,717.5C 209.5,717.167 210,716.833 210.5,716.5C 206.105,705.029 208.772,695.695 218.5,688.5 Z"/></g>
<g><path style="opacity:1" fill="#98a0a4" d="M 505.5,705.5 C 499.167,706.167 492.833,706.833 486.5,707.5C 485.957,707.44 485.624,707.107 485.5,706.5C 492.134,705.503 498.8,705.17 505.5,705.5 Z"/></g>
<g><path style="opacity:1" fill="#0d854c" d="M 227.5,709.5 C 231.331,709.249 234.664,710.416 237.5,713C 242.367,717.532 246.867,722.366 251,727.5C 251.667,728.5 251.667,729.5 251,730.5C 248.555,731.977 246.388,733.81 244.5,736C 243.241,736.982 241.908,737.315 240.5,737C 234.561,730.956 229.727,724.123 226,716.5C 225.167,713.829 225.667,711.496 227.5,709.5 Z"/></g>
<g><path style="opacity:1" fill="#09844b" d="M 203.5,734.5 C 207.719,733.979 211.386,735.146 214.5,738C 218.333,741.833 222.167,745.667 226,749.5C 224.422,753.114 221.922,756.281 218.5,759C 212.513,755.357 207.347,750.524 203,744.5C 200.899,740.943 201.066,737.61 203.5,734.5 Z"/></g>
<g><path style="opacity:1" fill="#008147" d="M 701.5,746.5 C 702.496,746.414 703.329,746.748 704,747.5C 707.846,755.348 712.513,762.681 718,769.5C 725.028,785.47 727.362,802.137 725,819.5C 723.602,830.491 720.935,841.157 717,851.5C 716.748,854.667 716.582,857.667 716.5,860.5C 656.274,893.14 591.94,909.973 523.5,911C 517.188,903.738 510.688,896.571 504,889.5C 501.968,874.806 502.135,860.139 504.5,845.5C 530.385,839.396 551.051,825.562 566.5,804C 616.132,795.17 661.132,776.003 701.5,746.5 Z"/></g>
<g><path style="opacity:1" fill="#f9fafa" d="M 337.5,784.5 C 337.125,788.442 336.125,792.109 334.5,795.5C 331.833,795.5 329.167,795.5 326.5,795.5C 326.334,786.494 326.5,777.494 327,768.5C 326.758,760.606 329.591,754.106 335.5,749C 343.109,748.28 346.275,751.78 345,759.5C 343.414,761.67 342.08,764.004 341,766.5C 339.001,772.329 337.834,778.329 337.5,784.5 Z"/></g>
<g><path style="opacity:1" fill="#fcfcfc" d="M 428.5,763.5 C 438.205,762.238 447.205,764.071 455.5,769C 458.106,770.938 459.939,773.438 461,776.5C 462.531,786.448 462.865,796.448 462,806.5C 460.471,816.04 454.971,820.207 445.5,819C 431.268,813.551 417.268,807.551 403.5,801C 395.559,797.814 387.392,795.648 379,794.5C 377.504,787.901 377.171,781.234 378,774.5C 378.759,771.215 380.092,768.215 382,765.5C 391.745,772.213 402.245,773.38 413.5,769C 418.598,767.104 423.598,765.27 428.5,763.5 Z"/></g>
<g><path style="opacity:1" fill="#768085" d="M 337.5,784.5 C 337.5,788.5 337.5,792.5 337.5,796.5C 336.209,796.737 335.209,796.404 334.5,795.5C 336.125,792.109 337.125,788.442 337.5,784.5 Z"/></g>
<g><path style="opacity:1" fill="#b49251" d="M 403.5,830.5 C 404.5,830.5 405.5,830.5 406.5,830.5C 413.323,831.568 415.323,835.402 412.5,842C 398.167,842.667 383.833,842.667 369.5,842C 369,841.5 368.5,841 368,840.5C 367.638,830.153 367.138,819.82 366.5,809.5C 378.202,810.037 389.868,811.037 401.5,812.5C 404.757,812.493 407.757,811.993 410.5,811C 412.826,816.141 411.159,818.308 405.5,817.5C 395.528,816.336 385.528,815.503 375.5,815C 374.874,814.25 374.374,813.416 374,812.5C 373.667,812.833 373.333,813.167 373,813.5C 372.333,819.167 372.333,824.833 373,830.5C 374.251,833.381 376.417,835.214 379.5,836C 385.833,836.667 392.167,836.667 398.5,836C 400.519,835.55 402.352,834.717 404,833.5C 404.47,832.423 404.303,831.423 403.5,830.5 Z"/></g>
<g><path style="opacity:1" fill="#008147" d="M 405.5,855.5 C 405.5,853.5 405.5,851.5 405.5,849.5C 408.713,849.81 411.713,849.477 414.5,848.5C 415.833,848.5 417.167,848.5 418.5,848.5C 417.335,836.853 416.835,825.187 417,813.5C 426.346,818.421 436.18,822.088 446.5,824.5C 456.238,843.212 462.238,863.046 464.5,884C 464.167,885.5 463.833,887 463.5,888.5C 461.278,887.222 458.944,886.222 456.5,885.5C 440.204,890.759 423.537,894.093 406.5,895.5C 406.639,882.15 406.306,868.817 405.5,855.5 Z"/></g>
<g><path style="opacity:1" fill="#f9f7f3" d="M 377.5,822.5 C 383.323,823.582 388.99,823.582 394.5,822.5C 397.518,822.335 400.518,822.502 403.5,823C 404.756,823.417 405.423,824.25 405.5,825.5C 405.5,826.833 405.5,828.167 405.5,829.5C 396.833,829.5 388.167,829.5 379.5,829.5C 375.471,827.783 374.805,825.45 377.5,822.5 Z"/></g>
<g><path style="opacity:1" fill="#7f7251" d="M 377.5,822.5 C 382.974,822.101 388.64,822.101 394.5,822.5C 388.99,823.582 383.323,823.582 377.5,822.5 Z"/></g>
<g><path style="opacity:1" fill="#dcc7a7" d="M 405.5,825.5 C 406.451,826.919 406.784,828.585 406.5,830.5C 405.5,830.5 404.5,830.5 403.5,830.5C 395.316,830.826 387.316,830.492 379.5,829.5C 388.167,829.5 396.833,829.5 405.5,829.5C 405.5,828.167 405.5,826.833 405.5,825.5 Z"/></g>
<g><path style="opacity:1" fill="#fbfbfb" d="M 455.5,829.5 C 464.729,828.192 470.896,831.859 474,840.5C 475.731,842.617 477.898,844.117 480.5,845C 486.336,846.046 492.169,846.879 498,847.5C 496.914,862.214 497.414,876.881 499.5,891.5C 499.61,893.374 498.944,894.874 497.5,896C 490.871,899.31 483.871,900.31 476.5,899C 472.719,897.382 469.719,894.882 467.5,891.5C 469.873,890.45 470.873,888.617 470.5,886C 468.719,866.861 463.386,848.861 454.5,832C 454.743,831.098 455.077,830.265 455.5,829.5 Z"/></g>
<g><path style="opacity:1" fill="#04392d" d="M 414.5,848.5 C 411.713,849.477 408.713,849.81 405.5,849.5C 405.5,851.5 405.5,853.5 405.5,855.5C 404.532,853.393 404.198,851.059 404.5,848.5C 407.833,848.5 411.167,848.5 414.5,848.5 Z"/></g>
<g><path style="opacity:1" fill="#eaeced" d="M 358.5,848.5 C 359.497,848.47 360.164,848.97 360.5,850C 352.583,869.423 351.416,889.257 357,909.5C 358.237,914.473 360.404,918.973 363.5,923C 361.246,924.256 358.912,925.423 356.5,926.5C 349.505,906.544 348.005,886.211 352,865.5C 353.298,859.43 355.465,853.763 358.5,848.5 Z"/></g>
<g><path style="opacity:1" fill="#b49251" d="M 450.5,891.5 C 455.118,891.269 459.118,892.769 462.5,896C 466.667,899.5 470.833,903 475,906.5C 475.667,907.833 475.667,909.167 475,910.5C 472.414,912.545 469.58,914.211 466.5,915.5C 465.682,912.893 465.182,910.226 465,907.5C 459.957,902.788 454.623,898.455 449,894.5C 448.761,893.212 449.261,892.212 450.5,891.5 Z"/></g>
<g><path style="opacity:1" fill="#b39151" d="M 417.5,898.5 C 421.846,898.334 426.179,898.501 430.5,899C 428.789,900.133 428.289,901.633 429,903.5C 434.833,908.667 440.667,913.833 446.5,919C 448.81,919.497 451.143,919.663 453.5,919.5C 450.069,925.421 445.069,926.921 438.5,924C 430.904,916.949 423.404,909.782 416,902.5C 415.516,900.807 416.016,899.473 417.5,898.5 Z"/></g>
<g><path style="opacity:1" fill="#f5f6f6" d="M 442.5,901.5 C 448.978,901.241 453.978,903.907 457.5,909.5C 453.851,911.912 449.851,912.745 445.5,912C 442.983,909.651 440.65,907.151 438.5,904.5C 439.901,903.479 441.235,902.479 442.5,901.5 Z"/></g>
<g><path style="opacity:1" fill="#f8f8f8" d="M 519.5,932.5 C 524.346,933.509 526.18,936.509 525,941.5C 514.092,949.526 501.925,954.526 488.5,956.5C 488.177,952.543 488.177,948.71 488.5,945C 499.365,941.892 509.698,937.726 519.5,932.5 Z"/></g>
<g><path style="opacity:1" fill="#f1f2f2" d="M 338.5,955.5 C 344.909,960.403 350.909,965.903 356.5,972C 372.569,986.748 391.569,993.914 413.5,993.5C 398.603,998.482 384.27,996.982 370.5,989C 357.813,981.648 346.979,972.148 338,960.5C 337.36,958.735 337.527,957.068 338.5,955.5 Z"/></g>
</svg>
