<?xml version="1.0" encoding="UTF-8"?>
<svg version="1.1" xmlns="http://www.w3.org/2000/svg" width="350" height="401">
<path d="M0 0 C1.50433594 0.01353516 1.50433594 0.01353516 3.0390625 0.02734375 C3.80992187 0.03894531 4.58078125 0.05054688 5.375 0.0625 C6.79541821 2.90333641 6.68952272 4.91727278 6.375 8.0625 C3.70201525 11.55794159 0.11089819 13.78847502 -3.625 16.0625 C-4.285 16.0625 -4.945 16.0625 -5.625 16.0625 C-6.12 17.5475 -6.12 17.5475 -6.625 19.0625 C-8.3671875 20.74609375 -8.3671875 20.74609375 -10.5 22.5 C-13.31361414 24.82045299 -15.53241794 27.06839673 -17.625 30.0625 C-16.56539063 30.02769531 -15.50578125 29.99289063 -14.4140625 29.95703125 C-13.02605748 29.92889601 -11.63803537 29.90159557 -10.25 29.875 C-9.55132812 29.84986328 -8.85265625 29.82472656 -8.1328125 29.79882812 C-6.1015625 29.76953125 -6.1015625 29.76953125 -2.625 30.0625 C-0.1955484 33.7066774 -0.46320425 35.77491272 -0.625 40.0625 C-1.22973145 40.31418945 -1.83446289 40.56587891 -2.45751953 40.82519531 C-5.22444762 41.98112813 -7.98720776 43.14671862 -10.75 44.3125 C-11.70132813 44.70824219 -12.65265625 45.10398438 -13.6328125 45.51171875 C-18.69067429 47.6542852 -23.12515759 49.92842445 -27.625 53.0625 C-28.285 53.0625 -28.945 53.0625 -29.625 53.0625 C-29.625 53.7225 -29.625 54.3825 -29.625 55.0625 C-30.615 55.5575 -30.615 55.5575 -31.625 56.0625 C-32.28046096 58.70238405 -32.80588095 61.26057527 -33.25 63.9375 C-33.38116211 64.71182373 -33.51232422 65.48614746 -33.64746094 66.28393555 C-34.6076779 72.27282124 -34.98220429 77.99918616 -34.625 84.0625 C-34.60566406 84.97773437 -34.58632812 85.89296875 -34.56640625 86.8359375 C-33.87632304 102.43600032 -27.61602987 118.10387125 -17.625 130.0625 C-17.46644531 128.90234375 -17.30789062 127.7421875 -17.14453125 126.546875 C-14.88846479 111.01933933 -11.01458707 97.79277008 1.52734375 87.25390625 C3.375 86.0625 3.375 86.0625 5.375 86.0625 C5.375 85.4025 5.375 84.7425 5.375 84.0625 C17.00657895 76.87828947 17.00657895 76.87828947 24.375 78.0625 C26.4375 79.125 26.4375 79.125 27.375 81.0625 C27.4375 84.5 27.4375 84.5 26.375 88.0625 C23.375 90.375 23.375 90.375 20.375 92.0625 C20.045 92.7225 19.715 93.3825 19.375 94.0625 C18.715 94.0625 18.055 94.0625 17.375 94.0625 C17.375 94.7225 17.375 95.3825 17.375 96.0625 C18.303125 96.000625 19.23125 95.93875 20.1875 95.875 C23.375 96.0625 23.375 96.0625 25.25 97.125 C27.04330867 100.21347604 26.80341969 102.57393969 26.375 106.0625 C24.38386648 108.74287205 22.32362282 110.09488996 19.5 111.875 C14.48446088 115.38587738 9.89852354 119.96840583 8.375 126.0625 C7.76343437 131.46466306 8.86557773 134.69197523 11.5 139.265625 C12.375 141.0625 12.375 141.0625 12.375 144.0625 C13.035 144.0625 13.695 144.0625 14.375 144.0625 C14.64699219 143.34835938 14.91898437 142.63421875 15.19921875 141.8984375 C16.37800513 139.05525175 17.7448899 136.4052404 19.1875 133.6875 C22.25148614 127.68626193 24.22589478 121.65995729 26.1015625 115.21484375 C27.43385325 111.91681112 28.25308672 110.69000906 31.375 109.0625 C34.07309776 109.31946169 35.95850693 109.85425346 38.375 111.0625 C41.67777081 120.97081244 38.58222953 134.4408114 35.375 144.0625 C35.13652344 144.80113281 34.89804688 145.53976563 34.65234375 146.30078125 C33.35654401 150.27934226 31.9941461 154.20145929 30.375 158.0625 C35.47467576 160.11052979 39.90694567 160.39742969 45.3125 160.375 C46.47168945 160.39916992 46.47168945 160.39916992 47.65429688 160.42382812 C52.96842595 160.4283202 56.62849341 159.45787417 61.375 157.0625 C61.04886719 156.25167969 60.72273437 155.44085938 60.38671875 154.60546875 C55.07785815 141.15322316 50.01185471 126.64191192 53 112 C54.375 110.0625 54.375 110.0625 57.25 109.125 C60.52239635 109.05955207 61.72581914 109.24153096 64.375 111.0625 C65.17578125 113.13671875 65.17578125 113.13671875 65.6875 115.75 C66.89554226 120.80241983 68.66073314 125.26472454 70.875 129.9375 C71.17188721 130.56744873 71.46877441 131.19739746 71.7746582 131.84643555 C73.10290889 134.60850544 74.49832369 137.26486296 76.09375 139.8828125 C77.375 142.0625 77.375 142.0625 77.375 144.0625 C78.035 144.0625 78.695 144.0625 79.375 144.0625 C79.808125 142.45375 79.808125 142.45375 80.25 140.8125 C81.375 137.0625 81.375 137.0625 82.5 135.125 C83.90712776 131.80819885 83.93572176 128.563751 83.375 125.0625 C82.24507482 122.54227557 80.87158602 120.40091566 79.375 118.0625 C79.375 117.4025 79.375 116.7425 79.375 116.0625 C78.715 116.0625 78.055 116.0625 77.375 116.0625 C76.04166667 114.72916667 74.70833333 113.39583333 73.375 112.0625 C71.24190808 110.82737921 71.24190808 110.82737921 69.375 110.0625 C69.375 109.4025 69.375 108.7425 69.375 108.0625 C68.055 107.7325 66.735 107.4025 65.375 107.0625 C65.0122796 99.68718514 65.0122796 99.68718514 66.5 97.125 C69.05602669 95.67658488 71.47840247 95.38434417 74.375 95.0625 C73.4675 94.32 72.56 93.5775 71.625 92.8125 C71.08230469 92.35101563 70.53960937 91.88953125 69.98046875 91.4140625 C68.66142983 90.30363071 67.30415534 89.23877334 65.9375 88.1875 C64.375 86.0625 64.375 86.0625 64.5 82.375 C64.78875 81.281875 65.0775 80.18875 65.375 79.0625 C69.39748275 77.05125862 73.63233112 77.84645087 77.8125 79.0625 C78.658125 79.3925 79.50375 79.7225 80.375 80.0625 C80.375 80.7225 80.375 81.3825 80.375 82.0625 C81.1071875 82.32417969 81.839375 82.58585937 82.59375 82.85546875 C85.41711003 84.08077528 87.47130556 85.46643276 89.875 87.375 C90.6071875 87.94863281 91.339375 88.52226563 92.09375 89.11328125 C104.25283128 99.50263323 108.08483073 114.58046874 109.375 130.0625 C123.64289997 110.73710234 129.35759218 88.98042021 125.87890625 65.08203125 C124.78865517 58.92179128 124.78865517 58.92179128 121.25 53.96875 C117.80365882 51.68367596 114.27430845 49.81225643 110.5625 48 C109.88896484 47.66162109 109.21542969 47.32324219 108.52148438 46.97460938 C105.06352421 45.26382908 101.61984386 43.74758806 97.98828125 42.44140625 C94.375 41.0625 94.375 41.0625 92.375 39.0625 C92.03009678 35.00988713 92.07336118 33.51495824 94.375 30.0625 C97.00197064 29.84112607 99.38393964 29.78087975 102 29.875 C102.70640625 29.88853516 103.4128125 29.90207031 104.140625 29.91601562 C105.88574128 29.9513896 107.63046608 30.00519779 109.375 30.0625 C107.92040569 28.41336118 106.46120743 26.76828218 105 25.125 C104.18789062 24.20847656 103.37578125 23.29195312 102.5390625 22.34765625 C100.58790653 20.02648605 100.58790653 20.02648605 98.375 19.0625 C98.375 18.4025 98.375 17.7425 98.375 17.0625 C97.405625 16.77375 96.43625 16.485 95.4375 16.1875 C92.375 15.0625 92.375 15.0625 91.375 13.0625 C90.385 12.7325 89.395 12.4025 88.375 12.0625 C88.375 11.4025 88.375 10.7425 88.375 10.0625 C87.715 10.0625 87.055 10.0625 86.375 10.0625 C84.11379444 4.82602396 84.11379444 4.82602396 85.1875 1.6875 C88.63628686 -0.87445595 92.2220647 -0.37654515 96.375 0.0625 C97.71516941 0.36718809 99.05159518 0.69170548 100.375 1.0625 C100.375 1.7225 100.375 2.3825 100.375 3.0625 C101.055625 3.145 101.73625 3.2275 102.4375 3.3125 C106.2496907 4.28582528 109.01570329 6.02057455 112.375 8.0625 C112.375 8.7225 112.375 9.3825 112.375 10.0625 C113.365 10.0625 114.355 10.0625 115.375 10.0625 C115.375 10.7225 115.375 11.3825 115.375 12.0625 C116.055625 11.381875 116.73625 10.70125 117.4375 10 C120.375 8.0625 120.375 8.0625 123.5 7.9375 C128.91863832 9.08762673 133.67901043 12.24913688 138.375 15.0625 C139.04789063 15.46339844 139.72078125 15.86429688 140.4140625 16.27734375 C142.0625 17.3125 142.0625 17.3125 144.375 19.0625 C144.375 19.7225 144.375 20.3825 144.375 21.0625 C144.92285156 21.2584375 145.47070312 21.454375 146.03515625 21.65625 C149.37110585 23.66116128 151.47138561 26.52173303 153.8125 29.5625 C154.30113525 30.19325439 154.78977051 30.82400879 155.29321289 31.47387695 C168.36514203 48.70814317 172.16925934 68.84908368 170.375 90.0625 C168.89644338 99.38905597 165.49061252 107.89834932 160.4140625 115.86328125 C159.21562523 117.95968048 159.21562523 117.95968048 159.45703125 120.06640625 C160.69119678 122.75005981 162.40886273 124.54794958 164.4375 126.6875 C168.375 130.85336116 168.375 130.85336116 168.375 133.0625 C169.035 133.0625 169.695 133.0625 170.375 133.0625 C171.90364311 135.03261764 173.30638042 136.99237818 174.6875 139.0625 C175.09266846 139.66046387 175.49783691 140.25842773 175.9152832 140.87451172 C177.07767986 142.59794483 178.22896269 144.32815651 179.375 146.0625 C180.11363281 147.18011719 180.11363281 147.18011719 180.8671875 148.3203125 C182.07850463 150.2125007 183.23754404 152.12503336 184.375 154.0625 C184.84421875 154.85527344 185.3134375 155.64804688 185.796875 156.46484375 C198.94230515 179.53710647 204.56310535 204.58796472 204.56030273 230.9465332 C204.56247922 233.22822017 204.58066778 235.50941432 204.59960938 237.79101562 C204.64837069 250.29098175 203.56329825 262.4108024 200.4375 274.5625 C200.11910156 275.8309375 199.80070312 277.099375 199.47265625 278.40625 C198.36023524 282.11168085 196.95089933 285.53231919 195.375 289.0625 C194.78642848 290.5813138 194.20260289 292.10198106 193.625 293.625 C189.78549732 303.26053354 184.9696683 312.34139941 179.375 321.0625 C179.045 322.0525 178.715 323.0425 178.375 324.0625 C177.715 324.0625 177.055 324.0625 176.375 324.0625 C175.9728125 324.8978125 175.9728125 324.8978125 175.5625 325.75 C173.03304913 330.67577276 170.34546375 334.18227407 166.375 338.0625 C161.8993166 342.72299446 161.8993166 342.72299446 158.375 348.0625 C157.385 348.0625 156.395 348.0625 155.375 348.0625 C155.1275 348.65546875 154.88 349.2484375 154.625 349.859375 C153.18531137 352.3968262 151.72348507 353.60294102 149.375 355.3125 C148.67375 355.83328125 147.9725 356.3540625 147.25 356.890625 C145.375 358.0625 145.375 358.0625 143.375 358.0625 C143.045 359.0525 142.715 360.0425 142.375 361.0625 C140.3125 361.75 140.3125 361.75 138.375 362.0625 C138.375 362.7225 138.375 363.3825 138.375 364.0625 C135.92589756 365.71158274 133.49207509 367.21680963 130.9375 368.6875 C129.78918701 369.3530188 129.78918701 369.3530188 128.61767578 370.03198242 C103.54950084 384.34017268 77.76545185 392.25096628 48.86328125 392.24780273 C46.64303191 392.2499823 44.42328654 392.26818196 42.203125 392.28710938 C12.26156232 392.40362727 -17.1324319 383.18352638 -42.13671875 366.69921875 C-44.49371572 365.14885497 -46.89078718 363.69624181 -49.3125 362.25 C-50.9521875 361.1671875 -50.9521875 361.1671875 -52.625 360.0625 C-52.625 359.4025 -52.625 358.7425 -52.625 358.0625 C-53.285 358.0625 -53.945 358.0625 -54.625 358.0625 C-54.625 357.4025 -54.625 356.7425 -54.625 356.0625 C-55.20765625 355.794375 -55.7903125 355.52625 -56.390625 355.25 C-58.65286601 354.04769009 -60.43076318 352.72424087 -62.375 351.0625 C-62.98859375 350.546875 -63.6021875 350.03125 -64.234375 349.5 C-65.625 348.0625 -65.625 348.0625 -65.625 346.0625 C-66.16898438 345.86269531 -66.71296875 345.66289062 -67.2734375 345.45703125 C-70.59956237 343.48456185 -72.81043086 340.68857192 -75.25 337.75 C-75.73984375 337.18087891 -76.2296875 336.61175781 -76.734375 336.02539062 C-79.39948205 332.8542045 -81.34642606 330.07120537 -82.625 326.0625 C-83.285 326.0625 -83.945 326.0625 -84.625 326.0625 C-89.80729463 319.88120881 -93.18242526 312.28832093 -96.625 305.0625 C-97.3675 303.56589844 -97.3675 303.56589844 -98.125 302.0390625 C-108.43291499 280.72530078 -112.81272568 259.25701156 -112.81030273 235.69628906 C-112.81248277 233.33119519 -112.83067945 230.96657394 -112.84960938 228.6015625 C-112.90530042 213.81114122 -110.80862263 200.27132204 -106.625 186.0625 C-106.33882812 185.05574219 -106.05265625 184.04898438 -105.7578125 183.01171875 C-102.10439958 171.06538181 -95.92542763 159.81154039 -89.625 149.0625 C-89.1815625 148.29808594 -88.738125 147.53367188 -88.28125 146.74609375 C-85.73984938 142.49811306 -85.73984938 142.49811306 -84.625 141.0625 C-83.965 141.0625 -83.305 141.0625 -82.625 141.0625 C-82.40714844 140.37671875 -82.18929687 139.6909375 -81.96484375 138.984375 C-80.23990098 135.22269222 -77.87435696 132.43023493 -75.1875 129.3125 C-74.69701172 128.72339844 -74.20652344 128.13429687 -73.70117188 127.52734375 C-70.00673405 123.18974468 -70.00673405 123.18974468 -66.625 122.0625 C-68.61307257 117.34229394 -68.61307257 117.34229394 -70.796875 112.7109375 C-79.52382279 94.87995159 -81.68471214 75.1138677 -75.625 56.0625 C-75.43164062 55.4324707 -75.23828125 54.80244141 -75.0390625 54.15332031 C-71.83692975 43.92922669 -67.56808235 36.30583232 -60.625 28.0625 C-59.93921875 27.1859375 -59.2534375 26.309375 -58.546875 25.40625 C-56.12971051 22.45848842 -53.65625721 20.36889136 -50.625 18.0625 C-49.965 18.0625 -49.305 18.0625 -48.625 18.0625 C-48.625 17.4025 -48.625 16.7425 -48.625 16.0625 C-46.61328125 14.625 -46.61328125 14.625 -43.9375 13.0625 C-43.06738281 12.546875 -42.19726562 12.03125 -41.30078125 11.5 C-37.12830548 9.25843637 -33.43436208 7.32259814 -28.625 8.0625 C-27.25116115 9.35405812 -25.91265819 10.68500519 -24.625 12.0625 C-23.52091797 11.21365234 -23.52091797 11.21365234 -22.39453125 10.34765625 C-21.41871094 9.61417969 -20.44289063 8.88070313 -19.4375 8.125 C-18.47457031 7.39410156 -17.51164062 6.66320312 -16.51953125 5.91015625 C-13.70654549 4.11455265 -11.85003322 3.60668855 -8.625 3.0625 C-8.295 2.4025 -7.965 1.7425 -7.625 1.0625 C-4.98041621 -0.25979189 -2.94738699 -0.03427194 0 0 Z " fill="#EADEC3" transform="translate(128.625,5.9375)"/>
<path d="M0 0 C11.46636405 2.08479346 20.93912153 11.08004598 29 19 C29.61359375 19.60070312 30.2271875 20.20140625 30.859375 20.8203125 C34.78130669 24.97612085 37.50445233 29.50505043 40.3125 34.4375 C44.26154452 41.36914171 48.6772046 46.05717979 55 51 C55.33 51.33 55.66 51.66 56 52 C53.90120409 37.30842864 45.20801205 25.18699866 36 14 C34.99158359 12.67302068 33.9876835 11.34248243 33 10 C47.31661736 15.09092711 57.0717471 27.0459137 64 40 C71.66834069 56.9245701 74.29853887 75.96463914 68.26171875 93.86328125 C59.21252503 116.36019318 41.99705763 134.53263863 23.046875 149.29296875 C20.91244773 150.84137539 20.91244773 150.84137539 20 153 C21.57201172 152.33291016 21.57201172 152.33291016 23.17578125 151.65234375 C24.55448063 151.0802304 25.93339839 150.50864309 27.3125 149.9375 C28.00279297 149.64294922 28.69308594 149.34839844 29.40429688 149.04492188 C34.66015625 146.88671875 34.66015625 146.88671875 38 148 C36.2786196 170.14671495 36.2786196 170.14671495 28.3125 178 C18.96460461 183.64401231 6.61443274 182.58588455 -4 183 C-3.75435303 183.61415771 -3.50870605 184.22831543 -3.25561523 184.86108398 C-1.94290966 188.39336275 -1.30694388 191.31821241 -2.78857422 194.91357422 C-4.6423547 198.37279381 -6.77175053 201.62103173 -8.9609375 204.875 C-11.18215312 207.65726065 -11.18215312 207.65726065 -11 210 C-10.34 210.33 -9.68 210.66 -9 211 C-8.27437659 213.04430623 -7.6548278 215.12647339 -7.08203125 217.21875 C-6.81465904 218.18140778 -6.81465904 218.18140778 -6.54188538 219.16351318 C-5.95769634 221.27363187 -5.38485042 223.38664222 -4.8125 225.5 C-4.41424493 226.95168157 -4.01531463 228.40317805 -3.61572266 229.85449219 C-3.00661173 232.06751541 -2.39821969 234.28071296 -1.79302979 236.49481201 C-0.50762098 241.19123415 0.8208992 245.8722756 2.18359375 250.546875 C2.51270752 251.68447266 2.84182129 252.82207031 3.1809082 253.99414062 C3.79880766 256.12507086 4.42338897 258.25407771 5.05541992 260.38085938 C5.46497925 261.80881836 5.46497925 261.80881836 5.8828125 263.265625 C6.12402832 264.08836914 6.36524414 264.91111328 6.61376953 265.75878906 C7.03898712 268.22623372 6.86663553 269.66503806 6 272 C4.3203125 273.82421875 4.3203125 273.82421875 2.125 275.6875 C1.30386719 276.38875 0.48273438 277.09 -0.36328125 277.8125 C-1.23339844 278.534375 -2.10351562 279.25625 -3 280 C-3.81855469 280.680625 -4.63710937 281.36125 -5.48046875 282.0625 C-7.7608663 283.93925683 -10.05095378 285.80329214 -12.34716797 287.66064453 C-14.21535862 289.17451365 -16.07854419 290.69442286 -17.94140625 292.21484375 C-24.89989305 297.88967865 -31.86373225 303.54868436 -39 309 C-40.29347813 305.1195656 -39.54055374 302.93752755 -38.671875 298.9453125 C-38.52220276 298.24791962 -38.37253052 297.55052673 -38.21832275 296.83200073 C-37.73619248 294.59467823 -37.24316565 292.35991296 -36.75 290.125 C-36.43289674 288.65900476 -36.11648343 287.1928601 -35.80078125 285.7265625 C-31.25722026 264.70628222 -31.25722026 264.70628222 -28.8125 255.5 C-28.10629169 252.45787189 -27.93134787 250.08406474 -28 247 C-29.68990377 248.97715685 -31.3772664 250.95636692 -33.0625 252.9375 C-33.81370117 253.8186145 -33.81370117 253.8186145 -34.58007812 254.7175293 C-38.08474552 258.85197686 -41.39971257 263.08409975 -44.5625 267.48828125 C-45.036875 267.98714844 -45.51125 268.48601562 -46 269 C-46.99 269 -47.98 269 -49 269 C-50.87529307 266.87387155 -52.56614954 264.76987529 -54.25 262.5 C-55.22874845 261.21483388 -56.20921463 259.93097409 -57.19140625 258.6484375 C-57.66852051 258.02291992 -58.14563477 257.39740234 -58.63720703 256.75292969 C-61.26941502 253.36718025 -64.11494353 250.17060813 -67 247 C-66.37229411 252.57177139 -65.46012597 257.97889643 -64.2578125 263.453125 C-64.08877411 264.234599 -63.91973572 265.016073 -63.74557495 265.82122803 C-63.38917517 267.46532719 -63.03108818 269.10906144 -62.67138672 270.75244141 C-62.1296776 273.22861846 -61.59369503 275.70598131 -61.05859375 278.18359375 C-59.35885912 286.0150685 -57.61591247 293.81045399 -55.51123047 301.54589844 C-54.97966384 304.09762132 -54.90738994 306.40109382 -55 309 C-61.65713573 305.04901701 -67.3440518 300.20380633 -73.1237793 295.10400391 C-77.43420362 291.31538759 -81.83490273 287.69696975 -86.375 284.1875 C-91.78557044 280.00374935 -96.97186275 275.64238069 -102 271 C-99.52265512 260.06646674 -96.77632796 249.24595691 -93.70166016 238.46533203 C-92.93424623 235.76896954 -92.17593808 233.07012565 -91.41796875 230.37109375 C-90.8831484 228.47646765 -90.34799792 226.5819347 -89.8125 224.6875 C-89.56258301 223.79772461 -89.31266602 222.90794922 -89.05517578 221.99121094 C-86.55732253 213.21077608 -86.55732253 213.21077608 -85 210 C-84.34 209.67 -83.68 209.34 -83 209 C-83.74507813 207.96101562 -84.49015625 206.92203125 -85.2578125 205.8515625 C-92.88191536 194.77548697 -92.88191536 194.77548697 -93.21875 189.7109375 C-92.69008041 187.29714345 -91.95900969 185.26406004 -91 183 C-92.23234375 182.96261719 -93.4646875 182.92523438 -94.734375 182.88671875 C-118.07247289 182.03205093 -118.07247289 182.03205093 -123.953125 177.4921875 C-131.28088054 169.55971427 -133.25025546 158.51072912 -133 148 C-129.13319167 146.71106389 -128.20213625 147.60113243 -124.625 149.375 C-121.05945509 151.13321636 -117.93708944 152.38438238 -114 153 C-120.84465508 146.8049968 -120.84465508 146.8049968 -127.8125 140.75 C-146.84304416 124.06938133 -164.14223599 104.03685896 -166.16699219 77.83935547 C-167.32263764 58.95971511 -162.16119616 40.83142149 -149.953125 26.09375 C-144.69326191 20.45517676 -138.84186395 14.67124407 -132 11 C-131.01 11.33 -130.02 11.66 -129 12 C-129.4846875 12.49886719 -129.969375 12.99773438 -130.46875 13.51171875 C-139.11846416 22.77689334 -151 38.45148433 -151 52 C-150.48050781 51.48050781 -149.96101563 50.96101563 -149.42578125 50.42578125 C-148.72839844 49.72839844 -148.03101563 49.03101563 -147.3125 48.3125 C-146.57773438 47.57128906 -145.84296875 46.83007812 -145.0859375 46.06640625 C-143.58375629 44.57829041 -142.02640736 43.14513817 -140.4375 41.75 C-138.05333384 39.06017151 -136.5975142 36.57711809 -134.875 33.4375 C-128.7663155 22.66448373 -120.01889597 14.21094668 -110 7 C-109.25363281 6.46117187 -108.50726563 5.92234375 -107.73828125 5.3671875 C-102.60812888 1.8965114 -102.60812888 1.8965114 -99.7734375 2.37890625 C-98.89558594 2.68634766 -98.89558594 2.68634766 -98 3 C-99.28583984 4.16015625 -99.28583984 4.16015625 -100.59765625 5.34375 C-109.9647157 13.84929748 -117.77010268 21.86377329 -124 33 C-123.16597656 32.7834375 -122.33195312 32.566875 -121.47265625 32.34375 C-114.79043845 30.69041776 -108.87959232 29.65019022 -102 30 C-104.34527618 32.34527618 -106.21709154 32.95243468 -109.3125 34.125 C-121.24061198 38.76408651 -121.24061198 38.76408651 -130.4140625 47.12890625 C-131.23008118 49.43271657 -131.65129196 51.58281923 -132 54 C-132.29390625 55.17949219 -132.29390625 55.17949219 -132.59375 56.3828125 C-137.55912679 77.74699946 -132.95272058 101.04032023 -121.8125 119.6875 C-117.09857908 126.7109258 -111.07347123 134.28435251 -104 139 C-104.02094727 138.34104736 -104.04189453 137.68209473 -104.06347656 137.00317383 C-104.58131962 118.2346406 -104.11201995 102.77179614 -90.5 88.3515625 C-83.37713492 81.63147848 -83.37713492 81.63147848 -78 81 C-80.220837 84.94815466 -82.82249418 88.4691083 -85.59765625 92.03515625 C-87.81312614 95.13928258 -89 97.13747405 -89 101 C-88.40832031 100.71125 -87.81664062 100.4225 -87.20703125 100.125 C-79.35852373 96.43760984 -79.35852373 96.43760984 -75 97 C-75.66 97.639375 -76.32 98.27875 -77 98.9375 C-79.45403812 101.40560138 -81.83584258 103.93416613 -84.1875 106.5 C-84.86167969 107.2321875 -85.53585938 107.964375 -86.23046875 108.71875 C-91.16482847 115.08004377 -90.69556358 122.28010303 -90 130 C-88.34277853 136.11828252 -84.81378627 141.02089015 -81 146 C-69.86237064 137.47275252 -65.41291846 123.87101219 -61 111 C-60.67 111 -60.34 111 -60 111 C-58.84746256 126.11104647 -63.83811032 139.02964861 -71 152 C-71.33 152.66 -71.66 153.32 -72 154 C-70.2675 154.928125 -70.2675 154.928125 -68.5 155.875 C-67.8503125 156.22304687 -67.200625 156.57109375 -66.53125 156.9296875 C-60.36715817 159.53610904 -54.37491703 160.38956363 -47.75 160.375 C-46.64845581 160.37367065 -46.64845581 160.37367065 -45.5246582 160.37231445 C-37.23549628 160.19429582 -29.52308607 158.30665976 -23 153 C-23.31453125 152.55011719 -23.6290625 152.10023438 -23.953125 151.63671875 C-27.66670713 146.05516007 -29.96957478 140.37197962 -32 134 C-32.22816406 133.29746094 -32.45632812 132.59492188 -32.69140625 131.87109375 C-34.21821489 126.58598691 -34.20177029 121.47021667 -34 116 C-33.34 116 -32.68 116 -32 116 C-31.64808594 116.95519531 -31.29617187 117.91039062 -30.93359375 118.89453125 C-27.04552524 129.18129541 -23.085871 139.24383952 -14 146 C-6.29546601 136.62490362 -3.88229399 129.27902378 -5 117 C-7.30737849 108.72058307 -13.97434266 102.84306166 -20 97 C-14.22621075 97.4811491 -10.04140164 99.18467181 -5 102 C-7.24039891 94.93979553 -10.20444738 90.11224356 -15.390625 84.8125 C-17 83 -17 83 -17 81 C-17.99 80.67 -18.98 80.34 -20 80 C-19.34 79.67 -18.68 79.34 -18 79 C-7.43883426 84.00075711 1.98307146 92.88244019 6 104 C6.29648438 104.78890625 6.59296875 105.5778125 6.8984375 106.390625 C9.56199577 114.94333503 12.17832315 131.64335369 8 140 C24.54490935 126.24838703 36.28567526 107.66897901 39 86 C39.81900567 72.7067 40.50899009 57.00819974 34 45 C31.85864952 43.08134429 29.52041129 41.74151832 27 40.375 C26.00601196 39.80761108 26.00601196 39.80761108 24.99194336 39.22875977 C19.48963426 36.13731427 13.83248626 33.41302446 8 31 C8 30.67 8 30.34 8 30 C13.60900715 29.62606619 18.17589337 30.72345387 23.546875 32.34375 C26.05978403 33.12921426 26.05978403 33.12921426 29 33 C24.50014624 25.2444381 19.75894138 18.27702492 13.375 11.9375 C12.84946533 11.41454346 12.32393066 10.89158691 11.7824707 10.3527832 C9.03659535 7.7092863 6.2225136 5.38266226 3.1015625 3.19140625 C2.07804688 2.46824219 1.05453125 1.74507812 0 1 C0 0.67 0 0.34 0 0 Z " fill="#054A1E" transform="translate(222,12)"/>
<path d="M0 0 C1.32 0.99 2.64 1.98 4 3 C2.66294609 6.18777826 0.77519308 8.50368894 -1.52832031 11.05810547 C-23.14857775 35.09809373 -35.4516191 67.19524544 -35.25 99.4375 C-35.25773437 100.67048828 -35.26546875 101.90347656 -35.2734375 103.17382812 C-35.25695127 110.97593633 -34.55146721 118.35310441 -33 126 C-32.11328613 125.76812988 -31.22657227 125.53625977 -30.31298828 125.29736328 C-26.97747157 124.42660412 -23.64130516 123.55842136 -20.3046875 122.69189453 C-18.86920376 122.31855299 -17.43397514 121.94422891 -15.99902344 121.56884766 C-8.04136406 119.48786979 -0.1001917 117.46189058 8 116 C8.268125 117.1859375 8.53625 118.371875 8.8125 119.59375 C15.03984086 145.82216507 29.04506412 167.45144754 52.22265625 181.8125 C73.51886448 194.41316388 99.65136486 197.75765629 123.69140625 191.96875 C147.4852487 185.00195788 168.7080151 169.51686925 180.84765625 147.67578125 C186.13495118 137.4716388 189.7493987 127.25300649 192 116 C198.78914404 116.30650763 204.74922728 117.71017964 211.1953125 119.8125 C215.86621363 121.27035826 220.57770192 122.5186266 225.3125 123.75 C226.5953186 124.08402832 226.5953186 124.08402832 227.90405273 124.42480469 C229.93546843 124.95205814 231.96765148 125.47635371 234 126 C236.1698641 118.0582974 236.39722572 110.38706314 236.375 102.1875 C236.37512085 101.50391418 236.3752417 100.82032837 236.37536621 100.11602783 C236.34583355 88.35619222 235.07765142 77.36385084 232 66 C231.73445313 64.89011719 231.46890625 63.78023437 231.1953125 62.63671875 C225.60714151 41.69438271 213.5331522 22.27629031 198.546875 6.78515625 C197 5 197 5 197 3 C197.66 3 198.32 3 199 3 C199.33 2.01 199.66 1.02 200 0 C204.86352512 3.9232675 209.00970416 8.03104703 212.875 12.9375 C213.3896582 13.59008789 213.90431641 14.24267578 214.43457031 14.91503906 C228.02497019 32.48723208 236.30214845 52.35973621 241 74 C241.24621094 75.10730469 241.49242187 76.21460938 241.74609375 77.35546875 C245.00252364 95.43426915 244.14526139 115.14820836 240 133 C239.77521973 133.99628418 239.77521973 133.99628418 239.54589844 135.01269531 C230.88426075 172.58323842 206.32882331 203.73683509 174 224 C141.37615826 243.98268758 101.26961787 248.82113013 64.2421875 239.93359375 C43.63029103 234.44700728 23.88913021 224.22659042 8 210 C7.00355469 209.13503906 6.00710937 208.27007812 4.98046875 207.37890625 C-1.75477358 201.45498577 -7.54985855 195.1507495 -13 188 C-13.66515625 187.16210938 -14.3303125 186.32421875 -15.015625 185.4609375 C-35.7932966 158.38452294 -42.98190566 125.50076565 -42 92 C-41.97035156 90.84886719 -41.94070312 89.69773437 -41.91015625 88.51171875 C-40.18914222 54.80502935 -22.80865234 23.96060448 0 0 Z " fill="#074B20" transform="translate(74,138)"/>
<path d="M0 0 C1.32 0.66 2.64 1.32 4 2 C4 6.10129017 2.45688604 6.90654925 -0.375 9.8125 C-27.61589175 38.88434489 -39.27834095 77.23438995 -38.109375 116.48242188 C-37.25120993 136.23554293 -32.37957456 154.14259508 -24 172 C-23.68546875 172.67305176 -23.3709375 173.34610352 -23.046875 174.03955078 C-7.15679283 207.35990847 23.11676122 234.21364117 57.8293457 246.62524414 C95.20448704 259.17351779 136.08136468 258.34054635 171.91796875 241.06640625 C205.78363278 224.12162446 230.33917174 197.85969272 245 163 C245.29632324 162.30616211 245.59264648 161.61232422 245.89794922 160.89746094 C259.45417576 128.44680465 259.18291283 87.77572052 245.8828125 55.26953125 C244.65077794 52.47933534 243.33541708 49.74210643 242 47 C241.52046875 45.94425781 241.0409375 44.88851562 240.546875 43.80078125 C233.483619 28.76564652 223.58068319 15.83144601 212 4 C213.485 2.02 213.485 2.02 215 0 C226.05214371 4.58198213 233.72399379 19.32112708 240 29 C240.6496875 29.98613281 241.299375 30.97226563 241.96875 31.98828125 C262.54047962 65.04331043 266.13406144 106.54653338 258.19140625 143.94921875 C247.8836755 186.32544517 220.76906606 219.70590182 184.04589844 242.19677734 C161.19205805 255.84948401 135.39203909 261.22475346 109.0625 261.25 C107.96692276 261.25151062 107.96692276 261.25151062 106.84921265 261.25305176 C85.74115169 261.23340318 66.32157006 257.89029297 47 249 C46.39430176 248.72172363 45.78860352 248.44344727 45.16455078 248.15673828 C27.17875004 239.79472029 10.54175103 228.62408429 -3 214 C-3 213.34 -3 212.68 -3 212 C-3.90758057 211.60083374 -3.90758057 211.60083374 -4.83349609 211.19360352 C-7.08415972 209.95363344 -8.12719458 208.92988415 -9.6640625 206.90234375 C-10.14141846 206.27457031 -10.61877441 205.64679688 -11.1105957 205 C-11.61034912 204.319375 -12.11010254 203.63875 -12.625 202.9375 C-13.41233521 201.87208984 -13.41233521 201.87208984 -14.21557617 200.78515625 C-25.48736083 185.25900068 -33.91865084 168.78573976 -39.3125 150.375 C-39.55516602 149.55290039 -39.79783203 148.73080078 -40.04785156 147.88378906 C-43.7680689 134.49205904 -44.41020679 121.11611292 -44.375 107.3125 C-44.37412384 106.47139679 -44.37324768 105.63029358 -44.37234497 104.76370239 C-44.32979593 92.38340242 -43.72607038 80.88088771 -40 69 C-39.52061682 67.31646789 -39.04146179 65.6328708 -38.5625 63.94921875 C-31.18197922 39.1454543 -17.81448572 18.5036341 0 0 Z " fill="#105126" transform="translate(66,131)"/>
<path d="M0 0 C1.60875 0.2784375 1.60875 0.2784375 3.25 0.5625 C6.51946406 0.94393747 7.99327978 0.89802485 11 0 C11.38671875 1.16917969 11.7734375 2.33835938 12.171875 3.54296875 C12.6973789 5.09132845 13.22345064 6.63949551 13.75 8.1875 C14.00265625 8.95642578 14.2553125 9.72535156 14.515625 10.51757812 C16.2321481 15.51695165 17.98450696 20.49225348 23 23 C26.18043622 33.60145406 26.18043622 33.60145406 23.8984375 38.23828125 C22.3588028 40.33455311 20.91095255 42.2310777 19 44 C15.625 44.5 15.625 44.5 13 44 C13.96196332 41.33610156 14.79382465 39.24582445 16.625 37.0625 C18.46625444 34.30061835 18.2213814 32.24692722 18 29 C16.88625 29.66 15.7725 30.32 14.625 31 C9.75126423 33.42822651 5.36171171 33.7774482 0 33 C-3.625 31.5 -3.625 31.5 -6 30 C-6.96877472 32.15022836 -6.96877472 32.15022836 -7 35 C-5.86279279 36.97738268 -4.56782225 38.68095958 -3.12890625 40.44921875 C-2 42 -2 42 -2 44 C-4.625 44.5 -4.625 44.5 -8 44 C-11.00345718 41.79616454 -12.6645602 39.47008103 -14 36 C-14.14698947 31.42155019 -13.64830945 27.28220598 -12 23 C-10.37240445 21.61924358 -8.70528328 20.28357489 -7 19 C-5.67870385 16.76920145 -5.67870385 16.76920145 -4.875 14.3125 C-4.55789062 13.44496094 -4.24078125 12.57742187 -3.9140625 11.68359375 C-3.61242187 10.79800781 -3.31078125 9.91242188 -3 9 C-2.69835937 8.12472656 -2.39671875 7.24945313 -2.0859375 6.34765625 C-1.37241164 4.23708677 -0.67676814 2.12259098 0 0 Z " fill="#F6F8F7" transform="translate(169,200)"/>
<path d="M0 0 C3.50359633 3.94985385 5.00634697 7.8897844 6 13 C7.28965176 14.37562854 8.62689293 15.70766393 10 17 C12.20224317 19.88569795 13.01117739 21.2958247 12.953125 24.953125 C12 28 12 28 9.27734375 29.8984375 C7.62412109 30.62933594 7.62412109 30.62933594 5.9375 31.375 C4.83277344 31.87773437 3.72804687 32.38046875 2.58984375 32.8984375 C1.73519531 33.26195312 0.88054687 33.62546875 0 34 C-1.93835621 30.29211361 -3.87553224 26.58361187 -5.8125 22.875 C-6.35970703 21.82828125 -6.90691406 20.7815625 -7.47070312 19.703125 C-10.01991618 14.82099575 -12.56425653 9.93985869 -15 5 C-4.72206935 -1.39515685 -4.72206935 -1.39515685 0 0 Z " fill="#F0F3F1" transform="translate(230,328)"/>
<path d="M0 0 C0.99 0.66 1.98 1.32 3 2 C1.50163895 5.11198065 -0.19933758 8.0534615 -2 11 C0.97 9.35 3.94 7.7 7 6 C5.90309312 10.38762753 4.29817473 13.14499723 2 17 C4.64 15.02 7.28 13.04 10 11 C11.32 11.66 12.64 12.32 14 13 C6.57884868 20.66852303 -1.47224628 27.59388549 -10 34 C-11.32 33.34 -12.64 32.68 -14 32 C-12.87548273 29.0280615 -11.77706209 26.66559313 -10 24 C-11.98 25.32 -13.96 26.64 -16 28 C-17.32 27.34 -18.64 26.68 -20 26 C-18.46469858 20.8394062 -15.20732727 17.48079829 -11.6875 13.5625 C-10.54507221 12.2725787 -9.4031385 10.98221963 -8.26171875 9.69140625 C-7.71306152 9.07410645 -7.1644043 8.45680664 -6.59912109 7.82080078 C-4.34665393 5.2560832 -2.17028196 2.63446984 0 0 Z " fill="#F1F4F2" transform="translate(96,305)"/>
<path d="M0 0 C3.62276315 1.3255581 6.63505348 2.94346955 9.8125 5.125 C10.60269531 5.66382813 11.39289063 6.20265625 12.20703125 6.7578125 C12.79871094 7.16773438 13.39039062 7.57765625 14 8 C12.62338544 11.74876369 10.90090804 14.94495205 8.7421875 18.30078125 C8.11699219 19.27724609 7.49179688 20.25371094 6.84765625 21.25976562 C6.19667969 22.26716797 5.54570313 23.27457031 4.875 24.3125 C4.21628906 25.33923828 3.55757812 26.36597656 2.87890625 27.42382812 C1.2563783 29.95167965 -0.37002986 32.47694337 -2 35 C-3.65 34.67 -5.3 34.34 -7 34 C-4.69 29.38 -2.38 24.76 0 20 C-1.98 19.34 -3.96 18.68 -6 18 C-6.37125 19.051875 -6.37125 19.051875 -6.75 20.125 C-8.16088026 23.37002459 -9.97895398 26.10316737 -12 29 C-13.32 28.67 -14.64 28.34 -16 28 C-15.39250647 25.0721068 -14.49628172 22.90683135 -12.890625 20.390625 C-12.46523437 19.71773438 -12.03984375 19.04484375 -11.6015625 18.3515625 C-10.93253906 17.31128906 -10.93253906 17.31128906 -10.25 16.25 C-9.81945312 15.57195312 -9.38890625 14.89390625 -8.9453125 14.1953125 C-8.07680595 12.8275447 -7.20636722 11.46100184 -6.33398438 10.09570312 C-4.20065917 6.74422737 -2.10010943 3.37235617 0 0 Z " fill="#E9EEEB" transform="translate(112,321)"/>
<path d="M0 0 C0 1.32 0 2.64 0 4 C-2.5 6.25 -2.5 6.25 -5 8 C-2.36 8.33 0.28 8.66 3 9 C3.495 11.475 3.495 11.475 4 14 C3.15405273 14.2945105 3.15405273 14.2945105 2.29101562 14.5949707 C-0.30632987 15.49984035 -2.90316673 16.40616142 -5.5 17.3125 C-6.8303125 17.7755957 -6.8303125 17.7755957 -8.1875 18.24804688 C-12.30581112 19.6864276 -16.40365586 21.14742728 -20.46875 22.73046875 C-24 24 -24 24 -27 24 C-27.33 22.68 -27.66 21.36 -28 20 C-23 18 -18 16 -13 14 C-13.99 13.01 -14.98 12.02 -16 11 C-14.68 10.34 -13.36 9.68 -12 9 C-15.99763525 9 -18.3428738 9.67254976 -22.0625 11 C-27.68055556 13 -27.68055556 13 -31 13 C-31.33 11.68 -31.66 10.36 -32 9 C-28.09323377 7.5294481 -24.18515143 6.06280781 -20.2734375 4.60546875 C-17.72492669 3.65415269 -15.19285103 2.67959778 -12.6640625 1.67578125 C-11.72304687 1.30839844 -10.78203125 0.94101562 -9.8125 0.5625 C-8.58466797 0.06943359 -8.58466797 0.06943359 -7.33203125 -0.43359375 C-4.57036781 -1.10434953 -2.71746131 -0.73849304 0 0 Z " fill="#EAEFEC" transform="translate(76,265)"/>
<path d="M0 0 C6.75 0.75 6.75 0.75 9 3 C8.67 3.99 8.34 4.98 8 6 C6.68 6 5.36 6 4 6 C3.34 7.98 2.68 9.96 2 12 C4.64 12.33 7.28 12.66 10 13 C10.99 9.7 11.98 6.4 13 3 C19.49727686 4.70553517 25.7563316 6.52609365 32 9 C30.68 13.95 29.36 18.9 28 24 C25.03 23.34 22.06 22.68 19 22 C19.33 20.35 19.66 18.7 20 17 C21.32 17 22.64 17 24 17 C24.33 15.35 24.66 13.7 25 12 C22.36 11.34 19.72 10.68 17 10 C16.01 13.3 15.02 16.6 14 20 C11.37426939 19.35702496 8.74942697 18.71075589 6.125 18.0625 C5.37863281 17.88009766 4.63226563 17.69769531 3.86328125 17.50976562 C-1.7734375 16.11328125 -1.7734375 16.11328125 -4 15 C-3.52229477 13.06213915 -3.04278429 11.12472326 -2.5625 9.1875 C-2.29566406 8.10855469 -2.02882813 7.02960938 -1.75390625 5.91796875 C-1.23922588 3.9259157 -0.65062825 1.95188476 0 0 Z " fill="#E8EEEB" transform="translate(273,263)"/>
<path d="M0 0 C4.49292336 1.60154445 6.93523168 5.12941769 9.875 8.6875 C10.63103516 9.58758789 10.63103516 9.58758789 11.40234375 10.50585938 C12.4187442 11.7159218 13.43275426 12.92799617 14.44433594 14.14208984 C16.93595053 17.11779403 19.4675702 20.05902289 22 23 C20.2556187 26.82502888 18.22361516 28.67414219 14.875 31.25 C13.96492188 31.95640625 13.05484375 32.6628125 12.1171875 33.390625 C11.41851562 33.92171875 10.71984375 34.4528125 10 35 C6.26106246 31.36266403 2.84229635 27.56482966 -0.5 23.5625 C-0.96019531 23.01529297 -1.42039063 22.46808594 -1.89453125 21.90429688 C-2.81109474 20.81345722 -3.72520573 19.72055166 -4.63671875 18.62548828 C-5.56684942 17.5164607 -6.50747193 16.41616919 -7.45703125 15.32373047 C-11 11.2131382 -11 11.2131382 -11 9 C-9.68 8.34 -8.36 7.68 -7 7 C-5.10364017 9.20788305 -3.20789959 11.41629285 -1.3125 13.625 C-0.78205078 14.24246094 -0.25160156 14.85992187 0.29492188 15.49609375 C3.56225428 19.30464073 6.79689798 23.13726102 10 27 C11.32 26.34 12.64 25.68 14 25 C13.40698179 21.70836506 12.36191599 19.93643584 10.12890625 17.46875 C9.55462891 16.82292969 8.98035156 16.17710937 8.38867188 15.51171875 C7.78603516 14.84785156 7.18339844 14.18398438 6.5625 13.5 C5.37243934 12.18055707 4.18610161 10.85774468 3.00390625 9.53125 C2.47611572 8.94923828 1.9483252 8.36722656 1.40454102 7.76757812 C-0.05121324 5.93554948 -1.03057797 4.12357912 -2 2 C-1.34 1.34 -0.68 0.68 0 0 Z " fill="#E5EDE9" transform="translate(244,313)"/>
<path d="M0 0 C1.65 0.33 3.3 0.66 5 1 C2.24892128 9.90054879 -1.40298363 18.41643491 -5 27 C-2.69 27.66 -0.38 28.32 2 29 C2.14695313 28.45214844 2.29390625 27.90429688 2.4453125 27.33984375 C4.71447938 19.31951252 7.82944737 11.6955161 11 4 C13.475 4.495 13.475 4.495 16 5 C15.70230713 5.76666992 15.40461426 6.53333984 15.09790039 7.32324219 C13.75030723 10.79787998 12.4063648 14.2739186 11.0625 17.75 C10.59392578 18.9565625 10.12535156 20.163125 9.64257812 21.40625 C8.9706543 23.14648438 8.9706543 23.14648438 8.28515625 24.921875 C7.66459351 26.52434082 7.66459351 26.52434082 7.03149414 28.15917969 C6.20348956 30.4395729 5.5213521 32.63520673 5 35 C-0.76813523 34.39282787 -5.70859168 32.22386401 -11 30 C-9.0173911 22.93487572 -6.592956 16.16273165 -3.8125 9.375 C-3.44447266 8.46621094 -3.07644531 7.55742187 -2.69726562 6.62109375 C-1.80216521 4.41240441 -0.9030465 2.20544952 0 0 Z " fill="#E7EEEA" transform="translate(129,332)"/>
<path d="M0 0 C5.80205656 5.64524422 5.80205656 5.64524422 8 9 C8 9.66 8 10.32 8 11 C8.59425781 11.04898437 9.18851562 11.09796875 9.80078125 11.1484375 C16.28345975 11.73318922 22.61404401 12.74951812 29 14 C28.67 15.32 28.34 16.64 28 18 C24.04 18 20.08 18 16 18 C18.97 19.65 21.94 21.3 25 23 C24.34 24.32 23.68 25.64 23 27 C18.89306101 25.72287446 15.18406415 24.18709006 11.3828125 22.1796875 C9.85527344 21.37724609 9.85527344 21.37724609 8.296875 20.55859375 C7.25015625 20.00300781 6.2034375 19.44742187 5.125 18.875 C4.05507813 18.31167969 2.98515625 17.74835938 1.8828125 17.16796875 C-0.74694017 15.78265261 -3.37443083 14.39322404 -6 13 C-5.67 11.35 -5.34 9.7 -5 8 C-3.824375 8.495 -3.824375 8.495 -2.625 9 C-0.15667503 10.11866511 -0.15667503 10.11866511 2 10 C0.02 6.535 0.02 6.535 -2 3 C-1.34 2.01 -0.68 1.02 0 0 Z " fill="#E9EFEB" transform="translate(267,281)"/>
<path d="M0 0 C3.32759923 1.55194754 5.48580485 3.30621949 8 6 C7.01 7.485 7.01 7.485 6 9 C3.03 8.505 3.03 8.505 0 8 C-0.33 9.65 -0.66 11.3 -1 13 C1.23824002 14.87018719 3.48863527 16.72065432 5.75 18.5625 C6.38421875 19.09552734 7.0184375 19.62855469 7.671875 20.17773438 C8.290625 20.67724609 8.909375 21.17675781 9.546875 21.69140625 C10.11245117 22.15748291 10.67802734 22.62355957 11.26074219 23.10375977 C12.99488503 24.19028972 12.99488503 24.19028972 15.15332031 23.83178711 C15.76272461 23.55729736 16.37212891 23.28280762 17 23 C18.33304698 20.10813214 18.33304698 20.10813214 17.0625 17.8125 C16.711875 17.214375 16.36125 16.61625 16 16 C16.99 15.34 17.98 14.68 19 14 C22.465 16.475 22.465 16.475 26 19 C24.50923566 22.2826932 22.61379679 24.93077441 20.375 27.75 C19.74335938 28.54921875 19.11171875 29.3484375 18.4609375 30.171875 C17.97882813 30.77515625 17.49671875 31.3784375 17 32 C11.76560961 30.42559352 8.11241896 27.06971994 4 23.625 C2.60421857 22.47129137 1.20838642 21.3176441 -0.1875 20.1640625 C-0.84105469 19.62040039 -1.49460937 19.07673828 -2.16796875 18.51660156 C-4.42317671 16.64968368 -6.70605144 14.81902952 -9 13 C-7.47987323 7.59510481 -3.72614782 4.01507372 0 0 Z " fill="#E6EDE9" transform="translate(258,297)"/>
<path d="M0 0 C5.28 0 10.56 0 16 0 C16 1.65 16 3.3 16 5 C12.37 5 8.74 5 5 5 C5 7.64 5 10.28 5 13 C8.63 13 12.26 13 16 13 C16 14.65 16 16.3 16 18 C12.37 18 8.74 18 5 18 C5.33 20.97 5.66 23.94 6 27 C9.3 27.33 12.6 27.66 16 28 C16 29.65 16 31.3 16 33 C11.05 33 6.1 33 1 33 C0.67 22.11 0.34 11.22 0 0 Z " fill="#E8EFEB" transform="translate(167,341)"/>
<path d="M0 0 C1.32 0.33 2.64 0.66 4 1 C4.33 2.98 4.66 4.96 5 7 C6.32 5.35 7.64 3.7 9 2 C10.32 2.33 11.64 2.66 13 3 C11.81503761 5.56741852 10.64511605 7.42586074 8.8125 9.625 C6.24405103 14.40762912 7.18468571 17.78940049 8 23 C8.2011988 25.04036224 8.38897168 27.0820984 8.5625 29.125 C8.64628906 30.05570312 8.73007813 30.98640625 8.81640625 31.9453125 C8.87699219 32.62335938 8.93757812 33.30140625 9 34 C7.68 34 6.36 34 5 34 C4.01 30.7 3.02 27.4 2 24 C1.67 24 1.34 24 1 24 C0.34 26.97 -0.32 29.94 -1 33 C-2.32 32.67 -3.64 32.34 -5 32 C-5.14637327 26.87693556 -4.63682923 22.13044741 -3.625 17.125 C-3.42136841 16.07989258 -3.42136841 16.07989258 -3.21362305 15.01367188 C-2.22571047 9.9893974 -1.15783411 4.98759308 0 0 Z " fill="#EBF0EE" transform="translate(149,338)"/>
<path d="M0 0 C0.33 1.32 0.66 2.64 1 4 C-2.61973402 5.31626692 -5.09567131 6 -9 6 C-8.67 8.64 -8.34 11.28 -8 14 C-2.555 13.505 -2.555 13.505 3 13 C3 14.32 3 15.64 3 17 C-0.3 17.66 -3.6 18.32 -7 19 C-6.34 21.97 -5.68 24.94 -5 28 C-1.37 27.67 2.26 27.34 6 27 C6 28.65 6 30.3 6 32 C4.43883181 32.33951619 2.87598662 32.67132544 1.3125 33 C0.44238281 33.185625 -0.42773438 33.37125 -1.32421875 33.5625 C-3.93712964 33.98972047 -6.35813038 34.07616201 -9 34 C-10.61727156 27.01367827 -11.9209285 20.00584564 -13.125 12.9375 C-13.30675781 11.88111328 -13.48851562 10.82472656 -13.67578125 9.73632812 C-14.11913442 7.15787944 -14.56049933 4.57910764 -15 2 C-13.06302033 1.66365624 -11.12539514 1.33102835 -9.1875 1 C-7.56908203 0.7215625 -7.56908203 0.7215625 -5.91796875 0.4375 C-3 0 -3 0 0 0 Z " fill="#EBF1EE" transform="translate(202,338)"/>
<path d="M0 0 C1.32 0.66 2.64 1.32 4 2 C2.80001351 5.59995946 1.87451339 6.00429606 -1.25390625 7.99609375 C-2.10791016 8.55490234 -2.96191406 9.11371094 -3.84179688 9.68945312 C-5.65659309 10.85545644 -7.474316 12.01691703 -9.29492188 13.17382812 C-10.14763672 13.73392578 -11.00035156 14.29402344 -11.87890625 14.87109375 C-12.6685376 15.37568115 -13.45816895 15.88026855 -14.27172852 16.40014648 C-14.84205811 16.92809814 -15.4123877 17.4560498 -16 18 C-16 21.8664136 -15.88295807 22.69019314 -14 25.75 C-13.34 26.8225 -12.68 27.895 -12 29 C-13.98 29.99 -13.98 29.99 -16 31 C-17.12935196 29.58680023 -18.25330626 28.16928595 -19.375 26.75 C-20.00148438 25.96109375 -20.62796875 25.1721875 -21.2734375 24.359375 C-22.79517044 22.27990284 -23.8877714 20.30968545 -25 18 C-22.14605886 15.9371878 -19.29180549 13.87480802 -16.4375 11.8125 C-15.63763672 11.23435547 -14.83777344 10.65621094 -14.01367188 10.06054688 C-9.35235226 6.69298127 -4.68278171 3.33766052 0 0 Z " fill="#E7EEEA" transform="translate(86,293)"/>
<path d="M0 0 C1.23452236 2.46904473 1.08402283 4.0198939 1.02734375 6.77734375 C1.01380859 7.75767578 1.00027344 8.73800781 0.98632812 9.74804688 C0.97021484 10.80056641 0.95410156 11.85308594 0.9375 12.9375 C0.83962395 23.7625915 1.58363758 34.27611307 3 45 C-3.82351916 38.17648084 -6.0427627 25.8347965 -6.375 16.5 C-6.28104593 9.75879548 -4.88816353 4.88816353 0 0 Z " fill="#E3DBB8" transform="translate(76,72)"/>
<path d="M0 0 C5.67702347 5.32851476 6.96157836 10.02289935 7.4375 17.5625 C7.26051244 27.09033016 2.76481809 36.39943316 -1 45 C-2.16967856 41.49096432 -1.75394588 39.87279035 -1.0703125 36.26953125 C0.17943415 28.70488827 0.22561023 21.33774745 0.125 13.6875 C0.11493218 12.34961621 0.10581316 11.01172493 0.09765625 9.67382812 C0.07437244 6.44902038 0.0416741 3.22461346 0 0 Z " fill="#D3D0AE" transform="translate(272,72)"/>
<path d="M0 0 C0.33 0.99 0.66 1.98 1 3 C-2.78620413 5.00166502 -6.57651781 6.99524797 -10.37084961 8.98144531 C-11.66107309 9.65827322 -12.950147 10.33729724 -14.23803711 11.01855469 C-16.08930484 11.9973367 -17.94456137 12.96814963 -19.80078125 13.9375 C-20.91622314 14.52402344 -22.03166504 15.11054688 -23.1809082 15.71484375 C-26 17 -26 17 -29 17 C-29.33 15.68 -29.66 14.36 -30 13 C-26.21640765 10.97501621 -22.42615711 8.963293 -18.62915039 6.96362305 C-17.33817061 6.28136629 -16.04908763 5.59550783 -14.76196289 4.90600586 C-12.91257562 3.91610261 -11.05677624 2.93930967 -9.19921875 1.96484375 C-8.08377686 1.3730835 -6.96833496 0.78132324 -5.8190918 0.17163086 C-3 -1 -3 -1 0 0 Z " fill="#E4ECE7" transform="translate(84,285)"/>
<path d="M0 0 C1.4919129 4.47573869 -0.13510473 7.79066496 -2 12 C-4.33725769 14.92157211 -5.44728413 15.81576138 -9 17 C-11.39490986 17.06970052 -13.79167691 17.08448003 -16.1875 17.0625 C-17.45980469 17.05347656 -18.73210937 17.04445312 -20.04296875 17.03515625 C-21.50669922 17.01775391 -21.50669922 17.01775391 -23 17 C-19.67568716 14.25174137 -16.30482814 11.870855 -12.625 9.625 C-8.02400229 6.74237221 -4.00951073 3.65310977 0 0 Z " fill="#EDF2EF" transform="translate(250,169)"/>
<path d="M0 0 C1.03125 0.804375 2.0625 1.60875 3.125 2.4375 C7.67030879 5.86283163 12.43368674 8.90335149 17.25048828 11.92749023 C19.71887043 13.48594963 21.92837184 14.92837184 24 17 C21.77144426 17.0814222 19.54202345 17.13938079 17.3125 17.1875 C15.45044922 17.23970703 15.45044922 17.23970703 13.55078125 17.29296875 C9.74642911 16.97907831 7.98918198 16.31541288 5 14 C1.72031738 9.26268066 0.46584759 5.70663301 0 0 Z " fill="#EFF3F1" transform="translate(98,169)"/>
<path d="M0 0 C1.34028459 2.68056917 0.77570686 4.08858764 0.1875 7 C0.01605469 7.886875 -0.15539062 8.77375 -0.33203125 9.6875 C-1 12 -1 12 -3 14 C-3.46162427 16.43252661 -3.46162427 16.43252661 -3.625 19.125 C-3.73714844 20.49011719 -3.73714844 20.49011719 -3.8515625 21.8828125 C-3.90054688 22.58148438 -3.94953125 23.28015625 -4 24 C-3.01 24 -2.02 24 -1 24 C-1 25.65 -1 27.3 -1 29 C-1.66 29 -2.32 29 -3 29 C-3.33 29.66 -3.66 30.32 -4 31 C-6.56840581 22.81320648 -8.01362383 13.27837493 -4.125 5.3125 C-2 2 -2 2 0 0 Z " fill="#BDC1A1" transform="translate(76,72)"/>
<path d="M0 0 C-0.3125 3.375 -0.3125 3.375 -1 7 C-4.68717438 9.45811625 -6.64345704 9.31118164 -11 9 C-11.99 8.34 -12.98 7.68 -14 7 C-14 6.34 -14 5.68 -14 5 C-12.23244474 4.15973604 -10.46082737 3.32801278 -8.6875 2.5 C-7.70136719 2.0359375 -6.71523437 1.571875 -5.69921875 1.09375 C-3 0 -3 0 0 0 Z " fill="#EAF0EC" transform="translate(203,189)"/>
<path d="M0 0 C5.34844008 0.53484401 9.35796103 2.46690767 14 5 C13 8 13 8 11 9 C4.82577132 9.57168784 4.82577132 9.57168784 1.5625 7.3125 C-0.25953249 4.61589191 -0.35430394 3.18873549 0 0 Z " fill="#EAF0EC" transform="translate(146,189)"/>
<path d="M0 0 C3.56782871 0.55602525 4.92229114 1.68606826 7.125 4.5 C9.19887681 7.1880384 9.19887681 7.1880384 12 9 C11.6875 10.875 11.6875 10.875 11 13 C10.01 13.66 9.02 14.32 8 15 C6.65186813 13.45025019 5.3219657 11.88462935 4 10.3125 C3.2575 9.44238281 2.515 8.57226562 1.75 7.67578125 C-0.15423648 4.76416967 -0.39190361 3.39853912 0 0 Z " fill="#EDF1EF" transform="translate(245,333)"/>
<path d="M0 0 C5.61 0 11.22 0 17 0 C14 5 14 5 11.40625 5.6640625 C10.4471875 5.65117187 9.488125 5.63828125 8.5 5.625 C7.5409375 5.63789063 6.581875 5.65078125 5.59375 5.6640625 C3 5 3 5 0 0 Z " fill="#F8F9F9" transform="translate(166,250)"/>
<path d="M0 0 C1.32 2.64 2.64 5.28 4 8 C2.02 8.99 0.04 9.98 -2 11 C-6 4.25 -6 4.25 -6 2 C-2.25 0 -2.25 0 0 0 Z " fill="#2A4C37" transform="translate(234,344)"/>
<path d="M0 0 C1.32 0.33 2.64 0.66 4 1 C2.62820313 8.48252838 0.07836721 15.05604954 -3 22 C-4.22602512 18.32192463 -3.70295577 16.11756073 -3.0625 12.3125 C-2.86785156 11.13300781 -2.67320312 9.95351562 -2.47265625 8.73828125 C-2.31667969 7.83464844 -2.16070312 6.93101563 -2 6 C-1.34 6 -0.68 6 0 6 C0 4.02 0 2.04 0 0 Z " fill="#CCCAA9" transform="translate(274,95)"/>
<path d="M0 0 C0.99 0.66 1.98 1.32 3 2 C1 6 -1 10 -3 14 C-3.66 14 -4.32 14 -5 14 C-5 13.01 -5 12.02 -5 11 C-6.32 10.67 -7.64 10.34 -9 10 C-6.03 6.7 -3.06 3.4 0 0 Z " fill="#E0E8E3" transform="translate(96,305)"/>
<path d="M0 0 C2 0.9375 2 0.9375 3.25 4 C3.4975 4.969375 3.745 5.93875 4 6.9375 C2.02 7.5975 0.04 8.2575 -2 8.9375 C-3.5625 6.625 -3.5625 6.625 -5 3.9375 C-4.67 2.9475 -4.34 1.9575 -4 0.9375 C-2 -0.0625 -2 -0.0625 0 0 Z " fill="#31523D" transform="translate(227,333.0625)"/>
<path d="M0 0 C2.475 0.99 2.475 0.99 5 2 C4.25 6.75 4.25 6.75 2 9 C-0.26274788 8.64644564 -1.95088852 8.02455574 -4 7 C-2.92598892 4.08482708 -2.22189824 2.22189824 0 0 Z " fill="#2B4B37" transform="translate(114,328)"/>
<path d="M0 0 C2.625 -0.1875 2.625 -0.1875 5 0 C5 4 5 4 3.875 6.25 C2 8 2 8 -1.1875 8.25 C-2.115625 8.1675 -3.04375 8.085 -4 8 C-2.87548273 5.0280615 -1.77706209 2.66559313 0 0 Z " fill="#E3E9E6" transform="translate(186,236)"/>
<path d="M0 0 C0.556875 0.226875 1.11375 0.45375 1.6875 0.6875 C1.6875 2.0075 1.6875 3.3275 1.6875 4.6875 C-0.27716413 5.75525224 -2.28105359 6.75303465 -4.3125 7.6875 C-4.9725 7.3575 -5.6325 7.0275 -6.3125 6.6875 C-6.9375 4.625 -6.9375 4.625 -7.3125 2.6875 C-2.88173077 -0.38942308 -2.88173077 -0.38942308 0 0 Z " fill="#E7EEEA" transform="translate(240.3125,351.3125)"/>
<path d="M0 0 C0.33 0 0.66 0 1 0 C1.66 6.27 2.32 12.54 3 19 C0.76504572 16.76504572 -0.0024791 14.97585464 -1.1875 12.0625 C-1.73470703 10.74958984 -1.73470703 10.74958984 -2.29296875 9.41015625 C-3.37626652 5.71736771 -1.68551095 3.2586545 0 0 Z " fill="#C6C8A7" transform="translate(76,98)"/>
<path d="M0 0 C1.33519008 2.67038017 0.80789616 4.09217759 0.25 7 C0.09015625 7.886875 -0.0696875 8.77375 -0.234375 9.6875 C-1 12 -1 12 -4 14 C-5.06234754 9.57355192 -5.38027857 7.68450143 -3.125 3.625 C-1 1 -1 1 0 0 Z " fill="#CFCCAB" transform="translate(76,72)"/>
<path d="M0 0 C0.66 0.33 1.32 0.66 2 1 C1.34 3.31 0.68 5.62 0 8 C-0.33 7.34 -0.66 6.68 -1 6 C-2.32 6.99 -3.64 7.98 -5 9 C-5.66 7.35 -6.32 5.7 -7 4 C-1.7265625 0.77734375 -1.7265625 0.77734375 0 0 Z " fill="#E2EBE6" transform="translate(222,329)"/>
<path d="M0 0 C2.79872437 2.52788007 4.45773019 4.20411134 5 8 C3.02 8 1.04 8 -1 8 C-1.66 6.68 -2.32 5.36 -3 4 C-2.01 2.68 -1.02 1.36 0 0 Z " fill="#DCE5E0" transform="translate(162,236)"/>
<path d="M0 0 C6.75 0.75 6.75 0.75 9 3 C8.67 3.99 8.34 4.98 8 6 C6.35 6 4.7 6 3 6 C3 5.34 3 4.68 3 4 C1.68 4.33 0.36 4.66 -1 5 C-0.67 3.35 -0.34 1.7 0 0 Z " fill="#E4ECE7" transform="translate(273,263)"/>
<path d="M0 0 C-1.87949705 3.57104439 -3.17053157 5.54744301 -7 7 C-7.66 5.35 -8.32 3.7 -9 2 C-3.375 -1.125 -3.375 -1.125 0 0 Z " fill="#DAE6DF" transform="translate(63,296)"/>
<path d="M0 0 C0 1.65 0 3.3 0 5 C-2.31 5 -4.62 5 -7 5 C-7 4.01 -7 3.02 -7 2 C-4.35261084 0.5393715 -3.10551666 0 0 0 Z " fill="#E3EAE6" transform="translate(208,365)"/>
<path d="M0 0 C1.32 0.66 2.64 1.32 4 2 C2.68 3.32 1.36 4.64 0 6 C-0.99 4.68 -1.98 3.36 -3 2 C-2.01 1.34 -1.02 0.68 0 0 Z " fill="#D5E2DB" transform="translate(106,316)"/>
<path d="M0 0 C-0.33 0.66 -0.66 1.32 -1 2 C-1.33 2 -1.66 2 -2 2 C-2 4.31 -2 6.62 -2 9 C-4.50037734 6.82575883 -5.43628586 5.26954202 -6 2 C-3 0 -3 0 0 0 Z " fill="#253F2F" transform="translate(228,333)"/>
<path d="M0 0 C1.32 0.66 2.64 1.32 4 2 C3.67 2.99 3.34 3.98 3 5 C0.69 4.67 -1.62 4.34 -4 4 C-2.68 2.68 -1.36 1.36 0 0 Z " fill="#D3E0D8" transform="translate(86,293)"/>
<path d="M0 0 C1.32 0 2.64 0 4 0 C4 1.65 4 3.3 4 5 C3.34 5 2.68 5 2 5 C1.67 5.66 1.34 6.32 1 7 C0.67 4.69 0.34 2.38 0 0 Z " fill="#D0C9A7" transform="translate(71,96)"/>
<path d="M0 0 C0.33 0.99 0.66 1.98 1 3 C0.01 3.99 -0.98 4.98 -2 6 C-2.33 5.67 -2.66 5.34 -3 5 C-3.66 5.66 -4.32 6.32 -5 7 C-5.33 6.01 -5.66 5.02 -6 4 C-4.02 2.68 -2.04 1.36 0 0 Z " fill="#CEDBD3" transform="translate(102,311)"/>
<path d="M0 0 C0.33 0 0.66 0 1 0 C1.33 3.3 1.66 6.6 2 10 C-0.46278801 7.53721199 -0.99771255 5.29323018 -2 2 C-1.34 1.34 -0.68 0.68 0 0 Z " fill="#9EB494" transform="translate(77,107)"/>
</svg>
