<?xml version="1.0" encoding="UTF-8"?>
<svg version="1.1" xmlns="http://www.w3.org/2000/svg" width="316" height="316">
<path d="M0 0 C0.78142365 0.00337372 1.56284729 0.00674744 2.36795044 0.01022339 C34.28820073 0.20887439 61.29872434 9.97162373 88.6171875 25.87109375 C90.15931667 26.76731664 91.71716233 27.63983117 93.3125 28.4375 C94.034375 29.18 94.75625 29.9225 95.5 30.6875 C99.1210712 34.22810295 102.96399044 37.32848159 107.5625 39.5 C109.84709307 40.72388914 110.78347564 42.35802687 112.3125 44.4375 C113.96252828 45.79136936 115.6299387 47.12428142 117.3125 48.4375 C120.31465875 51.10608555 121.38724994 52.6043212 122.3125 56.4375 C123.3025 56.7675 124.2925 57.0975 125.3125 57.4375 C125.64583333 58.77083333 125.97916667 60.10416667 126.3125 61.4375 C127.3025 61.7675 128.2925 62.0975 129.3125 62.4375 C130.99613169 64.59362513 132.51012286 66.71533126 134 69 C134.65440063 69.99253784 134.65440063 69.99253784 135.32202148 71.00512695 C146.47684653 88.30048331 146.47684653 88.30048331 148.3125 97.4375 C148.6425 98.4275 148.9725 99.4175 149.3125 100.4375 C150.01273685 103.23844741 150.71239867 106.03928356 151.3984375 108.84375 C152.08391757 111.43768595 152.08391757 111.43768595 153.76585388 112.77023315 C159.97309228 119.46156524 158.76525866 132.6690466 158.74609375 141.1171875 C158.75067244 142.50139619 158.75598291 143.88560263 158.76197815 145.26980591 C158.77084262 148.1524588 158.76856381 151.03483369 158.75854492 153.91748047 C158.7470712 157.57059077 158.76727538 161.22273199 158.79646206 164.87571526 C158.81500846 167.72948067 158.81449536 170.58302173 158.80882454 173.43683243 C158.80860129 175.42503244 158.82532276 177.41321203 158.84263611 179.40133667 C158.7759094 188.23240017 157.5983744 196.21483754 154.3125 204.4375 C153.6525 204.7675 152.9925 205.0975 152.3125 205.4375 C151.43395672 207.91050589 151.43395672 207.91050589 150.75 210.8125 C150.0070621 213.73035972 149.26500536 216.57998391 148.3125 219.4375 C148.15918213 220.08783203 148.00586426 220.73816406 147.84790039 221.40820312 C146.95725841 224.78395148 145.30790407 227.82903353 143.75 230.9375 C143.21971191 231.99565918 143.21971191 231.99565918 142.67871094 233.07519531 C138.53032484 241.18490501 133.96241279 249.11733495 127.3125 255.4375 C125.0888932 257.3629644 125.0888932 257.3629644 124.3125 260.4375 C123.3225 260.7675 122.3325 261.0975 121.3125 261.4375 C120.97200663 262.76902287 120.63946663 264.10259112 120.3125 265.4375 C118.82421875 266.96484375 118.82421875 266.96484375 117 268.375 C114.67629184 270.24819332 113.00693268 271.82164178 111.125 274.1875 C109.2036991 276.57256318 108.00591264 277.12772347 105.3125 278.4375 C101.66108204 280.9335865 98.19183923 283.55816077 95.0625 286.6875 C93.17380995 288.57619005 91.70224464 289.24460267 89.3125 290.4375 C88.16002211 291.12919634 87.01351382 291.83087785 85.87109375 292.5390625 C72.68820744 300.65472123 59.10520582 307.01289218 44.1875 311.25 C43.54498291 311.43280518 42.90246582 311.61561035 42.24047852 311.80395508 C28.42250405 315.45554686 14.87691111 316.99553447 0.625 316.875 C-0.15642365 316.87162628 -0.93784729 316.86825256 -1.74295044 316.86477661 C-33.66320073 316.66612561 -60.67372434 306.90337627 -87.9921875 291.00390625 C-89.53431667 290.10768336 -91.09216233 289.23516883 -92.6875 288.4375 C-93.409375 287.695 -94.13125 286.9525 -94.875 286.1875 C-98.4960712 282.64689705 -102.33899044 279.54651841 -106.9375 277.375 C-109.22209307 276.15111086 -110.15847564 274.51697313 -111.6875 272.4375 C-113.33752828 271.08363064 -115.0049387 269.75071858 -116.6875 268.4375 C-119.68965875 265.76891445 -120.76224994 264.2706788 -121.6875 260.4375 C-122.6775 260.1075 -123.6675 259.7775 -124.6875 259.4375 C-125.02083333 258.10416667 -125.35416667 256.77083333 -125.6875 255.4375 C-126.6775 255.1075 -127.6675 254.7775 -128.6875 254.4375 C-129.91430664 253.02636719 -129.91430664 253.02636719 -131.09765625 251.234375 C-131.74637695 250.25791016 -131.74637695 250.25791016 -132.40820312 249.26171875 C-132.85099609 248.57722656 -133.29378906 247.89273438 -133.75 247.1875 C-134.19666016 246.51847656 -134.64332031 245.84945312 -135.10351562 245.16015625 C-137.3931439 241.67608811 -139.25838532 238.37682129 -140.6875 234.4375 C-141.0175 234.1075 -141.3475 233.7775 -141.6875 233.4375 C-142.54539637 231.84633409 -143.37434584 230.23948922 -144.1875 228.625 C-144.6309375 227.75230469 -145.074375 226.87960938 -145.53125 225.98046875 C-146.53987287 223.76217994 -147.17152742 221.80402809 -147.6875 219.4375 C-148.0175 218.4475 -148.3475 217.4575 -148.6875 216.4375 C-149.38773685 213.63655259 -150.08739867 210.83571644 -150.7734375 208.03125 C-151.45891757 205.43731405 -151.45891757 205.43731405 -153.14085388 204.10476685 C-159.34809228 197.41343476 -158.14025866 184.2059534 -158.12109375 175.7578125 C-158.12567244 174.37360381 -158.13098291 172.98939737 -158.13697815 171.60519409 C-158.14584262 168.7225412 -158.14356381 165.84016631 -158.13354492 162.95751953 C-158.1220712 159.30440923 -158.14227538 155.65226801 -158.17146206 151.99928474 C-158.19000846 149.14551933 -158.18949536 146.29197827 -158.18382454 143.43816757 C-158.18360129 141.44996756 -158.20032276 139.46178797 -158.21763611 137.47366333 C-158.1509094 128.64259983 -156.9733744 120.66016246 -153.6875 112.4375 C-152.6975 111.9425 -152.6975 111.9425 -151.6875 111.4375 C-150.80895672 108.96449411 -150.80895672 108.96449411 -150.125 106.0625 C-149.3820621 103.14464028 -148.64000536 100.29501609 -147.6875 97.4375 C-147.53418213 96.78716797 -147.38086426 96.13683594 -147.22290039 95.46679688 C-146.33225841 92.09104852 -144.68290407 89.04596647 -143.125 85.9375 C-142.77147461 85.23206055 -142.41794922 84.52662109 -142.05371094 83.79980469 C-137.90532484 75.69009499 -133.33741279 67.75766505 -126.6875 61.4375 C-124.4638932 59.5120356 -124.4638932 59.5120356 -123.6875 56.4375 C-122.6975 56.1075 -121.7075 55.7775 -120.6875 55.4375 C-120.34700663 54.10597713 -120.01446663 52.77240888 -119.6875 51.4375 C-118.19921875 49.91015625 -118.19921875 49.91015625 -116.375 48.5 C-114.05129184 46.62680668 -112.38193268 45.05335822 -110.5 42.6875 C-108.5786991 40.30243682 -107.38091264 39.74727653 -104.6875 38.4375 C-101.03608204 35.9414135 -97.56683923 33.31683923 -94.4375 30.1875 C-92.54880995 28.29880995 -91.07724464 27.63039733 -88.6875 26.4375 C-87.53502211 25.74580366 -86.38851382 25.04412215 -85.24609375 24.3359375 C-72.06320744 16.22027877 -58.48020582 9.86210782 -43.5625 5.625 C-42.91998291 5.44219482 -42.27746582 5.25938965 -41.61547852 5.07104492 C-27.79750405 1.41945314 -14.25191111 -0.12053447 0 0 Z M-153.6875 115.4375 C-152.6875 117.4375 -152.6875 117.4375 -152.6875 117.4375 Z M153.3125 115.4375 C154.3125 117.4375 154.3125 117.4375 154.3125 117.4375 Z M-154.6875 118.4375 C-153.6875 122.4375 -153.6875 122.4375 -153.6875 122.4375 Z M154.3125 118.4375 C155.3125 122.4375 155.3125 122.4375 155.3125 122.4375 Z M-155.6875 123.4375 C-154.6875 126.4375 -154.6875 126.4375 -154.6875 126.4375 Z M155.3125 123.4375 C156.3125 126.4375 156.3125 126.4375 156.3125 126.4375 Z M-156.6875 127.4375 C-156.6875 129.4175 -156.6875 131.3975 -156.6875 133.4375 C-156.3575 133.4375 -156.0275 133.4375 -155.6875 133.4375 C-155.6875 131.4575 -155.6875 129.4775 -155.6875 127.4375 C-156.0175 127.4375 -156.3475 127.4375 -156.6875 127.4375 Z M156.3125 127.4375 C156.3125 129.4175 156.3125 131.3975 156.3125 133.4375 C156.6425 133.4375 156.9725 133.4375 157.3125 133.4375 C157.3125 131.4575 157.3125 129.4775 157.3125 127.4375 C156.9825 127.4375 156.6525 127.4375 156.3125 127.4375 Z M-156.6875 183.4375 C-156.6875 185.4175 -156.6875 187.3975 -156.6875 189.4375 C-156.3575 189.4375 -156.0275 189.4375 -155.6875 189.4375 C-155.6875 187.4575 -155.6875 185.4775 -155.6875 183.4375 C-156.0175 183.4375 -156.3475 183.4375 -156.6875 183.4375 Z M156.3125 183.4375 C156.3125 185.4175 156.3125 187.3975 156.3125 189.4375 C156.6425 189.4375 156.9725 189.4375 157.3125 189.4375 C157.3125 187.4575 157.3125 185.4775 157.3125 183.4375 C156.9825 183.4375 156.6525 183.4375 156.3125 183.4375 Z M-155.6875 190.4375 C-154.6875 193.4375 -154.6875 193.4375 -154.6875 193.4375 Z M155.3125 190.4375 C156.3125 193.4375 156.3125 193.4375 156.3125 193.4375 Z M-154.6875 194.4375 C-153.6875 198.4375 -153.6875 198.4375 -153.6875 198.4375 Z M154.3125 194.4375 C155.3125 198.4375 155.3125 198.4375 155.3125 198.4375 Z M-153.6875 199.4375 C-152.6875 201.4375 -152.6875 201.4375 -152.6875 201.4375 Z M153.3125 199.4375 C154.3125 201.4375 154.3125 201.4375 154.3125 201.4375 Z " fill="#046DB8" transform="translate(157.6875,-0.4375)"/>
<path d="M0 0 C1.01578125 0.36222656 2.0315625 0.72445312 3.078125 1.09765625 C12.40863893 4.70040705 23.21136121 9.52916956 30 17 C24.79568583 20.51762627 19.81331583 23.14344554 13.8125 25 C13.03092529 25.24637207 12.24935059 25.49274414 11.4440918 25.74658203 C-0.73571515 29.35549945 -13.46709981 31.06867088 -26 33 C-26.33 34.32 -26.66 35.64 -27 37 C2.47811799 33.01475469 2.47811799 33.01475469 29.64453125 21.75390625 C33 20 33 20 35.125 19.9765625 C37.78885904 21.43058556 39.79302527 23.29586832 42 25.375 C45.52277668 28.68117915 45.52277668 28.68117915 49.3125 31.6640625 C49.869375 32.10492188 50.42625 32.54578125 51 33 C51 33.66 51 34.32 51 35 C49.234375 36.55859375 49.234375 36.55859375 46.75 38.4375 C42.62001061 41.65491383 38.70856724 45.00472019 34.875 48.5625 C30.84812821 52.29930868 26.78613364 55.97966998 22.62109375 59.5625 C20.95850937 60.99353735 20.95850937 60.99353735 19.41015625 62.6875 C18 64 18 64 16 64 C17.485 65.98 17.485 65.98 19 68 C19.88300781 67.16597656 20.76601562 66.33195312 21.67578125 65.47265625 C28.07408607 59.46147576 34.52242507 53.63582895 41.37890625 48.14453125 C45.72650189 44.58740754 49.86194675 40.79695559 54 37 C59.93409367 41.69782416 64.42451008 46.98649896 69 53 C67.57329607 56.0981855 65.82167421 58.61092485 63.75 61.3125 C55.25866441 73.41529575 52.25332124 87.82070166 49 102 C51.475 101.505 51.475 101.505 54 101 C54.15855469 99.99582031 54.31710938 98.99164063 54.48046875 97.95703125 C56.59029296 85.31052415 59.70698005 68.73529706 70.18359375 60.2265625 C70.78300781 59.82179687 71.38242188 59.41703125 72 59 C81.11846759 71.22262677 85.60985676 85.08901468 88 100 C89.32 100.33 90.64 100.66 92 101 C89.85259702 85.98863059 85.63665059 71.53519814 77.06640625 58.84765625 C76 57 76 57 76 54 C79.07557725 51.94961517 82.17327324 51.39069549 85.85546875 51.5 C93.29446932 53.23441179 98.92597852 62.04311995 103 68 C109.25073085 78.10894059 106.82037223 96.16583617 104.375 107.25 C102.42789624 115.50416443 99.47643534 123.27238087 96 131 C95.50693359 132.16208984 95.50693359 132.16208984 95.00390625 133.34765625 C94 135 94 135 91.0625 136.0625 C87.85703201 137.63155105 87.85703201 137.63155105 87.29296875 140.2109375 C87.11378906 141.11070312 86.93460938 142.01046875 86.75 142.9375 C83.53950937 157.06739192 69.04685671 166.92560332 57.5 174.25 C41.18797926 183.95632639 24.09791016 189.6766976 5 189 C7.50127915 186.98458083 10.0100516 184.99244607 12.578125 183.0625 C27.4575433 171.57663324 36.828643 154.56463146 43 137 C40.56175068 137.40112985 40.56175068 137.40112985 38 139 C36.37998274 141.61581481 35.35451029 144.44836037 34.25 147.3125 C26.23680995 166.58674478 14.17917259 179.38484057 -4.59765625 188.22265625 C-16.67745169 192.13140307 -33.12159956 184.11256567 -43.81420898 178.7668457 C-51.20216774 174.907415 -57.75467876 170.55786984 -64 165 C-65.37421814 163.83241248 -66.74914337 162.66565631 -68.125 161.5 C-69.07375 160.675 -70.0225 159.85 -71 159 C-69.65285534 155.96232088 -68.17833297 154.00331798 -65.75 151.75 C-62.02468718 148.14964526 -58.99134616 144.21856509 -56 140 C-61.56427915 140.24101397 -64.21853469 143.76018887 -67.8125 147.5625 C-68.40998047 148.17802734 -69.00746094 148.79355469 -69.62304688 149.42773438 C-71.0912621 150.94293249 -72.54689553 152.47030438 -74 154 C-82.09238816 146.15660839 -87.3067075 137.18020297 -92 127 C-92.55494141 125.87078125 -92.55494141 125.87078125 -93.12109375 124.71875 C-97.85632415 114.25333807 -102.50540435 97.40043055 -100 86 C-97.44121763 79.38675731 -94.38237452 73.21750574 -89.5625 67.9375 C-86.74416267 65.31088696 -86.74416267 65.31088696 -86.83984375 62.31640625 C-86.89269531 61.55199219 -86.94554688 60.78757812 -87 60 C-93.22885818 65.91095092 -93.22885818 65.91095092 -98 73 C-98.33 73 -98.66 73 -99 73 C-98.46742812 66.79278294 -97.44664046 61.26555358 -95.4375 55.375 C-95.17356445 54.59938721 -94.90962891 53.82377441 -94.63769531 53.0246582 C-87.86970825 33.89238031 -73.58239286 10.7543142 -55.08984375 0.921875 C-54.40019531 0.61765625 -53.71054688 0.3134375 -53 0 C-52.17628906 -0.38671875 -51.35257813 -0.7734375 -50.50390625 -1.171875 C-35.05265039 -7.16359706 -15.29776181 -5.69002116 0 0 Z " fill="#FAFCFD" transform="translate(155,72)"/>
<path d="M0 0 C1.70736328 0.78890625 1.70736328 0.78890625 3.44921875 1.59375 C15.53481973 7.27270408 25.31948148 14.88696015 35 24 C35.60328125 24.53882813 36.2065625 25.07765625 36.828125 25.6328125 C55.46792451 42.96608401 67.02747095 70.78587747 68.12792969 95.92211914 C68.89486921 127.71275857 61.30924491 155.72174214 40 180 C39.34128906 180.79148438 38.68257812 181.58296875 38.00390625 182.3984375 C33.21093166 188.04971136 27.99093389 192.64904243 22 197 C20.99453125 197.7321875 19.9890625 198.464375 18.953125 199.21875 C6.20779842 208.11376684 -8.7775894 214.00062132 -24 217 C-24.85980469 217.20238281 -25.71960938 217.40476562 -26.60546875 217.61328125 C-46.01406761 221.82755604 -67.56963053 218.80262564 -86 212 C-87.05703125 211.6184375 -88.1140625 211.236875 -89.203125 210.84375 C-101.07171787 206.245447 -111.34928867 199.20715955 -121 191 C-121.73605469 190.40960938 -122.47210938 189.81921875 -123.23046875 189.2109375 C-142.50693738 173.17564501 -156.84554828 146.207872 -159.80957031 121.34033203 C-160.90880564 107.83101174 -161.23768173 93.22194633 -158 80 C-157.84934082 79.36900391 -157.69868164 78.73800781 -157.54345703 78.08789062 C-152.30522691 56.73241644 -141.45223499 38.59222039 -126 23 C-125.14664063 22.13375 -124.29328125 21.2675 -123.4140625 20.375 C-91.85169106 -9.95520679 -39.61300896 -19.50845858 0 0 Z M-113 26 C-113.94359375 26.86625 -114.8871875 27.7325 -115.859375 28.625 C-131.71844689 43.55267817 -147.18188946 66.46761084 -148.125 88.984375 C-148.08375 89.64953125 -148.0425 90.3146875 -148 91 C-145.68753527 88.74410933 -143.55122145 86.37992111 -141.4375 83.9375 C-139.66761787 81.89357161 -137.91233177 79.91233177 -136 78 C-135.66868267 81.17840015 -135.73482032 82.61440374 -137.57421875 85.2890625 C-138.27160156 86.05992187 -138.96898437 86.83078125 -139.6875 87.625 C-145.66438415 94.7908913 -149.93252475 102.11151705 -149.4140625 111.67578125 C-146.54425768 134.71544067 -139.19312099 154.22138298 -124 172 C-119.30570017 168.08808348 -115.03219193 164.0390845 -110.89453125 159.5390625 C-109 158 -109 158 -105 158 C-109.75887317 163.94330383 -114.47140875 169.75492625 -120 175 C-114.97634788 187.61687344 -95.28558852 195.8540525 -83.625 200.875 C-81.75818016 201.60461962 -79.88350377 202.31459891 -78 203 C-76.74316406 203.46019531 -76.74316406 203.46019531 -75.4609375 203.9296875 C-72.98874413 204.75375196 -70.5379626 205.41041176 -68 206 C-67.10023438 206.22558594 -66.20046875 206.45117188 -65.2734375 206.68359375 C-55.5220494 208.37891594 -47.97714692 204.200808 -40 199 C-36.31083008 196.27449188 -33.12310388 193.35423612 -30 190 C-28.95972656 188.89591797 -28.95972656 188.89591797 -27.8984375 187.76953125 C-21.49368835 180.38799603 -16.63015511 171.21286605 -13.27978516 162.02490234 C-12.06599204 158.74027115 -11.46618143 157.24935286 -8.3125 155.5625 C-7.549375 155.376875 -6.78625 155.19125 -6 155 C-14.08250009 173.89415605 -22.17747463 190.43113113 -39 203 C-40.67075087 204.32821199 -42.33852835 205.6601987 -44 207 C-22.39210486 208.23604485 0.18638616 200.02262792 17.0546875 186.5625 C18.69226696 185.08527699 20.30774661 183.58267693 21.88671875 182.04296875 C24 180 24 180 26.5078125 178.0625 C32.07462936 173.45547915 36.97472239 167.24556309 38.125 160 C38.16882813 159.29875 38.21265625 158.5975 38.2578125 157.875 C39 156 39 156 41.82421875 154.71484375 C45.9416505 152.49153189 47.04844426 149.73282961 48.6875 145.5625 C48.98293701 144.84892334 49.27837402 144.13534668 49.58276367 143.40014648 C51.99995884 137.39579874 53.6954206 131.33773089 55 125 C55.16773926 124.33532715 55.33547852 123.6706543 55.50830078 122.98583984 C56.87604751 117.41897717 57.30600758 112.22210799 57.25 106.5 C57.25773438 105.70980469 57.26546875 104.91960937 57.2734375 104.10546875 C57.23150481 91.295033 53.13534496 83.09125771 44.1875 73.9375 C40.48598386 70.33762733 38.26497456 69.78395478 32.9765625 69.83203125 C30.62084869 70.03222037 28.96400944 70.69066037 27 72 C27.92878519 76.20576532 29.83830122 79.76634054 31.8125 83.5625 C37.69946622 95.18230285 40.87984917 106.19878629 43 119 C41.68 118.67 40.36 118.34 39 118 C38.85304687 117.09121094 38.70609375 116.18242187 38.5546875 115.24609375 C36.28374629 102.52099213 32.4931736 88.11092096 24 78 C21.03260974 77.65495029 21.03260974 77.65495029 19.5703125 79.36328125 C10.90256779 91.05302344 6.83663839 104.67422054 5 119 C2.525 119.495 2.525 119.495 0 120 C8.69769399 84.57797201 8.69769399 84.57797201 20 73 C18.39531044 69.35062536 16.14380135 66.51278072 13.625 63.4375 C12.85414063 62.48746094 12.08328125 61.53742188 11.2890625 60.55859375 C9.30540979 58.34137102 7.4503504 56.66153897 5 55 C4.00033203 55.92619141 4.00033203 55.92619141 2.98046875 56.87109375 C-1.82762354 61.28915897 -6.65931748 65.59236011 -11.75 69.6875 C-15.54692721 72.74988653 -19.04483675 75.91829098 -22.4296875 79.42578125 C-24.80652569 81.80853197 -27.37958718 83.89088724 -30 86 C-31.485 84.02 -31.485 84.02 -33 82 C-32.40703125 81.73574219 -31.8140625 81.47148437 -31.203125 81.19921875 C-28.91970946 79.95629575 -27.52573277 78.69598354 -25.75 76.8125 C-22.01363011 72.97387157 -18.06591585 69.48414729 -14 66 C-12.81615453 64.97555123 -11.63258393 63.95078478 -10.44921875 62.92578125 C-9.17468738 61.82527965 -7.89994649 60.72502065 -6.625 59.625 C-6.0055249 59.0885083 -5.3860498 58.5520166 -4.74780273 57.99926758 C-0.22891718 54.11445859 -0.22891718 54.11445859 2 53 C0.45233046 48.96500441 -2.15280866 47.00871108 -5.5 44.375 C-10.91139241 40.08860759 -10.91139241 40.08860759 -13 38 C-16.59932051 38.40883151 -19.7183081 40.24070667 -22.9375 41.8125 C-39.37665579 49.4333007 -58.00276044 53.30109046 -76 55 C-75.67 53.68 -75.34 52.36 -75 51 C-74.23147705 50.88519287 -73.4629541 50.77038574 -72.67114258 50.65209961 C-59.5948068 48.65766854 -46.63543573 46.67123198 -34.0625 42.4375 C-33.22501221 42.15704834 -32.38752441 41.87659668 -31.5246582 41.58764648 C-26.84553486 39.92229407 -23.00575536 37.93841124 -19 35 C-22.26971747 31.35046687 -26.01080916 28.98852423 -30.25 26.625 C-30.94875244 26.2343335 -31.64750488 25.84366699 -32.36743164 25.44116211 C-56.28464274 12.43552669 -91.25744312 5.32176409 -113 26 Z " fill="#0C70B9" transform="translate(204,54)"/>
<path d="M0 0 C6.97724454 4.25279667 13.95559263 12.38898157 17 20 C20.88375434 40.52125681 16.42916842 60.26316278 8 79 C7.50693359 80.16208984 7.50693359 80.16208984 7.00390625 81.34765625 C6 83 6 83 3.0625 84.0625 C-0.14296799 85.63155105 -0.14296799 85.63155105 -0.70703125 88.2109375 C-0.88621094 89.11070312 -1.06539062 90.01046875 -1.25 90.9375 C-4.46049063 105.06739192 -18.95314329 114.92560332 -30.5 122.25 C-46.81202074 131.95632639 -63.90208984 137.6766976 -83 137 C-80.49872085 134.98458083 -77.9899484 132.99244607 -75.421875 131.0625 C-60.5424567 119.57663324 -51.171357 102.56463146 -45 85 C-47.43824932 85.40112985 -47.43824932 85.40112985 -50 87 C-51.62001726 89.61581481 -52.64548971 92.44836037 -53.75 95.3125 C-61.76319005 114.58674478 -73.82082741 127.38484057 -92.59765625 136.22265625 C-104.67745169 140.13140307 -121.12159956 132.11256567 -131.81420898 126.7668457 C-139.20216774 122.907415 -145.75467876 118.55786984 -152 113 C-153.37421814 111.83241248 -154.74914337 110.66565631 -156.125 109.5 C-157.548125 108.2625 -157.548125 108.2625 -159 107 C-157.65285534 103.96232088 -156.17833297 102.00331798 -153.75 99.75 C-150.02468718 96.14964526 -146.99134616 92.21856509 -144 88 C-149.56427915 88.24101397 -152.21853469 91.76018887 -155.8125 95.5625 C-156.40998047 96.17802734 -157.00746094 96.79355469 -157.62304688 97.42773438 C-159.0912621 98.94293249 -160.54689553 100.47030438 -162 102 C-170.09238816 94.15660839 -175.3067075 85.18020297 -180 75 C-180.36996094 74.2471875 -180.73992187 73.494375 -181.12109375 72.71875 C-186.40667005 61.03700938 -191.2234429 42.78412535 -186.70703125 30.4765625 C-183.57171583 23.31334861 -179.68444362 17.33673659 -173 13 C-172.67 13 -172.34 13 -172 13 C-172 21.25 -172 29.5 -172 38 C-156.73103228 38.77889483 -156.73103228 38.77889483 -142.0625 35.3125 C-141.43214844 35.06870605 -140.80179688 34.82491211 -140.15234375 34.57373047 C-136.94080808 33.19822696 -134.31670746 31.54753757 -131.68359375 29.29296875 C-129 27 -129 27 -127 27 C-126.773125 26.443125 -126.54625 25.88625 -126.3125 25.3125 C-124.64103234 22.36753316 -122.44723648 20.31843456 -120 18 C-122.44393066 26.68953122 -130.44045418 32.33986334 -137.1640625 37.71875 C-153.51102885 50.86837582 -165.91926541 65.88413168 -169 87 C-168.154375 86.505 -167.30875 86.01 -166.4375 85.5 C-158.71962243 82.16296687 -148.67100704 83.03324689 -141 86 C-141.03480469 84.77925781 -141.06960937 83.55851562 -141.10546875 82.30078125 C-141.48022836 63.81891809 -138.05306168 48.65912907 -126 34 C-123.85546875 32.82421875 -123.85546875 32.82421875 -122 32 C-122.0721875 32.54785156 -122.144375 33.09570312 -122.21875 33.66015625 C-123.97848526 48.69122822 -124.88404089 66.39721264 -115 79 C-107.89172063 85.69014529 -101.34900134 87.58785296 -91.65625 87.4453125 C-84.57595373 86.58296872 -79.09784878 83.46497231 -74.5 78.0625 C-72.87360467 74.74194287 -71.37327593 71.43318983 -70 68 C-67.89145015 70.10854985 -67.53825797 71.10873176 -66.6875 73.875 C-65.17387648 77.91622785 -64.02524739 80.02845026 -60 82 C-53.36586834 82.80051242 -48.65814984 82.70333766 -43 79 C-42.34 79 -41.68 79 -41 79 C-41 80.32 -41 81.64 -41 83 C-35.39 83 -29.78 83 -24 83 C-24 81.35 -24 79.7 -24 78 C-24.66 78 -25.32 78 -26 78 C-26 73.05 -26 68.1 -26 63 C-22.68756695 62.17189174 -20.34023421 61.90721572 -17 62 C-16.566875 63.546875 -16.566875 63.546875 -16.125 65.125 C-14.19774858 69.80141889 -10.5336643 71.35336013 -6.1796875 73.54296875 C-4 75 -4 75 -3.1953125 77.17578125 C-3.09863281 78.07876953 -3.09863281 78.07876953 -3 79 C-5.475 79.495 -5.475 79.495 -8 80 C-8.99 78.02 -9.98 76.04 -11 74 C-12.65 74 -14.3 74 -16 74 C-16.6878236 76.35367713 -16.6878236 76.35367713 -17 79 C-16.01 80.485 -16.01 80.485 -15 82 C-12.45387764 82.36157951 -10.23430552 82.50971137 -7.6875 82.5 C-6.37136719 82.5309375 -5.05523437 82.561875 -3.69921875 82.59375 C0.83954641 81.86524704 2.27839519 80.64777832 5 77 C5.8404769 73.90433041 5.6132835 71.13718098 5 68 C2.19045666 63.48029985 -3.22434625 61.91842501 -8 60 C-7.67 58.68 -7.34 57.36 -7 56 C-6.34 56 -5.68 56 -5 56 C-4.01 57.98 -4.01 57.98 -3 60 C-0.69 60 1.62 60 4 60 C3.1395861 55.66770285 3.1395861 55.66770285 1 52 C-5.76085165 51.45913187 -10.42107597 53.28071731 -16 57 C-16.33 55.35 -16.66 53.7 -17 52 C-19.83073436 51.49830585 -19.83073436 51.49830585 -23 52 C-25.42422186 54.88509913 -25.42422186 54.88509913 -27 58 C-28.4606285 55.35261084 -29 54.10551666 -29 51 C-32.465 51.495 -32.465 51.495 -36 52 C-36 51.01 -36 50.02 -36 49 C-35.34 49 -34.68 49 -34 49 C-33.84144531 47.99582031 -33.68289062 46.99164063 -33.51953125 45.95703125 C-31.40970704 33.31052415 -28.29301995 16.73529706 -17.81640625 8.2265625 C-17.21699219 7.82179687 -16.61757812 7.41703125 -16 7 C-6.88153241 19.22262677 -2.39014324 33.08901468 0 48 C1.32 48.33 2.64 48.66 4 49 C1.85259702 33.98863059 -2.36334941 19.53519814 -10.93359375 6.84765625 C-12 5 -12 5 -12 2 C-8.29036195 -0.47309204 -4.28919624 -1.00003118 0 0 Z " fill="#FBFCFD" transform="translate(243,124)"/>
<path d="M0 0 C0.78142365 0.00337372 1.56284729 0.00674744 2.36795044 0.01022339 C34.28820073 0.20887439 61.29872434 9.97162373 88.6171875 25.87109375 C90.15931667 26.76731664 91.71716233 27.63983117 93.3125 28.4375 C94.034375 29.18 94.75625 29.9225 95.5 30.6875 C99.1210712 34.22810295 102.96399044 37.32848159 107.5625 39.5 C109.84709307 40.72388914 110.78347564 42.35802687 112.3125 44.4375 C113.96252828 45.79136936 115.6299387 47.12428142 117.3125 48.4375 C120.31465875 51.10608555 121.38724994 52.6043212 122.3125 56.4375 C123.3025 56.7675 124.2925 57.0975 125.3125 57.4375 C125.64583333 58.77083333 125.97916667 60.10416667 126.3125 61.4375 C127.3025 61.7675 128.2925 62.0975 129.3125 62.4375 C130.99613169 64.59362513 132.51012286 66.71533126 134 69 C134.65440063 69.99253784 134.65440063 69.99253784 135.32202148 71.00512695 C146.47684653 88.30048331 146.47684653 88.30048331 148.3125 97.4375 C148.6425 98.4275 148.9725 99.4175 149.3125 100.4375 C150.01273685 103.23844741 150.71239867 106.03928356 151.3984375 108.84375 C152.08391757 111.43768595 152.08391757 111.43768595 153.76585388 112.77023315 C159.97309228 119.46156524 158.76525866 132.6690466 158.74609375 141.1171875 C158.75067244 142.50139619 158.75598291 143.88560263 158.76197815 145.26980591 C158.77084262 148.1524588 158.76856381 151.03483369 158.75854492 153.91748047 C158.7470712 157.57059077 158.76727538 161.22273199 158.79646206 164.87571526 C158.81500846 167.72948067 158.81449536 170.58302173 158.80882454 173.43683243 C158.80860129 175.42503244 158.82532276 177.41321203 158.84263611 179.40133667 C158.7759094 188.23240017 157.5983744 196.21483754 154.3125 204.4375 C153.6525 204.7675 152.9925 205.0975 152.3125 205.4375 C151.43395672 207.91050589 151.43395672 207.91050589 150.75 210.8125 C150.0070621 213.73035972 149.26500536 216.57998391 148.3125 219.4375 C148.15918213 220.08783203 148.00586426 220.73816406 147.84790039 221.40820312 C146.95725841 224.78395148 145.30790407 227.82903353 143.75 230.9375 C143.21971191 231.99565918 143.21971191 231.99565918 142.67871094 233.07519531 C138.53032484 241.18490501 133.96241279 249.11733495 127.3125 255.4375 C125.0888932 257.3629644 125.0888932 257.3629644 124.3125 260.4375 C123.3225 260.7675 122.3325 261.0975 121.3125 261.4375 C120.97200663 262.76902287 120.63946663 264.10259112 120.3125 265.4375 C118.82421875 266.96484375 118.82421875 266.96484375 117 268.375 C114.67629184 270.24819332 113.00693268 271.82164178 111.125 274.1875 C109.2036991 276.57256318 108.00591264 277.12772347 105.3125 278.4375 C101.66108204 280.9335865 98.19183923 283.55816077 95.0625 286.6875 C93.17380995 288.57619005 91.70224464 289.24460267 89.3125 290.4375 C88.16002211 291.12919634 87.01351382 291.83087785 85.87109375 292.5390625 C72.68820744 300.65472123 59.10520582 307.01289218 44.1875 311.25 C43.54498291 311.43280518 42.90246582 311.61561035 42.24047852 311.80395508 C28.42250405 315.45554686 14.87691111 316.99553447 0.625 316.875 C-0.15642365 316.87162628 -0.93784729 316.86825256 -1.74295044 316.86477661 C-33.66320073 316.66612561 -60.67372434 306.90337627 -87.9921875 291.00390625 C-89.53431667 290.10768336 -91.09216233 289.23516883 -92.6875 288.4375 C-93.409375 287.695 -94.13125 286.9525 -94.875 286.1875 C-98.4960712 282.64689705 -102.33899044 279.54651841 -106.9375 277.375 C-109.22209307 276.15111086 -110.15847564 274.51697313 -111.6875 272.4375 C-113.33752828 271.08363064 -115.0049387 269.75071858 -116.6875 268.4375 C-119.68965875 265.76891445 -120.76224994 264.2706788 -121.6875 260.4375 C-122.6775 260.1075 -123.6675 259.7775 -124.6875 259.4375 C-125.02083333 258.10416667 -125.35416667 256.77083333 -125.6875 255.4375 C-126.6775 255.1075 -127.6675 254.7775 -128.6875 254.4375 C-129.91430664 253.02636719 -129.91430664 253.02636719 -131.09765625 251.234375 C-131.74637695 250.25791016 -131.74637695 250.25791016 -132.40820312 249.26171875 C-132.85099609 248.57722656 -133.29378906 247.89273438 -133.75 247.1875 C-134.19666016 246.51847656 -134.64332031 245.84945312 -135.10351562 245.16015625 C-137.3931439 241.67608811 -139.25838532 238.37682129 -140.6875 234.4375 C-141.0175 234.1075 -141.3475 233.7775 -141.6875 233.4375 C-142.54539637 231.84633409 -143.37434584 230.23948922 -144.1875 228.625 C-144.6309375 227.75230469 -145.074375 226.87960938 -145.53125 225.98046875 C-146.53987287 223.76217994 -147.17152742 221.80402809 -147.6875 219.4375 C-148.0175 218.4475 -148.3475 217.4575 -148.6875 216.4375 C-149.38773685 213.63655259 -150.08739867 210.83571644 -150.7734375 208.03125 C-151.45891757 205.43731405 -151.45891757 205.43731405 -153.14085388 204.10476685 C-159.34809228 197.41343476 -158.14025866 184.2059534 -158.12109375 175.7578125 C-158.12567244 174.37360381 -158.13098291 172.98939737 -158.13697815 171.60519409 C-158.14584262 168.7225412 -158.14356381 165.84016631 -158.13354492 162.95751953 C-158.1220712 159.30440923 -158.14227538 155.65226801 -158.17146206 151.99928474 C-158.19000846 149.14551933 -158.18949536 146.29197827 -158.18382454 143.43816757 C-158.18360129 141.44996756 -158.20032276 139.46178797 -158.21763611 137.47366333 C-158.1509094 128.64259983 -156.9733744 120.66016246 -153.6875 112.4375 C-152.6975 111.9425 -152.6975 111.9425 -151.6875 111.4375 C-150.80895672 108.96449411 -150.80895672 108.96449411 -150.125 106.0625 C-149.3820621 103.14464028 -148.64000536 100.29501609 -147.6875 97.4375 C-147.53418213 96.78716797 -147.38086426 96.13683594 -147.22290039 95.46679688 C-146.33225841 92.09104852 -144.68290407 89.04596647 -143.125 85.9375 C-142.77147461 85.23206055 -142.41794922 84.52662109 -142.05371094 83.79980469 C-137.90532484 75.69009499 -133.33741279 67.75766505 -126.6875 61.4375 C-124.4638932 59.5120356 -124.4638932 59.5120356 -123.6875 56.4375 C-122.6975 56.1075 -121.7075 55.7775 -120.6875 55.4375 C-120.34700663 54.10597713 -120.01446663 52.77240888 -119.6875 51.4375 C-118.19921875 49.91015625 -118.19921875 49.91015625 -116.375 48.5 C-114.05129184 46.62680668 -112.38193268 45.05335822 -110.5 42.6875 C-108.5786991 40.30243682 -107.38091264 39.74727653 -104.6875 38.4375 C-101.03608204 35.9414135 -97.56683923 33.31683923 -94.4375 30.1875 C-92.54880995 28.29880995 -91.07724464 27.63039733 -88.6875 26.4375 C-87.53502211 25.74580366 -86.38851382 25.04412215 -85.24609375 24.3359375 C-72.06320744 16.22027877 -58.48020582 9.86210782 -43.5625 5.625 C-42.91998291 5.44219482 -42.27746582 5.25938965 -41.61547852 5.07104492 C-27.79750405 1.41945314 -14.25191111 -0.12053447 0 0 Z M-99.6875 43.4375 C-100.67878906 44.2934375 -101.67007813 45.149375 -102.69140625 46.03125 C-122.69802616 63.64973551 -136.50583178 86.18616426 -144.6875 111.4375 C-145.22503906 113.00371094 -145.22503906 113.00371094 -145.7734375 114.6015625 C-158.0181421 151.70393808 -152.8888651 193.26973929 -135.65673828 227.9074707 C-131.080094 236.74860702 -126.09986472 244.79970808 -119.6875 252.4375 C-118.74074985 253.59754562 -117.79414299 254.7577082 -116.84765625 255.91796875 C-91.81482923 286.21786539 -56.66604002 305.28958162 -17.6875 310.4375 C-12.34245082 310.9179765 -6.98749187 310.92426475 -1.625 310.875 C-0.91471649 310.87195862 -0.20443298 310.86891724 0.52737427 310.86578369 C37.78263076 310.63171272 72.08681 297.82860746 100.3125 273.4375 C100.80782227 273.01065918 101.30314453 272.58381836 101.81347656 272.14404297 C109.10347871 265.81446967 115.49682497 259.18465834 121.3125 251.4375 C122.03953125 250.47585937 122.7665625 249.51421875 123.515625 248.5234375 C147.35700748 215.595654 157.2451202 174.73994114 151.4296875 134.50390625 C144.89600525 96.51651745 124.36357961 60.65044301 93.3125 37.4375 C91.87197266 36.34888672 91.87197266 36.34888672 90.40234375 35.23828125 C32.69209319 -6.56699508 -45.90296652 -3.02992304 -99.6875 43.4375 Z M-153.6875 115.4375 C-152.6875 117.4375 -152.6875 117.4375 -152.6875 117.4375 Z M153.3125 115.4375 C154.3125 117.4375 154.3125 117.4375 154.3125 117.4375 Z M-154.6875 118.4375 C-153.6875 122.4375 -153.6875 122.4375 -153.6875 122.4375 Z M154.3125 118.4375 C155.3125 122.4375 155.3125 122.4375 155.3125 122.4375 Z M-155.6875 123.4375 C-154.6875 126.4375 -154.6875 126.4375 -154.6875 126.4375 Z M155.3125 123.4375 C156.3125 126.4375 156.3125 126.4375 156.3125 126.4375 Z M-156.6875 127.4375 C-156.6875 129.4175 -156.6875 131.3975 -156.6875 133.4375 C-156.3575 133.4375 -156.0275 133.4375 -155.6875 133.4375 C-155.6875 131.4575 -155.6875 129.4775 -155.6875 127.4375 C-156.0175 127.4375 -156.3475 127.4375 -156.6875 127.4375 Z M156.3125 127.4375 C156.3125 129.4175 156.3125 131.3975 156.3125 133.4375 C156.6425 133.4375 156.9725 133.4375 157.3125 133.4375 C157.3125 131.4575 157.3125 129.4775 157.3125 127.4375 C156.9825 127.4375 156.6525 127.4375 156.3125 127.4375 Z M-156.6875 183.4375 C-156.6875 185.4175 -156.6875 187.3975 -156.6875 189.4375 C-156.3575 189.4375 -156.0275 189.4375 -155.6875 189.4375 C-155.6875 187.4575 -155.6875 185.4775 -155.6875 183.4375 C-156.0175 183.4375 -156.3475 183.4375 -156.6875 183.4375 Z M156.3125 183.4375 C156.3125 185.4175 156.3125 187.3975 156.3125 189.4375 C156.6425 189.4375 156.9725 189.4375 157.3125 189.4375 C157.3125 187.4575 157.3125 185.4775 157.3125 183.4375 C156.9825 183.4375 156.6525 183.4375 156.3125 183.4375 Z M-155.6875 190.4375 C-154.6875 193.4375 -154.6875 193.4375 -154.6875 193.4375 Z M155.3125 190.4375 C156.3125 193.4375 156.3125 193.4375 156.3125 193.4375 Z M-154.6875 194.4375 C-153.6875 198.4375 -153.6875 198.4375 -153.6875 198.4375 Z M154.3125 194.4375 C155.3125 198.4375 155.3125 198.4375 155.3125 198.4375 Z M-153.6875 199.4375 C-152.6875 201.4375 -152.6875 201.4375 -152.6875 201.4375 Z M153.3125 199.4375 C154.3125 201.4375 154.3125 201.4375 154.3125 201.4375 Z " fill="#E4E6E8" transform="translate(157.6875,-0.4375)"/>
<path d="M0 0 C4.28387767 2.5090131 7.21953394 5.57487539 9.38671875 10.08984375 C9.86643856 13.99613364 9.73526142 16.30562274 8.13671875 19.90234375 C5.48211003 23.22060465 3.61380736 23.90708587 -0.55078125 24.52734375 C-3.61328125 24.08984375 -3.61328125 24.08984375 -6.36328125 22.33984375 C-9.64055635 17.60600194 -10.01047326 12.73104692 -10.61328125 7.08984375 C-14.16326611 7.95761783 -16.13407311 8.47844026 -18.42578125 11.40234375 C-20.48750111 16.06834132 -20.73145728 20.33582525 -20.67578125 25.40234375 C-20.66675781 26.47097656 -20.65773437 27.53960937 -20.6484375 28.640625 C-20.63683594 29.44886719 -20.62523437 30.25710937 -20.61328125 31.08984375 C-20.03578125 30.61546875 -19.45828125 30.14109375 -18.86328125 29.65234375 C-14.35098917 26.51880758 -8.95041051 26.32614269 -3.61328125 27.08984375 C2.52353806 29.53361287 6.00746678 33.56015871 9.38671875 39.08984375 C11.81589463 46.37737138 11.70078018 57.19903227 8.69921875 64.33984375 C5.05524234 70.9192456 -0.52726301 75.59548388 -7.61328125 78.08984375 C-16.54803947 79.39456896 -24.23932208 78.47745968 -31.61328125 73.08984375 C-40.45550747 65.20456842 -43.13032166 54.93581877 -43.8359375 43.47265625 C-44.13207895 30.88020679 -42.28243443 18.93680609 -33.91015625 9.0859375 C-25.10336933 -0.08460801 -12.51169231 -4.35758492 0 0 Z " fill="#056DB8" transform="translate(162.61328125,133.91015625)"/>
<path d="M0 0 C1.70736328 0.78890625 1.70736328 0.78890625 3.44921875 1.59375 C15.53481973 7.27270408 25.31948148 14.88696015 35 24 C35.60328125 24.53882813 36.2065625 25.07765625 36.828125 25.6328125 C55.46792451 42.96608401 67.02747095 70.78587747 68.12792969 95.92211914 C68.89486921 127.71275857 61.30924491 155.72174214 40 180 C39.34128906 180.79148438 38.68257812 181.58296875 38.00390625 182.3984375 C33.21093166 188.04971136 27.99093389 192.64904243 22 197 C20.99453125 197.7321875 19.9890625 198.464375 18.953125 199.21875 C6.20779842 208.11376684 -8.7775894 214.00062132 -24 217 C-24.85980469 217.20238281 -25.71960938 217.40476562 -26.60546875 217.61328125 C-46.01406761 221.82755604 -67.56963053 218.80262564 -86 212 C-87.05703125 211.6184375 -88.1140625 211.236875 -89.203125 210.84375 C-101.07171787 206.245447 -111.34928867 199.20715955 -121 191 C-121.73605469 190.40960938 -122.47210938 189.81921875 -123.23046875 189.2109375 C-142.50693738 173.17564501 -156.84554828 146.207872 -159.80957031 121.34033203 C-160.90880564 107.83101174 -161.23768173 93.22194633 -158 80 C-157.84934082 79.36900391 -157.69868164 78.73800781 -157.54345703 78.08789062 C-152.30522691 56.73241644 -141.45223499 38.59222039 -126 23 C-125.14664063 22.13375 -124.29328125 21.2675 -123.4140625 20.375 C-91.85169106 -9.95520679 -39.61300896 -19.50845858 0 0 Z M-127 30 C-145.99156556 51.10384128 -155.68032652 76.30529502 -155.5 104.6875 C-155.49823761 105.43223572 -155.49647522 106.17697144 -155.49465942 106.9442749 C-155.43173664 118.8951204 -154.35682022 129.79403009 -150 141 C-149.74299316 141.6914209 -149.48598633 142.3828418 -149.22119141 143.09521484 C-143.34276494 158.64471739 -134.55863622 171.17666218 -123 183 C-122.37222656 183.67804688 -121.74445313 184.35609375 -121.09765625 185.0546875 C-103.68337822 203.49333483 -77.35935208 213.23945723 -52.5 214.25 C-23.11150827 215.04955735 3.48384359 207.30536876 26 188 C26.61101562 187.52175781 27.22203125 187.04351562 27.8515625 186.55078125 C46.9505005 171.33267768 59.25167921 144.65842363 63 121 C63.52674768 115.44767981 63.53402139 109.88500171 63.5 104.3125 C63.49890228 103.56909363 63.49780457 102.82568726 63.49667358 102.05975342 C63.44615173 90.11317886 62.26815202 79.2252099 58 68 C57.60425781 66.88496094 57.20851563 65.76992187 56.80078125 64.62109375 C52.61749151 53.73898125 46.50383917 43.88819525 39 35 C38.33355469 34.19949219 37.66710937 33.39898437 36.98046875 32.57421875 C19.70401423 12.5584345 -2.48370911 1.31470337 -28 -4 C-28.90621094 -4.19335938 -29.81242187 -4.38671875 -30.74609375 -4.5859375 C-66.99500265 -9.19864379 -101.81160391 3.69451012 -127 30 Z " fill="#ECF4F9" transform="translate(204,54)"/>
<path d="M0 0 C3.93808848 1.96904424 7.55950855 4.20318508 11.26953125 6.5625 C19.8951603 11.10360371 31.34907008 11.63944491 40.7890625 9.3125 C43.01952683 8.36672007 44.96306451 7.31030938 47 6 C48.25490234 5.20722656 48.25490234 5.20722656 49.53515625 4.3984375 C51.72179431 2.97222226 53.87077106 1.51009144 56 0 C55.2560782 10.91085304 49.56991003 19.94094035 43.81274414 28.92211914 C33.41682857 45.22688251 30.74511566 58.90150911 30 78 C29.16339844 77.83886719 28.32679687 77.67773438 27.46484375 77.51171875 C23.78726799 76.96858186 20.27914547 76.8315207 16.5625 76.8125 C15.30566406 76.79832031 14.04882812 76.78414063 12.75390625 76.76953125 C8.79925868 77.01232439 5.74468455 77.77754169 2 79 C0.82461045 65.77686756 9.45318756 53.58683116 17.57421875 43.828125 C24.46848598 35.90251197 32.42746402 29.24554176 40.61914062 22.70776367 C43.45477099 20.41144369 45.84827741 18.22758388 47.875 15.1875 C48.57625 14.135625 49.2775 13.08375 50 12 C49.21625 13.010625 48.4325 14.02125 47.625 15.0625 C40.10352053 23.72094729 29.30722642 30.07658351 17.76074219 31.22216797 C5.52026674 31.84008891 5.52026674 31.84008891 0 30 C0 20.1 0 10.2 0 0 Z " fill="#ED1B4E" transform="translate(72,132)"/>
<path d="M0 0 C0.66 1.98 1.32 3.96 2 6 C3.32 4.02 4.64 2.04 6 0 C8.875 0.25 8.875 0.25 12 1 C13.375 3.0625 13.375 3.0625 14 5 C14.7425 4.360625 15.485 3.72125 16.25 3.0625 C20.72147784 -0.29110838 24.43038122 -0.40506318 30 0 C31.9375 1.125 31.9375 1.125 33 3 C33.1875 6.1875 33.1875 6.1875 33 9 C29.625 9.625 29.625 9.625 26 10 C25.34 9.34 24.68 8.68 24 8 C24 7.01 24 6.02 24 5 C23.34 5.33 22.68 5.66 22 6 C22 6.99 22 7.98 22 9 C22.68707031 9.24234375 23.37414062 9.4846875 24.08203125 9.734375 C24.98308594 10.06953125 25.88414062 10.4046875 26.8125 10.75 C27.70582031 11.07484375 28.59914062 11.3996875 29.51953125 11.734375 C32.32201799 13.16430524 33.46371714 14.27160154 35 17 C35.90574338 21.56135631 35.59262126 25.05180598 33.125 29 C29.4888693 32.42224066 26.34346235 32.24503581 21.5625 32.3125 C20.88123047 32.34150391 20.19996094 32.37050781 19.49804688 32.40039062 C16.20712818 32.44229263 14.47144664 32.43902889 12.01171875 30.1484375 C10.69714933 27.35688082 11.06262061 25.89025311 12 23 C13 22 13 22 15.375 21.6875 C18 22 18 22 19.8125 23.8125 C21 26 21 26 21 29 C22.32 28.67 23.64 28.34 25 28 C24.83140428 26.06872807 24.83140428 26.06872807 24 24 C22.02838518 22.57521943 22.02838518 22.57521943 19.625 21.5 C16.0946463 19.79807053 14.09718423 18.34520183 12 15 C11.67 14.01 11.34 13.02 11 12 C8.69 12 6.38 12 4 12 C3.67 16.95 3.34 21.9 3 27 C3.66 27 4.32 27 5 27 C5 28.65 5 30.3 5 32 C-0.28 32 -5.56 32 -11 32 C-11 30.68 -11 29.36 -11 28 C-10.34 27.67 -9.68 27.34 -9 27 C-8.91910458 24.22858283 -8.85955938 21.45952181 -8.8125 18.6875 C-8.78736328 17.90181641 -8.76222656 17.11613281 -8.73632812 16.30664062 C-8.72666016 15.54931641 -8.71699219 14.79199219 -8.70703125 14.01171875 C-8.6913208 13.31522217 -8.67561035 12.61872559 -8.65942383 11.90112305 C-8.83380383 9.87605906 -8.83380383 9.87605906 -10.51831055 8.49926758 C-12 7 -12 7 -12 3 C-10.56445975 2.49440092 -9.1264798 1.9957251 -7.6875 1.5 C-6.88699219 1.2215625 -6.08648437 0.943125 -5.26171875 0.65625 C-3 0 -3 0 0 0 Z " fill="#0A6FB9" transform="translate(214,175)"/>
<path d="M0 0 C3.30891419 2.92849673 5.62681426 6.17615991 6.51953125 10.5390625 C6.7535797 16.27758372 5.68179951 19.62786308 2 24 C-2.05342815 23.43642175 -4.5804779 22.18198283 -7.9375 19.875 C-26.8808272 7.51625177 -44.62824943 3.25561744 -67 2 C-64.18178145 -0.81821855 -60.89181758 -1.18579821 -57.125 -2.0625 C-56.40441406 -2.23587891 -55.68382812 -2.40925781 -54.94140625 -2.58789062 C-52.96212769 -3.06357359 -50.98112476 -3.53206562 -49 -4 C-48.3711792 -4.17942139 -47.7423584 -4.35884277 -47.09448242 -4.54370117 C-33.09387574 -7.59383917 -13.0629072 -6.30015423 0 0 Z " fill="#F7FAFC" transform="translate(189,61)"/>
<path d="M0 0 C3.00147721 1.99198757 4.87578452 4.59910631 6.921875 7.50390625 C7.35363037 8.11298828 7.78538574 8.72207031 8.23022461 9.34960938 C11.52960998 14.16679691 14.24034357 19.16667974 16.734375 24.44140625 C17.06856445 25.146604 17.40275391 25.85180176 17.74707031 26.57836914 C19.53405168 30.52391501 20.67602225 34.09420405 21.171875 38.44140625 C20.74777344 38.04308594 20.32367188 37.64476562 19.88671875 37.234375 C14.91008897 32.73900173 10.46243163 29.78778063 3.609375 29.06640625 C-0.14482677 29.47595553 -2.51257831 30.70827957 -5.828125 32.44140625 C-9.38605745 31.25542877 -10.02807789 30.16364257 -12.203125 27.19140625 C-14.26622944 24.4215788 -16.2498466 21.92631074 -18.828125 19.62890625 C-19.818125 18.54609375 -19.818125 18.54609375 -20.828125 17.44140625 C-20.62133235 14.849801 -20.07297045 13.69905105 -18.27758789 11.80981445 C-17.6252417 11.29249756 -16.97289551 10.77518066 -16.30078125 10.2421875 C-15.59115234 9.67306641 -14.88152344 9.10394531 -14.15039062 8.51757812 C-13.03180664 7.64456055 -13.03180664 7.64456055 -11.890625 6.75390625 C-10.7778418 5.86348633 -10.7778418 5.86348633 -9.64257812 4.95507812 C-2.46377381 -0.75281978 -2.46377381 -0.75281978 0 0 Z " fill="#F9FBFD" transform="translate(234.828125,90.55859375)"/>
<path d="M0 0 C12.14110896 3.2813808 24.40762879 11.84077097 33 21 C31.60594537 25.18216388 28.58038981 26.92890561 25.1875 29.5 C24.24293945 30.22896484 24.24293945 30.22896484 23.27929688 30.97265625 C22.06169193 31.91045481 20.83903568 32.84174031 19.61083984 33.765625 C18.30442902 34.76671823 17.04447637 35.82823362 15.80078125 36.90625 C14 38 14 38 12.08959961 37.73852539 C9.75993547 36.9151542 8.54937847 35.97190955 6.765625 34.27734375 C6.19199219 33.73916016 5.61835938 33.20097656 5.02734375 32.64648438 C4.44082031 32.08251953 3.85429687 31.51855469 3.25 30.9375 C2.64800781 30.36966797 2.04601562 29.80183594 1.42578125 29.21679688 C-0.05563212 27.81768425 -1.5286488 26.40969053 -3 25 C-1.8779932 22.7072035 -0.72125103 20.5497132 0.625 18.375 C2.85211875 12.9084358 2.79453753 7.48292978 1 1.875 C0.67 1.25625 0.34 0.6375 0 0 Z " fill="#F9FBFD" transform="translate(197,64)"/>
<path d="M0 0 C4.14343111 2.44517472 7.2617679 5.46548147 9 10 C9 11.65 9 13.3 9 15 C4.05 16.32 -0.9 17.64 -6 19 C-5.34 20.65 -4.68 22.3 -4 24 C1.7974423 24.24428343 1.7974423 24.24428343 7 22 C7.33 23.65 7.66 25.3 8 27 C2.30978999 31.64201343 -0.67739363 32.40429933 -8.0078125 32.3515625 C-12.54017708 31.81903925 -14.04678814 30.41950847 -17 27 C-20.15090049 21.86479539 -19.75031976 15.66292465 -18.5703125 9.90234375 C-17.10049223 5.77414484 -14.63986629 3.17950398 -11.0234375 0.890625 C-7.28593055 -0.75445528 -3.95616901 -0.99776396 0 0 Z " fill="#086EB8" transform="translate(194,175)"/>
<path d="M0 0 C3.57373585 2.94307658 4.96302184 4.47731443 5.5625 9.1875 C5.02959855 13.52684039 4.44672151 14.90281013 1.125 17.75 C-4.65673038 20.20161712 -10.65884881 21.17443045 -16.875 21.75 C-16.85759766 20.55503906 -16.85759766 20.55503906 -16.83984375 19.3359375 C-16.64674238 11.47265904 -16.64674238 11.47265904 -17.875 3.75 C-18.535 3.42 -19.195 3.09 -19.875 2.75 C-19.875 1.76 -19.875 0.77 -19.875 -0.25 C-5.41314714 -2.35354223 -5.41314714 -2.35354223 0 0 Z " fill="#E5F0F7" transform="translate(146.875,18.25)"/>
<path d="M0 0 C3.25696479 0.41755959 4.63443291 0.63443291 7 3 C9.40151551 10.39605496 9.30161603 21.6778752 6.5625 29 C5 32 5 32 4 33 C2.33382885 33.04063832 0.66611905 33.042721 -1 33 C-4.47353864 27.49563585 -4.45361894 22.73138286 -4.375 16.4375 C-4.38660156 15.50486328 -4.39820313 14.57222656 -4.41015625 13.61132812 C-4.38658596 8.09980912 -4.09609582 4.09609582 0 0 Z " fill="#F3F8FB" transform="translate(145,171)"/>
<path d="M0 0 C3 1 3 1 5 4 C7.26420116 5.26969917 7.26420116 5.26969917 9.875 6.25 C10.73867188 6.60578125 11.60234375 6.9615625 12.4921875 7.328125 C15.15398061 8.04125337 16.44535019 7.92680319 19 7 C20.39195915 11.17587745 18.82323219 13.13474776 17 17 C16.01 17 15.02 17 14 17 C14 16.01 14 15.02 14 14 C11.03 13.505 11.03 13.505 8 13 C7.01 14.98 6.02 16.96 5 19 C8.3 19.33 11.6 19.66 15 20 C14.01 23.3 13.02 26.6 12 30 C11.01 30 10.02 30 9 30 C8.67 29.01 8.34 28.02 8 27 C5.59393503 25.48895977 5.59393503 25.48895977 2.6875 24.25 C1.72199219 23.80140625 0.75648437 23.3528125 -0.23828125 22.890625 C-3.08944404 21.97115525 -4.25840627 21.93201574 -7 23 C-7.6875 21.375 -7.6875 21.375 -8 19 C-6.5625 15.75 -6.5625 15.75 -5 13 C-4.01 13 -3.02 13 -2 13 C-2 13.99 -2 14.98 -2 16 C-0.35 16.33 1.3 16.66 3 17 C3.66 14.69 4.32 12.38 5 10 C2.36 10 -0.28 10 -3 10 C-2.39009109 6.44219804 -1.4216319 3.3171411 0 0 Z " fill="#ECF4FA" transform="translate(30,93)"/>
<path d="M0 0 C3.35435922 1.38801071 5.11290303 2.88629 7 6 C7 6.99 7 7.98 7 9 C5.02 9.33 3.04 9.66 1 10 C1.66 12.31 2.32 14.62 3 17 C6.37088267 14.72584713 6.37088267 14.72584713 8 11 C11.33523252 12.38009621 13.18607951 13.84950652 15 17 C14.67 17.99 14.34 18.98 14 20 C13.319375 20.061875 12.63875 20.12375 11.9375 20.1875 C8.47398829 21.1454926 6.35070196 22.74989403 3.55078125 24.94140625 C2 26 2 26 0 26 C0 27.32 0 28.64 0 30 C-1.75 29.9375 -1.75 29.9375 -4 29 C-5.59501537 26.75835678 -6.74543018 24.46433357 -8 22 C-5.69 21.34 -3.38 20.68 -1 20 C-0.7018576 16.2236068 -0.7018576 16.2236068 -2 14 C-3.91466367 14.12177688 -3.91466367 14.12177688 -6 15 C-7.77148372 17.47933197 -7.77148372 17.47933197 -9 20 C-12.53586014 16.82679218 -14.58578031 14.83256305 -15 10 C-14.26136719 10.061875 -13.52273437 10.12375 -12.76171875 10.1875 C-9.45319737 9.9628762 -8.32528713 9.09965965 -5.8125 7 C-2.18055556 4 -2.18055556 4 0 4 C0 2.68 0 1.36 0 0 Z " fill="#EFF6FA" transform="translate(268,68)"/>
<path d="M0 0 C2.53890658 1.0690133 3.68147863 1.85034394 5.375 4 C5.66796875 6.26171875 5.66796875 6.26171875 5.5625 8.6875 C5.53542969 9.49574219 5.50835937 10.30398437 5.48046875 11.13671875 C5.44566406 11.75160156 5.41085938 12.36648437 5.375 13 C8.015 12.67 10.655 12.34 13.375 12 C13.045 15.3 12.715 18.6 12.375 22 C11.385 22 10.395 22 9.375 22 C9.375 21.01 9.375 20.02 9.375 19 C4.425 18.67 -0.525 18.34 -5.625 18 C-5.625 18.66 -5.625 19.32 -5.625 20 C-6.615 20 -7.605 20 -8.625 20 C-8.59179995 17.60054192 -8.52448338 15.21011893 -8.4375 12.8125 C-8.43169922 12.13896484 -8.42589844 11.46542969 -8.41992188 10.77148438 C-8.24821513 6.86038622 -7.70589326 5.10128207 -5.23828125 2.01171875 C-2.625 0 -2.625 0 0 0 Z " fill="#E5F0F7" transform="translate(23.625,133)"/>
<path d="M0 0 C4.00306857 0.5705308 6.2517639 2.57061849 9.25 5.1875 C10.14203125 5.94417969 11.0340625 6.70085938 11.953125 7.48046875 C14 10 14 10 14.36328125 13.1796875 C14 16 14 16 12.9375 17.9375 C9.81105371 19.65200281 7.38689381 18.75913137 4 18 C1.0625 16.9375 1.0625 16.9375 -1 16 C-1.66 17.98 -2.32 19.96 -3 22 C-5.95012857 20.63029745 -8.5652222 19.17390875 -11 17 C-11 16.01 -11 15.02 -11 14 C-10.278125 13.79375 -9.55625 13.5875 -8.8125 13.375 C-5.08255946 11.55147351 -3.35283385 9.39853778 -1 6 C-0.126062 2.77566873 -0.126062 2.77566873 0 0 Z " fill="#EBF3F9" transform="translate(240,42)"/>
<path d="M0 0 C12.66970387 0.96355353 12.66970387 0.96355353 18 2 C18.33 4.31 18.66 6.62 19 9 C16.50638429 7.79618552 14.31856917 6.54571278 12 5 C10.34450469 4.61500109 8.6777567 4.27206865 7 4 C7 5.65 7 7.3 7 9 C8.98 8.34 10.96 7.68 13 7 C12.67 9.97 12.34 12.94 12 16 C11.34 16 10.68 16 10 16 C9.67 15.01 9.34 14.02 9 13 C8.01 12.67 7.02 12.34 6 12 C6.33 14.31 6.66 16.62 7 19 C11.3890815 18.48964169 14.33708062 17.47785723 18 15 C18 19 18 19 16.93359375 21.26171875 C15 23 15 23 11.78515625 23.20703125 C10.55667969 23.07683594 9.32820312 22.94664063 8.0625 22.8125 C6.83660156 22.69519531 5.61070312 22.57789062 4.34765625 22.45703125 C1.81141096 22.11077606 -0.54759965 21.70683218 -3 21 C-3 20.01 -3 19.02 -3 18 C-2.34 17.67 -1.68 17.34 -1 17 C-0.37147066 14.66752185 0.15535246 12.30708533 0.625 9.9375 C0.88539063 8.64714844 1.14578125 7.35679688 1.4140625 6.02734375 C1.60742188 5.02832031 1.80078125 4.02929688 2 3 C1.34 3 0.68 3 0 3 C0 2.01 0 1.02 0 0 Z " fill="#EAF3F9" transform="translate(169,16)"/>
<path d="M0 0 C2.79909782 0.69977446 5.41100718 1.44362977 8.125 2.375 C13.04821732 4.037917 18.01547737 5.53273969 23 7 C23 8.65 23 10.3 23 12 C21.85660156 12.62648437 20.71320313 13.25296875 19.53515625 13.8984375 C18.0441112 14.72366998 16.55323445 15.54920658 15.0625 16.375 C14.30775391 16.7875 13.55300781 17.2 12.77539062 17.625 C12.05673828 18.02460938 11.33808594 18.42421875 10.59765625 18.8359375 C9.93258057 19.20251465 9.26750488 19.5690918 8.58227539 19.94677734 C6.83143994 20.9231556 6.83143994 20.9231556 6 23 C5.01 23 4.02 23 3 23 C1.39274365 19.78548731 1.94251815 16.56387464 2 13 C2.804375 13.185625 3.60875 13.37125 4.4375 13.5625 C5.283125 13.706875 6.12875 13.85125 7 14 C8.35618499 12.87465895 8.35618499 12.87465895 8.0625 9.9375 C8.041875 8.968125 8.02125 7.99875 8 7 C6.68 6.67 5.36 6.34 4 6 C3.67 6.99 3.34 7.98 3 9 C2.34 9 1.68 9 1 9 C0.67 6.03 0.34 3.06 0 0 Z " fill="#ECF4FA" transform="translate(279,132)"/>
<path d="M0 0 C0.66 0 1.32 0 2 0 C2.66 2.97 3.32 5.94 4 9 C7.3 9 10.6 9 14 9 C12.7934375 10.11375 12.7934375 10.11375 11.5625 11.25 C8.68552898 14.22181176 8.68552898 14.22181176 8 18 C8.27050453 20.00946222 8.59367909 22.01354224 9 24 C8.443125 23.71125 7.88625 23.4225 7.3125 23.125 C4.91505355 21.9586747 2.48403061 20.9660119 0 20 C-1.98 21.65 -3.96 23.3 -6 25 C-7.27351308 22.45297384 -6.80191925 21.5717055 -6.0625 18.875 C-5.86785156 18.15054687 -5.67320312 17.42609375 -5.47265625 16.6796875 C-5.31667969 16.12539062 -5.16070312 15.57109375 -5 15 C-5.5053125 14.65066406 -6.010625 14.30132812 -6.53125 13.94140625 C-7.1809375 13.48636719 -7.830625 13.03132812 -8.5 12.5625 C-9.1496875 12.11003906 -9.799375 11.65757812 -10.46875 11.19140625 C-11.22671875 10.60166016 -11.22671875 10.60166016 -12 10 C-12 9.67 -12 9.34 -12 9 C-8.7 9 -5.4 9 -2 9 C-1.34 6.03 -0.68 3.06 0 0 Z " fill="#EDF4FA" transform="translate(252,238)"/>
<path d="M0 0 C2.76223278 2.76223278 2.57856291 5.20706617 3 9 C6.3 9 9.6 9 13 9 C11.7934375 10.11375 11.7934375 10.11375 10.5625 11.25 C7.68552898 14.22181176 7.68552898 14.22181176 7 18 C7.27050453 20.00946222 7.59367909 22.01354224 8 24 C7.443125 23.71125 6.88625 23.4225 6.3125 23.125 C3.91505355 21.9586747 1.48403061 20.9660119 -1 20 C-2.98 21.65 -4.96 23.3 -7 25 C-8.27351308 22.45297384 -7.80191925 21.5717055 -7.0625 18.875 C-6.86785156 18.15054687 -6.67320313 17.42609375 -6.47265625 16.6796875 C-6.31667969 16.12539062 -6.16070312 15.57109375 -6 15 C-6.5053125 14.65066406 -7.010625 14.30132812 -7.53125 13.94140625 C-8.1809375 13.48636719 -8.830625 13.03132812 -9.5 12.5625 C-10.1496875 12.11003906 -10.799375 11.65757812 -11.46875 11.19140625 C-12.22671875 10.60166016 -12.22671875 10.60166016 -13 10 C-13 9.67 -13 9.34 -13 9 C-9.7 9 -6.4 9 -3 9 C-2.01 6.03 -1.02 3.06 0 0 Z " fill="#EDF4FA" transform="translate(66,238)"/>
<path d="M0 0 C2 1 2 1 2.6328125 2.84765625 C3.08854167 4.8984375 3.54427083 6.94921875 4 9 C6.97 9 9.94 9 13 9 C12.195625 9.78375 11.39125 10.5675 10.5625 11.375 C8.01309583 13.71982856 8.01309583 13.71982856 7 16 C7.3191623 18.22624593 7.3191623 18.22624593 7.9375 20.625 C8.22947266 21.85089844 8.22947266 21.85089844 8.52734375 23.1015625 C8.68332031 23.72804687 8.83929688 24.35453125 9 25 C8.55269531 24.61585938 8.10539062 24.23171875 7.64453125 23.8359375 C5.81142438 22.37414226 4.07555593 21.09399094 2 20 C-0.74303573 20.41387499 -0.74303573 20.41387499 -3 22 C-4.98 22.99 -4.98 22.99 -7 24 C-6.34 20.7 -5.68 17.4 -5 14 C-6.32 13.34 -7.64 12.68 -9 12 C-9.99 11.01 -10.98 10.02 -12 9 C-8.7 9 -5.4 9 -2 9 C-1.855625 7.88625 -1.71125 6.7725 -1.5625 5.625 C-1 2 -1 2 0 0 Z " fill="#EFF5FA" transform="translate(286,185)"/>
<path d="M0 0 C2.76223278 2.76223278 2.57856291 5.20706617 3 9 C6.3 9 9.6 9 13 9 C11.37660195 10.70884005 9.70680947 12.37446717 8 14 C7.34 14 6.68 14 6 14 C6.66 17.3 7.32 20.6 8 24 C6.9275 23.29875 5.855 22.5975 4.75 21.875 C1.9743498 20.16790853 1.9743498 20.16790853 -1.125 20.5625 C-1.74375 21.036875 -2.3625 21.51125 -3 22 C-3.9075 22.53625 -4.815 23.0725 -5.75 23.625 C-6.86375 24.305625 -6.86375 24.305625 -8 25 C-7.34 21.7 -6.68 18.4 -6 15 C-6.99 14.195625 -7.98 13.39125 -9 12.5625 C-9.99 11.716875 -10.98 10.87125 -12 10 C-12 9.67 -12 9.34 -12 9 C-9.03 9 -6.06 9 -3 9 C-2.01 6.03 -1.02 3.06 0 0 Z " fill="#F1F7FB" transform="translate(29,185)"/>
<path d="M0 0 C0.66 0 1.32 0 2 0 C2.66 2.97 3.32 5.94 4 9 C6.97 9 9.94 9 13 9 C12.195625 9.78375 11.39125 10.5675 10.5625 11.375 C8.01309583 13.71982856 8.01309583 13.71982856 7 16 C7.31763653 17.99896911 7.31763653 17.99896911 7.9375 20.125 C8.22947266 21.21167969 8.22947266 21.21167969 8.52734375 22.3203125 C8.68332031 22.87460937 8.83929688 23.42890625 9 24 C8.443125 23.71125 7.88625 23.4225 7.3125 23.125 C4.91505355 21.9586747 2.48403061 20.9660119 0 20 C-0.78375 20.66 -1.5675 21.32 -2.375 22 C-5 24 -5 24 -7 24 C-6.86980469 23.33613281 -6.73960938 22.67226563 -6.60546875 21.98828125 C-6.17870292 19.25618223 -5.88177491 16.76562259 -6 14 C-8.22990529 10.84777425 -8.22990529 10.84777425 -11 9 C-8.03 9 -5.06 9 -2 9 C-1.855625 8.071875 -1.71125 7.14375 -1.5625 6.1875 C-1 3 -1 3 0 0 Z " fill="#EFF5FA" transform="translate(123,273)"/>
<path d="M0 0 C0.66 0 1.32 0 2 0 C2.66 2.97 3.32 5.94 4 9 C6.97 9 9.94 9 13 9 C12.175 9.70125 11.35 10.4025 10.5 11.125 C7.73975129 13.75775797 7.73975129 13.75775797 7.625 17.0625 C7.93142807 19.46285319 8.2893361 21.69034231 9 24 C8.443125 23.71125 7.88625 23.4225 7.3125 23.125 C4.91505355 21.9586747 2.48403061 20.9660119 0 20 C-0.78375 20.66 -1.5675 21.32 -2.375 22 C-5 24 -5 24 -7 24 C-6.86980469 23.33613281 -6.73960937 22.67226563 -6.60546875 21.98828125 C-6.17870292 19.25618223 -5.88177491 16.76562259 -6 14 C-8.22990529 10.84777425 -8.22990529 10.84777425 -11 9 C-8.03 9 -5.06 9 -2 9 C-1.34 6.03 -0.68 3.06 0 0 Z " fill="#EFF6FA" transform="translate(193,273)"/>
<path d="M0 0 C4.9746388 0.21934034 7.38132406 2.96512072 10.5625 6.4375 C14.70947799 10.97636822 14.70947799 10.97636822 20 14 C19 16 19 16 16.93359375 16.8515625 C16.10988281 17.10679688 15.28617188 17.36203125 14.4375 17.625 C13.19806641 18.01558594 13.19806641 18.01558594 11.93359375 18.4140625 C11.29550781 18.60742188 10.65742187 18.80078125 10 19 C10 17.35 10 15.7 10 14 C6.71023192 12.90341064 5.28696233 13.20046862 2 14 C2.26676204 15.98491642 2.26676204 15.98491642 3 18 C3.99 18.33 4.98 18.66 6 19 C5 22 5 22 3.125 23.1875 C1 24 1 24 -2 24 C-1.86184471 20.18718055 -1.71319438 16.37484283 -1.5625 12.5625 C-1.52318359 11.47388672 -1.48386719 10.38527344 -1.44335938 9.26367188 C-1.40146484 8.22919922 -1.35957031 7.19472656 -1.31640625 6.12890625 C-1.27974854 5.17056885 -1.24309082 4.21223145 -1.20532227 3.22485352 C-1 1 -1 1 0 0 Z " fill="#F3F8FB" transform="translate(99,28)"/>
<path d="M0 0 C0 1.65 0 3.3 0 5 C-8.28278967 7.89574092 -16.67794217 9.92240475 -25.25 11.75 C-26.26707031 11.97260498 -27.28414062 12.19520996 -28.33203125 12.42456055 C-34.35217668 13.67499656 -39.85269861 14.22956727 -46 14 C-45.67 12.35 -45.34 10.7 -45 9 C-43.78437378 8.80422363 -43.78437378 8.80422363 -42.54418945 8.60449219 C-39.46953724 8.10477642 -36.39639324 7.59675222 -33.32397461 7.08349609 C-31.36739133 6.75910081 -29.40929553 6.44386999 -27.45117188 6.12890625 C-19.94212314 4.86784463 -12.82112481 3.19922337 -5.59838867 0.77832031 C-3 0 -3 0 0 0 Z " fill="#1776BC" transform="translate(174,95)"/>
<path d="M0 0 C0.66 0.33 1.32 0.66 2 1 C2.2475 1.86625 2.495 2.7325 2.75 3.625 C4.34596553 7.93410693 6.88581296 10.68995214 10 14 C10.99 13.67 11.98 13.34 13 13 C13.80563638 10.89415562 13.80563638 10.89415562 14.1875 8.4375 C14.34605469 7.61121094 14.50460938 6.78492188 14.66796875 5.93359375 C14.83232422 4.97646484 14.83232422 4.97646484 15 4 C15.99 4 16.98 4 18 4 C19.26207746 7.18597604 19.72661503 9.62395876 19 13 C15.39101985 16.91198298 11.34291301 19.9452932 7 23 C6.34 22.67 5.68 22.34 5 22 C4.86207031 21.24203125 4.72414063 20.4840625 4.58203125 19.703125 C3.90141989 16.54216487 2.82305195 15.14620818 0.6875 12.75 C0.09324219 12.06421875 -0.50101562 11.3784375 -1.11328125 10.671875 C-3.11793968 8.89549031 -4.38378142 8.39272155 -7 8 C-5.50902342 4.2047869 -3.24299151 2.38957269 0 0 Z " fill="#EEF5FA" transform="translate(66,49)"/>
<path d="M0 0 C1.4835001 0.42257276 2.96176424 0.86356322 4.4375 1.3125 C5.67306641 1.67794922 5.67306641 1.67794922 6.93359375 2.05078125 C7.95646484 2.52064453 7.95646484 2.52064453 9 3 C9.33 3.99 9.66 4.98 10 6 C9.01 6.33 8.02 6.66 7 7 C5.5286781 9.47922655 5.5286781 9.47922655 4.3125 12.4375 C3.87550781 13.42621094 3.43851563 14.41492188 2.98828125 15.43359375 C1.88021341 17.85271361 1.88021341 17.85271361 2 20 C7.57830016 20.12469099 7.57830016 20.12469099 13 19 C12.60000283 21.31998359 12.09432121 22.86323424 10.75 24.8125 C9 26 9 26 6.75390625 25.734375 C3.70929071 24.92247752 1.03821218 23.77699127 -1.8125 22.4375 C-2.78832031 21.98246094 -3.76414063 21.52742188 -4.76953125 21.05859375 C-5.50558594 20.70925781 -6.24164063 20.35992187 -7 20 C-7 19.01 -7 18.02 -7 17 C-6.01 17 -5.02 17 -4 17 C-3.71125 16.113125 -3.4225 15.22625 -3.125 14.3125 C-2 11 -2 11 -0.875 8.5 C0.15669981 5.55228626 0.14422195 3.10077192 0 0 Z " fill="#EDF4FA" transform="translate(207,24)"/>
<path d="M0 0 C0.33 0.99 0.66 1.98 1 3 C1.99 3.33 2.98 3.66 4 4 C5.65497356 7.30994713 5.10084335 10.99123 5.0625 14.625 C5.05798828 15.42679688 5.05347656 16.22859375 5.04882812 17.0546875 C5.03703168 19.03649006 5.01909605 21.01825433 5 23 C4.01 23.33 3.02 23.66 2 24 C1.67 25.32 1.34 26.64 1 28 C0.67 24.7 0.34 21.4 0 18 C-1.32 18.99 -2.64 19.98 -4 21 C-7.5625 21.4375 -7.5625 21.4375 -11 21 C-13 19.1875 -13 19.1875 -14 17 C-13.505 15.515 -13.505 15.515 -13 14 C-10.63671875 13.05078125 -10.63671875 13.05078125 -7.6875 12.3125 C-6.23923828 11.93544922 -6.23923828 11.93544922 -4.76171875 11.55078125 C-2 11 -2 11 2 11 C1.67 9.9275 1.34 8.855 1 7.75 C0 4 0 4 0 0 Z " fill="#F2F8FB" transform="translate(201,179)"/>
<path d="M0 0 C0.99 0 1.98 0 3 0 C3.99 2.97 4.98 5.94 6 9 C5.01 9.33 4.02 9.66 3 10 C3 9.34 3 8.68 3 8 C2.08476562 8.3609375 1.16953125 8.721875 0.2265625 9.09375 C-1.55621094 9.78984375 -1.55621094 9.78984375 -3.375 10.5 C-4.55835938 10.9640625 -5.74171875 11.428125 -6.9609375 11.90625 C-10 13 -10 13 -12 13 C-12 13.99 -12 14.98 -12 16 C-12.66 16 -13.32 16 -14 16 C-17 9.375 -17 9.375 -17 6 C-16.030625 6.0825 -15.06125 6.165 -14.0625 6.25 C-9.2610328 6.2696379 -5.095444 4.40805076 -1 2 C-0.67 1.34 -0.34 0.68 0 0 Z " fill="#EEF5FA" transform="translate(289,104)"/>
<path d="M0 0 C0.391875 0.721875 0.78375 1.44375 1.1875 2.1875 C4.05299881 6.63396368 7.83342944 9.4007358 12.9375 10.8125 C13.618125 10.874375 14.29875 10.93625 15 11 C14.42676569 14.86933162 12.61046448 17.15222057 10 20 C9.34 20 8.68 20 8 20 C7.835 19.29875 7.67 18.5975 7.5 17.875 C5.30913323 13.6758387 2.01801665 11.41234652 -2 9 C-4.80080534 8.06397324 -4.80080534 8.06397324 -7 8 C-4.18918919 0 -4.18918919 0 0 0 Z " fill="#F0F6FA" transform="translate(48,70)"/>
<path d="M0 0 C9.48283251 -0.89680027 9.48283251 -0.89680027 12.84375 1.08984375 C15.26643229 3.74493451 16.00893296 6.05657544 16.5625 9.5625 C15.89775749 13.62481534 15.01709676 15.22109509 12 18 C8.75 19.3125 8.75 19.3125 6 20 C5.67 19.01 5.34 18.02 5 17 C5.66 16.46375 6.32 15.9275 7 15.375 C9.25079735 13.12557158 9.25079735 13.12557158 9.4375 10 C8.94493468 6.62240925 8.48550875 5.31980817 6 3 C2.91222828 1.71991738 2.91222828 1.71991738 0 1 C0 0.67 0 0.34 0 0 Z " fill="#EBF4F9" transform="translate(136,18)"/>
<path d="M0 0 C6 0 6 0 8.375 2.125 C10.30285153 5.53581425 10.72222637 7.14812602 10 11 C7.75 13.9375 7.75 13.9375 5 16 C3.68 15.67 2.36 15.34 1 15 C0.67 10.05 0.34 5.1 0 0 Z " fill="#0C70B9" transform="translate(136,20)"/>
<path d="M0 0 C1.109375 1.54296875 1.109375 1.54296875 2 4 C1.54446951 6.56089898 1.00367895 8.84346734 0.25 11.3125 C0.06695312 11.95123047 -0.11609375 12.58996094 -0.3046875 13.24804688 C-0.85741488 15.16896914 -1.42868344 17.08452426 -2 19 C-2.67183316 21.33188601 -3.33571605 23.66594774 -4 26 C-5.65 26.33 -7.3 26.66 -9 27 C-8.38166356 21.0021365 -7.22377394 15.37233031 -5.625 9.5625 C-5.41617188 8.74845703 -5.20734375 7.93441406 -4.9921875 7.09570312 C-4.42813084 5.03380087 -3.72414201 3.01127303 -3 1 C-2.01 0.67 -1.02 0.34 0 0 Z " fill="#1273BB" transform="translate(213,147)"/>
<path d="M0 0 C0.8984375 2.07421875 0.8984375 2.07421875 1 5 C-0.79178045 7.60956341 -3.06055712 9.66781481 -5.375 11.8125 C-6.29925781 12.7087207 -6.29925781 12.7087207 -7.2421875 13.62304688 C-11.80422321 18 -11.80422321 18 -13 18 C-13.48403495 13.49172101 -13.44807464 11.59268736 -10.6640625 7.91015625 C-9.66869705 6.94243984 -8.65495256 5.99331962 -7.625 5.0625 C-6.86316406 4.32290039 -6.86316406 4.32290039 -6.0859375 3.56835938 C-2.32456007 0 -2.32456007 0 0 0 Z " fill="#1776BC" transform="translate(118,189)"/>
<path d="M0 0 C-0.33 0.99 -0.66 1.98 -1 3 C-0.34 3.33 0.32 3.66 1 4 C-5.14778871 5.6277833 -10.64012196 6.20190089 -17 6 C-16.67 4.35 -16.34 2.7 -16 1 C-14.0852312 0.63571223 -12.16807707 0.28394694 -10.25 -0.0625 C-9.18265625 -0.25972656 -8.1153125 -0.45695312 -7.015625 -0.66015625 C-4.25228095 -0.97156937 -2.59053383 -0.8991416 0 0 Z " fill="#217DC0" transform="translate(145,103)"/>
<path d="M0 0 C0.99 5.28 1.98 10.56 3 16 C1 17 1 17 -1.06640625 16.43359375 C-3 15 -3 15 -3.71484375 12.28515625 C-3.78832031 11.22167969 -3.86179688 10.15820312 -3.9375 9.0625 C-4.02902344 8.00160156 -4.12054688 6.94070312 -4.21484375 5.84765625 C-4 3 -4 3 -2.56640625 1.12109375 C-1 0 -1 0 0 0 Z " fill="#1C79BE" transform="translate(245,157)"/>
<path d="M0 0 C-0.42683239 1.58624235 -0.86696158 3.1689098 -1.3125 4.75 C-1.55613281 5.63171875 -1.79976562 6.5134375 -2.05078125 7.421875 C-3.02125331 10.05772505 -4.21005644 11.85407326 -6 14 C-7.32 13.67 -8.64 13.34 -10 13 C-8.69045524 8.76916309 -7.16145284 4.872603 -5 1 C-3 0 -3 0 0 0 Z " fill="#1274BB" transform="translate(198,209)"/>
<path d="M0 0 C1.98 0.66 3.96 1.32 6 2 C6 2.99 6 3.98 6 5 C6.99 5.33 7.98 5.66 9 6 C8.34 7.32 7.68 8.64 7 10 C7 9.34 7 8.68 7 8 C6.0925 8.20625 5.185 8.4125 4.25 8.625 C0.88972103 9.0127245 -0.24075815 8.80411967 -3 7 C-1.125 1.125 -1.125 1.125 0 0 Z " fill="#1575BC" transform="translate(38,105)"/>
<path d="M0 0 C2.125 1.875 2.125 1.875 4 5 C3.75739133 8.45453653 2.9546751 11.67798868 2 15 C0.35 15.33 -1.3 15.66 -3 16 C-2.40984815 10.49191603 -1.43336231 5.35121931 0 0 Z " fill="#217BBF" transform="translate(207,158)"/>
<path d="M0 0 C7.42857143 -0.28571429 7.42857143 -0.28571429 11 2 C10.67 2.66 10.34 3.32 10 4 C3.91968089 5.15387874 -1.85035667 4.97342087 -8 4.5625 C-8.87011719 4.51029297 -9.74023438 4.45808594 -10.63671875 4.40429688 C-12.75821809 4.27607439 -14.87917725 4.1389652 -17 4 C-17 3.67 -17 3.34 -17 3 C-15.85660156 2.95101562 -14.71320313 2.90203125 -13.53515625 2.8515625 C-12.04424527 2.77654811 -10.55336108 2.70099972 -9.0625 2.625 C-8.30775391 2.5940625 -7.55300781 2.563125 -6.77539062 2.53125 C-4.84492605 2.4273685 -2.92057919 2.22104386 -1 2 C-0.67 1.34 -0.34 0.68 0 0 Z " fill="#3085C4" transform="translate(138,64)"/>
<path d="M0 0 C0.66 0.33 1.32 0.66 2 1 C-1.35839644 7.71679288 -6.8476195 13.57018432 -14 16 C-12.6691514 12.40670877 -10.48415435 10.63656344 -7.5234375 8.296875 C-5.35223677 6.44857079 -3.7151509 4.26644941 -2 2 C-1.34 1.34 -0.68 0.68 0 0 Z " fill="#C4C4C4" transform="translate(51,38)"/>
<path d="M0 0 C1.32 0.66 2.64 1.32 4 2 C4 3.98 4 5.96 4 8 C2.02 8.66 0.04 9.32 -2 10 C-2.25 3.375 -2.25 3.375 0 0 Z " fill="#DBEAF5" transform="translate(188,179)"/>
<path d="M0 0 C-0.875 4.75 -0.875 4.75 -2 7 C-3.65 6.67 -5.3 6.34 -7 6 C-7 5.01 -7 4.02 -7 3 C-7.99 2.67 -8.98 2.34 -10 2 C-6.27511755 -0.66063032 -4.42132508 -1.38955931 0 0 Z " fill="#1274BB" transform="translate(35,103)"/>
<path d="M0 0 C2.0625 0.6875 2.0625 0.6875 4 2 C4.9375 3.9375 4.9375 3.9375 5 6 C3.6875 7.75 3.6875 7.75 2 9 C1.34 9 0.68 9 0 9 C-1.6875 6.6875 -1.6875 6.6875 -3 4 C-2.67 3.01 -2.34 2.02 -2 1 C-1.34 0.67 -0.68 0.34 0 0 Z " fill="#1374BB" transform="translate(271,76)"/>
<path d="M0 0 C5.61 0 11.22 0 17 0 C17 0.99 17 1.98 17 3 C11.39 3 5.78 3 0 3 C0 2.01 0 1.02 0 0 Z " fill="#0165B4" transform="translate(121,64)"/>
<path d="M0 0 C1.05574219 0.50080078 1.05574219 0.50080078 2.1328125 1.01171875 C3.875 2.3125 3.875 2.3125 4.6171875 4.45703125 C4.70226562 5.06933594 4.78734375 5.68164062 4.875 6.3125 C3.225 6.6425 1.575 6.9725 -0.125 7.3125 C-0.74375 5.889375 -0.74375 5.889375 -1.375 4.4375 C-3.1290131 1.30533376 -3.83351757 0.44749394 -7.125 -0.6875 C-3.63957146 -1.84930951 -3.15269331 -1.5647131 0 0 Z " fill="#D7E8F4" transform="translate(235.125,196.6875)"/>
<path d="M0 0 C3 1 3 1 4 3 C4.99 3.33 5.98 3.66 7 4 C6 7 6 7 4.125 8.1875 C2 9 2 9 -1 9 C-0.67 6.03 -0.34 3.06 0 0 Z " fill="#F1F7FB" transform="translate(98,43)"/>
<path d="M0 0 C0.33 0.99 0.66 1.98 1 3 C1.99 3.33 2.98 3.66 4 4 C5.65497356 7.30994713 5.10084335 10.99123 5.0625 14.625 C5.05798828 15.42679688 5.05347656 16.22859375 5.04882812 17.0546875 C5.03703168 19.03649006 5.01909605 21.01825433 5 23 C4.67 23 4.34 23 4 23 C3.67 19.04 3.34 15.08 3 11 C2.67 11 2.34 11 2 11 C0.80712589 7.12315913 0 4.08378077 0 0 Z " fill="#BFDAED" transform="translate(201,179)"/>
<path d="M0 0 C1.32 0.33 2.64 0.66 4 1 C4 1.99 4 2.98 4 4 C4.66 4 5.32 4 6 4 C6.33 4.99 6.66 5.98 7 7 C5.0085944 7.38133299 3.00720923 7.71325582 1 8 C0 7 0 7 -0.0625 3.4375 C-0.041875 2.303125 -0.02125 1.16875 0 0 Z " fill="#1F7BBF" transform="translate(175,28)"/>
<path d="M0 0 C3.3 0 6.6 0 10 0 C8.02 0.99 8.02 0.99 6 2 C6.33 2.66 6.66 3.32 7 4 C4.36 4.33 1.72 4.66 -1 5 C-0.67 3.35 -0.34 1.7 0 0 Z " fill="#1975BC" transform="translate(129,104)"/>
<path d="M0 0 C1.67542976 0.28604898 3.34385343 0.61781233 5 1 C5 2.65 5 4.3 5 6 C3.02 6 1.04 6 -1 6 C-1.042721 4.33388095 -1.04063832 2.66617115 -1 1 C-0.67 0.67 -0.34 0.34 0 0 Z " fill="#1071BA" transform="translate(20,139)"/>
<path d="M0 0 C2.125 0.375 2.125 0.375 4 1 C3.67 2.65 3.34 4.3 3 6 C1.35 6 -0.3 6 -2 6 C-2 2 -2 2 0 0 Z " fill="#096DB8" transform="translate(245,50)"/>
<path d="M0 0 C2.3125 1.5 2.3125 1.5 4 3 C0.52674819 4.1577506 -2.36067448 4.06866652 -6 4 C-6 3.34 -6 2.68 -6 2 C-6.66 1.67 -7.32 1.34 -8 1 C-4.97827058 -0.00724314 -3.14484365 -0.30681401 0 0 Z " fill="#056AB6" transform="translate(150,102)"/>
<path d="M0 0 C2.3431213 0.25561323 4.67843403 0.59270772 7 1 C7.33 1.66 7.66 2.32 8 3 C7.34 3.66 6.68 4.32 6 5 C6 4.34 6 3.68 6 3 C5.01 3.66 4.02 4.32 3 5 C2.01 5 1.02 5 0 5 C0 3.35 0 1.7 0 0 Z " fill="#1775BC" transform="translate(176,20)"/>
<path d="M0 0 C0.99 0.33 1.98 0.66 3 1 C2.43545368 2.48643845 1.84765111 3.96406016 1.25 5.4375 C0.92515625 6.26121094 0.6003125 7.08492187 0.265625 7.93359375 C-1 10 -1 10 -3.140625 10.78515625 C-3.75421875 10.85605469 -4.3678125 10.92695313 -5 11 C-3.55049545 7.2089881 -1.84827434 3.6125362 0 0 Z " fill="#F1E9F0" transform="translate(123,147)"/>
<path d="M0 0 C0.33 0.66 0.66 1.32 1 2 C1.99 2 2.98 2 4 2 C4 2.66 4 3.32 4 4 C3.34 4 2.68 4 2 4 C2.33 4.99 2.66 5.98 3 7 C1.35 7 -0.3 7 -2 7 C-2.33 5.35 -2.66 3.7 -3 2 C-2.01 2 -1.02 2 0 2 C0 1.34 0 0.68 0 0 Z " fill="#2E83C2" transform="translate(121,120)"/>
<path d="M0 0 C0 0.66 0 1.32 0 2 C-0.66 2 -1.32 2 -2 2 C-1.67 2.99 -1.34 3.98 -1 5 C-2.65 5 -4.3 5 -6 5 C-6.33 3.35 -6.66 1.7 -7 0 C-3.86650268 -1.04449911 -3.01031744 -0.93423645 0 0 Z " fill="#408EC8" transform="translate(93,92)"/>
<path d="M0 0 C0.33 0.66 0.66 1.32 1 2 C-0.25945355 3.67528263 -1.53293682 5.34002614 -2.8125 7 C-3.87404297 8.3921875 -3.87404297 8.3921875 -4.95703125 9.8125 C-5.63121094 10.534375 -6.30539063 11.25625 -7 12 C-7.99 12 -8.98 12 -10 12 C-9.34 11.01 -8.68 10.02 -8 9 C-7.34 9 -6.68 9 -6 9 C-5.7525 8.443125 -5.505 7.88625 -5.25 7.3125 C-3.78393985 4.60028873 -1.97010529 2.36412635 0 0 Z " fill="#F9B7C7" transform="translate(122,142)"/>
<path d="M0 0 C-0.33 1.65 -0.66 3.3 -1 5 C-2.65 5 -4.3 5 -6 5 C-5.67 4.01 -5.34 3.02 -5 2 C-5.66 2 -6.32 2 -7 2 C-7 1.34 -7 0.68 -7 0 C-3.86650268 -1.04449911 -3.01031744 -0.93423645 0 0 Z " fill="#3A8BC6" transform="translate(126,111)"/>
<path d="M0 0 C1.32 0.66 2.64 1.32 4 2 C3.67 3.65 3.34 5.3 3 7 C1.125 6.75 1.125 6.75 -1 6 C-2.25 3.9375 -2.25 3.9375 -3 2 C-2.01 2 -1.02 2 0 2 C0 1.34 0 0.68 0 0 Z " fill="#3487C5" transform="translate(105,134)"/>
<path d="M0 0 C0.33 0.66 0.66 1.32 1 2 C1.99 2.33 2.98 2.66 4 3 C2 6 2 6 -0.125 6.6875 C-0.74375 6.790625 -1.3625 6.89375 -2 7 C-2.33 5.35 -2.66 3.7 -3 2 C-2.01 1.34 -1.02 0.68 0 0 Z " fill="#3487C5" transform="translate(115,129)"/>
<path d="M0 0 C0.66 0 1.32 0 2 0 C2 0.66 2 1.32 2 2 C2.66 2.33 3.32 2.66 4 3 C3.34 4.32 2.68 5.64 2 7 C-1 6 -1 6 -2.1875 3.9375 C-2.5896875 2.9784375 -2.5896875 2.9784375 -3 2 C-2.01 2 -1.02 2 0 2 C0 1.34 0 0.68 0 0 Z " fill="#3689C6" transform="translate(84,128)"/>
<path d="M0 0 C0.66 0 1.32 0 2 0 C2 0.66 2 1.32 2 2 C2.66 2.33 3.32 2.66 4 3 C3.34 4.32 2.68 5.64 2 7 C-1 6 -1 6 -2.1875 3.9375 C-2.5896875 2.9784375 -2.5896875 2.9784375 -3 2 C-2.01 2 -1.02 2 0 2 C0 1.34 0 0.68 0 0 Z " fill="#3488C5" transform="translate(77,108)"/>
<path d="M0 0 C0.66 0 1.32 0 2 0 C2.2475 0.61875 2.495 1.2375 2.75 1.875 C4.20628639 4.35068687 5.37812506 4.95125002 8 6 C5 7 5 7 1.8125 5.5625 C0.884375 5.046875 -0.04375 4.53125 -1 4 C-0.67 2.68 -0.34 1.36 0 0 Z " fill="#CCE1F0" transform="translate(236,180)"/>
<path d="M0 0 C1.32 0.99 2.64 1.98 4 3 C3.34 4.32 2.68 5.64 2 7 C-1 6 -1 6 -2.1875 3.9375 C-2.5896875 2.9784375 -2.5896875 2.9784375 -3 2 C-2.01 2 -1.02 2 0 2 C0 1.34 0 0.68 0 0 Z " fill="#2F85C3" transform="translate(78,119)"/>
<path d="M0 0 C0.33 0.66 0.66 1.32 1 2 C1.99 2.33 2.98 2.66 4 3 C3.34 4.32 2.68 5.64 2 7 C0.68 7 -0.64 7 -2 7 C-2.33 5.35 -2.66 3.7 -3 2 C-2.01 2 -1.02 2 0 2 C0 1.34 0 0.68 0 0 Z " fill="#2B82C2" transform="translate(81,98)"/>
<path d="M0 0 C1.32 0.99 2.64 1.98 4 3 C3.34 4.32 2.68 5.64 2 7 C-1 6 -1 6 -2.1875 3.9375 C-2.5896875 2.9784375 -2.5896875 2.9784375 -3 2 C-2.01 2 -1.02 2 0 2 C0 1.34 0 0.68 0 0 Z " fill="#2D83C3" transform="translate(119,99)"/>
<path d="M0 0 C1.32 0.99 2.64 1.98 4 3 C3.34 4.32 2.68 5.64 2 7 C-1 6 -1 6 -2.1875 3.9375 C-2.5896875 2.9784375 -2.5896875 2.9784375 -3 2 C-2.01 2 -1.02 2 0 2 C0 1.34 0 0.68 0 0 Z " fill="#2A82C2" transform="translate(100,88)"/>
<path d="M0 0 C0.33 0.66 0.66 1.32 1 2 C1.66 2 2.32 2 3 2 C3 3.32 3 4.64 3 6 C1.35 6 -0.3 6 -2 6 C-2 4.68 -2 3.36 -2 2 C-1.34 2 -0.68 2 0 2 C0 1.34 0 0.68 0 0 Z " fill="#3286C4" transform="translate(111,91)"/>
<path d="M0 0 C0.33 0.66 0.66 1.32 1 2 C1.99 2.33 2.98 2.66 4 3 C3.34 3 2.68 3 2 3 C1.67 3.99 1.34 4.98 1 6 C0.01 6 -0.98 6 -2 6 C-2.33 4.68 -2.66 3.36 -3 2 C-2.01 2 -1.02 2 0 2 C0 1.34 0 0.68 0 0 Z " fill="#207CBF" transform="translate(94,134)"/>
<path d="M0 0 C0.33 0.66 0.66 1.32 1 2 C-2.3 2 -5.6 2 -9 2 C-6.02491912 -0.97508088 -3.86493532 -1.41714295 0 0 Z " fill="#E1EEF6" transform="translate(131,61)"/>
<path d="M0 0 C0.33 1.32 0.66 2.64 1 4 C-0.75 5.125 -0.75 5.125 -3 6 C-5.25 5.125 -5.25 5.125 -7 4 C-6.030625 3.71125 -5.06125 3.4225 -4.0625 3.125 C-0.89335797 2.35785318 -0.89335797 2.35785318 0 0 Z " fill="#DCDAE8" transform="translate(96,137)"/>
<path d="M0 0 C1.32 0 2.64 0 4 0 C3.67 1.32 3.34 2.64 3 4 C1.68 4.33 0.36 4.66 -1 5 C-0.67 3.35 -0.34 1.7 0 0 Z " fill="#066CB7" transform="translate(188,222)"/>
<path d="M0 0 C0.66 0.33 1.32 0.66 2 1 C2.625 3.5625 2.625 3.5625 3 6 C1.35 5.67 -0.3 5.34 -2 5 C-1.125 1.125 -1.125 1.125 0 0 Z " fill="#0F6FB9" transform="translate(245,168)"/>
<path d="M0 0 C2 3 2 3 1.625 5.6875 C1.41875 6.450625 1.2125 7.21375 1 8 C0.01 7.34 -0.98 6.68 -2 6 C-1.34 4.02 -0.68 2.04 0 0 Z " fill="#0D71BA" transform="translate(208,165)"/>
<path d="M0 0 C2.97 0.495 2.97 0.495 6 1 C6 1.66 6 2.32 6 3 C4.02 3.33 2.04 3.66 0 4 C0 2.68 0 1.36 0 0 Z " fill="#438EC8" transform="translate(290,139)"/>
<path d="M0 0 C0.99 0 1.98 0 3 0 C2.34 1.98 1.68 3.96 1 6 C0.01 5.01 -0.98 4.02 -2 3 C-1.34 2.01 -0.68 1.02 0 0 Z " fill="#EE2B5B" transform="translate(120,147)"/>
<path d="M0 0 C2 3 2 3 1.75 5.625 C1.5025 6.40875 1.255 7.1925 1 8 C0.01 8.495 0.01 8.495 -1 9 C-0.67 6.03 -0.34 3.06 0 0 Z " fill="#AFD1E8" transform="translate(57,136)"/>
<path d="M0 0 C0 0.99 0 1.98 0 3 C-2.5 5.1875 -2.5 5.1875 -5 7 C-5 6.01 -5 5.02 -5 4 C-2.5 1.8125 -2.5 1.8125 0 0 Z " fill="#131313" transform="translate(278,262)"/>
<path d="M0 0 C2.31 1.65 4.62 3.3 7 5 C6.34 5.66 5.68 6.32 5 7 C3.29115995 5.37660195 1.62553283 3.70680947 0 2 C0 1.34 0 0.68 0 0 Z " fill="#0E0E0E" transform="translate(37,262)"/>
<path d="M0 0 C1.98 1.65 3.96 3.3 6 5 C5.67 5.66 5.34 6.32 5 7 C3.02 5.35 1.04 3.7 -1 2 C-0.67 1.34 -0.34 0.68 0 0 Z " fill="#0E0E0E" transform="translate(273,47)"/>
<path d="M0 0 C0 3 0 3 -1.5 4.6875 C-1.995 5.120625 -2.49 5.55375 -3 6 C-3.66 5.67 -4.32 5.34 -5 5 C-3.35 3.35 -1.7 1.7 0 0 Z " fill="#1675BC" transform="translate(182,177)"/>
<path d="M0 0 C0.33 0.99 0.66 1.98 1 3 C-0.98 4.32 -2.96 5.64 -5 7 C-3.70700306 4.11562221 -2.34058637 2.12780579 0 0 Z " fill="#0B0B0B" transform="translate(42,47)"/>
<path d="M0 0 C0 0.66 0 1.32 0 2 C-1.98 2.66 -3.96 3.32 -6 4 C-5.67 3.01 -5.34 2.02 -5 1 C-3 0 -3 0 0 0 Z " fill="#277EC0" transform="translate(198,209)"/>
<path d="M0 0 C3 3.75 3 3.75 3 6 C2.01 6.33 1.02 6.66 0 7 C0 4.69 0 2.38 0 0 Z " fill="#C8DFEF" transform="translate(16,138)"/>
<path d="M0 0 C0.33 0.66 0.66 1.32 1 2 C1.99 2 2.98 2 4 2 C3.67 2.66 3.34 3.32 3 4 C1.02 4 -0.96 4 -3 4 C-3 3.34 -3 2.68 -3 2 C-2.01 2 -1.02 2 0 2 C0 1.34 0 0.68 0 0 Z " fill="#62A3D2" transform="translate(121,120)"/>
<path d="M0 0 C1.485 0.99 1.485 0.99 3 2 C3 2.99 3 3.98 3 5 C2.01 5 1.02 5 0 5 C0 3.35 0 1.7 0 0 Z " fill="#1C77BD" transform="translate(101,34)"/>
<path d="M0 0 C0.33 0.99 0.66 1.98 1 3 C1.66 3.33 2.32 3.66 3 4 C2.34 4 1.68 4 1 4 C0.67 5.32 0.34 6.64 0 8 C-0.79953138 4.71303767 -1.09658936 3.28976808 0 0 Z " fill="#9DC6E3" transform="translate(202,199)"/>
<path d="M0 0 C1.65 0.33 3.3 0.66 5 1 C4.67 1.66 4.34 2.32 4 3 C2.35 2.67 0.7 2.34 -1 2 C-0.67 1.34 -0.34 0.68 0 0 Z " fill="#0E71BA" transform="translate(157,101)"/>
<path d="M0 0 C0.66 0.66 1.32 1.32 2 2 C1.01 2.99 0.02 3.98 -1 5 C-1.66 4.67 -2.32 4.34 -3 4 C-2.01 2.68 -1.02 1.36 0 0 Z " fill="#080808" transform="translate(266,273)"/>
<path d="M0 0 C1.32 1.32 2.64 2.64 4 4 C3.01 4 2.02 4 1 4 C0.34 3.01 -0.32 2.02 -1 1 C-0.67 0.67 -0.34 0.34 0 0 Z " fill="#080808" transform="translate(49,273)"/>
<path d="M0 0 C0.33 0.66 0.66 1.32 1 2 C0.0625 4.125 0.0625 4.125 -1 6 C-1.66 5.34 -2.32 4.68 -3 4 C-2.01 2.68 -1.02 1.36 0 0 Z " fill="#161616" transform="translate(304,221)"/>
<path d="M0 0 C1.32 1.32 2.64 2.64 4 4 C3.34 4.66 2.68 5.32 2 6 C1.34 4.02 0.68 2.04 0 0 Z " fill="#161616" transform="translate(11,221)"/>
<path d="M0 0 C0.66 1.32 1.32 2.64 2 4 C1.01 4.33 0.02 4.66 -1 5 C-0.67 3.35 -0.34 1.7 0 0 Z " fill="#D4E6F3" transform="translate(29,185)"/>
<path d="M0 0 C1.98 0.99 1.98 0.99 4 2 C4 2.99 4 3.98 4 5 C2.64567325 3.68799596 1.31266518 2.35368596 0 1 C0 0.67 0 0.34 0 0 Z " fill="#080808" transform="translate(263,38)"/>
<path d="M0 0 C0.66 0.33 1.32 0.66 2 1 C0.68 2.32 -0.64 3.64 -2 5 C-2 2 -2 2 0 0 Z " fill="#080808" transform="translate(51,38)"/>
<path d="M0 0 C0.66 0.33 1.32 0.66 2 1 C0.68 1.99 -0.64 2.98 -2 4 C-2 3.01 -2 2.02 -2 1 C-1.34 0.67 -0.68 0.34 0 0 Z " fill="#FDEBF0" transform="translate(111,154)"/>
<path d="M0 0 C0.99 0 1.98 0 3 0 C3 0.99 3 1.98 3 3 C2.01 2.67 1.02 2.34 0 2 C0 1.34 0 0.68 0 0 Z " fill="#BAD7EC" transform="translate(81,53)"/>
<path d="M0 0 C2.31 0 4.62 0 7 0 C7 0.33 7 0.66 7 1 C4.69 1 2.38 1 0 1 C0 0.67 0 0.34 0 0 Z " fill="#080808" transform="translate(183,315)"/>
<path d="M0 0 C2.31 0 4.62 0 7 0 C7 0.33 7 0.66 7 1 C4.69 1 2.38 1 0 1 C0 0.67 0 0.34 0 0 Z " fill="#080808" transform="translate(126,315)"/>
<path d="M0 0 C0.99 0.33 1.98 0.66 3 1 C1.02 1.33 -0.96 1.66 -3 2 C-2.01 1.34 -1.02 0.68 0 0 Z " fill="#0D0D0D" transform="translate(201,311)"/>
<path d="M0 0 C2.97 0.495 2.97 0.495 6 1 C4.125 1.625 4.125 1.625 2 2 C1.34 1.34 0.68 0.68 0 0 Z " fill="#0D0D0D" transform="translate(112,311)"/>
<path d="M0 0 C1.32 0.33 2.64 0.66 4 1 C3.34 1.66 2.68 2.32 2 3 C1.34 2.01 0.68 1.02 0 0 Z " fill="#191919" transform="translate(40,266)"/>
<path d="M0 0 C0.99 0.99 1.98 1.98 3 3 C1.68 2.67 0.36 2.34 -1 2 C-0.67 1.34 -0.34 0.68 0 0 Z " fill="#191919" transform="translate(273,47)"/>
<path d="M0 0 C0.66 0.66 1.32 1.32 2 2 C1.34 2.66 0.68 3.32 0 4 C0 3.34 0 2.68 0 2 C-0.66 1.67 -1.32 1.34 -2 1 C-1.34 0.67 -0.68 0.34 0 0 Z " fill="#4090C9" transform="translate(182,21)"/>
<path d="M0 0 C2.125 0.375 2.125 0.375 4 1 C2.02 1.33 0.04 1.66 -2 2 C-1.34 1.34 -0.68 0.68 0 0 Z " fill="#0D0D0D" transform="translate(114,3)"/>
<path d="M0 0 C2.97 0.495 2.97 0.495 6 1 C5.01 1.33 4.02 1.66 3 2 C2.01 1.34 1.02 0.68 0 0 Z " fill="#0D0D0D" transform="translate(198,3)"/>
<path d="M0 0 C2.31 0 4.62 0 7 0 C7 0.33 7 0.66 7 1 C4.69 1 2.38 1 0 1 C0 0.67 0 0.34 0 0 Z " fill="#080808" transform="translate(183,0)"/>
<path d="M0 0 C2.31 0 4.62 0 7 0 C7 0.33 7 0.66 7 1 C4.69 1 2.38 1 0 1 C0 0.67 0 0.34 0 0 Z " fill="#080808" transform="translate(126,0)"/>
<path d="M0 0 C0.66 0 1.32 0 2 0 C1.67 0.99 1.34 1.98 1 3 C0.34 2.34 -0.32 1.68 -1 1 C-0.67 0.67 -0.34 0.34 0 0 Z " fill="#FAC1CF" transform="translate(113,152)"/>
<path d="M0 0 C0.66 0.66 1.32 1.32 2 2 C1.01 2 0.02 2 -1 2 C-0.67 1.34 -0.34 0.68 0 0 Z " fill="#363636" transform="translate(268,271)"/>
<path d="M0 0 C0.66 0.66 1.32 1.32 2 2 C1.01 2 0.02 2 -1 2 C-0.67 1.34 -0.34 0.68 0 0 Z " fill="#363636" transform="translate(47,271)"/>
<path d="M0 0 C0.66 0.66 1.32 1.32 2 2 C1.01 2 0.02 2 -1 2 C-0.67 1.34 -0.34 0.68 0 0 Z " fill="#363636" transform="translate(268,42)"/>
<path d="M0 0 C0.66 0.66 1.32 1.32 2 2 C1.01 2 0.02 2 -1 2 C-0.67 1.34 -0.34 0.68 0 0 Z " fill="#363636" transform="translate(47,42)"/>
<path d="M0 0 C4 1 4 1 4 1 Z " fill="#0F0F0F" transform="translate(190,314)"/>
<path d="M0 0 C4 1 4 1 4 1 Z " fill="#0F0F0F" transform="translate(122,314)"/>
<path d="M0 0 C4 1 4 1 4 1 Z " fill="#0A0A0A" transform="translate(194,313)"/>
<path d="M0 0 C4 1 4 1 4 1 Z " fill="#0A0A0A" transform="translate(118,313)"/>
<path d="M0 0 C0.66 0.33 1.32 0.66 2 1 C1.01 1 0.02 1 -1 1 C-0.67 0.67 -0.34 0.34 0 0 Z " fill="#0B0B0B" transform="translate(231,299)"/>
<path d="M0 0 C0.99 0.33 1.98 0.66 3 1 C2.01 1 1.02 1 0 1 C0 0.67 0 0.34 0 0 Z " fill="#0B0B0B" transform="translate(83,299)"/>
<path d="M0 0 C0.99 0.33 1.98 0.66 3 1 C2.01 1 1.02 1 0 1 C0 0.67 0 0.34 0 0 Z " fill="#0B0B0B" transform="translate(230,15)"/>
<path d="M0 0 C0.66 0.33 1.32 0.66 2 1 C1.01 1 0.02 1 -1 1 C-0.67 0.67 -0.34 0.34 0 0 Z " fill="#0B0B0B" transform="translate(84,15)"/>
<path d="M0 0 C4 1 4 1 4 1 Z " fill="#0A0A0A" transform="translate(194,2)"/>
<path d="M0 0 C4 1 4 1 4 1 Z " fill="#0A0A0A" transform="translate(118,2)"/>
<path d="M0 0 C4 1 4 1 4 1 Z " fill="#0F0F0F" transform="translate(190,1)"/>
<path d="M0 0 C4 1 4 1 4 1 Z " fill="#0F0F0F" transform="translate(122,1)"/>
<path d="M0 0 C3 1 3 1 3 1 Z " fill="#0B0B0B" transform="translate(205,310)"/>
<path d="M0 0 C3 1 3 1 3 1 Z " fill="#0B0B0B" transform="translate(108,310)"/>
<path d="M0 0 C3 1 3 1 3 1 Z " fill="#0F0F0F" transform="translate(208,309)"/>
<path d="M0 0 C3 1 3 1 3 1 Z " fill="#0F0F0F" transform="translate(105,309)"/>
<path d="M0 0 C3 1 3 1 3 1 Z " fill="#090909" transform="translate(211,308)"/>
<path d="M0 0 C3 1 3 1 3 1 Z " fill="#090909" transform="translate(102,308)"/>
<path d="M0 0 C3 1 3 1 3 1 Z " fill="#070707" transform="translate(223,303)"/>
<path d="M0 0 C3 1 3 1 3 1 Z " fill="#070707" transform="translate(90,303)"/>
<path d="M0 0 C3 1 3 1 3 1 Z " fill="#070707" transform="translate(227,301)"/>
<path d="M0 0 C3 1 3 1 3 1 Z " fill="#070707" transform="translate(86,301)"/>
<path d="" fill="#090909" transform="translate(0,0)"/>
<path d="" fill="#090909" transform="translate(0,0)"/>
<path d="" fill="#0F0F0F" transform="translate(0,0)"/>
<path d="" fill="#0F0F0F" transform="translate(0,0)"/>
<path d="" fill="#0B0B0B" transform="translate(0,0)"/>
<path d="" fill="#0B0B0B" transform="translate(0,0)"/>
<path d="" fill="#0B0B0B" transform="translate(0,0)"/>
<path d="" fill="#0B0B0B" transform="translate(0,0)"/>
<path d="" fill="#0F0F0F" transform="translate(0,0)"/>
<path d="" fill="#0F0F0F" transform="translate(0,0)"/>
<path d="" fill="#090909" transform="translate(0,0)"/>
<path d="" fill="#090909" transform="translate(0,0)"/>
<path d="M0 0 C3 1 3 1 3 1 Z " fill="#070707" transform="translate(227,14)"/>
<path d="M0 0 C3 1 3 1 3 1 Z " fill="#070707" transform="translate(86,14)"/>
<path d="M0 0 C3 1 3 1 3 1 Z " fill="#070707" transform="translate(223,12)"/>
<path d="M0 0 C3 1 3 1 3 1 Z " fill="#070707" transform="translate(90,12)"/>
<path d="M0 0 C3 1 3 1 3 1 Z " fill="#090909" transform="translate(211,7)"/>
<path d="M0 0 C3 1 3 1 3 1 Z " fill="#090909" transform="translate(102,7)"/>
<path d="M0 0 C3 1 3 1 3 1 Z " fill="#0F0F0F" transform="translate(208,6)"/>
<path d="M0 0 C3 1 3 1 3 1 Z " fill="#0F0F0F" transform="translate(105,6)"/>
<path d="M0 0 C3 1 3 1 3 1 Z " fill="#0B0B0B" transform="translate(205,5)"/>
<path d="M0 0 C3 1 3 1 3 1 Z " fill="#0B0B0B" transform="translate(108,5)"/>
<path d="M0 0 C2 1 2 1 2 1 Z " fill="#141414" transform="translate(214,307)"/>
<path d="M0 0 C2 1 2 1 2 1 Z " fill="#141414" transform="translate(100,307)"/>
<path d="M0 0 C2 1 2 1 2 1 Z " fill="#111111" transform="translate(216,306)"/>
<path d="M0 0 C2 1 2 1 2 1 Z " fill="#111111" transform="translate(98,306)"/>
<path d="M0 0 C2 1 2 1 2 1 Z " fill="#0E0E0E" transform="translate(219,305)"/>
<path d="M0 0 C2 1 2 1 2 1 Z " fill="#0E0E0E" transform="translate(95,305)"/>
<path d="M0 0 C2 1 2 1 2 1 Z " fill="#111111" transform="translate(221,304)"/>
<path d="M0 0 C2 1 2 1 2 1 Z " fill="#111111" transform="translate(93,304)"/>
<path d="M0 0 C2 1 2 1 2 1 Z " fill="#0C0C0C" transform="translate(233,298)"/>
<path d="M0 0 C2 1 2 1 2 1 Z " fill="#0C0C0C" transform="translate(81,298)"/>
<path d="M0 0 C2 1 2 1 2 1 Z " fill="#0E0E0E" transform="translate(235,297)"/>
<path d="M0 0 C2 1 2 1 2 1 Z " fill="#0E0E0E" transform="translate(79,297)"/>
<path d="M0 0 C2 1 2 1 2 1 Z " fill="#080808" transform="translate(237,296)"/>
<path d="M0 0 C2 1 2 1 2 1 Z " fill="#080808" transform="translate(77,296)"/>
<path d="M0 0 C2 1 2 1 2 1 Z " fill="#0C0C0C" transform="translate(240,294)"/>
<path d="M0 0 C2 1 2 1 2 1 Z " fill="#0C0C0C" transform="translate(74,294)"/>
<path d="M0 0 C2 1 2 1 2 1 Z " fill="#0C0C0C" transform="translate(242,293)"/>
<path d="M0 0 C2 1 2 1 2 1 Z " fill="#0C0C0C" transform="translate(72,293)"/>
<path d="M0 0 C2 1 2 1 2 1 Z " fill="#0C0C0C" transform="translate(245,291)"/>
<path d="M0 0 C2 1 2 1 2 1 Z " fill="#0C0C0C" transform="translate(69,291)"/>
<path d="M0 0 C2 1 2 1 2 1 Z " fill="#0C0C0C" transform="translate(252,286)"/>
<path d="M0 0 C2 1 2 1 2 1 Z " fill="#0C0C0C" transform="translate(62,286)"/>
<path d="M0 0 C2 1 2 1 2 1 Z " fill="#0E0E0E" transform="translate(257,282)"/>
<path d="M0 0 C2 1 2 1 2 1 Z " fill="#0E0E0E" transform="translate(57,282)"/>
<path d="" fill="#0E0E0E" transform="translate(0,0)"/>
<path d="" fill="#0E0E0E" transform="translate(0,0)"/>
<path d="" fill="#141414" transform="translate(0,0)"/>
<path d="" fill="#141414" transform="translate(0,0)"/>
<path d="" fill="#141414" transform="translate(0,0)"/>
<path d="" fill="#141414" transform="translate(0,0)"/>
<path d="" fill="#0E0E0E" transform="translate(0,0)"/>
<path d="" fill="#0E0E0E" transform="translate(0,0)"/>
<path d="M0 0 C2 1 2 1 2 1 Z " fill="#0E0E0E" transform="translate(257,33)"/>
<path d="M0 0 C2 1 2 1 2 1 Z " fill="#0E0E0E" transform="translate(57,33)"/>
<path d="M0 0 C2 1 2 1 2 1 Z " fill="#0C0C0C" transform="translate(252,29)"/>
<path d="M0 0 C2 1 2 1 2 1 Z " fill="#0C0C0C" transform="translate(62,29)"/>
<path d="M0 0 C2 1 2 1 2 1 Z " fill="#0C0C0C" transform="translate(245,24)"/>
<path d="M0 0 C2 1 2 1 2 1 Z " fill="#0C0C0C" transform="translate(69,24)"/>
<path d="M0 0 C2 1 2 1 2 1 Z " fill="#0C0C0C" transform="translate(242,22)"/>
<path d="M0 0 C2 1 2 1 2 1 Z " fill="#0C0C0C" transform="translate(72,22)"/>
<path d="M0 0 C2 1 2 1 2 1 Z " fill="#0C0C0C" transform="translate(240,21)"/>
<path d="M0 0 C2 1 2 1 2 1 Z " fill="#0C0C0C" transform="translate(74,21)"/>
<path d="M0 0 C2 1 2 1 2 1 Z " fill="#080808" transform="translate(237,19)"/>
<path d="M0 0 C2 1 2 1 2 1 Z " fill="#080808" transform="translate(77,19)"/>
<path d="M0 0 C2 1 2 1 2 1 Z " fill="#0E0E0E" transform="translate(235,18)"/>
<path d="M0 0 C2 1 2 1 2 1 Z " fill="#0E0E0E" transform="translate(79,18)"/>
<path d="M0 0 C2 1 2 1 2 1 Z " fill="#0C0C0C" transform="translate(233,17)"/>
<path d="M0 0 C2 1 2 1 2 1 Z " fill="#0C0C0C" transform="translate(81,17)"/>
<path d="M0 0 C2 1 2 1 2 1 Z " fill="#111111" transform="translate(221,11)"/>
<path d="M0 0 C2 1 2 1 2 1 Z " fill="#111111" transform="translate(93,11)"/>
<path d="M0 0 C2 1 2 1 2 1 Z " fill="#0E0E0E" transform="translate(219,10)"/>
<path d="M0 0 C2 1 2 1 2 1 Z " fill="#0E0E0E" transform="translate(95,10)"/>
<path d="M0 0 C2 1 2 1 2 1 Z " fill="#111111" transform="translate(216,9)"/>
<path d="M0 0 C2 1 2 1 2 1 Z " fill="#111111" transform="translate(98,9)"/>
<path d="M0 0 C2 1 2 1 2 1 Z " fill="#141414" transform="translate(214,8)"/>
<path d="M0 0 C2 1 2 1 2 1 Z " fill="#141414" transform="translate(100,8)"/>
<path d="" fill="#171717" transform="translate(0,0)"/>
<path d="" fill="#171717" transform="translate(0,0)"/>
<path d="" fill="#171717" transform="translate(0,0)"/>
<path d="" fill="#171717" transform="translate(0,0)"/>
<path d="" fill="#0B0B0B" transform="translate(0,0)"/>
<path d="" fill="#0B0B0B" transform="translate(0,0)"/>
<path d="" fill="#121212" transform="translate(0,0)"/>
<path d="" fill="#121212" transform="translate(0,0)"/>
<path d="" fill="#121212" transform="translate(0,0)"/>
<path d="" fill="#121212" transform="translate(0,0)"/>
<path d="" fill="#121212" transform="translate(0,0)"/>
<path d="" fill="#121212" transform="translate(0,0)"/>
<path d="" fill="#0B0B0B" transform="translate(0,0)"/>
<path d="" fill="#0B0B0B" transform="translate(0,0)"/>
<path d="" fill="#0B0B0B" transform="translate(0,0)"/>
<path d="" fill="#0B0B0B" transform="translate(0,0)"/>
<path d="" fill="#171717" transform="translate(0,0)"/>
<path d="" fill="#171717" transform="translate(0,0)"/>
<path d="" fill="#121212" transform="translate(0,0)"/>
<path d="" fill="#121212" transform="translate(0,0)"/>
<path d="" fill="#121212" transform="translate(0,0)"/>
<path d="" fill="#121212" transform="translate(0,0)"/>
<path d="" fill="#121212" transform="translate(0,0)"/>
<path d="" fill="#121212" transform="translate(0,0)"/>
<path d="" fill="#171717" transform="translate(0,0)"/>
<path d="" fill="#171717" transform="translate(0,0)"/>
<path d="" fill="#0B0B0B" transform="translate(0,0)"/>
<path d="" fill="#0B0B0B" transform="translate(0,0)"/>
<path d="" fill="#121212" transform="translate(0,0)"/>
<path d="" fill="#121212" transform="translate(0,0)"/>
<path d="" fill="#121212" transform="translate(0,0)"/>
<path d="" fill="#121212" transform="translate(0,0)"/>
<path d="" fill="#171717" transform="translate(0,0)"/>
<path d="" fill="#171717" transform="translate(0,0)"/>
<path d="" fill="#121212" transform="translate(0,0)"/>
<path d="" fill="#121212" transform="translate(0,0)"/>
<path d="" fill="#121212" transform="translate(0,0)"/>
<path d="" fill="#121212" transform="translate(0,0)"/>
<path d="" fill="#171717" transform="translate(0,0)"/>
<path d="" fill="#171717" transform="translate(0,0)"/>
<path d="" fill="#121212" transform="translate(0,0)"/>
<path d="" fill="#121212" transform="translate(0,0)"/>
<path d="" fill="#121212" transform="translate(0,0)"/>
<path d="" fill="#121212" transform="translate(0,0)"/>
<path d="" fill="#0B0B0B" transform="translate(0,0)"/>
<path d="" fill="#0B0B0B" transform="translate(0,0)"/>
<path d="" fill="#171717" transform="translate(0,0)"/>
<path d="" fill="#171717" transform="translate(0,0)"/>
<path d="" fill="#121212" transform="translate(0,0)"/>
<path d="" fill="#121212" transform="translate(0,0)"/>
<path d="" fill="#121212" transform="translate(0,0)"/>
<path d="" fill="#121212" transform="translate(0,0)"/>
<path d="" fill="#121212" transform="translate(0,0)"/>
<path d="" fill="#121212" transform="translate(0,0)"/>
<path d="" fill="#171717" transform="translate(0,0)"/>
<path d="" fill="#171717" transform="translate(0,0)"/>
<path d="" fill="#0B0B0B" transform="translate(0,0)"/>
<path d="" fill="#0B0B0B" transform="translate(0,0)"/>
<path d="" fill="#0B0B0B" transform="translate(0,0)"/>
<path d="" fill="#0B0B0B" transform="translate(0,0)"/>
<path d="" fill="#121212" transform="translate(0,0)"/>
<path d="" fill="#121212" transform="translate(0,0)"/>
<path d="" fill="#121212" transform="translate(0,0)"/>
<path d="" fill="#121212" transform="translate(0,0)"/>
<path d="" fill="#121212" transform="translate(0,0)"/>
<path d="" fill="#121212" transform="translate(0,0)"/>
<path d="" fill="#0B0B0B" transform="translate(0,0)"/>
<path d="" fill="#0B0B0B" transform="translate(0,0)"/>
<path d="" fill="#171717" transform="translate(0,0)"/>
<path d="" fill="#171717" transform="translate(0,0)"/>
<path d="" fill="#171717" transform="translate(0,0)"/>
<path d="" fill="#171717" transform="translate(0,0)"/>
</svg>
